solid OpenSCAD_Model
  facet normal -1 0 0
    outer loop
      vertex 0 74 4
      vertex 0 83 8.85
      vertex 0 83 0
    endloop
  endfacet
  facet normal -1 -0 0
    outer loop
      vertex 0 83 8.85
      vertex 0 74 4
      vertex 0 79.85 12
    endloop
  endfacet
  facet normal -1 0 0
    outer loop
      vertex 0 0 0
      vertex 0 74 4
      vertex 0 83 0
    endloop
  endfacet
  facet normal -1 -0 0
    outer loop
      vertex 0 74 4
      vertex 0 0 0
      vertex 0 0 4
    endloop
  endfacet
  facet normal -1 -0 0
    outer loop
      vertex 0 79.85 12
      vertex 0 74 4
      vertex 0 74 12
    endloop
  endfacet
  facet normal 0 0 1
    outer loop
      vertex 23 79.85 12
      vertex 20.05 74 12
      vertex 23 74 12
    endloop
  endfacet
  facet normal -0 0 1
    outer loop
      vertex 18.5 79.85 12
      vertex 20.05 74 12
      vertex 23 79.85 12
    endloop
  endfacet
  facet normal 0 0 1
    outer loop
      vertex 20.05 74 12
      vertex 18.5 79.85 12
      vertex 18.5 74 12
    endloop
  endfacet
  facet normal -0 0 1
    outer loop
      vertex 0 79.85 12
      vertex 4.5 74 12
      vertex 4.5 79.85 12
    endloop
  endfacet
  facet normal 0 0 1
    outer loop
      vertex 4.5 74 12
      vertex 0 79.85 12
      vertex 0 74 12
    endloop
  endfacet
  facet normal 1 0 0
    outer loop
      vertex 23 74 4
      vertex 23 83 8.85
      vertex 23 79.85 12
    endloop
  endfacet
  facet normal 1 0 0
    outer loop
      vertex 23 74 4
      vertex 23 79.85 12
      vertex 23 74 12
    endloop
  endfacet
  facet normal 1 0 0
    outer loop
      vertex 23 83 8.85
      vertex 23 74 4
      vertex 23 83 0
    endloop
  endfacet
  facet normal 1 0 0
    outer loop
      vertex 23 0 0
      vertex 23 74 4
      vertex 23 0 4
    endloop
  endfacet
  facet normal 1 0 0
    outer loop
      vertex 23 74 4
      vertex 23 0 0
      vertex 23 83 0
    endloop
  endfacet
  facet normal 0 1 -0
    outer loop
      vertex 23 83 0
      vertex 0 83 8.85
      vertex 23 83 8.85
    endloop
  endfacet
  facet normal 0 1 0
    outer loop
      vertex 0 83 8.85
      vertex 23 83 0
      vertex 0 83 0
    endloop
  endfacet
  facet normal -0 0 -1
    outer loop
      vertex 8.36074 61.9588 0
      vertex 8.14124 60.1483 0
      vertex 8.25 62.8 0
    endloop
  endfacet
  facet normal -0 0 -1
    outer loop
      vertex 8.68542 61.175 0
      vertex 8.14124 60.1483 0
      vertex 8.36074 61.9588 0
    endloop
  endfacet
  facet normal 0 0 -1
    outer loop
      vertex 8.14124 60.1483 0
      vertex 8.68542 61.175 0
      vertex 8.8949 60.902 0
    endloop
  endfacet
  facet normal 0 0 -1
    outer loop
      vertex 8.68542 64.425 0
      vertex 8.14124 65.4517 0
      vertex 8.8949 64.698 0
    endloop
  endfacet
  facet normal 0 0 -1
    outer loop
      vertex 8.36074 63.6412 0
      vertex 8.14124 65.4517 0
      vertex 8.68542 64.425 0
    endloop
  endfacet
  facet normal 0 0 -1
    outer loop
      vertex 8.25 62.8 0
      vertex 8.14124 65.4517 0
      vertex 8.36074 63.6412 0
    endloop
  endfacet
  facet normal 0 0 -1
    outer loop
      vertex 0 83 0
      vertex 8.25 62.8 0
      vertex 8.14124 60.1483 0
    endloop
  endfacet
  facet normal 0 0 -1
    outer loop
      vertex 23 83 0
      vertex 14.75 74.5 0
      vertex 14.8588 77.1516 0
    endloop
  endfacet
  facet normal 0 0 -1
    outer loop
      vertex 14.8588 71.8484 0
      vertex 14.6393 73.6588 0
      vertex 14.75 74.5 0
    endloop
  endfacet
  facet normal 0 0 -1
    outer loop
      vertex 14.8588 71.8484 0
      vertex 14.3146 72.875 0
      vertex 14.6393 73.6588 0
    endloop
  endfacet
  facet normal 0 -0 -1
    outer loop
      vertex 14.3146 72.875 0
      vertex 14.8588 71.8484 0
      vertex 14.1051 72.602 0
    endloop
  endfacet
  facet normal 0 0 -1
    outer loop
      vertex 14.1517 66.1588 0
      vertex 14.8588 71.8484 0
      vertex 14.8588 65.4517 0
    endloop
  endfacet
  facet normal 0 0 -1
    outer loop
      vertex 14.1517 66.1588 0
      vertex 14.1517 71.1412 0
      vertex 14.8588 71.8484 0
    endloop
  endfacet
  facet normal 0 0 -1
    outer loop
      vertex 13.125 65.6146 0
      vertex 14.1517 66.1588 0
      vertex 13.398 65.4051 0
    endloop
  endfacet
  facet normal 0 0 -1
    outer loop
      vertex 12.3412 65.9393 0
      vertex 14.1517 66.1588 0
      vertex 13.125 65.6146 0
    endloop
  endfacet
  facet normal -0 0 -1
    outer loop
      vertex 14.1517 66.1588 0
      vertex 12.3412 65.9393 0
      vertex 14.1517 71.1412 0
    endloop
  endfacet
  facet normal 0 0 -1
    outer loop
      vertex 14.1517 71.1412 0
      vertex 13.125 71.6854 0
      vertex 13.398 71.8949 0
    endloop
  endfacet
  facet normal 0 0 -1
    outer loop
      vertex 12.3412 71.3607 0
      vertex 14.1517 71.1412 0
      vertex 12.3412 65.9393 0
    endloop
  endfacet
  facet normal 0 0 -1
    outer loop
      vertex 14.1517 71.1412 0
      vertex 12.3412 71.3607 0
      vertex 13.125 71.6854 0
    endloop
  endfacet
  facet normal 0 0 -1
    outer loop
      vertex 11.5 66.05 0
      vertex 12.3412 71.3607 0
      vertex 12.3412 65.9393 0
    endloop
  endfacet
  facet normal 0 0 -1
    outer loop
      vertex 11.5 66.05 0
      vertex 11.5 71.25 0
      vertex 12.3412 71.3607 0
    endloop
  endfacet
  facet normal 0 0 -1
    outer loop
      vertex 10.6588 65.9393 0
      vertex 11.5 71.25 0
      vertex 11.5 66.05 0
    endloop
  endfacet
  facet normal 0 0 -1
    outer loop
      vertex 10.6588 65.9393 0
      vertex 10.6588 71.3607 0
      vertex 11.5 71.25 0
    endloop
  endfacet
  facet normal 0 0 -1
    outer loop
      vertex 8.84835 66.1588 0
      vertex 10.6588 65.9393 0
      vertex 9.875 65.6146 0
    endloop
  endfacet
  facet normal 0 0 -1
    outer loop
      vertex 10.6588 65.9393 0
      vertex 8.84835 66.1588 0
      vertex 10.6588 71.3607 0
    endloop
  endfacet
  facet normal 0 0 -1
    outer loop
      vertex 8.84835 66.1588 0
      vertex 9.875 65.6146 0
      vertex 9.602 65.4051 0
    endloop
  endfacet
  facet normal 0 0 -1
    outer loop
      vertex 8.84835 71.1412 0
      vertex 10.6588 71.3607 0
      vertex 8.84835 66.1588 0
    endloop
  endfacet
  facet normal -0 0 -1
    outer loop
      vertex 10.6588 71.3607 0
      vertex 8.84835 71.1412 0
      vertex 9.875 71.6854 0
    endloop
  endfacet
  facet normal -0 0 -1
    outer loop
      vertex 9.875 71.6854 0
      vertex 8.84835 71.1412 0
      vertex 9.602 71.8949 0
    endloop
  endfacet
  facet normal 0 0 -1
    outer loop
      vertex 8.14124 65.4517 0
      vertex 8.84835 71.1412 0
      vertex 8.84835 66.1588 0
    endloop
  endfacet
  facet normal -0 0 -1
    outer loop
      vertex 8.84835 71.1412 0
      vertex 8.14124 65.4517 0
      vertex 8.14124 71.8484 0
    endloop
  endfacet
  facet normal 0 0 -1
    outer loop
      vertex 23 83 0
      vertex 14.75 62.8 0
      vertex 14.8588 65.4517 0
    endloop
  endfacet
  facet normal 0 0 -1
    outer loop
      vertex 14.8588 60.1483 0
      vertex 14.6393 61.9588 0
      vertex 14.75 62.8 0
    endloop
  endfacet
  facet normal 0 0 -1
    outer loop
      vertex 14.8588 60.1483 0
      vertex 14.3146 61.175 0
      vertex 14.6393 61.9588 0
    endloop
  endfacet
  facet normal 0 -0 -1
    outer loop
      vertex 14.3146 61.175 0
      vertex 14.8588 60.1483 0
      vertex 14.1051 60.902 0
    endloop
  endfacet
  facet normal 0 0 -1
    outer loop
      vertex 14.3284 32.8284 0
      vertex 14.8588 60.1483 0
      vertex 14.9641 32 0
    endloop
  endfacet
  facet normal 0 0 -1
    outer loop
      vertex 14.3284 32.8284 0
      vertex 14.1517 59.4412 0
      vertex 14.8588 60.1483 0
    endloop
  endfacet
  facet normal 0 0 -1
    outer loop
      vertex 13.5 33.4641 0
      vertex 14.1517 59.4412 0
      vertex 14.3284 32.8284 0
    endloop
  endfacet
  facet normal 0 0 -1
    outer loop
      vertex 12.5353 33.8637 0
      vertex 14.1517 59.4412 0
      vertex 13.5 33.4641 0
    endloop
  endfacet
  facet normal 0 0 -1
    outer loop
      vertex 14.1517 59.4412 0
      vertex 13.125 59.9854 0
      vertex 13.398 60.1949 0
    endloop
  endfacet
  facet normal 0 0 -1
    outer loop
      vertex 11.5 34 0
      vertex 14.1517 59.4412 0
      vertex 12.5353 33.8637 0
    endloop
  endfacet
  facet normal 0 0 -1
    outer loop
      vertex 14.1517 59.4412 0
      vertex 12.3412 59.6607 0
      vertex 13.125 59.9854 0
    endloop
  endfacet
  facet normal 0 0 -1
    outer loop
      vertex 11.5 59.55 0
      vertex 14.1517 59.4412 0
      vertex 11.5 34 0
    endloop
  endfacet
  facet normal 0 0 -1
    outer loop
      vertex 14.1517 59.4412 0
      vertex 11.5 59.55 0
      vertex 12.3412 59.6607 0
    endloop
  endfacet
  facet normal 0 0 -1
    outer loop
      vertex 8.84835 59.4412 0
      vertex 11.5 59.55 0
      vertex 11.5 34 0
    endloop
  endfacet
  facet normal 0 0 -1
    outer loop
      vertex 8.84835 59.4412 0
      vertex 11.5 34 0
      vertex 10.4647 33.8637 0
    endloop
  endfacet
  facet normal -0 0 -1
    outer loop
      vertex 11.5 59.55 0
      vertex 8.84835 59.4412 0
      vertex 10.6588 59.6607 0
    endloop
  endfacet
  facet normal -0 0 -1
    outer loop
      vertex 10.6588 59.6607 0
      vertex 8.84835 59.4412 0
      vertex 9.875 59.9854 0
    endloop
  endfacet
  facet normal 0 0 -1
    outer loop
      vertex 8.84835 59.4412 0
      vertex 10.4647 33.8637 0
      vertex 9.5 33.4641 0
    endloop
  endfacet
  facet normal -0 0 -1
    outer loop
      vertex 9.875 59.9854 0
      vertex 8.84835 59.4412 0
      vertex 9.602 60.1949 0
    endloop
  endfacet
  facet normal 0 0 -1
    outer loop
      vertex 8.67157 32.8284 0
      vertex 8.84835 59.4412 0
      vertex 9.5 33.4641 0
    endloop
  endfacet
  facet normal 0 0 -1
    outer loop
      vertex 8.67157 32.8284 0
      vertex 8.14124 60.1483 0
      vertex 8.84835 59.4412 0
    endloop
  endfacet
  facet normal 0 0 -1
    outer loop
      vertex 8.25 62.8 0
      vertex 0 83 0
      vertex 8.14124 65.4517 0
    endloop
  endfacet
  facet normal 0 0 -1
    outer loop
      vertex 8.14124 65.4517 0
      vertex 0 83 0
      vertex 8.14124 71.8484 0
    endloop
  endfacet
  facet normal 0 0 -1
    outer loop
      vertex 7.6363 31.0353 0
      vertex 8.14124 60.1483 0
      vertex 8.0359 32 0
    endloop
  endfacet
  facet normal 0 0 -1
    outer loop
      vertex 8.0359 32 0
      vertex 8.14124 60.1483 0
      vertex 8.67157 32.8284 0
    endloop
  endfacet
  facet normal 0 0 -1
    outer loop
      vertex 23 0 0
      vertex 15.5 30 0
      vertex 23 83 0
    endloop
  endfacet
  facet normal 0 0 -1
    outer loop
      vertex 23 0 0
      vertex 15.3637 28.9647 0
      vertex 15.5 30 0
    endloop
  endfacet
  facet normal 0 0 -1
    outer loop
      vertex 23 0 0
      vertex 14.9641 28 0
      vertex 15.3637 28.9647 0
    endloop
  endfacet
  facet normal 0 0 -1
    outer loop
      vertex 23 0 0
      vertex 14.3284 27.1716 0
      vertex 14.9641 28 0
    endloop
  endfacet
  facet normal 0 0 -1
    outer loop
      vertex 23 0 0
      vertex 13.5 26.5359 0
      vertex 14.3284 27.1716 0
    endloop
  endfacet
  facet normal 0 0 -1
    outer loop
      vertex 23 0 0
      vertex 12.5353 26.1363 0
      vertex 13.5 26.5359 0
    endloop
  endfacet
  facet normal 0 0 -1
    outer loop
      vertex 23 0 0
      vertex 11.5 26 0
      vertex 12.5353 26.1363 0
    endloop
  endfacet
  facet normal 0 0 -1
    outer loop
      vertex 0 0 0
      vertex 11.5 26 0
      vertex 23 0 0
    endloop
  endfacet
  facet normal -0 0 -1
    outer loop
      vertex 11.5 26 0
      vertex 0 0 0
      vertex 10.4647 26.1363 0
    endloop
  endfacet
  facet normal -0 0 -1
    outer loop
      vertex 10.4647 26.1363 0
      vertex 0 0 0
      vertex 9.5 26.5359 0
    endloop
  endfacet
  facet normal -0 0 -1
    outer loop
      vertex 9.5 26.5359 0
      vertex 0 0 0
      vertex 8.67157 27.1716 0
    endloop
  endfacet
  facet normal -0 0 -1
    outer loop
      vertex 7.6363 28.9647 0
      vertex 0 0 0
      vertex 7.5 30 0
    endloop
  endfacet
  facet normal -0 0 -1
    outer loop
      vertex 8.0359 28 0
      vertex 0 0 0
      vertex 7.6363 28.9647 0
    endloop
  endfacet
  facet normal -0 0 -1
    outer loop
      vertex 8.67157 27.1716 0
      vertex 0 0 0
      vertex 8.0359 28 0
    endloop
  endfacet
  facet normal 0 0 -1
    outer loop
      vertex 15.3637 31.0353 0
      vertex 23 83 0
      vertex 15.5 30 0
    endloop
  endfacet
  facet normal 0 0 -1
    outer loop
      vertex 14.8588 60.1483 0
      vertex 15.3637 31.0353 0
      vertex 14.9641 32 0
    endloop
  endfacet
  facet normal 0 0 -1
    outer loop
      vertex 15.3637 31.0353 0
      vertex 14.8588 60.1483 0
      vertex 23 83 0
    endloop
  endfacet
  facet normal 0 0 -1
    outer loop
      vertex 14.75 62.8 0
      vertex 23 83 0
      vertex 14.8588 60.1483 0
    endloop
  endfacet
  facet normal 0 0 -1
    outer loop
      vertex 14.8588 71.8484 0
      vertex 23 83 0
      vertex 14.8588 65.4517 0
    endloop
  endfacet
  facet normal 0 0 -1
    outer loop
      vertex 14.75 74.5 0
      vertex 23 83 0
      vertex 14.8588 71.8484 0
    endloop
  endfacet
  facet normal 0 0 -1
    outer loop
      vertex 14.1517 77.8588 0
      vertex 23 83 0
      vertex 14.8588 77.1516 0
    endloop
  endfacet
  facet normal 0 0 -1
    outer loop
      vertex 13.125 77.3146 0
      vertex 14.1517 77.8588 0
      vertex 13.398 77.1051 0
    endloop
  endfacet
  facet normal 0 0 -1
    outer loop
      vertex 12.3412 77.6393 0
      vertex 14.1517 77.8588 0
      vertex 13.125 77.3146 0
    endloop
  endfacet
  facet normal 0 0 -1
    outer loop
      vertex 11.5 77.75 0
      vertex 14.1517 77.8588 0
      vertex 12.3412 77.6393 0
    endloop
  endfacet
  facet normal -0 0 -1
    outer loop
      vertex 14.1517 77.8588 0
      vertex 11.5 77.75 0
      vertex 23 83 0
    endloop
  endfacet
  facet normal 0 0 -1
    outer loop
      vertex 8.84835 77.8588 0
      vertex 11.5 77.75 0
      vertex 10.6588 77.6393 0
    endloop
  endfacet
  facet normal 0 0 -1
    outer loop
      vertex 8.84835 77.8588 0
      vertex 10.6588 77.6393 0
      vertex 9.875 77.3146 0
    endloop
  endfacet
  facet normal 0 0 -1
    outer loop
      vertex 8.84835 77.8588 0
      vertex 9.875 77.3146 0
      vertex 9.602 77.1051 0
    endloop
  endfacet
  facet normal 0 0 -1
    outer loop
      vertex 0 83 0
      vertex 11.5 77.75 0
      vertex 8.84835 77.8588 0
    endloop
  endfacet
  facet normal -0 0 -1
    outer loop
      vertex 8.14124 60.1483 0
      vertex 7.6363 31.0353 0
      vertex 0 83 0
    endloop
  endfacet
  facet normal 0 0 -1
    outer loop
      vertex 0 83 0
      vertex 7.6363 31.0353 0
      vertex 7.5 30 0
    endloop
  endfacet
  facet normal 0 0 -1
    outer loop
      vertex 0 83 0
      vertex 7.5 30 0
      vertex 0 0 0
    endloop
  endfacet
  facet normal 0 0 -1
    outer loop
      vertex 11.5 77.75 0
      vertex 0 83 0
      vertex 23 83 0
    endloop
  endfacet
  facet normal 0 0 -1
    outer loop
      vertex 8.14124 77.1516 0
      vertex 0 83 0
      vertex 8.84835 77.8588 0
    endloop
  endfacet
  facet normal 0 0 -1
    outer loop
      vertex 8.14124 71.8484 0
      vertex 0 83 0
      vertex 8.14124 77.1516 0
    endloop
  endfacet
  facet normal 0 0 -1
    outer loop
      vertex 14.6393 63.6412 0
      vertex 14.8588 65.4517 0
      vertex 14.75 62.8 0
    endloop
  endfacet
  facet normal 0 0 -1
    outer loop
      vertex 14.3146 64.425 0
      vertex 14.8588 65.4517 0
      vertex 14.6393 63.6412 0
    endloop
  endfacet
  facet normal 0 0 -1
    outer loop
      vertex 14.8588 65.4517 0
      vertex 14.3146 64.425 0
      vertex 14.1051 64.698 0
    endloop
  endfacet
  facet normal 0 0 -1
    outer loop
      vertex 14.6393 75.3412 0
      vertex 14.8588 77.1516 0
      vertex 14.75 74.5 0
    endloop
  endfacet
  facet normal 0 0 -1
    outer loop
      vertex 14.3146 76.125 0
      vertex 14.8588 77.1516 0
      vertex 14.6393 75.3412 0
    endloop
  endfacet
  facet normal 0 0 -1
    outer loop
      vertex 14.8588 77.1516 0
      vertex 14.3146 76.125 0
      vertex 14.1051 76.398 0
    endloop
  endfacet
  facet normal -0 0 -1
    outer loop
      vertex 8.36074 73.6588 0
      vertex 8.14124 71.8484 0
      vertex 8.25 74.5 0
    endloop
  endfacet
  facet normal -0 0 -1
    outer loop
      vertex 8.68542 72.875 0
      vertex 8.14124 71.8484 0
      vertex 8.36074 73.6588 0
    endloop
  endfacet
  facet normal 0 0 -1
    outer loop
      vertex 8.14124 71.8484 0
      vertex 8.68542 72.875 0
      vertex 8.8949 72.602 0
    endloop
  endfacet
  facet normal 0 0 -1
    outer loop
      vertex 8.68542 76.125 0
      vertex 8.14124 77.1516 0
      vertex 8.8949 76.398 0
    endloop
  endfacet
  facet normal 0 0 -1
    outer loop
      vertex 8.36074 75.3412 0
      vertex 8.14124 77.1516 0
      vertex 8.68542 76.125 0
    endloop
  endfacet
  facet normal 0 0 -1
    outer loop
      vertex 8.25 74.5 0
      vertex 8.14124 77.1516 0
      vertex 8.36074 75.3412 0
    endloop
  endfacet
  facet normal 0 0 -1
    outer loop
      vertex 8.14124 77.1516 0
      vertex 8.25 74.5 0
      vertex 8.14124 71.8484 0
    endloop
  endfacet
  facet normal 0 -1 0
    outer loop
      vertex 20.05 74 4
      vertex 23 74 12
      vertex 20.05 74 12
    endloop
  endfacet
  facet normal 0 -1 -0
    outer loop
      vertex 23 74 12
      vertex 20.05 74 4
      vertex 23 74 4
    endloop
  endfacet
  facet normal 0 -1 0
    outer loop
      vertex 0 74 4
      vertex 4.5 74 12
      vertex 0 74 12
    endloop
  endfacet
  facet normal 0 -1 -0
    outer loop
      vertex 4.5 74 12
      vertex 0 74 4
      vertex 4.5 74 4
    endloop
  endfacet
  facet normal 0 1 -0
    outer loop
      vertex 20.05 74 12
      vertex 18.5 74 14
      vertex 20.05 74 14
    endloop
  endfacet
  facet normal 0 1 0
    outer loop
      vertex 18.5 74 14
      vertex 20.05 74 12
      vertex 18.5 74 12
    endloop
  endfacet
  facet normal 7.13597e-08 0.707107 0.707107
    outer loop
      vertex 23 83 8.85
      vertex 18.5 81.5 10.35
      vertex 23 79.85 12
    endloop
  endfacet
  facet normal 0 0.707107 0.707107
    outer loop
      vertex 23 83 8.85
      vertex 4.5 81.5 10.35
      vertex 18.5 81.5 10.35
    endloop
  endfacet
  facet normal -0 0.707107 0.707107
    outer loop
      vertex 0 83 8.85
      vertex 4.5 81.5 10.35
      vertex 23 83 8.85
    endloop
  endfacet
  facet normal -7.13597e-08 0.707107 0.707107
    outer loop
      vertex 0 79.85 12
      vertex 4.5 81.5 10.35
      vertex 0 83 8.85
    endloop
  endfacet
  facet normal 0 0.707107 0.707107
    outer loop
      vertex 4.5 81.5 10.35
      vertex 0 79.85 12
      vertex 4.5 79.85 12
    endloop
  endfacet
  facet normal 0 0.707107 0.707107
    outer loop
      vertex 23 79.85 12
      vertex 18.5 81.5 10.35
      vertex 18.5 79.85 12
    endloop
  endfacet
  facet normal 0 0 1
    outer loop
      vertex 4.5 74 4
      vertex 0 74 4
      vertex 4.5 67.5 4
    endloop
  endfacet
  facet normal 0 0 1
    outer loop
      vertex 18.25 67.5 4
      vertex 14.75 62.8 4
      vertex 14.8588 60.1483 4
    endloop
  endfacet
  facet normal 0 0 1
    outer loop
      vertex 18.25 67.5 4
      vertex 14.6393 63.6412 4
      vertex 14.75 62.8 4
    endloop
  endfacet
  facet normal 0 0 1
    outer loop
      vertex 14.8588 65.4517 4
      vertex 14.3146 64.425 4
      vertex 14.6393 63.6412 4
    endloop
  endfacet
  facet normal 0 -0 1
    outer loop
      vertex 14.3146 64.425 4
      vertex 14.8588 65.4517 4
      vertex 14.1051 64.698 4
    endloop
  endfacet
  facet normal 0 0 1
    outer loop
      vertex 18.25 67.5 4
      vertex 15.5 30 4
      vertex 18.25 12 4
    endloop
  endfacet
  facet normal 0 0 1
    outer loop
      vertex 18.25 67.5 4
      vertex 15.3637 31.0353 4
      vertex 15.5 30 4
    endloop
  endfacet
  facet normal -0 0 1
    outer loop
      vertex 14.8588 60.1483 4
      vertex 15.3637 31.0353 4
      vertex 18.25 67.5 4
    endloop
  endfacet
  facet normal 0 0 1
    outer loop
      vertex 14.6393 63.6412 4
      vertex 18.25 67.5 4
      vertex 14.8588 65.4517 4
    endloop
  endfacet
  facet normal 0 0 1
    outer loop
      vertex 18.25 67.5 4
      vertex 14.1517 66.1588 4
      vertex 14.8588 65.4517 4
    endloop
  endfacet
  facet normal 0 0 1
    outer loop
      vertex 14.1517 66.1588 4
      vertex 13.125 65.6146 4
      vertex 13.398 65.4051 4
    endloop
  endfacet
  facet normal 0 0 1
    outer loop
      vertex 14.1517 66.1588 4
      vertex 12.3412 65.9393 4
      vertex 13.125 65.6146 4
    endloop
  endfacet
  facet normal 0 0 1
    outer loop
      vertex 11.5 66.05 4
      vertex 14.1517 66.1588 4
      vertex 18.25 67.5 4
    endloop
  endfacet
  facet normal 0 0 1
    outer loop
      vertex 14.1517 66.1588 4
      vertex 11.5 66.05 4
      vertex 12.3412 65.9393 4
    endloop
  endfacet
  facet normal -0 0 1
    outer loop
      vertex 4.5 67.5 4
      vertex 11.5 66.05 4
      vertex 18.25 67.5 4
    endloop
  endfacet
  facet normal 0 0 1
    outer loop
      vertex 9.875 65.6146 4
      vertex 8.84835 66.1588 4
      vertex 9.602 65.4051 4
    endloop
  endfacet
  facet normal 0 0 1
    outer loop
      vertex 10.6588 65.9393 4
      vertex 8.84835 66.1588 4
      vertex 9.875 65.6146 4
    endloop
  endfacet
  facet normal 0 0 1
    outer loop
      vertex 11.5 66.05 4
      vertex 8.84835 66.1588 4
      vertex 10.6588 65.9393 4
    endloop
  endfacet
  facet normal 0 0 1
    outer loop
      vertex 8.25 62.8 4
      vertex 4.5 67.5 4
      vertex 8.14124 60.1483 4
    endloop
  endfacet
  facet normal 0 -0 1
    outer loop
      vertex 7.6363 31.0353 4
      vertex 8.14124 60.1483 4
      vertex 4.5 67.5 4
    endloop
  endfacet
  facet normal 0 0 1
    outer loop
      vertex 8.14124 60.1483 4
      vertex 7.6363 31.0353 4
      vertex 8.0359 32 4
    endloop
  endfacet
  facet normal 0 0 1
    outer loop
      vertex 0 74 4
      vertex 7.6363 31.0353 4
      vertex 4.5 67.5 4
    endloop
  endfacet
  facet normal 0 0 1
    outer loop
      vertex 8.84835 66.1588 4
      vertex 4.5 67.5 4
      vertex 8.14124 65.4517 4
    endloop
  endfacet
  facet normal 0 0 1
    outer loop
      vertex 11.5 66.05 4
      vertex 4.5 67.5 4
      vertex 8.84835 66.1588 4
    endloop
  endfacet
  facet normal 0 0 1
    outer loop
      vertex 20.05 12 4
      vertex 23 74 4
      vertex 20.05 74 4
    endloop
  endfacet
  facet normal 0 0 1
    outer loop
      vertex 23 74 4
      vertex 20.05 12 4
      vertex 23 0 4
    endloop
  endfacet
  facet normal -0 0 1
    outer loop
      vertex 18.25 12 4
      vertex 23 0 4
      vertex 20.05 12 4
    endloop
  endfacet
  facet normal -0 0 1
    outer loop
      vertex 15.3637 28.9647 4
      vertex 18.25 12 4
      vertex 15.5 30 4
    endloop
  endfacet
  facet normal -0 0 1
    outer loop
      vertex 14.9641 28 4
      vertex 18.25 12 4
      vertex 15.3637 28.9647 4
    endloop
  endfacet
  facet normal -0 0 1
    outer loop
      vertex 14.3284 27.1716 4
      vertex 18.25 12 4
      vertex 14.9641 28 4
    endloop
  endfacet
  facet normal -0 0 1
    outer loop
      vertex 13.5 26.5359 4
      vertex 18.25 12 4
      vertex 14.3284 27.1716 4
    endloop
  endfacet
  facet normal -0 0 1
    outer loop
      vertex 12.5353 26.1363 4
      vertex 18.25 12 4
      vertex 13.5 26.5359 4
    endloop
  endfacet
  facet normal -0 0 1
    outer loop
      vertex 11.5 26 4
      vertex 18.25 12 4
      vertex 12.5353 26.1363 4
    endloop
  endfacet
  facet normal 0 0 1
    outer loop
      vertex 10.4647 26.1363 4
      vertex 18.25 12 4
      vertex 11.5 26 4
    endloop
  endfacet
  facet normal 0 0 1
    outer loop
      vertex 9.5 26.5359 4
      vertex 18.25 12 4
      vertex 10.4647 26.1363 4
    endloop
  endfacet
  facet normal 0 0 1
    outer loop
      vertex 18.25 12 4
      vertex 9.5 26.5359 4
      vertex 0 0 4
    endloop
  endfacet
  facet normal 0 0 1
    outer loop
      vertex 0 0 4
      vertex 9.5 26.5359 4
      vertex 8.67157 27.1716 4
    endloop
  endfacet
  facet normal 0 0 1
    outer loop
      vertex 0 0 4
      vertex 8.67157 27.1716 4
      vertex 8.0359 28 4
    endloop
  endfacet
  facet normal 0 0 1
    outer loop
      vertex 7.6363 31.0353 4
      vertex 0 74 4
      vertex 7.5 30 4
    endloop
  endfacet
  facet normal 0 0 1
    outer loop
      vertex 0 0 4
      vertex 7.5 30 4
      vertex 0 74 4
    endloop
  endfacet
  facet normal 0 0 1
    outer loop
      vertex 18.25 12 4
      vertex 0 0 4
      vertex 23 0 4
    endloop
  endfacet
  facet normal 0 0 1
    outer loop
      vertex 7.6363 28.9647 4
      vertex 0 0 4
      vertex 8.0359 28 4
    endloop
  endfacet
  facet normal 0 0 1
    outer loop
      vertex 7.5 30 4
      vertex 0 0 4
      vertex 7.6363 28.9647 4
    endloop
  endfacet
  facet normal 0 0 1
    outer loop
      vertex 15.3637 31.0353 4
      vertex 14.8588 60.1483 4
      vertex 14.9641 32 4
    endloop
  endfacet
  facet normal 0 0 1
    outer loop
      vertex 14.8588 60.1483 4
      vertex 14.3284 32.8284 4
      vertex 14.9641 32 4
    endloop
  endfacet
  facet normal -0 0 1
    outer loop
      vertex 14.1517 59.4412 4
      vertex 14.3284 32.8284 4
      vertex 14.8588 60.1483 4
    endloop
  endfacet
  facet normal 0 0 1
    outer loop
      vertex 14.1517 59.4412 4
      vertex 13.5 33.4641 4
      vertex 14.3284 32.8284 4
    endloop
  endfacet
  facet normal -0 0 1
    outer loop
      vertex 13.125 59.9854 4
      vertex 14.1517 59.4412 4
      vertex 13.398 60.1949 4
    endloop
  endfacet
  facet normal -0 0 1
    outer loop
      vertex 12.3412 59.6607 4
      vertex 14.1517 59.4412 4
      vertex 13.125 59.9854 4
    endloop
  endfacet
  facet normal 0 0 1
    outer loop
      vertex 14.1517 59.4412 4
      vertex 12.5353 33.8637 4
      vertex 13.5 33.4641 4
    endloop
  endfacet
  facet normal -0 0 1
    outer loop
      vertex 11.5 59.55 4
      vertex 14.1517 59.4412 4
      vertex 12.3412 59.6607 4
    endloop
  endfacet
  facet normal 0 0 1
    outer loop
      vertex 11.5 34 4
      vertex 14.1517 59.4412 4
      vertex 11.5 59.55 4
    endloop
  endfacet
  facet normal 0 0 1
    outer loop
      vertex 14.1517 59.4412 4
      vertex 11.5 34 4
      vertex 12.5353 33.8637 4
    endloop
  endfacet
  facet normal 0 0 1
    outer loop
      vertex 8.84835 59.4412 4
      vertex 11.5 59.55 4
      vertex 10.6588 59.6607 4
    endloop
  endfacet
  facet normal 0 0 1
    outer loop
      vertex 11.5 59.55 4
      vertex 8.84835 59.4412 4
      vertex 11.5 34 4
    endloop
  endfacet
  facet normal 0 0 1
    outer loop
      vertex 8.84835 59.4412 4
      vertex 10.6588 59.6607 4
      vertex 9.875 59.9854 4
    endloop
  endfacet
  facet normal 0 0 1
    outer loop
      vertex 8.84835 59.4412 4
      vertex 9.875 59.9854 4
      vertex 9.602 60.1949 4
    endloop
  endfacet
  facet normal 0 0 1
    outer loop
      vertex 11.5 34 4
      vertex 8.84835 59.4412 4
      vertex 10.4647 33.8637 4
    endloop
  endfacet
  facet normal 0 0 1
    outer loop
      vertex 10.4647 33.8637 4
      vertex 8.84835 59.4412 4
      vertex 9.5 33.4641 4
    endloop
  endfacet
  facet normal 0 0 1
    outer loop
      vertex 8.84835 59.4412 4
      vertex 8.67157 32.8284 4
      vertex 9.5 33.4641 4
    endloop
  endfacet
  facet normal 0 0 1
    outer loop
      vertex 8.14124 60.1483 4
      vertex 8.67157 32.8284 4
      vertex 8.84835 59.4412 4
    endloop
  endfacet
  facet normal 0 0 1
    outer loop
      vertex 8.67157 32.8284 4
      vertex 8.14124 60.1483 4
      vertex 8.0359 32 4
    endloop
  endfacet
  facet normal -0 0 1
    outer loop
      vertex 14.6393 61.9588 4
      vertex 14.8588 60.1483 4
      vertex 14.75 62.8 4
    endloop
  endfacet
  facet normal -0 0 1
    outer loop
      vertex 14.3146 61.175 4
      vertex 14.8588 60.1483 4
      vertex 14.6393 61.9588 4
    endloop
  endfacet
  facet normal 0 0 1
    outer loop
      vertex 14.8588 60.1483 4
      vertex 14.3146 61.175 4
      vertex 14.1051 60.902 4
    endloop
  endfacet
  facet normal 0 0 1
    outer loop
      vertex 4.5 67.5 4
      vertex 8.36074 63.6412 4
      vertex 8.14124 65.4517 4
    endloop
  endfacet
  facet normal 0 0 1
    outer loop
      vertex 8.68542 64.425 4
      vertex 8.14124 65.4517 4
      vertex 8.36074 63.6412 4
    endloop
  endfacet
  facet normal 0 0 1
    outer loop
      vertex 8.14124 65.4517 4
      vertex 8.68542 64.425 4
      vertex 8.8949 64.698 4
    endloop
  endfacet
  facet normal 0 0 1
    outer loop
      vertex 8.68542 61.175 4
      vertex 8.14124 60.1483 4
      vertex 8.8949 60.902 4
    endloop
  endfacet
  facet normal 0 0 1
    outer loop
      vertex 8.36074 61.9588 4
      vertex 8.14124 60.1483 4
      vertex 8.68542 61.175 4
    endloop
  endfacet
  facet normal 0 0 1
    outer loop
      vertex 8.25 62.8 4
      vertex 8.14124 60.1483 4
      vertex 8.36074 61.9588 4
    endloop
  endfacet
  facet normal 0 0 1
    outer loop
      vertex 8.36074 63.6412 4
      vertex 4.5 67.5 4
      vertex 8.25 62.8 4
    endloop
  endfacet
  facet normal 0 0 1
    outer loop
      vertex 18.5 67.5 4
      vertex 14.75 74.5 4
      vertex 14.8588 71.8484 4
    endloop
  endfacet
  facet normal 0 0 1
    outer loop
      vertex 14.8588 77.1516 4
      vertex 14.6393 75.3412 4
      vertex 14.75 74.5 4
    endloop
  endfacet
  facet normal 0 0 1
    outer loop
      vertex 14.8588 77.1516 4
      vertex 14.3146 76.125 4
      vertex 14.6393 75.3412 4
    endloop
  endfacet
  facet normal 0 -0 1
    outer loop
      vertex 14.3146 76.125 4
      vertex 14.8588 77.1516 4
      vertex 14.1051 76.398 4
    endloop
  endfacet
  facet normal -0 0 1
    outer loop
      vertex 14.75 74.5 4
      vertex 18.5 67.5 4
      vertex 18.5 81.5 4
    endloop
  endfacet
  facet normal 0 0 1
    outer loop
      vertex 14.75 74.5 4
      vertex 18.5 81.5 4
      vertex 14.8588 77.1516 4
    endloop
  endfacet
  facet normal 0 0 1
    outer loop
      vertex 18.5 81.5 4
      vertex 14.1517 77.8588 4
      vertex 14.8588 77.1516 4
    endloop
  endfacet
  facet normal 0 0 1
    outer loop
      vertex 14.1517 77.8588 4
      vertex 13.125 77.3146 4
      vertex 13.398 77.1051 4
    endloop
  endfacet
  facet normal 0 0 1
    outer loop
      vertex 11.5 77.75 4
      vertex 14.1517 77.8588 4
      vertex 18.5 81.5 4
    endloop
  endfacet
  facet normal 0 0 1
    outer loop
      vertex 14.1517 77.8588 4
      vertex 12.3412 77.6393 4
      vertex 13.125 77.3146 4
    endloop
  endfacet
  facet normal 0 0 1
    outer loop
      vertex 14.1517 77.8588 4
      vertex 11.5 77.75 4
      vertex 12.3412 77.6393 4
    endloop
  endfacet
  facet normal -0 0 1
    outer loop
      vertex 4.5 81.5 4
      vertex 11.5 77.75 4
      vertex 18.5 81.5 4
    endloop
  endfacet
  facet normal -0 -0 1
    outer loop
      vertex 8.84835 77.8588 4
      vertex 11.5 77.75 4
      vertex 4.5 81.5 4
    endloop
  endfacet
  facet normal 0 0 1
    outer loop
      vertex 9.875 77.3146 4
      vertex 8.84835 77.8588 4
      vertex 9.602 77.1051 4
    endloop
  endfacet
  facet normal 0 0 1
    outer loop
      vertex 10.6588 77.6393 4
      vertex 8.84835 77.8588 4
      vertex 9.875 77.3146 4
    endloop
  endfacet
  facet normal 0 0 1
    outer loop
      vertex 8.36074 75.3412 4
      vertex 4.5 74 4
      vertex 8.25 74.5 4
    endloop
  endfacet
  facet normal 0 0 1
    outer loop
      vertex 8.84835 77.8588 4
      vertex 4.5 81.5 4
      vertex 8.14124 77.1516 4
    endloop
  endfacet
  facet normal 0 0 1
    outer loop
      vertex 11.5 77.75 4
      vertex 8.84835 77.8588 4
      vertex 10.6588 77.6393 4
    endloop
  endfacet
  facet normal 0 0 1
    outer loop
      vertex 18.5 67.5 4
      vertex 14.8588 71.8484 4
      vertex 18.25 67.5 4
    endloop
  endfacet
  facet normal -0 0 1
    outer loop
      vertex 14.1517 71.1412 4
      vertex 18.25 67.5 4
      vertex 14.8588 71.8484 4
    endloop
  endfacet
  facet normal -0 0 1
    outer loop
      vertex 13.125 71.6854 4
      vertex 14.1517 71.1412 4
      vertex 13.398 71.8949 4
    endloop
  endfacet
  facet normal -0 0 1
    outer loop
      vertex 12.3412 71.3607 4
      vertex 14.1517 71.1412 4
      vertex 13.125 71.6854 4
    endloop
  endfacet
  facet normal -0 0 1
    outer loop
      vertex 11.5 71.25 4
      vertex 14.1517 71.1412 4
      vertex 12.3412 71.3607 4
    endloop
  endfacet
  facet normal 0 0 1
    outer loop
      vertex 14.1517 71.1412 4
      vertex 11.5 71.25 4
      vertex 18.25 67.5 4
    endloop
  endfacet
  facet normal 0 0 1
    outer loop
      vertex 8.84835 71.1412 4
      vertex 11.5 71.25 4
      vertex 10.6588 71.3607 4
    endloop
  endfacet
  facet normal 0 0 1
    outer loop
      vertex 8.84835 71.1412 4
      vertex 10.6588 71.3607 4
      vertex 9.875 71.6854 4
    endloop
  endfacet
  facet normal 0 0 1
    outer loop
      vertex 8.84835 71.1412 4
      vertex 9.875 71.6854 4
      vertex 9.602 71.8949 4
    endloop
  endfacet
  facet normal 0 0 1
    outer loop
      vertex 11.5 71.25 4
      vertex 8.84835 71.1412 4
      vertex 4.5 67.5 4
    endloop
  endfacet
  facet normal 0 0 1
    outer loop
      vertex 8.25 74.5 4
      vertex 4.5 74 4
      vertex 8.14124 71.8484 4
    endloop
  endfacet
  facet normal 0 0 1
    outer loop
      vertex 4.5 67.5 4
      vertex 8.14124 71.8484 4
      vertex 4.5 74 4
    endloop
  endfacet
  facet normal 0 0 1
    outer loop
      vertex 11.5 71.25 4
      vertex 4.5 67.5 4
      vertex 18.25 67.5 4
    endloop
  endfacet
  facet normal 0 0 1
    outer loop
      vertex 8.14124 71.8484 4
      vertex 4.5 67.5 4
      vertex 8.84835 71.1412 4
    endloop
  endfacet
  facet normal -0 0 1
    outer loop
      vertex 14.6393 73.6588 4
      vertex 14.8588 71.8484 4
      vertex 14.75 74.5 4
    endloop
  endfacet
  facet normal -0 0 1
    outer loop
      vertex 14.3146 72.875 4
      vertex 14.8588 71.8484 4
      vertex 14.6393 73.6588 4
    endloop
  endfacet
  facet normal 0 0 1
    outer loop
      vertex 14.8588 71.8484 4
      vertex 14.3146 72.875 4
      vertex 14.1051 72.602 4
    endloop
  endfacet
  facet normal 0 0 1
    outer loop
      vertex 4.5 74 4
      vertex 8.36074 75.3412 4
      vertex 8.14124 77.1516 4
    endloop
  endfacet
  facet normal 0 0 1
    outer loop
      vertex 8.68542 76.125 4
      vertex 8.14124 77.1516 4
      vertex 8.36074 75.3412 4
    endloop
  endfacet
  facet normal 0 0 1
    outer loop
      vertex 8.14124 77.1516 4
      vertex 8.68542 76.125 4
      vertex 8.8949 76.398 4
    endloop
  endfacet
  facet normal 0 0 1
    outer loop
      vertex 8.68542 72.875 4
      vertex 8.14124 71.8484 4
      vertex 8.8949 72.602 4
    endloop
  endfacet
  facet normal 0 0 1
    outer loop
      vertex 8.36074 73.6588 4
      vertex 8.14124 71.8484 4
      vertex 8.68542 72.875 4
    endloop
  endfacet
  facet normal 0 0 1
    outer loop
      vertex 8.25 74.5 4
      vertex 8.14124 71.8484 4
      vertex 8.36074 73.6588 4
    endloop
  endfacet
  facet normal 0 0 1
    outer loop
      vertex 4.5 74 4
      vertex 8.14124 77.1516 4
      vertex 4.5 81.5 4
    endloop
  endfacet
  facet normal 0 -1 0
    outer loop
      vertex 0 0 0
      vertex 23 0 4
      vertex 0 0 4
    endloop
  endfacet
  facet normal 0 -1 -0
    outer loop
      vertex 23 0 4
      vertex 0 0 0
      vertex 23 0 0
    endloop
  endfacet
  facet normal -1 0 0
    outer loop
      vertex 18.25 12 4
      vertex 18.25 67.5 14
      vertex 18.25 67.5 4
    endloop
  endfacet
  facet normal -1 -0 0
    outer loop
      vertex 18.25 67.5 14
      vertex 18.25 12 4
      vertex 18.25 12 14
    endloop
  endfacet
  facet normal 0 0 1
    outer loop
      vertex 18.5 67.5 14
      vertex 20.05 74 14
      vertex 18.5 74 14
    endloop
  endfacet
  facet normal 0 0 1
    outer loop
      vertex 20.05 74 14
      vertex 18.5 67.5 14
      vertex 20.05 12 14
    endloop
  endfacet
  facet normal 0 0 1
    outer loop
      vertex 18.25 12 14
      vertex 18.5 67.5 14
      vertex 18.25 67.5 14
    endloop
  endfacet
  facet normal 0 0 1
    outer loop
      vertex 18.5 67.5 14
      vertex 18.25 12 14
      vertex 20.05 12 14
    endloop
  endfacet
  facet normal 1 -0 0
    outer loop
      vertex 20.05 12 14
      vertex 20.05 74 12
      vertex 20.05 74 14
    endloop
  endfacet
  facet normal 1 0 0
    outer loop
      vertex 20.05 12 4
      vertex 20.05 74 12
      vertex 20.05 12 14
    endloop
  endfacet
  facet normal 1 0 0
    outer loop
      vertex 20.05 74 12
      vertex 20.05 12 4
      vertex 20.05 74 4
    endloop
  endfacet
  facet normal 0 -1 0
    outer loop
      vertex 18.25 12 4
      vertex 20.05 12 14
      vertex 18.25 12 14
    endloop
  endfacet
  facet normal 0 -1 -0
    outer loop
      vertex 20.05 12 14
      vertex 18.25 12 4
      vertex 20.05 12 4
    endloop
  endfacet
  facet normal -0.608752 -0.793361 0
    outer loop
      vertex 13.125 65.6146 0
      vertex 13.398 65.4051 4
      vertex 13.125 65.6146 4
    endloop
  endfacet
  facet normal -0.608752 -0.793361 -0
    outer loop
      vertex 13.398 65.4051 4
      vertex 13.125 65.6146 0
      vertex 13.398 65.4051 0
    endloop
  endfacet
  facet normal 0.793352 0.608763 0
    outer loop
      vertex 8.8949 60.902 4
      vertex 8.68542 61.175 0
      vertex 8.68542 61.175 4
    endloop
  endfacet
  facet normal 0.793352 0.608763 0
    outer loop
      vertex 8.68542 61.175 0
      vertex 8.8949 60.902 4
      vertex 8.8949 60.902 0
    endloop
  endfacet
  facet normal 0.608752 -0.793361 0
    outer loop
      vertex 9.602 65.4051 0
      vertex 9.875 65.6146 4
      vertex 9.602 65.4051 4
    endloop
  endfacet
  facet normal 0.608752 -0.793361 0
    outer loop
      vertex 9.875 65.6146 4
      vertex 9.602 65.4051 0
      vertex 9.875 65.6146 0
    endloop
  endfacet
  facet normal -0.130535 -0.991444 0
    outer loop
      vertex 11.5 66.05 0
      vertex 12.3412 65.9393 4
      vertex 11.5 66.05 4
    endloop
  endfacet
  facet normal -0.130535 -0.991444 -0
    outer loop
      vertex 12.3412 65.9393 4
      vertex 11.5 66.05 0
      vertex 12.3412 65.9393 0
    endloop
  endfacet
  facet normal -0.382684 -0.92388 0
    outer loop
      vertex 12.3412 65.9393 0
      vertex 13.125 65.6146 4
      vertex 12.3412 65.9393 4
    endloop
  endfacet
  facet normal -0.382684 -0.92388 -0
    outer loop
      vertex 13.125 65.6146 4
      vertex 12.3412 65.9393 0
      vertex 13.125 65.6146 0
    endloop
  endfacet
  facet normal 0.130535 -0.991444 0
    outer loop
      vertex 10.6588 65.9393 0
      vertex 11.5 66.05 4
      vertex 10.6588 65.9393 4
    endloop
  endfacet
  facet normal 0.130535 -0.991444 0
    outer loop
      vertex 11.5 66.05 4
      vertex 10.6588 65.9393 0
      vertex 11.5 66.05 0
    endloop
  endfacet
  facet normal 0.991445 -0.130527 0
    outer loop
      vertex 8.25 62.8 4
      vertex 8.36074 63.6412 0
      vertex 8.36074 63.6412 4
    endloop
  endfacet
  facet normal 0.991445 -0.130527 0
    outer loop
      vertex 8.36074 63.6412 0
      vertex 8.25 62.8 4
      vertex 8.25 62.8 0
    endloop
  endfacet
  facet normal 0.793352 -0.608763 0
    outer loop
      vertex 8.68542 64.425 4
      vertex 8.8949 64.698 0
      vertex 8.8949 64.698 4
    endloop
  endfacet
  facet normal 0.793352 -0.608763 0
    outer loop
      vertex 8.8949 64.698 0
      vertex 8.68542 64.425 4
      vertex 8.68542 64.425 0
    endloop
  endfacet
  facet normal -0.92388 -0.382683 0
    outer loop
      vertex 14.6393 63.6412 0
      vertex 14.3146 64.425 4
      vertex 14.3146 64.425 0
    endloop
  endfacet
  facet normal -0.92388 -0.382683 0
    outer loop
      vertex 14.3146 64.425 4
      vertex 14.6393 63.6412 0
      vertex 14.6393 63.6412 4
    endloop
  endfacet
  facet normal -0.130526 0.991445 0
    outer loop
      vertex 12.3412 59.6607 0
      vertex 11.5 59.55 4
      vertex 12.3412 59.6607 4
    endloop
  endfacet
  facet normal -0.130526 0.991445 0
    outer loop
      vertex 11.5 59.55 4
      vertex 12.3412 59.6607 0
      vertex 11.5 59.55 0
    endloop
  endfacet
  facet normal 0.608766 0.79335 -0
    outer loop
      vertex 9.875 59.9854 0
      vertex 9.602 60.1949 4
      vertex 9.875 59.9854 4
    endloop
  endfacet
  facet normal 0.608766 0.79335 0
    outer loop
      vertex 9.602 60.1949 4
      vertex 9.875 59.9854 0
      vertex 9.602 60.1949 0
    endloop
  endfacet
  facet normal 0.382684 -0.92388 0
    outer loop
      vertex 9.875 65.6146 0
      vertex 10.6588 65.9393 4
      vertex 9.875 65.6146 4
    endloop
  endfacet
  facet normal 0.382684 -0.92388 0
    outer loop
      vertex 10.6588 65.9393 4
      vertex 9.875 65.6146 0
      vertex 10.6588 65.9393 0
    endloop
  endfacet
  facet normal 0.991445 0.130527 0
    outer loop
      vertex 8.36074 61.9588 4
      vertex 8.25 62.8 0
      vertex 8.25 62.8 4
    endloop
  endfacet
  facet normal 0.991445 0.130527 0
    outer loop
      vertex 8.25 62.8 0
      vertex 8.36074 61.9588 4
      vertex 8.36074 61.9588 0
    endloop
  endfacet
  facet normal 0.92388 0.382682 0
    outer loop
      vertex 8.68542 61.175 4
      vertex 8.36074 61.9588 0
      vertex 8.36074 61.9588 4
    endloop
  endfacet
  facet normal 0.92388 0.382682 0
    outer loop
      vertex 8.36074 61.9588 0
      vertex 8.68542 61.175 4
      vertex 8.68542 61.175 0
    endloop
  endfacet
  facet normal 0.92388 -0.382682 0
    outer loop
      vertex 8.36074 63.6412 4
      vertex 8.68542 64.425 0
      vertex 8.68542 64.425 4
    endloop
  endfacet
  facet normal 0.92388 -0.382682 0
    outer loop
      vertex 8.68542 64.425 0
      vertex 8.36074 63.6412 4
      vertex 8.36074 63.6412 0
    endloop
  endfacet
  facet normal -0.793352 -0.608763 0
    outer loop
      vertex 14.3146 64.425 0
      vertex 14.1051 64.698 4
      vertex 14.1051 64.698 0
    endloop
  endfacet
  facet normal -0.793352 -0.608763 0
    outer loop
      vertex 14.1051 64.698 4
      vertex 14.3146 64.425 0
      vertex 14.3146 64.425 4
    endloop
  endfacet
  facet normal -0.793352 0.608763 0
    outer loop
      vertex 14.1051 60.902 0
      vertex 14.3146 61.175 4
      vertex 14.3146 61.175 0
    endloop
  endfacet
  facet normal -0.793352 0.608763 0
    outer loop
      vertex 14.3146 61.175 4
      vertex 14.1051 60.902 0
      vertex 14.1051 60.902 4
    endloop
  endfacet
  facet normal -0.991445 0.130526 0
    outer loop
      vertex 14.6393 61.9588 0
      vertex 14.75 62.8 4
      vertex 14.75 62.8 0
    endloop
  endfacet
  facet normal -0.991445 0.130526 0
    outer loop
      vertex 14.75 62.8 4
      vertex 14.6393 61.9588 0
      vertex 14.6393 61.9588 4
    endloop
  endfacet
  facet normal -0.382684 0.92388 0
    outer loop
      vertex 13.125 59.9854 0
      vertex 12.3412 59.6607 4
      vertex 13.125 59.9854 4
    endloop
  endfacet
  facet normal -0.382684 0.92388 0
    outer loop
      vertex 12.3412 59.6607 4
      vertex 13.125 59.9854 0
      vertex 12.3412 59.6607 0
    endloop
  endfacet
  facet normal 0.38268 0.923881 -0
    outer loop
      vertex 10.6588 59.6607 0
      vertex 9.875 59.9854 4
      vertex 10.6588 59.6607 4
    endloop
  endfacet
  facet normal 0.38268 0.923881 0
    outer loop
      vertex 9.875 59.9854 4
      vertex 10.6588 59.6607 0
      vertex 9.875 59.9854 0
    endloop
  endfacet
  facet normal -0.92388 0.382683 0
    outer loop
      vertex 14.3146 61.175 0
      vertex 14.6393 61.9588 4
      vertex 14.6393 61.9588 0
    endloop
  endfacet
  facet normal -0.92388 0.382683 0
    outer loop
      vertex 14.6393 61.9588 4
      vertex 14.3146 61.175 0
      vertex 14.3146 61.175 4
    endloop
  endfacet
  facet normal -0.991445 -0.130525 0
    outer loop
      vertex 14.75 62.8 0
      vertex 14.6393 63.6412 4
      vertex 14.6393 63.6412 0
    endloop
  endfacet
  facet normal -0.991445 -0.130525 0
    outer loop
      vertex 14.6393 63.6412 4
      vertex 14.75 62.8 0
      vertex 14.75 62.8 4
    endloop
  endfacet
  facet normal -0.608766 0.79335 0
    outer loop
      vertex 13.398 60.1949 0
      vertex 13.125 59.9854 4
      vertex 13.398 60.1949 4
    endloop
  endfacet
  facet normal -0.608766 0.79335 0
    outer loop
      vertex 13.125 59.9854 4
      vertex 13.398 60.1949 0
      vertex 13.125 59.9854 0
    endloop
  endfacet
  facet normal 0.13053 0.991444 -0
    outer loop
      vertex 11.5 59.55 0
      vertex 10.6588 59.6607 4
      vertex 11.5 59.55 4
    endloop
  endfacet
  facet normal 0.13053 0.991444 0
    outer loop
      vertex 10.6588 59.6607 4
      vertex 11.5 59.55 0
      vertex 10.6588 59.6607 0
    endloop
  endfacet
  facet normal 0.707107 0.707106 0
    outer loop
      vertex 8.84835 59.4412 4
      vertex 8.14124 60.1483 0
      vertex 8.14124 60.1483 4
    endloop
  endfacet
  facet normal 0.707107 0.707106 0
    outer loop
      vertex 8.14124 60.1483 0
      vertex 8.84835 59.4412 4
      vertex 8.84835 59.4412 0
    endloop
  endfacet
  facet normal -0.707107 -0.707106 0
    outer loop
      vertex 14.8588 65.4517 0
      vertex 14.1517 66.1588 4
      vertex 14.1517 66.1588 0
    endloop
  endfacet
  facet normal -0.707107 -0.707106 0
    outer loop
      vertex 14.1517 66.1588 4
      vertex 14.8588 65.4517 0
      vertex 14.8588 65.4517 4
    endloop
  endfacet
  facet normal -0.707108 0.707106 0
    outer loop
      vertex 14.1051 64.698 0
      vertex 14.8588 65.4517 4
      vertex 14.8588 65.4517 0
    endloop
  endfacet
  facet normal -0.707108 0.707106 0
    outer loop
      vertex 14.8588 65.4517 4
      vertex 14.1051 64.698 0
      vertex 14.1051 64.698 4
    endloop
  endfacet
  facet normal -0.707107 0.707106 0
    outer loop
      vertex 8.84835 59.4412 0
      vertex 9.602 60.1949 4
      vertex 9.602 60.1949 0
    endloop
  endfacet
  facet normal -0.707107 0.707106 0
    outer loop
      vertex 9.602 60.1949 4
      vertex 8.84835 59.4412 0
      vertex 8.84835 59.4412 4
    endloop
  endfacet
  facet normal 0.707107 -0.707106 0
    outer loop
      vertex 13.398 65.4051 4
      vertex 14.1517 66.1588 0
      vertex 14.1517 66.1588 4
    endloop
  endfacet
  facet normal 0.707107 -0.707106 0
    outer loop
      vertex 14.1517 66.1588 0
      vertex 13.398 65.4051 4
      vertex 13.398 65.4051 0
    endloop
  endfacet
  facet normal 0.707108 -0.707106 0
    outer loop
      vertex 8.14124 60.1483 4
      vertex 8.8949 60.902 0
      vertex 8.8949 60.902 4
    endloop
  endfacet
  facet normal 0.707108 -0.707106 0
    outer loop
      vertex 8.8949 60.902 0
      vertex 8.14124 60.1483 4
      vertex 8.14124 60.1483 0
    endloop
  endfacet
  facet normal 0.707107 0.707106 0
    outer loop
      vertex 14.1517 59.4412 4
      vertex 13.398 60.1949 0
      vertex 13.398 60.1949 4
    endloop
  endfacet
  facet normal 0.707107 0.707106 0
    outer loop
      vertex 13.398 60.1949 0
      vertex 14.1517 59.4412 4
      vertex 14.1517 59.4412 0
    endloop
  endfacet
  facet normal 0.707108 0.707106 0
    outer loop
      vertex 8.8949 64.698 4
      vertex 8.14124 65.4517 0
      vertex 8.14124 65.4517 4
    endloop
  endfacet
  facet normal 0.707108 0.707106 0
    outer loop
      vertex 8.14124 65.4517 0
      vertex 8.8949 64.698 4
      vertex 8.8949 64.698 0
    endloop
  endfacet
  facet normal -0.707108 -0.707106 0
    outer loop
      vertex 14.8588 60.1483 0
      vertex 14.1051 60.902 4
      vertex 14.1051 60.902 0
    endloop
  endfacet
  facet normal -0.707108 -0.707106 0
    outer loop
      vertex 14.1051 60.902 4
      vertex 14.8588 60.1483 0
      vertex 14.8588 60.1483 4
    endloop
  endfacet
  facet normal -0.707107 -0.707106 0
    outer loop
      vertex 9.602 65.4051 0
      vertex 8.84835 66.1588 4
      vertex 8.84835 66.1588 0
    endloop
  endfacet
  facet normal -0.707107 -0.707106 0
    outer loop
      vertex 8.84835 66.1588 4
      vertex 9.602 65.4051 0
      vertex 9.602 65.4051 4
    endloop
  endfacet
  facet normal -0.707107 0.707106 0
    outer loop
      vertex 14.1517 59.4412 0
      vertex 14.8588 60.1483 4
      vertex 14.8588 60.1483 0
    endloop
  endfacet
  facet normal -0.707107 0.707106 0
    outer loop
      vertex 14.8588 60.1483 4
      vertex 14.1517 59.4412 0
      vertex 14.1517 59.4412 4
    endloop
  endfacet
  facet normal 0.707107 -0.707106 0
    outer loop
      vertex 8.14124 65.4517 4
      vertex 8.84835 66.1588 0
      vertex 8.84835 66.1588 4
    endloop
  endfacet
  facet normal 0.707107 -0.707106 0
    outer loop
      vertex 8.84835 66.1588 0
      vertex 8.14124 65.4517 4
      vertex 8.14124 65.4517 0
    endloop
  endfacet
  facet normal -0.608766 -0.79335 0
    outer loop
      vertex 13.125 77.3146 0
      vertex 13.398 77.1051 4
      vertex 13.125 77.3146 4
    endloop
  endfacet
  facet normal -0.608766 -0.79335 -0
    outer loop
      vertex 13.398 77.1051 4
      vertex 13.125 77.3146 0
      vertex 13.398 77.1051 0
    endloop
  endfacet
  facet normal 0.793352 0.608763 0
    outer loop
      vertex 8.8949 72.602 4
      vertex 8.68542 72.875 0
      vertex 8.68542 72.875 4
    endloop
  endfacet
  facet normal 0.793352 0.608763 0
    outer loop
      vertex 8.68542 72.875 0
      vertex 8.8949 72.602 4
      vertex 8.8949 72.602 0
    endloop
  endfacet
  facet normal 0.608766 -0.79335 0
    outer loop
      vertex 9.602 77.1051 0
      vertex 9.875 77.3146 4
      vertex 9.602 77.1051 4
    endloop
  endfacet
  facet normal 0.608766 -0.79335 0
    outer loop
      vertex 9.875 77.3146 4
      vertex 9.602 77.1051 0
      vertex 9.875 77.3146 0
    endloop
  endfacet
  facet normal -0.130526 -0.991445 0
    outer loop
      vertex 11.5 77.75 0
      vertex 12.3412 77.6393 4
      vertex 11.5 77.75 4
    endloop
  endfacet
  facet normal -0.130526 -0.991445 -0
    outer loop
      vertex 12.3412 77.6393 4
      vertex 11.5 77.75 0
      vertex 12.3412 77.6393 0
    endloop
  endfacet
  facet normal -0.382684 -0.92388 0
    outer loop
      vertex 12.3412 77.6393 0
      vertex 13.125 77.3146 4
      vertex 12.3412 77.6393 4
    endloop
  endfacet
  facet normal -0.382684 -0.92388 -0
    outer loop
      vertex 13.125 77.3146 4
      vertex 12.3412 77.6393 0
      vertex 13.125 77.3146 0
    endloop
  endfacet
  facet normal 0.130526 -0.991445 0
    outer loop
      vertex 10.6588 77.6393 0
      vertex 11.5 77.75 4
      vertex 10.6588 77.6393 4
    endloop
  endfacet
  facet normal 0.130526 -0.991445 0
    outer loop
      vertex 11.5 77.75 4
      vertex 10.6588 77.6393 0
      vertex 11.5 77.75 0
    endloop
  endfacet
  facet normal 0.991445 -0.130527 0
    outer loop
      vertex 8.25 74.5 4
      vertex 8.36074 75.3412 0
      vertex 8.36074 75.3412 4
    endloop
  endfacet
  facet normal 0.991445 -0.130527 0
    outer loop
      vertex 8.36074 75.3412 0
      vertex 8.25 74.5 4
      vertex 8.25 74.5 0
    endloop
  endfacet
  facet normal 0.793352 -0.608763 0
    outer loop
      vertex 8.68542 76.125 4
      vertex 8.8949 76.398 0
      vertex 8.8949 76.398 4
    endloop
  endfacet
  facet normal 0.793352 -0.608763 0
    outer loop
      vertex 8.8949 76.398 0
      vertex 8.68542 76.125 4
      vertex 8.68542 76.125 0
    endloop
  endfacet
  facet normal -0.923879 -0.382684 0
    outer loop
      vertex 14.6393 75.3412 0
      vertex 14.3146 76.125 4
      vertex 14.3146 76.125 0
    endloop
  endfacet
  facet normal -0.923879 -0.382684 0
    outer loop
      vertex 14.3146 76.125 4
      vertex 14.6393 75.3412 0
      vertex 14.6393 75.3412 4
    endloop
  endfacet
  facet normal -0.130526 0.991445 0
    outer loop
      vertex 12.3412 71.3607 0
      vertex 11.5 71.25 4
      vertex 12.3412 71.3607 4
    endloop
  endfacet
  facet normal -0.130526 0.991445 0
    outer loop
      vertex 11.5 71.25 4
      vertex 12.3412 71.3607 0
      vertex 11.5 71.25 0
    endloop
  endfacet
  facet normal 0.608766 0.79335 -0
    outer loop
      vertex 9.875 71.6854 0
      vertex 9.602 71.8949 4
      vertex 9.875 71.6854 4
    endloop
  endfacet
  facet normal 0.608766 0.79335 0
    outer loop
      vertex 9.602 71.8949 4
      vertex 9.875 71.6854 0
      vertex 9.602 71.8949 0
    endloop
  endfacet
  facet normal 0.382684 -0.92388 0
    outer loop
      vertex 9.875 77.3146 0
      vertex 10.6588 77.6393 4
      vertex 9.875 77.3146 4
    endloop
  endfacet
  facet normal 0.382684 -0.92388 0
    outer loop
      vertex 10.6588 77.6393 4
      vertex 9.875 77.3146 0
      vertex 10.6588 77.6393 0
    endloop
  endfacet
  facet normal 0.991445 0.130527 0
    outer loop
      vertex 8.36074 73.6588 4
      vertex 8.25 74.5 0
      vertex 8.25 74.5 4
    endloop
  endfacet
  facet normal 0.991445 0.130527 0
    outer loop
      vertex 8.25 74.5 0
      vertex 8.36074 73.6588 4
      vertex 8.36074 73.6588 0
    endloop
  endfacet
  facet normal 0.92388 0.382683 0
    outer loop
      vertex 8.68542 72.875 4
      vertex 8.36074 73.6588 0
      vertex 8.36074 73.6588 4
    endloop
  endfacet
  facet normal 0.92388 0.382683 0
    outer loop
      vertex 8.36074 73.6588 0
      vertex 8.68542 72.875 4
      vertex 8.68542 72.875 0
    endloop
  endfacet
  facet normal 0.92388 -0.382683 0
    outer loop
      vertex 8.36074 75.3412 4
      vertex 8.68542 76.125 0
      vertex 8.68542 76.125 4
    endloop
  endfacet
  facet normal 0.92388 -0.382683 0
    outer loop
      vertex 8.68542 76.125 0
      vertex 8.36074 75.3412 4
      vertex 8.36074 75.3412 0
    endloop
  endfacet
  facet normal -0.793352 -0.608763 0
    outer loop
      vertex 14.3146 76.125 0
      vertex 14.1051 76.398 4
      vertex 14.1051 76.398 0
    endloop
  endfacet
  facet normal -0.793352 -0.608763 0
    outer loop
      vertex 14.1051 76.398 4
      vertex 14.3146 76.125 0
      vertex 14.3146 76.125 4
    endloop
  endfacet
  facet normal -0.793352 0.608763 0
    outer loop
      vertex 14.1051 72.602 0
      vertex 14.3146 72.875 4
      vertex 14.3146 72.875 0
    endloop
  endfacet
  facet normal -0.793352 0.608763 0
    outer loop
      vertex 14.3146 72.875 4
      vertex 14.1051 72.602 0
      vertex 14.1051 72.602 4
    endloop
  endfacet
  facet normal -0.991445 0.130525 0
    outer loop
      vertex 14.6393 73.6588 0
      vertex 14.75 74.5 4
      vertex 14.75 74.5 0
    endloop
  endfacet
  facet normal -0.991445 0.130525 0
    outer loop
      vertex 14.75 74.5 4
      vertex 14.6393 73.6588 0
      vertex 14.6393 73.6588 4
    endloop
  endfacet
  facet normal -0.382684 0.92388 0
    outer loop
      vertex 13.125 71.6854 0
      vertex 12.3412 71.3607 4
      vertex 13.125 71.6854 4
    endloop
  endfacet
  facet normal -0.382684 0.92388 0
    outer loop
      vertex 12.3412 71.3607 4
      vertex 13.125 71.6854 0
      vertex 12.3412 71.3607 0
    endloop
  endfacet
  facet normal 0.382684 0.92388 -0
    outer loop
      vertex 10.6588 71.3607 0
      vertex 9.875 71.6854 4
      vertex 10.6588 71.3607 4
    endloop
  endfacet
  facet normal 0.382684 0.92388 0
    outer loop
      vertex 9.875 71.6854 4
      vertex 10.6588 71.3607 0
      vertex 9.875 71.6854 0
    endloop
  endfacet
  facet normal -0.923879 0.382684 0
    outer loop
      vertex 14.3146 72.875 0
      vertex 14.6393 73.6588 4
      vertex 14.6393 73.6588 0
    endloop
  endfacet
  facet normal -0.923879 0.382684 0
    outer loop
      vertex 14.6393 73.6588 4
      vertex 14.3146 72.875 0
      vertex 14.3146 72.875 4
    endloop
  endfacet
  facet normal -0.991445 -0.130525 0
    outer loop
      vertex 14.75 74.5 0
      vertex 14.6393 75.3412 4
      vertex 14.6393 75.3412 0
    endloop
  endfacet
  facet normal -0.991445 -0.130525 0
    outer loop
      vertex 14.6393 75.3412 4
      vertex 14.75 74.5 0
      vertex 14.75 74.5 4
    endloop
  endfacet
  facet normal -0.608766 0.79335 0
    outer loop
      vertex 13.398 71.8949 0
      vertex 13.125 71.6854 4
      vertex 13.398 71.8949 4
    endloop
  endfacet
  facet normal -0.608766 0.79335 0
    outer loop
      vertex 13.125 71.6854 4
      vertex 13.398 71.8949 0
      vertex 13.125 71.6854 0
    endloop
  endfacet
  facet normal 0.130526 0.991445 -0
    outer loop
      vertex 11.5 71.25 0
      vertex 10.6588 71.3607 4
      vertex 11.5 71.25 4
    endloop
  endfacet
  facet normal 0.130526 0.991445 0
    outer loop
      vertex 10.6588 71.3607 4
      vertex 11.5 71.25 0
      vertex 10.6588 71.3607 0
    endloop
  endfacet
  facet normal 0.707107 0.707106 0
    outer loop
      vertex 8.84835 71.1412 4
      vertex 8.14124 71.8484 0
      vertex 8.14124 71.8484 4
    endloop
  endfacet
  facet normal 0.707107 0.707106 0
    outer loop
      vertex 8.14124 71.8484 0
      vertex 8.84835 71.1412 4
      vertex 8.84835 71.1412 0
    endloop
  endfacet
  facet normal -0.707107 -0.707106 0
    outer loop
      vertex 14.8588 77.1516 0
      vertex 14.1517 77.8588 4
      vertex 14.1517 77.8588 0
    endloop
  endfacet
  facet normal -0.707107 -0.707106 0
    outer loop
      vertex 14.1517 77.8588 4
      vertex 14.8588 77.1516 0
      vertex 14.8588 77.1516 4
    endloop
  endfacet
  facet normal -0.707108 0.707106 0
    outer loop
      vertex 14.1051 76.398 0
      vertex 14.8588 77.1516 4
      vertex 14.8588 77.1516 0
    endloop
  endfacet
  facet normal -0.707108 0.707106 0
    outer loop
      vertex 14.8588 77.1516 4
      vertex 14.1051 76.398 0
      vertex 14.1051 76.398 4
    endloop
  endfacet
  facet normal -0.707107 0.707106 0
    outer loop
      vertex 8.84835 71.1412 0
      vertex 9.602 71.8949 4
      vertex 9.602 71.8949 0
    endloop
  endfacet
  facet normal -0.707107 0.707106 0
    outer loop
      vertex 9.602 71.8949 4
      vertex 8.84835 71.1412 0
      vertex 8.84835 71.1412 4
    endloop
  endfacet
  facet normal 0.707107 -0.707106 0
    outer loop
      vertex 13.398 77.1051 4
      vertex 14.1517 77.8588 0
      vertex 14.1517 77.8588 4
    endloop
  endfacet
  facet normal 0.707107 -0.707106 0
    outer loop
      vertex 14.1517 77.8588 0
      vertex 13.398 77.1051 4
      vertex 13.398 77.1051 0
    endloop
  endfacet
  facet normal 0.707108 -0.707106 0
    outer loop
      vertex 8.14124 71.8484 4
      vertex 8.8949 72.602 0
      vertex 8.8949 72.602 4
    endloop
  endfacet
  facet normal 0.707108 -0.707106 0
    outer loop
      vertex 8.8949 72.602 0
      vertex 8.14124 71.8484 4
      vertex 8.14124 71.8484 0
    endloop
  endfacet
  facet normal 0.707107 0.707106 0
    outer loop
      vertex 14.1517 71.1412 4
      vertex 13.398 71.8949 0
      vertex 13.398 71.8949 4
    endloop
  endfacet
  facet normal 0.707107 0.707106 0
    outer loop
      vertex 13.398 71.8949 0
      vertex 14.1517 71.1412 4
      vertex 14.1517 71.1412 0
    endloop
  endfacet
  facet normal 0.707108 0.707106 0
    outer loop
      vertex 8.8949 76.398 4
      vertex 8.14124 77.1516 0
      vertex 8.14124 77.1516 4
    endloop
  endfacet
  facet normal 0.707108 0.707106 0
    outer loop
      vertex 8.14124 77.1516 0
      vertex 8.8949 76.398 4
      vertex 8.8949 76.398 0
    endloop
  endfacet
  facet normal -0.707108 -0.707106 0
    outer loop
      vertex 14.8588 71.8484 0
      vertex 14.1051 72.602 4
      vertex 14.1051 72.602 0
    endloop
  endfacet
  facet normal -0.707108 -0.707106 0
    outer loop
      vertex 14.1051 72.602 4
      vertex 14.8588 71.8484 0
      vertex 14.8588 71.8484 4
    endloop
  endfacet
  facet normal -0.707107 -0.707106 0
    outer loop
      vertex 9.602 77.1051 0
      vertex 8.84835 77.8588 4
      vertex 8.84835 77.8588 0
    endloop
  endfacet
  facet normal -0.707107 -0.707106 0
    outer loop
      vertex 8.84835 77.8588 4
      vertex 9.602 77.1051 0
      vertex 9.602 77.1051 4
    endloop
  endfacet
  facet normal -0.707107 0.707106 0
    outer loop
      vertex 14.1517 71.1412 0
      vertex 14.8588 71.8484 4
      vertex 14.8588 71.8484 0
    endloop
  endfacet
  facet normal -0.707107 0.707106 0
    outer loop
      vertex 14.8588 71.8484 4
      vertex 14.1517 71.1412 0
      vertex 14.1517 71.1412 4
    endloop
  endfacet
  facet normal 0.707107 -0.707106 0
    outer loop
      vertex 8.14124 77.1516 4
      vertex 8.84835 77.8588 0
      vertex 8.84835 77.8588 4
    endloop
  endfacet
  facet normal 0.707107 -0.707106 0
    outer loop
      vertex 8.84835 77.8588 0
      vertex 8.14124 77.1516 4
      vertex 8.14124 77.1516 0
    endloop
  endfacet
  facet normal 1 0 0
    outer loop
      vertex 4.5 74 4
      vertex 4.5 81.5 10.35
      vertex 4.5 79.85 12
    endloop
  endfacet
  facet normal 1 0 0
    outer loop
      vertex 4.5 74 4
      vertex 4.5 79.85 12
      vertex 4.5 74 12
    endloop
  endfacet
  facet normal 1 0 0
    outer loop
      vertex 4.5 81.5 10.35
      vertex 4.5 74 4
      vertex 4.5 81.5 4
    endloop
  endfacet
  facet normal -1 0 0
    outer loop
      vertex 18.5 74 12
      vertex 18.5 81.5 10.35
      vertex 18.5 81.5 4
    endloop
  endfacet
  facet normal -1 0 0
    outer loop
      vertex 18.5 81.5 10.35
      vertex 18.5 74 12
      vertex 18.5 79.85 12
    endloop
  endfacet
  facet normal -1 0 0
    outer loop
      vertex 18.5 67.5 4
      vertex 18.5 74 12
      vertex 18.5 81.5 4
    endloop
  endfacet
  facet normal -1 0 0
    outer loop
      vertex 18.5 67.5 14
      vertex 18.5 74 12
      vertex 18.5 67.5 4
    endloop
  endfacet
  facet normal -1 0 0
    outer loop
      vertex 18.5 74 12
      vertex 18.5 67.5 14
      vertex 18.5 74 14
    endloop
  endfacet
  facet normal 0 -1 0
    outer loop
      vertex 4.5 81.5 4
      vertex 18.5 81.5 10.35
      vertex 4.5 81.5 10.35
    endloop
  endfacet
  facet normal 0 -1 -0
    outer loop
      vertex 18.5 81.5 10.35
      vertex 4.5 81.5 4
      vertex 18.5 81.5 4
    endloop
  endfacet
  facet normal 0 1 -0
    outer loop
      vertex 18.5 67.5 4
      vertex 18.25 67.5 14
      vertex 18.5 67.5 14
    endloop
  endfacet
  facet normal 0 1 0
    outer loop
      vertex 18.25 67.5 14
      vertex 18.5 67.5 4
      vertex 18.25 67.5 4
    endloop
  endfacet
  facet normal -0.991445 -0.130527 0
    outer loop
      vertex 15.5 30 0
      vertex 15.3637 31.0353 4
      vertex 15.3637 31.0353 0
    endloop
  endfacet
  facet normal -0.991445 -0.130527 0
    outer loop
      vertex 15.3637 31.0353 4
      vertex 15.5 30 0
      vertex 15.5 30 4
    endloop
  endfacet
  facet normal 0.130528 -0.991445 0
    outer loop
      vertex 10.4647 33.8637 0
      vertex 11.5 34 4
      vertex 10.4647 33.8637 4
    endloop
  endfacet
  facet normal 0.130528 -0.991445 0
    outer loop
      vertex 11.5 34 4
      vertex 10.4647 33.8637 0
      vertex 11.5 34 0
    endloop
  endfacet
  facet normal -0.608761 -0.793354 0
    outer loop
      vertex 13.5 33.4641 0
      vertex 14.3284 32.8284 4
      vertex 13.5 33.4641 4
    endloop
  endfacet
  facet normal -0.608761 -0.793354 -0
    outer loop
      vertex 14.3284 32.8284 4
      vertex 13.5 33.4641 0
      vertex 14.3284 32.8284 0
    endloop
  endfacet
  facet normal -0.92388 -0.382683 0
    outer loop
      vertex 15.3637 31.0353 0
      vertex 14.9641 32 4
      vertex 14.9641 32 0
    endloop
  endfacet
  facet normal -0.92388 -0.382683 0
    outer loop
      vertex 14.9641 32 4
      vertex 15.3637 31.0353 0
      vertex 15.3637 31.0353 4
    endloop
  endfacet
  facet normal 0.793353 -0.608762 0
    outer loop
      vertex 8.0359 32 4
      vertex 8.67157 32.8284 0
      vertex 8.67157 32.8284 4
    endloop
  endfacet
  facet normal 0.793353 -0.608762 0
    outer loop
      vertex 8.67157 32.8284 0
      vertex 8.0359 32 4
      vertex 8.0359 32 0
    endloop
  endfacet
  facet normal 0.92388 -0.382683 0
    outer loop
      vertex 7.6363 31.0353 4
      vertex 8.0359 32 0
      vertex 8.0359 32 4
    endloop
  endfacet
  facet normal 0.92388 -0.382683 0
    outer loop
      vertex 8.0359 32 0
      vertex 7.6363 31.0353 4
      vertex 7.6363 31.0353 0
    endloop
  endfacet
  facet normal 0.382683 -0.92388 0
    outer loop
      vertex 9.5 33.4641 0
      vertex 10.4647 33.8637 4
      vertex 9.5 33.4641 4
    endloop
  endfacet
  facet normal 0.382683 -0.92388 0
    outer loop
      vertex 10.4647 33.8637 4
      vertex 9.5 33.4641 0
      vertex 10.4647 33.8637 0
    endloop
  endfacet
  facet normal -0.382684 0.923879 0
    outer loop
      vertex 13.5 26.5359 0
      vertex 12.5353 26.1363 4
      vertex 13.5 26.5359 4
    endloop
  endfacet
  facet normal -0.382684 0.923879 0
    outer loop
      vertex 12.5353 26.1363 4
      vertex 13.5 26.5359 0
      vertex 12.5353 26.1363 0
    endloop
  endfacet
  facet normal -0.923879 0.382684 0
    outer loop
      vertex 14.9641 28 0
      vertex 15.3637 28.9647 4
      vertex 15.3637 28.9647 0
    endloop
  endfacet
  facet normal -0.923879 0.382684 0
    outer loop
      vertex 15.3637 28.9647 4
      vertex 14.9641 28 0
      vertex 14.9641 28 4
    endloop
  endfacet
  facet normal 0.382684 0.923879 -0
    outer loop
      vertex 10.4647 26.1363 0
      vertex 9.5 26.5359 4
      vertex 10.4647 26.1363 4
    endloop
  endfacet
  facet normal 0.382684 0.923879 0
    outer loop
      vertex 9.5 26.5359 4
      vertex 10.4647 26.1363 0
      vertex 9.5 26.5359 0
    endloop
  endfacet
  facet normal 0.923879 0.382684 0
    outer loop
      vertex 8.0359 28 4
      vertex 7.6363 28.9647 0
      vertex 7.6363 28.9647 4
    endloop
  endfacet
  facet normal 0.923879 0.382684 0
    outer loop
      vertex 7.6363 28.9647 0
      vertex 8.0359 28 4
      vertex 8.0359 28 0
    endloop
  endfacet
  facet normal -0.793353 -0.608762 0
    outer loop
      vertex 14.9641 32 0
      vertex 14.3284 32.8284 4
      vertex 14.3284 32.8284 0
    endloop
  endfacet
  facet normal -0.793353 -0.608762 0
    outer loop
      vertex 14.3284 32.8284 4
      vertex 14.9641 32 0
      vertex 14.9641 32 4
    endloop
  endfacet
  facet normal -0.130529 -0.991445 0
    outer loop
      vertex 11.5 34 0
      vertex 12.5353 33.8637 4
      vertex 11.5 34 4
    endloop
  endfacet
  facet normal -0.130529 -0.991445 -0
    outer loop
      vertex 12.5353 33.8637 4
      vertex 11.5 34 0
      vertex 12.5353 33.8637 0
    endloop
  endfacet
  facet normal -0.382683 -0.92388 0
    outer loop
      vertex 12.5353 33.8637 0
      vertex 13.5 33.4641 4
      vertex 12.5353 33.8637 4
    endloop
  endfacet
  facet normal -0.382683 -0.92388 -0
    outer loop
      vertex 13.5 33.4641 4
      vertex 12.5353 33.8637 0
      vertex 13.5 33.4641 0
    endloop
  endfacet
  facet normal 0.991445 -0.130526 0
    outer loop
      vertex 7.5 30 4
      vertex 7.6363 31.0353 0
      vertex 7.6363 31.0353 4
    endloop
  endfacet
  facet normal 0.991445 -0.130526 0
    outer loop
      vertex 7.6363 31.0353 0
      vertex 7.5 30 4
      vertex 7.5 30 0
    endloop
  endfacet
  facet normal 0.608761 -0.793354 0
    outer loop
      vertex 8.67157 32.8284 0
      vertex 9.5 33.4641 4
      vertex 8.67157 32.8284 4
    endloop
  endfacet
  facet normal 0.608761 -0.793354 0
    outer loop
      vertex 9.5 33.4641 4
      vertex 8.67157 32.8284 0
      vertex 9.5 33.4641 0
    endloop
  endfacet
  facet normal -0.991445 0.130527 0
    outer loop
      vertex 15.3637 28.9647 0
      vertex 15.5 30 4
      vertex 15.5 30 0
    endloop
  endfacet
  facet normal -0.991445 0.130527 0
    outer loop
      vertex 15.5 30 4
      vertex 15.3637 28.9647 0
      vertex 15.3637 28.9647 4
    endloop
  endfacet
  facet normal -0.608762 0.793353 0
    outer loop
      vertex 14.3284 27.1716 0
      vertex 13.5 26.5359 4
      vertex 14.3284 27.1716 4
    endloop
  endfacet
  facet normal -0.608762 0.793353 0
    outer loop
      vertex 13.5 26.5359 4
      vertex 14.3284 27.1716 0
      vertex 13.5 26.5359 0
    endloop
  endfacet
  facet normal 0.130525 0.991445 -0
    outer loop
      vertex 11.5 26 0
      vertex 10.4647 26.1363 4
      vertex 11.5 26 4
    endloop
  endfacet
  facet normal 0.130525 0.991445 0
    outer loop
      vertex 10.4647 26.1363 4
      vertex 11.5 26 0
      vertex 10.4647 26.1363 0
    endloop
  endfacet
  facet normal 0.793353 0.608762 0
    outer loop
      vertex 8.67157 27.1716 4
      vertex 8.0359 28 0
      vertex 8.0359 28 4
    endloop
  endfacet
  facet normal 0.793353 0.608762 0
    outer loop
      vertex 8.0359 28 0
      vertex 8.67157 27.1716 4
      vertex 8.67157 27.1716 0
    endloop
  endfacet
  facet normal 0.991445 0.130526 0
    outer loop
      vertex 7.6363 28.9647 4
      vertex 7.5 30 0
      vertex 7.5 30 4
    endloop
  endfacet
  facet normal 0.991445 0.130526 0
    outer loop
      vertex 7.5 30 0
      vertex 7.6363 28.9647 4
      vertex 7.6363 28.9647 0
    endloop
  endfacet
  facet normal -0.793353 0.608762 0
    outer loop
      vertex 14.3284 27.1716 0
      vertex 14.9641 28 4
      vertex 14.9641 28 0
    endloop
  endfacet
  facet normal -0.793353 0.608762 0
    outer loop
      vertex 14.9641 28 4
      vertex 14.3284 27.1716 0
      vertex 14.3284 27.1716 4
    endloop
  endfacet
  facet normal -0.130525 0.991445 0
    outer loop
      vertex 12.5353 26.1363 0
      vertex 11.5 26 4
      vertex 12.5353 26.1363 4
    endloop
  endfacet
  facet normal -0.130525 0.991445 0
    outer loop
      vertex 11.5 26 4
      vertex 12.5353 26.1363 0
      vertex 11.5 26 0
    endloop
  endfacet
  facet normal 0.608762 0.793353 -0
    outer loop
      vertex 9.5 26.5359 0
      vertex 8.67157 27.1716 4
      vertex 9.5 26.5359 4
    endloop
  endfacet
  facet normal 0.608762 0.793353 0
    outer loop
      vertex 8.67157 27.1716 4
      vertex 9.5 26.5359 0
      vertex 8.67157 27.1716 0
    endloop
  endfacet
endsolid OpenSCAD_Model
