solid OpenSCAD_Model
  facet normal -1 0 0
    outer loop
      vertex 0 74 4
      vertex 0 83 8.85
      vertex 0 83 0
    endloop
  endfacet
  facet normal -1 -0 0
    outer loop
      vertex 0 83 8.85
      vertex 0 74 4
      vertex 0 79.85 12
    endloop
  endfacet
  facet normal -1 0 0
    outer loop
      vertex 0 0 0
      vertex 0 74 4
      vertex 0 83 0
    endloop
  endfacet
  facet normal -1 -0 0
    outer loop
      vertex 0 74 4
      vertex 0 0 0
      vertex 0 0 4
    endloop
  endfacet
  facet normal -1 -0 0
    outer loop
      vertex 0 79.85 12
      vertex 0 74 4
      vertex 0 74 12
    endloop
  endfacet
  facet normal 0 0 1
    outer loop
      vertex 23 79.85 12
      vertex 20.05 74 12
      vertex 23 74 12
    endloop
  endfacet
  facet normal -0 0 1
    outer loop
      vertex 18.25 79.85 12
      vertex 20.05 74 12
      vertex 23 79.85 12
    endloop
  endfacet
  facet normal 0 0 1
    outer loop
      vertex 20.05 74 12
      vertex 18.25 79.85 12
      vertex 18.25 74 12
    endloop
  endfacet
  facet normal -0 0 1
    outer loop
      vertex 0 79.85 12
      vertex 4.75 74 12
      vertex 4.75 79.85 12
    endloop
  endfacet
  facet normal 0 0 1
    outer loop
      vertex 4.75 74 12
      vertex 0 79.85 12
      vertex 0 74 12
    endloop
  endfacet
  facet normal 1 0 0
    outer loop
      vertex 23 74 4
      vertex 23 83 8.85
      vertex 23 79.85 12
    endloop
  endfacet
  facet normal 1 0 0
    outer loop
      vertex 23 74 4
      vertex 23 79.85 12
      vertex 23 74 12
    endloop
  endfacet
  facet normal 1 0 0
    outer loop
      vertex 23 83 8.85
      vertex 23 74 4
      vertex 23 83 0
    endloop
  endfacet
  facet normal 1 0 0
    outer loop
      vertex 23 0 0
      vertex 23 74 4
      vertex 23 0 4
    endloop
  endfacet
  facet normal 1 0 0
    outer loop
      vertex 23 74 4
      vertex 23 0 0
      vertex 23 83 0
    endloop
  endfacet
  facet normal 0 1 -0
    outer loop
      vertex 23 83 0
      vertex 18.25 83 8.85
      vertex 23 83 8.85
    endloop
  endfacet
  facet normal 0 1 0
    outer loop
      vertex 18.25 83 8.85
      vertex 23 83 0
      vertex 18.25 83 0
    endloop
  endfacet
  facet normal 0 1 -0
    outer loop
      vertex 4.75 83 0
      vertex 0 83 8.85
      vertex 4.75 83 8.85
    endloop
  endfacet
  facet normal 0 1 0
    outer loop
      vertex 0 83 8.85
      vertex 4.75 83 0
      vertex 0 83 0
    endloop
  endfacet
  facet normal 0 0 -1
    outer loop
      vertex 18.25 52 0
      vertex 14.9 37 0
      vertex 14.9648 39.7577 0
    endloop
  endfacet
  facet normal 0 0 -1
    outer loop
      vertex 14.9648 34.2423 0
      vertex 14.7841 36.12 0
      vertex 14.9 37 0
    endloop
  endfacet
  facet normal 0 0 -1
    outer loop
      vertex 14.9648 34.2423 0
      vertex 14.4445 35.3 0
      vertex 14.7841 36.12 0
    endloop
  endfacet
  facet normal 0 -0 -1
    outer loop
      vertex 14.4445 35.3 0
      vertex 14.9648 34.2423 0
      vertex 14.2112 34.9959 0
    endloop
  endfacet
  facet normal 0 0 -1
    outer loop
      vertex 14.2577 28.7648 0
      vertex 14.9648 34.2423 0
      vertex 14.9648 28.0577 0
    endloop
  endfacet
  facet normal 0 0 -1
    outer loop
      vertex 14.2577 28.7648 0
      vertex 14.2577 33.5352 0
      vertex 14.9648 34.2423 0
    endloop
  endfacet
  facet normal 0 0 -1
    outer loop
      vertex 13.2 28.2445 0
      vertex 14.2577 28.7648 0
      vertex 13.5041 28.0112 0
    endloop
  endfacet
  facet normal 0 0 -1
    outer loop
      vertex 12.38 28.5841 0
      vertex 14.2577 28.7648 0
      vertex 13.2 28.2445 0
    endloop
  endfacet
  facet normal -0 0 -1
    outer loop
      vertex 14.2577 28.7648 0
      vertex 12.38 28.5841 0
      vertex 14.2577 33.5352 0
    endloop
  endfacet
  facet normal 0 0 -1
    outer loop
      vertex 14.2577 33.5352 0
      vertex 13.2 34.0555 0
      vertex 13.5041 34.2888 0
    endloop
  endfacet
  facet normal 0 0 -1
    outer loop
      vertex 12.38 33.7159 0
      vertex 14.2577 33.5352 0
      vertex 12.38 28.5841 0
    endloop
  endfacet
  facet normal 0 0 -1
    outer loop
      vertex 14.2577 33.5352 0
      vertex 12.38 33.7159 0
      vertex 13.2 34.0555 0
    endloop
  endfacet
  facet normal 0 0 -1
    outer loop
      vertex 11.5 28.7 0
      vertex 12.38 33.7159 0
      vertex 12.38 28.5841 0
    endloop
  endfacet
  facet normal 0 0 -1
    outer loop
      vertex 11.5 28.7 0
      vertex 11.5 33.6 0
      vertex 12.38 33.7159 0
    endloop
  endfacet
  facet normal 0 0 -1
    outer loop
      vertex 10.62 28.5841 0
      vertex 11.5 33.6 0
      vertex 11.5 28.7 0
    endloop
  endfacet
  facet normal 0 0 -1
    outer loop
      vertex 10.62 28.5841 0
      vertex 10.62 33.7159 0
      vertex 11.5 33.6 0
    endloop
  endfacet
  facet normal 0 0 -1
    outer loop
      vertex 8.74228 28.7648 0
      vertex 10.62 28.5841 0
      vertex 9.8 28.2445 0
    endloop
  endfacet
  facet normal 0 0 -1
    outer loop
      vertex 10.62 28.5841 0
      vertex 8.74228 28.7648 0
      vertex 10.62 33.7159 0
    endloop
  endfacet
  facet normal 0 0 -1
    outer loop
      vertex 8.74228 28.7648 0
      vertex 9.8 28.2445 0
      vertex 9.49594 28.0112 0
    endloop
  endfacet
  facet normal 0 0 -1
    outer loop
      vertex 8.74228 33.5352 0
      vertex 10.62 33.7159 0
      vertex 8.74228 28.7648 0
    endloop
  endfacet
  facet normal -0 0 -1
    outer loop
      vertex 10.62 33.7159 0
      vertex 8.74228 33.5352 0
      vertex 9.8 34.0555 0
    endloop
  endfacet
  facet normal -0 0 -1
    outer loop
      vertex 9.8 34.0555 0
      vertex 8.74228 33.5352 0
      vertex 9.49594 34.2888 0
    endloop
  endfacet
  facet normal 0 0 -1
    outer loop
      vertex 8.03518 28.0577 0
      vertex 8.74228 33.5352 0
      vertex 8.74228 28.7648 0
    endloop
  endfacet
  facet normal -0 0 -1
    outer loop
      vertex 8.74228 33.5352 0
      vertex 8.03518 28.0577 0
      vertex 8.03518 34.2423 0
    endloop
  endfacet
  facet normal 0 0 -1
    outer loop
      vertex 23 0 0
      vertex 14.9 25.3 0
      vertex 14.9648 28.0577 0
    endloop
  endfacet
  facet normal 0 0 -1
    outer loop
      vertex 14.9648 22.5423 0
      vertex 14.7841 24.42 0
      vertex 14.9 25.3 0
    endloop
  endfacet
  facet normal 0 0 -1
    outer loop
      vertex 14.9648 22.5423 0
      vertex 14.4445 23.6 0
      vertex 14.7841 24.42 0
    endloop
  endfacet
  facet normal 0 -0 -1
    outer loop
      vertex 14.4445 23.6 0
      vertex 14.9648 22.5423 0
      vertex 14.2112 23.2959 0
    endloop
  endfacet
  facet normal 0 0 -1
    outer loop
      vertex 23 0 0
      vertex 18.25 52 0
      vertex 23 83 0
    endloop
  endfacet
  facet normal 0 0 -1
    outer loop
      vertex 14.9 25.3 0
      vertex 23 0 0
      vertex 14.9648 22.5423 0
    endloop
  endfacet
  facet normal 0 0 -1
    outer loop
      vertex 23 0 0
      vertex 14.2577 21.8352 0
      vertex 14.9648 22.5423 0
    endloop
  endfacet
  facet normal 0 0 -1
    outer loop
      vertex 11.5 21.9 0
      vertex 14.2577 21.8352 0
      vertex 23 0 0
    endloop
  endfacet
  facet normal 0 0 -1
    outer loop
      vertex 14.2577 21.8352 0
      vertex 13.2 22.3555 0
      vertex 13.5041 22.5888 0
    endloop
  endfacet
  facet normal 0 0 -1
    outer loop
      vertex 14.2577 21.8352 0
      vertex 12.38 22.0159 0
      vertex 13.2 22.3555 0
    endloop
  endfacet
  facet normal 0 0 -1
    outer loop
      vertex 14.2577 21.8352 0
      vertex 11.5 21.9 0
      vertex 12.38 22.0159 0
    endloop
  endfacet
  facet normal 0 0 -1
    outer loop
      vertex 0 0 0
      vertex 11.5 21.9 0
      vertex 23 0 0
    endloop
  endfacet
  facet normal 0 -0 -1
    outer loop
      vertex 8.74228 21.8352 0
      vertex 11.5 21.9 0
      vertex 0 0 0
    endloop
  endfacet
  facet normal -0 0 -1
    outer loop
      vertex 10.62 22.0159 0
      vertex 8.74228 21.8352 0
      vertex 9.8 22.3555 0
    endloop
  endfacet
  facet normal -0 0 -1
    outer loop
      vertex 9.8 22.3555 0
      vertex 8.74228 21.8352 0
      vertex 9.49594 22.5888 0
    endloop
  endfacet
  facet normal -0 0 -1
    outer loop
      vertex 11.5 21.9 0
      vertex 8.74228 21.8352 0
      vertex 10.62 22.0159 0
    endloop
  endfacet
  facet normal -0 0 -1
    outer loop
      vertex 8.1 25.3 0
      vertex 0 0 0
      vertex 8.03518 28.0577 0
    endloop
  endfacet
  facet normal -0 0 -1
    outer loop
      vertex 8.03518 28.0577 0
      vertex 0 0 0
      vertex 8.03518 34.2423 0
    endloop
  endfacet
  facet normal 0 0 -1
    outer loop
      vertex 8.03518 34.2423 0
      vertex 4.75 52 0
      vertex 8.03518 39.7577 0
    endloop
  endfacet
  facet normal -0 0 -1
    outer loop
      vertex 8.74228 21.8352 0
      vertex 0 0 0
      vertex 8.03518 22.5423 0
    endloop
  endfacet
  facet normal -0 0 -1
    outer loop
      vertex 8.03518 34.2423 0
      vertex 0 0 0
      vertex 4.75 52 0
    endloop
  endfacet
  facet normal 0 0 -1
    outer loop
      vertex 0 83 0
      vertex 4.75 52 0
      vertex 0 0 0
    endloop
  endfacet
  facet normal 0 0 -1
    outer loop
      vertex 4.75 52 0
      vertex 0 83 0
      vertex 4.75 83 0
    endloop
  endfacet
  facet normal -0 0 -1
    outer loop
      vertex 23 83 0
      vertex 18.25 52 0
      vertex 18.25 83 0
    endloop
  endfacet
  facet normal 0 0 -1
    outer loop
      vertex 23 0 0
      vertex 14.9648 28.0577 0
      vertex 18.25 52 0
    endloop
  endfacet
  facet normal 0 0 -1
    outer loop
      vertex 14.9648 34.2423 0
      vertex 18.25 52 0
      vertex 14.9648 28.0577 0
    endloop
  endfacet
  facet normal 0 0 -1
    outer loop
      vertex 14.9 37 0
      vertex 18.25 52 0
      vertex 14.9648 34.2423 0
    endloop
  endfacet
  facet normal 0 0 -1
    outer loop
      vertex 14.2577 40.4648 0
      vertex 18.25 52 0
      vertex 14.9648 39.7577 0
    endloop
  endfacet
  facet normal 0 0 -1
    outer loop
      vertex 13.2 39.9445 0
      vertex 14.2577 40.4648 0
      vertex 13.5041 39.7112 0
    endloop
  endfacet
  facet normal 0 0 -1
    outer loop
      vertex 12.38 40.2841 0
      vertex 14.2577 40.4648 0
      vertex 13.2 39.9445 0
    endloop
  endfacet
  facet normal 0 0 -1
    outer loop
      vertex 11.5 40.4 0
      vertex 14.2577 40.4648 0
      vertex 12.38 40.2841 0
    endloop
  endfacet
  facet normal -0 0 -1
    outer loop
      vertex 14.2577 40.4648 0
      vertex 11.5 40.4 0
      vertex 18.25 52 0
    endloop
  endfacet
  facet normal 0 0 -1
    outer loop
      vertex 8.74228 40.4648 0
      vertex 11.5 40.4 0
      vertex 10.62 40.2841 0
    endloop
  endfacet
  facet normal 0 0 -1
    outer loop
      vertex 8.74228 40.4648 0
      vertex 10.62 40.2841 0
      vertex 9.8 39.9445 0
    endloop
  endfacet
  facet normal 0 0 -1
    outer loop
      vertex 8.74228 40.4648 0
      vertex 9.8 39.9445 0
      vertex 9.49594 39.7112 0
    endloop
  endfacet
  facet normal 0 0 -1
    outer loop
      vertex 11.5 40.4 0
      vertex 8.74228 40.4648 0
      vertex 4.75 52 0
    endloop
  endfacet
  facet normal 0 0 -1
    outer loop
      vertex 4.75 52 0
      vertex 8.74228 40.4648 0
      vertex 8.03518 39.7577 0
    endloop
  endfacet
  facet normal 0 0 -1
    outer loop
      vertex 11.5 40.4 0
      vertex 4.75 52 0
      vertex 18.25 52 0
    endloop
  endfacet
  facet normal 0 0 -1
    outer loop
      vertex 14.7841 26.18 0
      vertex 14.9648 28.0577 0
      vertex 14.9 25.3 0
    endloop
  endfacet
  facet normal 0 0 -1
    outer loop
      vertex 14.4445 27 0
      vertex 14.9648 28.0577 0
      vertex 14.7841 26.18 0
    endloop
  endfacet
  facet normal 0 0 -1
    outer loop
      vertex 14.9648 28.0577 0
      vertex 14.4445 27 0
      vertex 14.2112 27.3041 0
    endloop
  endfacet
  facet normal 0 0 -1
    outer loop
      vertex 14.7841 37.88 0
      vertex 14.9648 39.7577 0
      vertex 14.9 37 0
    endloop
  endfacet
  facet normal 0 0 -1
    outer loop
      vertex 14.4445 38.7 0
      vertex 14.9648 39.7577 0
      vertex 14.7841 37.88 0
    endloop
  endfacet
  facet normal 0 0 -1
    outer loop
      vertex 14.9648 39.7577 0
      vertex 14.4445 38.7 0
      vertex 14.2112 39.0041 0
    endloop
  endfacet
  facet normal -0 0 -1
    outer loop
      vertex 8.21585 24.42 0
      vertex 8.03518 22.5423 0
      vertex 8.1 25.3 0
    endloop
  endfacet
  facet normal -0 0 -1
    outer loop
      vertex 8.55551 23.6 0
      vertex 8.03518 22.5423 0
      vertex 8.21585 24.42 0
    endloop
  endfacet
  facet normal 0 0 -1
    outer loop
      vertex 8.03518 22.5423 0
      vertex 8.55551 23.6 0
      vertex 8.78883 23.2959 0
    endloop
  endfacet
  facet normal 0 0 -1
    outer loop
      vertex 8.55551 27 0
      vertex 8.03518 28.0577 0
      vertex 8.78883 27.3041 0
    endloop
  endfacet
  facet normal 0 0 -1
    outer loop
      vertex 8.21585 26.18 0
      vertex 8.03518 28.0577 0
      vertex 8.55551 27 0
    endloop
  endfacet
  facet normal 0 0 -1
    outer loop
      vertex 8.1 25.3 0
      vertex 8.03518 28.0577 0
      vertex 8.21585 26.18 0
    endloop
  endfacet
  facet normal 0 0 -1
    outer loop
      vertex 0 0 0
      vertex 8.1 25.3 0
      vertex 8.03518 22.5423 0
    endloop
  endfacet
  facet normal -0 0 -1
    outer loop
      vertex 8.21585 36.12 0
      vertex 8.03518 34.2423 0
      vertex 8.1 37 0
    endloop
  endfacet
  facet normal -0 0 -1
    outer loop
      vertex 8.55551 35.3 0
      vertex 8.03518 34.2423 0
      vertex 8.21585 36.12 0
    endloop
  endfacet
  facet normal 0 0 -1
    outer loop
      vertex 8.03518 34.2423 0
      vertex 8.55551 35.3 0
      vertex 8.78883 34.9959 0
    endloop
  endfacet
  facet normal 0 0 -1
    outer loop
      vertex 8.55551 38.7 0
      vertex 8.03518 39.7577 0
      vertex 8.78883 39.0041 0
    endloop
  endfacet
  facet normal 0 0 -1
    outer loop
      vertex 8.21585 37.88 0
      vertex 8.03518 39.7577 0
      vertex 8.55551 38.7 0
    endloop
  endfacet
  facet normal 0 0 -1
    outer loop
      vertex 8.1 37 0
      vertex 8.03518 39.7577 0
      vertex 8.21585 37.88 0
    endloop
  endfacet
  facet normal 0 0 -1
    outer loop
      vertex 8.03518 39.7577 0
      vertex 8.1 37 0
      vertex 8.03518 34.2423 0
    endloop
  endfacet
  facet normal 0 -1 0
    outer loop
      vertex 20.05 74 4
      vertex 23 74 12
      vertex 20.05 74 12
    endloop
  endfacet
  facet normal 0 -1 -0
    outer loop
      vertex 23 74 12
      vertex 20.05 74 4
      vertex 23 74 4
    endloop
  endfacet
  facet normal 0 -1 0
    outer loop
      vertex 0 74 4
      vertex 4.75 74 12
      vertex 0 74 12
    endloop
  endfacet
  facet normal 0 -1 -0
    outer loop
      vertex 4.75 74 12
      vertex 0 74 4
      vertex 4.75 74 4
    endloop
  endfacet
  facet normal 0 1 -0
    outer loop
      vertex 20.05 74 12
      vertex 18.25 74 14
      vertex 20.05 74 14
    endloop
  endfacet
  facet normal 0 1 0
    outer loop
      vertex 18.25 74 14
      vertex 20.05 74 12
      vertex 18.25 74 12
    endloop
  endfacet
  facet normal -0 0.707107 0.707107
    outer loop
      vertex 0 83 8.85
      vertex 4.75 79.85 12
      vertex 4.75 83 8.85
    endloop
  endfacet
  facet normal 0 0.707107 0.707107
    outer loop
      vertex 4.75 79.85 12
      vertex 0 83 8.85
      vertex 0 79.85 12
    endloop
  endfacet
  facet normal -0 0.707107 0.707107
    outer loop
      vertex 18.25 83 8.85
      vertex 23 79.85 12
      vertex 23 83 8.85
    endloop
  endfacet
  facet normal 0 0.707107 0.707107
    outer loop
      vertex 23 79.85 12
      vertex 18.25 83 8.85
      vertex 18.25 79.85 12
    endloop
  endfacet
  facet normal -0 0 1
    outer loop
      vertex 0 74 4
      vertex 4.75 52 4
      vertex 4.75 74 4
    endloop
  endfacet
  facet normal 0 0 1
    outer loop
      vertex 4.5 44 4
      vertex 0 74 4
      vertex 4.5 30 4
    endloop
  endfacet
  facet normal 0 0 1
    outer loop
      vertex 4.75 52 4
      vertex 0 74 4
      vertex 4.5 44 4
    endloop
  endfacet
  facet normal -0 0 1
    outer loop
      vertex 4.75 52 4
      vertex 18.25 44 4
      vertex 18.25 52 4
    endloop
  endfacet
  facet normal 0 0 1
    outer loop
      vertex 18.25 44 4
      vertex 4.75 52 4
      vertex 4.5 44 4
    endloop
  endfacet
  facet normal 0 0 1
    outer loop
      vertex 18.25 30 4
      vertex 14.9 25.3 4
      vertex 14.9648 22.5423 4
    endloop
  endfacet
  facet normal 0 0 1
    outer loop
      vertex 18.25 30 4
      vertex 14.7841 26.18 4
      vertex 14.9 25.3 4
    endloop
  endfacet
  facet normal 0 0 1
    outer loop
      vertex 14.9648 28.0577 4
      vertex 14.4445 27 4
      vertex 14.7841 26.18 4
    endloop
  endfacet
  facet normal 0 -0 1
    outer loop
      vertex 14.4445 27 4
      vertex 14.9648 28.0577 4
      vertex 14.2112 27.3041 4
    endloop
  endfacet
  facet normal 0 0 1
    outer loop
      vertex 14.7841 26.18 4
      vertex 18.25 30 4
      vertex 14.9648 28.0577 4
    endloop
  endfacet
  facet normal 0 0 1
    outer loop
      vertex 18.25 30 4
      vertex 14.2577 28.7648 4
      vertex 14.9648 28.0577 4
    endloop
  endfacet
  facet normal 0 0 1
    outer loop
      vertex 14.2577 28.7648 4
      vertex 13.2 28.2445 4
      vertex 13.5041 28.0112 4
    endloop
  endfacet
  facet normal 0 0 1
    outer loop
      vertex 14.2577 28.7648 4
      vertex 12.38 28.5841 4
      vertex 13.2 28.2445 4
    endloop
  endfacet
  facet normal 0 0 1
    outer loop
      vertex 11.5 28.7 4
      vertex 14.2577 28.7648 4
      vertex 18.25 30 4
    endloop
  endfacet
  facet normal 0 0 1
    outer loop
      vertex 14.2577 28.7648 4
      vertex 11.5 28.7 4
      vertex 12.38 28.5841 4
    endloop
  endfacet
  facet normal -0 0 1
    outer loop
      vertex 4.5 30 4
      vertex 11.5 28.7 4
      vertex 18.25 30 4
    endloop
  endfacet
  facet normal 0 0 1
    outer loop
      vertex 9.8 28.2445 4
      vertex 8.74228 28.7648 4
      vertex 9.49594 28.0112 4
    endloop
  endfacet
  facet normal 0 0 1
    outer loop
      vertex 10.62 28.5841 4
      vertex 8.74228 28.7648 4
      vertex 9.8 28.2445 4
    endloop
  endfacet
  facet normal 0 0 1
    outer loop
      vertex 11.5 28.7 4
      vertex 8.74228 28.7648 4
      vertex 10.62 28.5841 4
    endloop
  endfacet
  facet normal 0 0 1
    outer loop
      vertex 8.1 25.3 4
      vertex 4.5 30 4
      vertex 8.03518 22.5423 4
    endloop
  endfacet
  facet normal 0 0 1
    outer loop
      vertex 8.74228 28.7648 4
      vertex 4.5 30 4
      vertex 8.03518 28.0577 4
    endloop
  endfacet
  facet normal 0 0 1
    outer loop
      vertex 11.5 28.7 4
      vertex 4.5 30 4
      vertex 8.74228 28.7648 4
    endloop
  endfacet
  facet normal 0 0 1
    outer loop
      vertex 20.05 12 4
      vertex 23 74 4
      vertex 20.05 74 4
    endloop
  endfacet
  facet normal 0 0 1
    outer loop
      vertex 23 74 4
      vertex 20.05 12 4
      vertex 23 0 4
    endloop
  endfacet
  facet normal -0 0 1
    outer loop
      vertex 18.25 12 4
      vertex 23 0 4
      vertex 20.05 12 4
    endloop
  endfacet
  facet normal 0 0 1
    outer loop
      vertex 18.25 30 4
      vertex 14.9648 22.5423 4
      vertex 18.25 12 4
    endloop
  endfacet
  facet normal -0 0 1
    outer loop
      vertex 14.2577 21.8352 4
      vertex 18.25 12 4
      vertex 14.9648 22.5423 4
    endloop
  endfacet
  facet normal 0 0 1
    outer loop
      vertex 11.5 21.9 4
      vertex 18.25 12 4
      vertex 14.2577 21.8352 4
    endloop
  endfacet
  facet normal -0 0 1
    outer loop
      vertex 13.2 22.3555 4
      vertex 14.2577 21.8352 4
      vertex 13.5041 22.5888 4
    endloop
  endfacet
  facet normal -0 0 1
    outer loop
      vertex 12.38 22.0159 4
      vertex 14.2577 21.8352 4
      vertex 13.2 22.3555 4
    endloop
  endfacet
  facet normal -0 0 1
    outer loop
      vertex 11.5 21.9 4
      vertex 14.2577 21.8352 4
      vertex 12.38 22.0159 4
    endloop
  endfacet
  facet normal -0 0 1
    outer loop
      vertex 8.74228 21.8352 4
      vertex 18.25 12 4
      vertex 11.5 21.9 4
    endloop
  endfacet
  facet normal 0 0 1
    outer loop
      vertex 8.74228 21.8352 4
      vertex 11.5 21.9 4
      vertex 10.62 22.0159 4
    endloop
  endfacet
  facet normal 0 0 1
    outer loop
      vertex 8.74228 21.8352 4
      vertex 10.62 22.0159 4
      vertex 9.8 22.3555 4
    endloop
  endfacet
  facet normal 0 0 1
    outer loop
      vertex 8.74228 21.8352 4
      vertex 9.8 22.3555 4
      vertex 9.49594 22.5888 4
    endloop
  endfacet
  facet normal 0 0 1
    outer loop
      vertex 18.25 12 4
      vertex 8.74228 21.8352 4
      vertex 0 0 4
    endloop
  endfacet
  facet normal 0 0 1
    outer loop
      vertex 0 0 4
      vertex 8.74228 21.8352 4
      vertex 8.03518 22.5423 4
    endloop
  endfacet
  facet normal 0 0 1
    outer loop
      vertex 18.25 12 4
      vertex 0 0 4
      vertex 23 0 4
    endloop
  endfacet
  facet normal 0 0 1
    outer loop
      vertex 4.5 30 4
      vertex 0 0 4
      vertex 8.03518 22.5423 4
    endloop
  endfacet
  facet normal 0 0 1
    outer loop
      vertex 0 0 4
      vertex 4.5 30 4
      vertex 0 74 4
    endloop
  endfacet
  facet normal -0 0 1
    outer loop
      vertex 14.7841 24.42 4
      vertex 14.9648 22.5423 4
      vertex 14.9 25.3 4
    endloop
  endfacet
  facet normal -0 0 1
    outer loop
      vertex 14.4445 23.6 4
      vertex 14.9648 22.5423 4
      vertex 14.7841 24.42 4
    endloop
  endfacet
  facet normal 0 0 1
    outer loop
      vertex 14.9648 22.5423 4
      vertex 14.4445 23.6 4
      vertex 14.2112 23.2959 4
    endloop
  endfacet
  facet normal 0 0 1
    outer loop
      vertex 4.5 30 4
      vertex 8.21585 26.18 4
      vertex 8.03518 28.0577 4
    endloop
  endfacet
  facet normal 0 0 1
    outer loop
      vertex 8.55551 27 4
      vertex 8.03518 28.0577 4
      vertex 8.21585 26.18 4
    endloop
  endfacet
  facet normal 0 0 1
    outer loop
      vertex 8.03518 28.0577 4
      vertex 8.55551 27 4
      vertex 8.78883 27.3041 4
    endloop
  endfacet
  facet normal 0 0 1
    outer loop
      vertex 8.55551 23.6 4
      vertex 8.03518 22.5423 4
      vertex 8.78883 23.2959 4
    endloop
  endfacet
  facet normal 0 0 1
    outer loop
      vertex 8.21585 24.42 4
      vertex 8.03518 22.5423 4
      vertex 8.55551 23.6 4
    endloop
  endfacet
  facet normal 0 0 1
    outer loop
      vertex 8.1 25.3 4
      vertex 8.03518 22.5423 4
      vertex 8.21585 24.42 4
    endloop
  endfacet
  facet normal 0 0 1
    outer loop
      vertex 8.21585 26.18 4
      vertex 4.5 30 4
      vertex 8.1 25.3 4
    endloop
  endfacet
  facet normal 0 0 1
    outer loop
      vertex 18.5 30 4
      vertex 14.9 37 4
      vertex 14.9648 34.2423 4
    endloop
  endfacet
  facet normal 0 0 1
    outer loop
      vertex 14.9648 39.7577 4
      vertex 14.7841 37.88 4
      vertex 14.9 37 4
    endloop
  endfacet
  facet normal 0 0 1
    outer loop
      vertex 14.9648 39.7577 4
      vertex 14.4445 38.7 4
      vertex 14.7841 37.88 4
    endloop
  endfacet
  facet normal 0 -0 1
    outer loop
      vertex 14.4445 38.7 4
      vertex 14.9648 39.7577 4
      vertex 14.2112 39.0041 4
    endloop
  endfacet
  facet normal 0 0 1
    outer loop
      vertex 14.9648 39.7577 4
      vertex 18.5 44 4
      vertex 18.25 44 4
    endloop
  endfacet
  facet normal 0 0 1
    outer loop
      vertex 14.9 37 4
      vertex 18.5 44 4
      vertex 14.9648 39.7577 4
    endloop
  endfacet
  facet normal 0 0 1
    outer loop
      vertex 18.5 44 4
      vertex 14.9 37 4
      vertex 18.5 30 4
    endloop
  endfacet
  facet normal 0 0 1
    outer loop
      vertex 18.25 44 4
      vertex 14.2577 40.4648 4
      vertex 14.9648 39.7577 4
    endloop
  endfacet
  facet normal 0 0 1
    outer loop
      vertex 14.2577 40.4648 4
      vertex 13.2 39.9445 4
      vertex 13.5041 39.7112 4
    endloop
  endfacet
  facet normal 0 0 1
    outer loop
      vertex 12.38 40.2841 4
      vertex 14.2577 40.4648 4
      vertex 18.25 44 4
    endloop
  endfacet
  facet normal 0 0 1
    outer loop
      vertex 14.2577 40.4648 4
      vertex 12.38 40.2841 4
      vertex 13.2 39.9445 4
    endloop
  endfacet
  facet normal 0 0 1
    outer loop
      vertex 18.25 44 4
      vertex 11.5 40.4 4
      vertex 12.38 40.2841 4
    endloop
  endfacet
  facet normal -0 0 1
    outer loop
      vertex 4.5 44 4
      vertex 11.5 40.4 4
      vertex 18.25 44 4
    endloop
  endfacet
  facet normal 0 0 1
    outer loop
      vertex 11.5 40.4 4
      vertex 4.5 44 4
      vertex 10.62 40.2841 4
    endloop
  endfacet
  facet normal 0 0 1
    outer loop
      vertex 9.8 39.9445 4
      vertex 8.74228 40.4648 4
      vertex 9.49594 39.7112 4
    endloop
  endfacet
  facet normal 0 0 1
    outer loop
      vertex 10.62 40.2841 4
      vertex 8.74228 40.4648 4
      vertex 9.8 39.9445 4
    endloop
  endfacet
  facet normal 0 0 1
    outer loop
      vertex 4.5 30 4
      vertex 8.1 37 4
      vertex 4.5 44 4
    endloop
  endfacet
  facet normal 0 0 1
    outer loop
      vertex 8.74228 40.4648 4
      vertex 4.5 44 4
      vertex 8.03518 39.7577 4
    endloop
  endfacet
  facet normal 0 0 1
    outer loop
      vertex 10.62 40.2841 4
      vertex 4.5 44 4
      vertex 8.74228 40.4648 4
    endloop
  endfacet
  facet normal 0 0 1
    outer loop
      vertex 18.5 30 4
      vertex 14.9648 34.2423 4
      vertex 18.25 30 4
    endloop
  endfacet
  facet normal -0 0 1
    outer loop
      vertex 14.2577 33.5352 4
      vertex 18.25 30 4
      vertex 14.9648 34.2423 4
    endloop
  endfacet
  facet normal -0 0 1
    outer loop
      vertex 13.2 34.0555 4
      vertex 14.2577 33.5352 4
      vertex 13.5041 34.2888 4
    endloop
  endfacet
  facet normal -0 0 1
    outer loop
      vertex 12.38 33.7159 4
      vertex 14.2577 33.5352 4
      vertex 13.2 34.0555 4
    endloop
  endfacet
  facet normal 0 0 1
    outer loop
      vertex 14.2577 33.5352 4
      vertex 12.38 33.7159 4
      vertex 18.25 30 4
    endloop
  endfacet
  facet normal -0 0 1
    outer loop
      vertex 11.5 33.6 4
      vertex 18.25 30 4
      vertex 12.38 33.7159 4
    endloop
  endfacet
  facet normal 0 0 1
    outer loop
      vertex 4.5 30 4
      vertex 11.5 33.6 4
      vertex 10.62 33.7159 4
    endloop
  endfacet
  facet normal 0 0 1
    outer loop
      vertex 8.74228 33.5352 4
      vertex 10.62 33.7159 4
      vertex 9.8 34.0555 4
    endloop
  endfacet
  facet normal 0 0 1
    outer loop
      vertex 8.74228 33.5352 4
      vertex 9.8 34.0555 4
      vertex 9.49594 34.2888 4
    endloop
  endfacet
  facet normal 0 0 1
    outer loop
      vertex 4.5 30 4
      vertex 10.62 33.7159 4
      vertex 8.74228 33.5352 4
    endloop
  endfacet
  facet normal 0 0 1
    outer loop
      vertex 11.5 33.6 4
      vertex 4.5 30 4
      vertex 18.25 30 4
    endloop
  endfacet
  facet normal 0 0 1
    outer loop
      vertex 8.03518 34.2423 4
      vertex 4.5 30 4
      vertex 8.74228 33.5352 4
    endloop
  endfacet
  facet normal 0 0 1
    outer loop
      vertex 8.1 37 4
      vertex 4.5 30 4
      vertex 8.03518 34.2423 4
    endloop
  endfacet
  facet normal -0 0 1
    outer loop
      vertex 14.7841 36.12 4
      vertex 14.9648 34.2423 4
      vertex 14.9 37 4
    endloop
  endfacet
  facet normal -0 0 1
    outer loop
      vertex 14.4445 35.3 4
      vertex 14.9648 34.2423 4
      vertex 14.7841 36.12 4
    endloop
  endfacet
  facet normal 0 0 1
    outer loop
      vertex 14.9648 34.2423 4
      vertex 14.4445 35.3 4
      vertex 14.2112 34.9959 4
    endloop
  endfacet
  facet normal 0 0 1
    outer loop
      vertex 8.21585 37.88 4
      vertex 8.03518 39.7577 4
      vertex 8.1 37 4
    endloop
  endfacet
  facet normal 0 0 1
    outer loop
      vertex 8.55551 38.7 4
      vertex 8.03518 39.7577 4
      vertex 8.21585 37.88 4
    endloop
  endfacet
  facet normal 0 0 1
    outer loop
      vertex 8.03518 39.7577 4
      vertex 8.55551 38.7 4
      vertex 8.78883 39.0041 4
    endloop
  endfacet
  facet normal 0 0 1
    outer loop
      vertex 8.55551 35.3 4
      vertex 8.03518 34.2423 4
      vertex 8.78883 34.9959 4
    endloop
  endfacet
  facet normal 0 0 1
    outer loop
      vertex 8.21585 36.12 4
      vertex 8.03518 34.2423 4
      vertex 8.55551 35.3 4
    endloop
  endfacet
  facet normal 0 0 1
    outer loop
      vertex 8.1 37 4
      vertex 8.03518 34.2423 4
      vertex 8.21585 36.12 4
    endloop
  endfacet
  facet normal 0 0 1
    outer loop
      vertex 4.5 44 4
      vertex 8.1 37 4
      vertex 8.03518 39.7577 4
    endloop
  endfacet
  facet normal 0 -1 0
    outer loop
      vertex 0 0 0
      vertex 23 0 4
      vertex 0 0 4
    endloop
  endfacet
  facet normal 0 -1 -0
    outer loop
      vertex 23 0 4
      vertex 0 0 0
      vertex 23 0 0
    endloop
  endfacet
  facet normal -1 0 0
    outer loop
      vertex 18.25 12 4
      vertex 18.25 30 14
      vertex 18.25 30 4
    endloop
  endfacet
  facet normal -1 -0 0
    outer loop
      vertex 18.25 30 14
      vertex 18.25 12 4
      vertex 18.25 12 14
    endloop
  endfacet
  facet normal -1 0 0
    outer loop
      vertex 18.25 74 12
      vertex 18.25 83 8.85
      vertex 18.25 83 0
    endloop
  endfacet
  facet normal -1 0 0
    outer loop
      vertex 18.25 83 8.85
      vertex 18.25 74 12
      vertex 18.25 79.85 12
    endloop
  endfacet
  facet normal -1 0 0
    outer loop
      vertex 18.25 52 0
      vertex 18.25 74 12
      vertex 18.25 83 0
    endloop
  endfacet
  facet normal -1 0 0
    outer loop
      vertex 18.25 52 4
      vertex 18.25 74 12
      vertex 18.25 52 0
    endloop
  endfacet
  facet normal -1 0 0
    outer loop
      vertex 18.25 52 14
      vertex 18.25 74 12
      vertex 18.25 52 4
    endloop
  endfacet
  facet normal -1 0 0
    outer loop
      vertex 18.25 74 12
      vertex 18.25 52 14
      vertex 18.25 74 14
    endloop
  endfacet
  facet normal -1 0 0
    outer loop
      vertex 18.25 44 4
      vertex 18.25 52 14
      vertex 18.25 52 4
    endloop
  endfacet
  facet normal -1 -0 0
    outer loop
      vertex 18.25 52 14
      vertex 18.25 44 4
      vertex 18.25 44 14
    endloop
  endfacet
  facet normal 0 0 1
    outer loop
      vertex 20.05 74 14
      vertex 18.5 44 14
      vertex 20.05 12 14
    endloop
  endfacet
  facet normal 0 0 1
    outer loop
      vertex 18.25 52 14
      vertex 20.05 74 14
      vertex 18.25 74 14
    endloop
  endfacet
  facet normal 0 0 1
    outer loop
      vertex 20.05 74 14
      vertex 18.25 52 14
      vertex 18.5 44 14
    endloop
  endfacet
  facet normal 0 0 1
    outer loop
      vertex 18.5 44 14
      vertex 18.25 52 14
      vertex 18.25 44 14
    endloop
  endfacet
  facet normal -0 0 1
    outer loop
      vertex 18.5 30 14
      vertex 20.05 12 14
      vertex 18.5 44 14
    endloop
  endfacet
  facet normal 0 0 1
    outer loop
      vertex 18.25 12 14
      vertex 18.5 30 14
      vertex 18.25 30 14
    endloop
  endfacet
  facet normal 0 0 1
    outer loop
      vertex 18.5 30 14
      vertex 18.25 12 14
      vertex 20.05 12 14
    endloop
  endfacet
  facet normal 1 -0 0
    outer loop
      vertex 20.05 12 14
      vertex 20.05 74 12
      vertex 20.05 74 14
    endloop
  endfacet
  facet normal 1 0 0
    outer loop
      vertex 20.05 12 4
      vertex 20.05 74 12
      vertex 20.05 12 14
    endloop
  endfacet
  facet normal 1 0 0
    outer loop
      vertex 20.05 74 12
      vertex 20.05 12 4
      vertex 20.05 74 4
    endloop
  endfacet
  facet normal 0 -1 0
    outer loop
      vertex 18.25 12 4
      vertex 20.05 12 14
      vertex 18.25 12 14
    endloop
  endfacet
  facet normal 0 -1 -0
    outer loop
      vertex 20.05 12 14
      vertex 18.25 12 4
      vertex 20.05 12 4
    endloop
  endfacet
  facet normal -0.60876 -0.793355 0
    outer loop
      vertex 13.2 39.9445 0
      vertex 13.5041 39.7112 4
      vertex 13.2 39.9445 4
    endloop
  endfacet
  facet normal -0.60876 -0.793355 -0
    outer loop
      vertex 13.5041 39.7112 4
      vertex 13.2 39.9445 0
      vertex 13.5041 39.7112 0
    endloop
  endfacet
  facet normal 0.793353 0.608762 0
    outer loop
      vertex 8.78883 34.9959 4
      vertex 8.55551 35.3 0
      vertex 8.55551 35.3 4
    endloop
  endfacet
  facet normal 0.793353 0.608762 0
    outer loop
      vertex 8.55551 35.3 0
      vertex 8.78883 34.9959 4
      vertex 8.78883 34.9959 0
    endloop
  endfacet
  facet normal 0.60876 -0.793355 0
    outer loop
      vertex 9.49594 39.7112 0
      vertex 9.8 39.9445 4
      vertex 9.49594 39.7112 4
    endloop
  endfacet
  facet normal 0.60876 -0.793355 0
    outer loop
      vertex 9.8 39.9445 4
      vertex 9.49594 39.7112 0
      vertex 9.8 39.9445 0
    endloop
  endfacet
  facet normal 0.130526 -0.991445 0
    outer loop
      vertex 10.62 40.2841 0
      vertex 11.5 40.4 4
      vertex 10.62 40.2841 4
    endloop
  endfacet
  facet normal 0.130526 -0.991445 0
    outer loop
      vertex 11.5 40.4 4
      vertex 10.62 40.2841 0
      vertex 11.5 40.4 0
    endloop
  endfacet
  facet normal -0.382683 -0.92388 0
    outer loop
      vertex 12.38 40.2841 0
      vertex 13.2 39.9445 4
      vertex 12.38 40.2841 4
    endloop
  endfacet
  facet normal -0.382683 -0.92388 -0
    outer loop
      vertex 13.2 39.9445 4
      vertex 12.38 40.2841 0
      vertex 13.2 39.9445 0
    endloop
  endfacet
  facet normal 0.382683 -0.92388 0
    outer loop
      vertex 9.8 39.9445 0
      vertex 10.62 40.2841 4
      vertex 9.8 39.9445 4
    endloop
  endfacet
  facet normal 0.382683 -0.92388 0
    outer loop
      vertex 10.62 40.2841 4
      vertex 9.8 39.9445 0
      vertex 10.62 40.2841 0
    endloop
  endfacet
  facet normal 0.991445 -0.130525 0
    outer loop
      vertex 8.1 37 4
      vertex 8.21585 37.88 0
      vertex 8.21585 37.88 4
    endloop
  endfacet
  facet normal 0.991445 -0.130525 0
    outer loop
      vertex 8.21585 37.88 0
      vertex 8.1 37 4
      vertex 8.1 37 0
    endloop
  endfacet
  facet normal 0.991445 0.130525 0
    outer loop
      vertex 8.21585 36.12 4
      vertex 8.1 37 0
      vertex 8.1 37 4
    endloop
  endfacet
  facet normal 0.991445 0.130525 0
    outer loop
      vertex 8.1 37 0
      vertex 8.21585 36.12 4
      vertex 8.21585 36.12 0
    endloop
  endfacet
  facet normal 0.923879 -0.382684 0
    outer loop
      vertex 8.21585 37.88 4
      vertex 8.55551 38.7 0
      vertex 8.55551 38.7 4
    endloop
  endfacet
  facet normal 0.923879 -0.382684 0
    outer loop
      vertex 8.55551 38.7 0
      vertex 8.21585 37.88 4
      vertex 8.21585 37.88 0
    endloop
  endfacet
  facet normal -0.991445 -0.130525 0
    outer loop
      vertex 14.9 37 0
      vertex 14.7841 37.88 4
      vertex 14.7841 37.88 0
    endloop
  endfacet
  facet normal -0.991445 -0.130525 0
    outer loop
      vertex 14.7841 37.88 4
      vertex 14.9 37 0
      vertex 14.9 37 4
    endloop
  endfacet
  facet normal -0.923879 -0.382684 0
    outer loop
      vertex 14.7841 37.88 0
      vertex 14.4445 38.7 4
      vertex 14.4445 38.7 0
    endloop
  endfacet
  facet normal -0.923879 -0.382684 0
    outer loop
      vertex 14.4445 38.7 4
      vertex 14.7841 37.88 0
      vertex 14.7841 37.88 4
    endloop
  endfacet
  facet normal -0.130526 0.991445 0
    outer loop
      vertex 12.38 33.7159 0
      vertex 11.5 33.6 4
      vertex 12.38 33.7159 4
    endloop
  endfacet
  facet normal -0.130526 0.991445 0
    outer loop
      vertex 11.5 33.6 4
      vertex 12.38 33.7159 0
      vertex 11.5 33.6 0
    endloop
  endfacet
  facet normal -0.130526 -0.991445 0
    outer loop
      vertex 11.5 40.4 0
      vertex 12.38 40.2841 4
      vertex 11.5 40.4 4
    endloop
  endfacet
  facet normal -0.130526 -0.991445 -0
    outer loop
      vertex 12.38 40.2841 4
      vertex 11.5 40.4 0
      vertex 12.38 40.2841 0
    endloop
  endfacet
  facet normal 0.923879 0.382684 0
    outer loop
      vertex 8.55551 35.3 4
      vertex 8.21585 36.12 0
      vertex 8.21585 36.12 4
    endloop
  endfacet
  facet normal 0.923879 0.382684 0
    outer loop
      vertex 8.21585 36.12 0
      vertex 8.55551 35.3 4
      vertex 8.55551 35.3 0
    endloop
  endfacet
  facet normal 0.793353 -0.608762 0
    outer loop
      vertex 8.55551 38.7 4
      vertex 8.78883 39.0041 0
      vertex 8.78883 39.0041 4
    endloop
  endfacet
  facet normal 0.793353 -0.608762 0
    outer loop
      vertex 8.78883 39.0041 0
      vertex 8.55551 38.7 4
      vertex 8.55551 38.7 0
    endloop
  endfacet
  facet normal -0.793353 0.608762 0
    outer loop
      vertex 14.2112 34.9959 0
      vertex 14.4445 35.3 4
      vertex 14.4445 35.3 0
    endloop
  endfacet
  facet normal -0.793353 0.608762 0
    outer loop
      vertex 14.4445 35.3 4
      vertex 14.2112 34.9959 0
      vertex 14.2112 34.9959 4
    endloop
  endfacet
  facet normal -0.991445 0.130525 0
    outer loop
      vertex 14.7841 36.12 0
      vertex 14.9 37 4
      vertex 14.9 37 0
    endloop
  endfacet
  facet normal -0.991445 0.130525 0
    outer loop
      vertex 14.9 37 4
      vertex 14.7841 36.12 0
      vertex 14.7841 36.12 4
    endloop
  endfacet
  facet normal -0.382683 0.92388 0
    outer loop
      vertex 13.2 34.0555 0
      vertex 12.38 33.7159 4
      vertex 13.2 34.0555 4
    endloop
  endfacet
  facet normal -0.382683 0.92388 0
    outer loop
      vertex 12.38 33.7159 4
      vertex 13.2 34.0555 0
      vertex 12.38 33.7159 0
    endloop
  endfacet
  facet normal 0.130526 0.991445 -0
    outer loop
      vertex 11.5 33.6 0
      vertex 10.62 33.7159 4
      vertex 11.5 33.6 4
    endloop
  endfacet
  facet normal 0.130526 0.991445 0
    outer loop
      vertex 10.62 33.7159 4
      vertex 11.5 33.6 0
      vertex 10.62 33.7159 0
    endloop
  endfacet
  facet normal 0.60876 0.793355 -0
    outer loop
      vertex 9.8 34.0555 0
      vertex 9.49594 34.2888 4
      vertex 9.8 34.0555 4
    endloop
  endfacet
  facet normal 0.60876 0.793355 0
    outer loop
      vertex 9.49594 34.2888 4
      vertex 9.8 34.0555 0
      vertex 9.49594 34.2888 0
    endloop
  endfacet
  facet normal -0.793353 -0.608762 0
    outer loop
      vertex 14.4445 38.7 0
      vertex 14.2112 39.0041 4
      vertex 14.2112 39.0041 0
    endloop
  endfacet
  facet normal -0.793353 -0.608762 0
    outer loop
      vertex 14.2112 39.0041 4
      vertex 14.4445 38.7 0
      vertex 14.4445 38.7 4
    endloop
  endfacet
  facet normal -0.923879 0.382684 0
    outer loop
      vertex 14.4445 35.3 0
      vertex 14.7841 36.12 4
      vertex 14.7841 36.12 0
    endloop
  endfacet
  facet normal -0.923879 0.382684 0
    outer loop
      vertex 14.7841 36.12 4
      vertex 14.4445 35.3 0
      vertex 14.4445 35.3 4
    endloop
  endfacet
  facet normal -0.60876 0.793355 0
    outer loop
      vertex 13.5041 34.2888 0
      vertex 13.2 34.0555 4
      vertex 13.5041 34.2888 4
    endloop
  endfacet
  facet normal -0.60876 0.793355 0
    outer loop
      vertex 13.2 34.0555 4
      vertex 13.5041 34.2888 0
      vertex 13.2 34.0555 0
    endloop
  endfacet
  facet normal 0.382683 0.92388 -0
    outer loop
      vertex 10.62 33.7159 0
      vertex 9.8 34.0555 4
      vertex 10.62 33.7159 4
    endloop
  endfacet
  facet normal 0.382683 0.92388 0
    outer loop
      vertex 9.8 34.0555 4
      vertex 10.62 33.7159 0
      vertex 9.8 34.0555 0
    endloop
  endfacet
  facet normal 0.707107 0.707106 0
    outer loop
      vertex 8.74228 33.5352 4
      vertex 8.03518 34.2423 0
      vertex 8.03518 34.2423 4
    endloop
  endfacet
  facet normal 0.707107 0.707106 0
    outer loop
      vertex 8.03518 34.2423 0
      vertex 8.74228 33.5352 4
      vertex 8.74228 33.5352 0
    endloop
  endfacet
  facet normal -0.707107 -0.707106 0
    outer loop
      vertex 14.9648 39.7577 0
      vertex 14.2577 40.4648 4
      vertex 14.2577 40.4648 0
    endloop
  endfacet
  facet normal -0.707107 -0.707106 0
    outer loop
      vertex 14.2577 40.4648 4
      vertex 14.9648 39.7577 0
      vertex 14.9648 39.7577 4
    endloop
  endfacet
  facet normal 0.707107 -0.707106 0
    outer loop
      vertex 13.5041 39.7112 4
      vertex 14.2577 40.4648 0
      vertex 14.2577 40.4648 4
    endloop
  endfacet
  facet normal 0.707107 -0.707106 0
    outer loop
      vertex 14.2577 40.4648 0
      vertex 13.5041 39.7112 4
      vertex 13.5041 39.7112 0
    endloop
  endfacet
  facet normal 0.707108 -0.707106 0
    outer loop
      vertex 8.03518 34.2423 4
      vertex 8.78883 34.9959 0
      vertex 8.78883 34.9959 4
    endloop
  endfacet
  facet normal 0.707108 -0.707106 0
    outer loop
      vertex 8.78883 34.9959 0
      vertex 8.03518 34.2423 4
      vertex 8.03518 34.2423 0
    endloop
  endfacet
  facet normal -0.707108 0.707106 0
    outer loop
      vertex 14.2112 39.0041 0
      vertex 14.9648 39.7577 4
      vertex 14.9648 39.7577 0
    endloop
  endfacet
  facet normal -0.707108 0.707106 0
    outer loop
      vertex 14.9648 39.7577 4
      vertex 14.2112 39.0041 0
      vertex 14.2112 39.0041 4
    endloop
  endfacet
  facet normal -0.707107 0.707106 0
    outer loop
      vertex 8.74228 33.5352 0
      vertex 9.49594 34.2888 4
      vertex 9.49594 34.2888 0
    endloop
  endfacet
  facet normal -0.707107 0.707106 0
    outer loop
      vertex 9.49594 34.2888 4
      vertex 8.74228 33.5352 0
      vertex 8.74228 33.5352 4
    endloop
  endfacet
  facet normal 0.707107 0.707106 0
    outer loop
      vertex 14.2577 33.5352 4
      vertex 13.5041 34.2888 0
      vertex 13.5041 34.2888 4
    endloop
  endfacet
  facet normal 0.707107 0.707106 0
    outer loop
      vertex 13.5041 34.2888 0
      vertex 14.2577 33.5352 4
      vertex 14.2577 33.5352 0
    endloop
  endfacet
  facet normal 0.707108 0.707106 0
    outer loop
      vertex 8.78883 39.0041 4
      vertex 8.03518 39.7577 0
      vertex 8.03518 39.7577 4
    endloop
  endfacet
  facet normal 0.707108 0.707106 0
    outer loop
      vertex 8.03518 39.7577 0
      vertex 8.78883 39.0041 4
      vertex 8.78883 39.0041 0
    endloop
  endfacet
  facet normal -0.707108 -0.707106 0
    outer loop
      vertex 14.9648 34.2423 0
      vertex 14.2112 34.9959 4
      vertex 14.2112 34.9959 0
    endloop
  endfacet
  facet normal -0.707108 -0.707106 0
    outer loop
      vertex 14.2112 34.9959 4
      vertex 14.9648 34.2423 0
      vertex 14.9648 34.2423 4
    endloop
  endfacet
  facet normal -0.707107 -0.707106 0
    outer loop
      vertex 9.49594 39.7112 0
      vertex 8.74228 40.4648 4
      vertex 8.74228 40.4648 0
    endloop
  endfacet
  facet normal -0.707107 -0.707106 0
    outer loop
      vertex 8.74228 40.4648 4
      vertex 9.49594 39.7112 0
      vertex 9.49594 39.7112 4
    endloop
  endfacet
  facet normal -0.707107 0.707106 0
    outer loop
      vertex 14.2577 33.5352 0
      vertex 14.9648 34.2423 4
      vertex 14.9648 34.2423 0
    endloop
  endfacet
  facet normal -0.707107 0.707106 0
    outer loop
      vertex 14.9648 34.2423 4
      vertex 14.2577 33.5352 0
      vertex 14.2577 33.5352 4
    endloop
  endfacet
  facet normal 0.707107 -0.707106 0
    outer loop
      vertex 8.03518 39.7577 4
      vertex 8.74228 40.4648 0
      vertex 8.74228 40.4648 4
    endloop
  endfacet
  facet normal 0.707107 -0.707106 0
    outer loop
      vertex 8.74228 40.4648 0
      vertex 8.03518 39.7577 4
      vertex 8.03518 39.7577 0
    endloop
  endfacet
  facet normal -1 0 0
    outer loop
      vertex 18.5 30 4
      vertex 18.5 44 14
      vertex 18.5 44 4
    endloop
  endfacet
  facet normal -1 -0 0
    outer loop
      vertex 18.5 44 14
      vertex 18.5 30 4
      vertex 18.5 30 14
    endloop
  endfacet
  facet normal 0 1 -0
    outer loop
      vertex 18.5 30 4
      vertex 18.25 30 14
      vertex 18.5 30 14
    endloop
  endfacet
  facet normal 0 1 0
    outer loop
      vertex 18.25 30 14
      vertex 18.5 30 4
      vertex 18.25 30 4
    endloop
  endfacet
  facet normal 0 -1 0
    outer loop
      vertex 18.25 44 4
      vertex 18.5 44 14
      vertex 18.25 44 14
    endloop
  endfacet
  facet normal 0 -1 -0
    outer loop
      vertex 18.5 44 14
      vertex 18.25 44 4
      vertex 18.5 44 4
    endloop
  endfacet
  facet normal -0.608763 -0.793352 0
    outer loop
      vertex 13.2 28.2445 0
      vertex 13.5041 28.0112 4
      vertex 13.2 28.2445 4
    endloop
  endfacet
  facet normal -0.608763 -0.793352 -0
    outer loop
      vertex 13.5041 28.0112 4
      vertex 13.2 28.2445 0
      vertex 13.5041 28.0112 0
    endloop
  endfacet
  facet normal 0.793354 0.60876 0
    outer loop
      vertex 8.78883 23.2959 4
      vertex 8.55551 23.6 0
      vertex 8.55551 23.6 4
    endloop
  endfacet
  facet normal 0.793354 0.60876 0
    outer loop
      vertex 8.55551 23.6 0
      vertex 8.78883 23.2959 4
      vertex 8.78883 23.2959 0
    endloop
  endfacet
  facet normal 0.608763 -0.793352 0
    outer loop
      vertex 9.49594 28.0112 0
      vertex 9.8 28.2445 4
      vertex 9.49594 28.0112 4
    endloop
  endfacet
  facet normal 0.608763 -0.793352 0
    outer loop
      vertex 9.8 28.2445 4
      vertex 9.49594 28.0112 0
      vertex 9.8 28.2445 0
    endloop
  endfacet
  facet normal 0.130526 -0.991445 0
    outer loop
      vertex 10.62 28.5841 0
      vertex 11.5 28.7 4
      vertex 10.62 28.5841 4
    endloop
  endfacet
  facet normal 0.130526 -0.991445 0
    outer loop
      vertex 11.5 28.7 4
      vertex 10.62 28.5841 0
      vertex 11.5 28.7 0
    endloop
  endfacet
  facet normal -0.382683 -0.92388 0
    outer loop
      vertex 12.38 28.5841 0
      vertex 13.2 28.2445 4
      vertex 12.38 28.5841 4
    endloop
  endfacet
  facet normal -0.382683 -0.92388 -0
    outer loop
      vertex 13.2 28.2445 4
      vertex 12.38 28.5841 0
      vertex 13.2 28.2445 0
    endloop
  endfacet
  facet normal 0.382683 -0.92388 0
    outer loop
      vertex 9.8 28.2445 0
      vertex 10.62 28.5841 4
      vertex 9.8 28.2445 4
    endloop
  endfacet
  facet normal 0.382683 -0.92388 0
    outer loop
      vertex 10.62 28.5841 4
      vertex 9.8 28.2445 0
      vertex 10.62 28.5841 0
    endloop
  endfacet
  facet normal 0.991445 -0.130525 0
    outer loop
      vertex 8.1 25.3 4
      vertex 8.21585 26.18 0
      vertex 8.21585 26.18 4
    endloop
  endfacet
  facet normal 0.991445 -0.130525 0
    outer loop
      vertex 8.21585 26.18 0
      vertex 8.1 25.3 4
      vertex 8.1 25.3 0
    endloop
  endfacet
  facet normal 0.991445 0.130525 0
    outer loop
      vertex 8.21585 24.42 4
      vertex 8.1 25.3 0
      vertex 8.1 25.3 4
    endloop
  endfacet
  facet normal 0.991445 0.130525 0
    outer loop
      vertex 8.1 25.3 0
      vertex 8.21585 24.42 4
      vertex 8.21585 24.42 0
    endloop
  endfacet
  facet normal 0.923879 -0.382684 0
    outer loop
      vertex 8.21585 26.18 4
      vertex 8.55551 27 0
      vertex 8.55551 27 4
    endloop
  endfacet
  facet normal 0.923879 -0.382684 0
    outer loop
      vertex 8.55551 27 0
      vertex 8.21585 26.18 4
      vertex 8.21585 26.18 0
    endloop
  endfacet
  facet normal -0.991445 -0.130525 0
    outer loop
      vertex 14.9 25.3 0
      vertex 14.7841 26.18 4
      vertex 14.7841 26.18 0
    endloop
  endfacet
  facet normal -0.991445 -0.130525 0
    outer loop
      vertex 14.7841 26.18 4
      vertex 14.9 25.3 0
      vertex 14.9 25.3 4
    endloop
  endfacet
  facet normal -0.923879 -0.382684 0
    outer loop
      vertex 14.7841 26.18 0
      vertex 14.4445 27 4
      vertex 14.4445 27 0
    endloop
  endfacet
  facet normal -0.923879 -0.382684 0
    outer loop
      vertex 14.4445 27 4
      vertex 14.7841 26.18 0
      vertex 14.7841 26.18 4
    endloop
  endfacet
  facet normal -0.130524 0.991445 0
    outer loop
      vertex 12.38 22.0159 0
      vertex 11.5 21.9 4
      vertex 12.38 22.0159 4
    endloop
  endfacet
  facet normal -0.130524 0.991445 0
    outer loop
      vertex 11.5 21.9 4
      vertex 12.38 22.0159 0
      vertex 11.5 21.9 0
    endloop
  endfacet
  facet normal -0.130526 -0.991445 0
    outer loop
      vertex 11.5 28.7 0
      vertex 12.38 28.5841 4
      vertex 11.5 28.7 4
    endloop
  endfacet
  facet normal -0.130526 -0.991445 -0
    outer loop
      vertex 12.38 28.5841 4
      vertex 11.5 28.7 0
      vertex 12.38 28.5841 0
    endloop
  endfacet
  facet normal 0.923879 0.382684 0
    outer loop
      vertex 8.55551 23.6 4
      vertex 8.21585 24.42 0
      vertex 8.21585 24.42 4
    endloop
  endfacet
  facet normal 0.923879 0.382684 0
    outer loop
      vertex 8.21585 24.42 0
      vertex 8.55551 23.6 4
      vertex 8.55551 23.6 0
    endloop
  endfacet
  facet normal 0.793354 -0.60876 0
    outer loop
      vertex 8.55551 27 4
      vertex 8.78883 27.3041 0
      vertex 8.78883 27.3041 4
    endloop
  endfacet
  facet normal 0.793354 -0.60876 0
    outer loop
      vertex 8.78883 27.3041 0
      vertex 8.55551 27 4
      vertex 8.55551 27 0
    endloop
  endfacet
  facet normal -0.793354 0.60876 0
    outer loop
      vertex 14.2112 23.2959 0
      vertex 14.4445 23.6 4
      vertex 14.4445 23.6 0
    endloop
  endfacet
  facet normal -0.793354 0.60876 0
    outer loop
      vertex 14.4445 23.6 4
      vertex 14.2112 23.2959 0
      vertex 14.2112 23.2959 4
    endloop
  endfacet
  facet normal -0.991445 0.130525 0
    outer loop
      vertex 14.7841 24.42 0
      vertex 14.9 25.3 4
      vertex 14.9 25.3 0
    endloop
  endfacet
  facet normal -0.991445 0.130525 0
    outer loop
      vertex 14.9 25.3 4
      vertex 14.7841 24.42 0
      vertex 14.7841 24.42 4
    endloop
  endfacet
  facet normal -0.382685 0.923879 0
    outer loop
      vertex 13.2 22.3555 0
      vertex 12.38 22.0159 4
      vertex 13.2 22.3555 4
    endloop
  endfacet
  facet normal -0.382685 0.923879 0
    outer loop
      vertex 12.38 22.0159 4
      vertex 13.2 22.3555 0
      vertex 12.38 22.0159 0
    endloop
  endfacet
  facet normal 0.130524 0.991445 -0
    outer loop
      vertex 11.5 21.9 0
      vertex 10.62 22.0159 4
      vertex 11.5 21.9 4
    endloop
  endfacet
  facet normal 0.130524 0.991445 0
    outer loop
      vertex 10.62 22.0159 4
      vertex 11.5 21.9 0
      vertex 10.62 22.0159 0
    endloop
  endfacet
  facet normal 0.608763 0.793352 -0
    outer loop
      vertex 9.8 22.3555 0
      vertex 9.49594 22.5888 4
      vertex 9.8 22.3555 4
    endloop
  endfacet
  facet normal 0.608763 0.793352 0
    outer loop
      vertex 9.49594 22.5888 4
      vertex 9.8 22.3555 0
      vertex 9.49594 22.5888 0
    endloop
  endfacet
  facet normal -0.793354 -0.60876 0
    outer loop
      vertex 14.4445 27 0
      vertex 14.2112 27.3041 4
      vertex 14.2112 27.3041 0
    endloop
  endfacet
  facet normal -0.793354 -0.60876 0
    outer loop
      vertex 14.2112 27.3041 4
      vertex 14.4445 27 0
      vertex 14.4445 27 4
    endloop
  endfacet
  facet normal -0.923879 0.382684 0
    outer loop
      vertex 14.4445 23.6 0
      vertex 14.7841 24.42 4
      vertex 14.7841 24.42 0
    endloop
  endfacet
  facet normal -0.923879 0.382684 0
    outer loop
      vertex 14.7841 24.42 4
      vertex 14.4445 23.6 0
      vertex 14.4445 23.6 4
    endloop
  endfacet
  facet normal -0.608763 0.793352 0
    outer loop
      vertex 13.5041 22.5888 0
      vertex 13.2 22.3555 4
      vertex 13.5041 22.5888 4
    endloop
  endfacet
  facet normal -0.608763 0.793352 0
    outer loop
      vertex 13.2 22.3555 4
      vertex 13.5041 22.5888 0
      vertex 13.2 22.3555 0
    endloop
  endfacet
  facet normal 0.382685 0.923879 -0
    outer loop
      vertex 10.62 22.0159 0
      vertex 9.8 22.3555 4
      vertex 10.62 22.0159 4
    endloop
  endfacet
  facet normal 0.382685 0.923879 0
    outer loop
      vertex 9.8 22.3555 4
      vertex 10.62 22.0159 0
      vertex 9.8 22.3555 0
    endloop
  endfacet
  facet normal 0.707107 0.707106 0
    outer loop
      vertex 8.74228 21.8352 4
      vertex 8.03518 22.5423 0
      vertex 8.03518 22.5423 4
    endloop
  endfacet
  facet normal 0.707107 0.707106 0
    outer loop
      vertex 8.03518 22.5423 0
      vertex 8.74228 21.8352 4
      vertex 8.74228 21.8352 0
    endloop
  endfacet
  facet normal -0.707106 -0.707107 0
    outer loop
      vertex 14.2577 28.7648 0
      vertex 14.9648 28.0577 4
      vertex 14.2577 28.7648 4
    endloop
  endfacet
  facet normal -0.707106 -0.707107 -0
    outer loop
      vertex 14.9648 28.0577 4
      vertex 14.2577 28.7648 0
      vertex 14.9648 28.0577 0
    endloop
  endfacet
  facet normal 0.707106 -0.707107 0
    outer loop
      vertex 13.5041 28.0112 0
      vertex 14.2577 28.7648 4
      vertex 13.5041 28.0112 4
    endloop
  endfacet
  facet normal 0.707106 -0.707107 0
    outer loop
      vertex 14.2577 28.7648 4
      vertex 13.5041 28.0112 0
      vertex 14.2577 28.7648 0
    endloop
  endfacet
  facet normal 0.707107 -0.707107 0
    outer loop
      vertex 8.03518 22.5423 4
      vertex 8.78883 23.2959 0
      vertex 8.78883 23.2959 4
    endloop
  endfacet
  facet normal 0.707107 -0.707107 0
    outer loop
      vertex 8.78883 23.2959 0
      vertex 8.03518 22.5423 4
      vertex 8.03518 22.5423 0
    endloop
  endfacet
  facet normal -0.707107 0.707107 0
    outer loop
      vertex 14.2112 27.3041 0
      vertex 14.9648 28.0577 4
      vertex 14.9648 28.0577 0
    endloop
  endfacet
  facet normal -0.707107 0.707107 0
    outer loop
      vertex 14.9648 28.0577 4
      vertex 14.2112 27.3041 0
      vertex 14.2112 27.3041 4
    endloop
  endfacet
  facet normal -0.707107 0.707106 0
    outer loop
      vertex 8.74228 21.8352 0
      vertex 9.49594 22.5888 4
      vertex 9.49594 22.5888 0
    endloop
  endfacet
  facet normal -0.707107 0.707106 0
    outer loop
      vertex 9.49594 22.5888 4
      vertex 8.74228 21.8352 0
      vertex 8.74228 21.8352 4
    endloop
  endfacet
  facet normal 0.707107 0.707106 0
    outer loop
      vertex 14.2577 21.8352 4
      vertex 13.5041 22.5888 0
      vertex 13.5041 22.5888 4
    endloop
  endfacet
  facet normal 0.707107 0.707106 0
    outer loop
      vertex 13.5041 22.5888 0
      vertex 14.2577 21.8352 4
      vertex 14.2577 21.8352 0
    endloop
  endfacet
  facet normal 0.707107 0.707107 0
    outer loop
      vertex 8.78883 27.3041 4
      vertex 8.03518 28.0577 0
      vertex 8.03518 28.0577 4
    endloop
  endfacet
  facet normal 0.707107 0.707107 0
    outer loop
      vertex 8.03518 28.0577 0
      vertex 8.78883 27.3041 4
      vertex 8.78883 27.3041 0
    endloop
  endfacet
  facet normal -0.707107 -0.707107 0
    outer loop
      vertex 14.9648 22.5423 0
      vertex 14.2112 23.2959 4
      vertex 14.2112 23.2959 0
    endloop
  endfacet
  facet normal -0.707107 -0.707107 0
    outer loop
      vertex 14.2112 23.2959 4
      vertex 14.9648 22.5423 0
      vertex 14.9648 22.5423 4
    endloop
  endfacet
  facet normal -0.707106 -0.707107 0
    outer loop
      vertex 8.74228 28.7648 0
      vertex 9.49594 28.0112 4
      vertex 8.74228 28.7648 4
    endloop
  endfacet
  facet normal -0.707106 -0.707107 -0
    outer loop
      vertex 9.49594 28.0112 4
      vertex 8.74228 28.7648 0
      vertex 9.49594 28.0112 0
    endloop
  endfacet
  facet normal -0.707107 0.707106 0
    outer loop
      vertex 14.2577 21.8352 0
      vertex 14.9648 22.5423 4
      vertex 14.9648 22.5423 0
    endloop
  endfacet
  facet normal -0.707107 0.707106 0
    outer loop
      vertex 14.9648 22.5423 4
      vertex 14.2577 21.8352 0
      vertex 14.2577 21.8352 4
    endloop
  endfacet
  facet normal 0.707106 -0.707107 0
    outer loop
      vertex 8.03518 28.0577 0
      vertex 8.74228 28.7648 4
      vertex 8.03518 28.0577 4
    endloop
  endfacet
  facet normal 0.707106 -0.707107 0
    outer loop
      vertex 8.74228 28.7648 4
      vertex 8.03518 28.0577 0
      vertex 8.74228 28.7648 0
    endloop
  endfacet
  facet normal 1 0 0
    outer loop
      vertex 4.75 74 4
      vertex 4.75 83 8.85
      vertex 4.75 79.85 12
    endloop
  endfacet
  facet normal 1 0 0
    outer loop
      vertex 4.75 74 4
      vertex 4.75 79.85 12
      vertex 4.75 74 12
    endloop
  endfacet
  facet normal 1 0 0
    outer loop
      vertex 4.75 83 8.85
      vertex 4.75 74 4
      vertex 4.75 83 0
    endloop
  endfacet
  facet normal 1 0 0
    outer loop
      vertex 4.75 52 0
      vertex 4.75 74 4
      vertex 4.75 52 4
    endloop
  endfacet
  facet normal 1 0 0
    outer loop
      vertex 4.75 74 4
      vertex 4.75 52 0
      vertex 4.75 83 0
    endloop
  endfacet
  facet normal 0 1 -0
    outer loop
      vertex 18.25 52 0
      vertex 4.75 52 4
      vertex 18.25 52 4
    endloop
  endfacet
  facet normal 0 1 0
    outer loop
      vertex 4.75 52 4
      vertex 18.25 52 0
      vertex 4.75 52 0
    endloop
  endfacet
endsolid OpenSCAD_Model
