solid OpenSCAD_Model
  facet normal -1 0 0
    outer loop
      vertex 0 74 4
      vertex 0 83 8.85
      vertex 0 83 0
    endloop
  endfacet
  facet normal -1 -0 0
    outer loop
      vertex 0 83 8.85
      vertex 0 74 4
      vertex 0 79.85 12
    endloop
  endfacet
  facet normal -1 0 0
    outer loop
      vertex 0 0 0
      vertex 0 74 4
      vertex 0 83 0
    endloop
  endfacet
  facet normal -1 -0 0
    outer loop
      vertex 0 74 4
      vertex 0 0 0
      vertex 0 0 4
    endloop
  endfacet
  facet normal -1 -0 0
    outer loop
      vertex 0 79.85 12
      vertex 0 74 4
      vertex 0 74 12
    endloop
  endfacet
  facet normal 0 0 1
    outer loop
      vertex 23 79.85 12
      vertex 20.05 74 12
      vertex 23 74 12
    endloop
  endfacet
  facet normal -0 0 1
    outer loop
      vertex 18.25 79.85 12
      vertex 20.05 74 12
      vertex 23 79.85 12
    endloop
  endfacet
  facet normal 0 0 1
    outer loop
      vertex 20.05 74 12
      vertex 18.25 79.85 12
      vertex 18.25 74 12
    endloop
  endfacet
  facet normal -0 0 1
    outer loop
      vertex 0 79.85 12
      vertex 4.75 74 12
      vertex 4.75 79.85 12
    endloop
  endfacet
  facet normal 0 0 1
    outer loop
      vertex 4.75 74 12
      vertex 0 79.85 12
      vertex 0 74 12
    endloop
  endfacet
  facet normal 1 0 0
    outer loop
      vertex 23 74 4
      vertex 23 83 8.85
      vertex 23 79.85 12
    endloop
  endfacet
  facet normal 1 0 0
    outer loop
      vertex 23 74 4
      vertex 23 79.85 12
      vertex 23 74 12
    endloop
  endfacet
  facet normal 1 0 0
    outer loop
      vertex 23 83 8.85
      vertex 23 74 4
      vertex 23 83 0
    endloop
  endfacet
  facet normal 1 0 0
    outer loop
      vertex 23 0 0
      vertex 23 74 4
      vertex 23 0 4
    endloop
  endfacet
  facet normal 1 0 0
    outer loop
      vertex 23 74 4
      vertex 23 0 0
      vertex 23 83 0
    endloop
  endfacet
  facet normal 0 1 -0
    outer loop
      vertex 23 83 0
      vertex 18.25 83 8.85
      vertex 23 83 8.85
    endloop
  endfacet
  facet normal 0 1 0
    outer loop
      vertex 18.25 83 8.85
      vertex 23 83 0
      vertex 18.25 83 0
    endloop
  endfacet
  facet normal 0 1 -0
    outer loop
      vertex 4.75 83 0
      vertex 0 83 8.85
      vertex 4.75 83 8.85
    endloop
  endfacet
  facet normal 0 1 0
    outer loop
      vertex 0 83 8.85
      vertex 4.75 83 0
      vertex 0 83 0
    endloop
  endfacet
  facet normal 0 0 -1
    outer loop
      vertex 14.8588 34.3484 0
      vertex 14.75 37 0
      vertex 14.8588 39.6516 0
    endloop
  endfacet
  facet normal 0 0 -1
    outer loop
      vertex 14.8588 34.3484 0
      vertex 14.6393 36.1588 0
      vertex 14.75 37 0
    endloop
  endfacet
  facet normal 0 0 -1
    outer loop
      vertex 14.8588 34.3484 0
      vertex 14.3146 35.375 0
      vertex 14.6393 36.1588 0
    endloop
  endfacet
  facet normal 0 -0 -1
    outer loop
      vertex 14.3146 35.375 0
      vertex 14.8588 34.3484 0
      vertex 14.1051 35.102 0
    endloop
  endfacet
  facet normal 0 0 -1
    outer loop
      vertex 14.1517 28.6588 0
      vertex 14.8588 34.3484 0
      vertex 14.8588 27.9517 0
    endloop
  endfacet
  facet normal 0 0 -1
    outer loop
      vertex 14.1517 28.6588 0
      vertex 14.1517 33.6412 0
      vertex 14.8588 34.3484 0
    endloop
  endfacet
  facet normal 0 0 -1
    outer loop
      vertex 13.125 28.1146 0
      vertex 14.1517 28.6588 0
      vertex 13.398 27.9051 0
    endloop
  endfacet
  facet normal 0 0 -1
    outer loop
      vertex 12.3412 28.4393 0
      vertex 14.1517 28.6588 0
      vertex 13.125 28.1146 0
    endloop
  endfacet
  facet normal -0 0 -1
    outer loop
      vertex 14.1517 28.6588 0
      vertex 12.3412 28.4393 0
      vertex 14.1517 33.6412 0
    endloop
  endfacet
  facet normal 0 0 -1
    outer loop
      vertex 14.1517 33.6412 0
      vertex 13.125 34.1854 0
      vertex 13.398 34.3949 0
    endloop
  endfacet
  facet normal 0 0 -1
    outer loop
      vertex 12.3412 33.8607 0
      vertex 14.1517 33.6412 0
      vertex 12.3412 28.4393 0
    endloop
  endfacet
  facet normal 0 0 -1
    outer loop
      vertex 14.1517 33.6412 0
      vertex 12.3412 33.8607 0
      vertex 13.125 34.1854 0
    endloop
  endfacet
  facet normal 0 0 -1
    outer loop
      vertex 11.5 28.55 0
      vertex 12.3412 33.8607 0
      vertex 12.3412 28.4393 0
    endloop
  endfacet
  facet normal 0 0 -1
    outer loop
      vertex 11.5 28.55 0
      vertex 11.5 33.75 0
      vertex 12.3412 33.8607 0
    endloop
  endfacet
  facet normal 0 0 -1
    outer loop
      vertex 10.6588 28.4393 0
      vertex 11.5 33.75 0
      vertex 11.5 28.55 0
    endloop
  endfacet
  facet normal 0 0 -1
    outer loop
      vertex 10.6588 28.4393 0
      vertex 10.6588 33.8607 0
      vertex 11.5 33.75 0
    endloop
  endfacet
  facet normal 0 0 -1
    outer loop
      vertex 8.84835 28.6588 0
      vertex 10.6588 28.4393 0
      vertex 9.875 28.1146 0
    endloop
  endfacet
  facet normal 0 0 -1
    outer loop
      vertex 10.6588 28.4393 0
      vertex 8.84835 28.6588 0
      vertex 10.6588 33.8607 0
    endloop
  endfacet
  facet normal 0 0 -1
    outer loop
      vertex 8.84835 28.6588 0
      vertex 9.875 28.1146 0
      vertex 9.602 27.9051 0
    endloop
  endfacet
  facet normal 0 0 -1
    outer loop
      vertex 8.84835 33.6412 0
      vertex 10.6588 33.8607 0
      vertex 8.84835 28.6588 0
    endloop
  endfacet
  facet normal -0 0 -1
    outer loop
      vertex 10.6588 33.8607 0
      vertex 8.84835 33.6412 0
      vertex 9.875 34.1854 0
    endloop
  endfacet
  facet normal -0 0 -1
    outer loop
      vertex 9.875 34.1854 0
      vertex 8.84835 33.6412 0
      vertex 9.602 34.3949 0
    endloop
  endfacet
  facet normal 0 0 -1
    outer loop
      vertex 8.14124 27.9517 0
      vertex 8.84835 33.6412 0
      vertex 8.84835 28.6588 0
    endloop
  endfacet
  facet normal -0 0 -1
    outer loop
      vertex 8.84835 33.6412 0
      vertex 8.14124 27.9517 0
      vertex 8.14124 34.3484 0
    endloop
  endfacet
  facet normal 0 0 -1
    outer loop
      vertex 14.8588 22.6483 0
      vertex 14.75 25.3 0
      vertex 14.8588 27.9517 0
    endloop
  endfacet
  facet normal 0 0 -1
    outer loop
      vertex 14.8588 22.6483 0
      vertex 14.6393 24.4588 0
      vertex 14.75 25.3 0
    endloop
  endfacet
  facet normal 0 0 -1
    outer loop
      vertex 14.8588 22.6483 0
      vertex 14.3146 23.675 0
      vertex 14.6393 24.4588 0
    endloop
  endfacet
  facet normal 0 -0 -1
    outer loop
      vertex 14.3146 23.675 0
      vertex 14.8588 22.6483 0
      vertex 14.1051 23.402 0
    endloop
  endfacet
  facet normal 0 0 -1
    outer loop
      vertex 23 0 0
      vertex 18.25 52 0
      vertex 23 83 0
    endloop
  endfacet
  facet normal 0 0 -1
    outer loop
      vertex 14.8588 27.9517 0
      vertex 23 0 0
      vertex 14.8588 22.6483 0
    endloop
  endfacet
  facet normal 0 0 -1
    outer loop
      vertex 23 0 0
      vertex 14.1517 21.9412 0
      vertex 14.8588 22.6483 0
    endloop
  endfacet
  facet normal 0 0 -1
    outer loop
      vertex 11.5 22.05 0
      vertex 14.1517 21.9412 0
      vertex 23 0 0
    endloop
  endfacet
  facet normal 0 0 -1
    outer loop
      vertex 14.1517 21.9412 0
      vertex 13.125 22.4854 0
      vertex 13.398 22.6949 0
    endloop
  endfacet
  facet normal 0 0 -1
    outer loop
      vertex 14.1517 21.9412 0
      vertex 12.3412 22.1607 0
      vertex 13.125 22.4854 0
    endloop
  endfacet
  facet normal 0 0 -1
    outer loop
      vertex 14.1517 21.9412 0
      vertex 11.5 22.05 0
      vertex 12.3412 22.1607 0
    endloop
  endfacet
  facet normal 0 0 -1
    outer loop
      vertex 0 0 0
      vertex 11.5 22.05 0
      vertex 23 0 0
    endloop
  endfacet
  facet normal -0 0 -1
    outer loop
      vertex 11.5 22.05 0
      vertex 8.84835 21.9412 0
      vertex 10.6588 22.1607 0
    endloop
  endfacet
  facet normal -0 0 -1
    outer loop
      vertex 10.6588 22.1607 0
      vertex 8.84835 21.9412 0
      vertex 9.875 22.4854 0
    endloop
  endfacet
  facet normal -0 0 -1
    outer loop
      vertex 9.875 22.4854 0
      vertex 8.84835 21.9412 0
      vertex 9.602 22.6949 0
    endloop
  endfacet
  facet normal 0 0 -1
    outer loop
      vertex 11.5 22.05 0
      vertex 0 0 0
      vertex 8.84835 21.9412 0
    endloop
  endfacet
  facet normal 0 0 -1
    outer loop
      vertex 0 0 0
      vertex 8.14124 27.9517 0
      vertex 8.14124 22.6483 0
    endloop
  endfacet
  facet normal -0 0 -1
    outer loop
      vertex 8.14124 27.9517 0
      vertex 0 0 0
      vertex 8.14124 34.3484 0
    endloop
  endfacet
  facet normal 0 0 -1
    outer loop
      vertex 8.14124 34.3484 0
      vertex 4.75 52 0
      vertex 8.14124 39.6516 0
    endloop
  endfacet
  facet normal -0 0 -1
    outer loop
      vertex 8.84835 21.9412 0
      vertex 0 0 0
      vertex 8.14124 22.6483 0
    endloop
  endfacet
  facet normal -0 0 -1
    outer loop
      vertex 8.14124 34.3484 0
      vertex 0 0 0
      vertex 4.75 52 0
    endloop
  endfacet
  facet normal 0 0 -1
    outer loop
      vertex 0 83 0
      vertex 4.75 52 0
      vertex 0 0 0
    endloop
  endfacet
  facet normal 0 0 -1
    outer loop
      vertex 4.75 52 0
      vertex 0 83 0
      vertex 4.75 83 0
    endloop
  endfacet
  facet normal -0 0 -1
    outer loop
      vertex 23 83 0
      vertex 18.25 52 0
      vertex 18.25 83 0
    endloop
  endfacet
  facet normal 0 0 -1
    outer loop
      vertex 23 0 0
      vertex 14.8588 27.9517 0
      vertex 18.25 52 0
    endloop
  endfacet
  facet normal 0 0 -1
    outer loop
      vertex 14.8588 34.3484 0
      vertex 18.25 52 0
      vertex 14.8588 27.9517 0
    endloop
  endfacet
  facet normal 0 0 -1
    outer loop
      vertex 14.8588 39.6516 0
      vertex 18.25 52 0
      vertex 14.8588 34.3484 0
    endloop
  endfacet
  facet normal 0 0 -1
    outer loop
      vertex 14.1517 40.3588 0
      vertex 18.25 52 0
      vertex 14.8588 39.6516 0
    endloop
  endfacet
  facet normal 0 0 -1
    outer loop
      vertex 13.125 39.8146 0
      vertex 14.1517 40.3588 0
      vertex 13.398 39.6051 0
    endloop
  endfacet
  facet normal 0 0 -1
    outer loop
      vertex 12.3412 40.1393 0
      vertex 14.1517 40.3588 0
      vertex 13.125 39.8146 0
    endloop
  endfacet
  facet normal 0 0 -1
    outer loop
      vertex 11.5 40.25 0
      vertex 14.1517 40.3588 0
      vertex 12.3412 40.1393 0
    endloop
  endfacet
  facet normal -0 0 -1
    outer loop
      vertex 14.1517 40.3588 0
      vertex 11.5 40.25 0
      vertex 18.25 52 0
    endloop
  endfacet
  facet normal 0 0 -1
    outer loop
      vertex 8.84835 40.3588 0
      vertex 11.5 40.25 0
      vertex 10.6588 40.1393 0
    endloop
  endfacet
  facet normal 0 0 -1
    outer loop
      vertex 8.84835 40.3588 0
      vertex 10.6588 40.1393 0
      vertex 9.875 39.8146 0
    endloop
  endfacet
  facet normal 0 0 -1
    outer loop
      vertex 8.84835 40.3588 0
      vertex 9.875 39.8146 0
      vertex 9.602 39.6051 0
    endloop
  endfacet
  facet normal 0 0 -1
    outer loop
      vertex 11.5 40.25 0
      vertex 8.84835 40.3588 0
      vertex 4.75 52 0
    endloop
  endfacet
  facet normal 0 0 -1
    outer loop
      vertex 4.75 52 0
      vertex 8.84835 40.3588 0
      vertex 8.14124 39.6516 0
    endloop
  endfacet
  facet normal 0 0 -1
    outer loop
      vertex 11.5 40.25 0
      vertex 4.75 52 0
      vertex 18.25 52 0
    endloop
  endfacet
  facet normal 0 0 -1
    outer loop
      vertex 14.6393 26.1412 0
      vertex 14.8588 27.9517 0
      vertex 14.75 25.3 0
    endloop
  endfacet
  facet normal 0 0 -1
    outer loop
      vertex 14.3146 26.925 0
      vertex 14.8588 27.9517 0
      vertex 14.6393 26.1412 0
    endloop
  endfacet
  facet normal 0 0 -1
    outer loop
      vertex 14.8588 27.9517 0
      vertex 14.3146 26.925 0
      vertex 14.1051 27.198 0
    endloop
  endfacet
  facet normal 0 0 -1
    outer loop
      vertex 14.6393 37.8412 0
      vertex 14.8588 39.6516 0
      vertex 14.75 37 0
    endloop
  endfacet
  facet normal 0 0 -1
    outer loop
      vertex 14.3146 38.625 0
      vertex 14.8588 39.6516 0
      vertex 14.6393 37.8412 0
    endloop
  endfacet
  facet normal 0 0 -1
    outer loop
      vertex 14.8588 39.6516 0
      vertex 14.3146 38.625 0
      vertex 14.1051 38.898 0
    endloop
  endfacet
  facet normal -0 0 -1
    outer loop
      vertex 8.36074 24.4588 0
      vertex 8.14124 22.6483 0
      vertex 8.25 25.3 0
    endloop
  endfacet
  facet normal -0 0 -1
    outer loop
      vertex 8.68542 23.675 0
      vertex 8.14124 22.6483 0
      vertex 8.36074 24.4588 0
    endloop
  endfacet
  facet normal 0 0 -1
    outer loop
      vertex 8.14124 22.6483 0
      vertex 8.68542 23.675 0
      vertex 8.8949 23.402 0
    endloop
  endfacet
  facet normal 0 0 -1
    outer loop
      vertex 8.68542 26.925 0
      vertex 8.14124 27.9517 0
      vertex 8.8949 27.198 0
    endloop
  endfacet
  facet normal 0 0 -1
    outer loop
      vertex 8.36074 26.1412 0
      vertex 8.14124 27.9517 0
      vertex 8.68542 26.925 0
    endloop
  endfacet
  facet normal 0 0 -1
    outer loop
      vertex 8.25 25.3 0
      vertex 8.14124 27.9517 0
      vertex 8.36074 26.1412 0
    endloop
  endfacet
  facet normal 0 0 -1
    outer loop
      vertex 8.14124 27.9517 0
      vertex 8.25 25.3 0
      vertex 8.14124 22.6483 0
    endloop
  endfacet
  facet normal -0 0 -1
    outer loop
      vertex 8.36074 36.1588 0
      vertex 8.14124 34.3484 0
      vertex 8.25 37 0
    endloop
  endfacet
  facet normal -0 0 -1
    outer loop
      vertex 8.68542 35.375 0
      vertex 8.14124 34.3484 0
      vertex 8.36074 36.1588 0
    endloop
  endfacet
  facet normal 0 0 -1
    outer loop
      vertex 8.14124 34.3484 0
      vertex 8.68542 35.375 0
      vertex 8.8949 35.102 0
    endloop
  endfacet
  facet normal 0 0 -1
    outer loop
      vertex 8.68542 38.625 0
      vertex 8.14124 39.6516 0
      vertex 8.8949 38.898 0
    endloop
  endfacet
  facet normal 0 0 -1
    outer loop
      vertex 8.36074 37.8412 0
      vertex 8.14124 39.6516 0
      vertex 8.68542 38.625 0
    endloop
  endfacet
  facet normal 0 0 -1
    outer loop
      vertex 8.25 37 0
      vertex 8.14124 39.6516 0
      vertex 8.36074 37.8412 0
    endloop
  endfacet
  facet normal 0 0 -1
    outer loop
      vertex 8.14124 39.6516 0
      vertex 8.25 37 0
      vertex 8.14124 34.3484 0
    endloop
  endfacet
  facet normal 0 -1 0
    outer loop
      vertex 20.05 74 4
      vertex 23 74 12
      vertex 20.05 74 12
    endloop
  endfacet
  facet normal 0 -1 -0
    outer loop
      vertex 23 74 12
      vertex 20.05 74 4
      vertex 23 74 4
    endloop
  endfacet
  facet normal 0 -1 0
    outer loop
      vertex 0 74 4
      vertex 4.75 74 12
      vertex 0 74 12
    endloop
  endfacet
  facet normal 0 -1 -0
    outer loop
      vertex 4.75 74 12
      vertex 0 74 4
      vertex 4.75 74 4
    endloop
  endfacet
  facet normal 0 1 -0
    outer loop
      vertex 20.05 74 12
      vertex 18.25 74 14
      vertex 20.05 74 14
    endloop
  endfacet
  facet normal 0 1 0
    outer loop
      vertex 18.25 74 14
      vertex 20.05 74 12
      vertex 18.25 74 12
    endloop
  endfacet
  facet normal -0 0.707107 0.707107
    outer loop
      vertex 0 83 8.85
      vertex 4.75 79.85 12
      vertex 4.75 83 8.85
    endloop
  endfacet
  facet normal 0 0.707107 0.707107
    outer loop
      vertex 4.75 79.85 12
      vertex 0 83 8.85
      vertex 0 79.85 12
    endloop
  endfacet
  facet normal -0 0.707107 0.707107
    outer loop
      vertex 18.25 83 8.85
      vertex 23 79.85 12
      vertex 23 83 8.85
    endloop
  endfacet
  facet normal 0 0.707107 0.707107
    outer loop
      vertex 23 79.85 12
      vertex 18.25 83 8.85
      vertex 18.25 79.85 12
    endloop
  endfacet
  facet normal -0 0 1
    outer loop
      vertex 0 74 4
      vertex 4.75 52 4
      vertex 4.75 74 4
    endloop
  endfacet
  facet normal 0 0 1
    outer loop
      vertex 4.5 44 4
      vertex 0 74 4
      vertex 4.5 30 4
    endloop
  endfacet
  facet normal 0 0 1
    outer loop
      vertex 4.75 52 4
      vertex 0 74 4
      vertex 4.5 44 4
    endloop
  endfacet
  facet normal -0 0 1
    outer loop
      vertex 4.75 52 4
      vertex 18.25 44 4
      vertex 18.25 52 4
    endloop
  endfacet
  facet normal 0 0 1
    outer loop
      vertex 18.25 44 4
      vertex 4.75 52 4
      vertex 4.5 44 4
    endloop
  endfacet
  facet normal 0 0 1
    outer loop
      vertex 18.25 30 4
      vertex 14.75 25.3 4
      vertex 14.8588 22.6483 4
    endloop
  endfacet
  facet normal 0 0 1
    outer loop
      vertex 18.25 30 4
      vertex 14.6393 26.1412 4
      vertex 14.75 25.3 4
    endloop
  endfacet
  facet normal 0 0 1
    outer loop
      vertex 14.8588 27.9517 4
      vertex 14.3146 26.925 4
      vertex 14.6393 26.1412 4
    endloop
  endfacet
  facet normal 0 -0 1
    outer loop
      vertex 14.3146 26.925 4
      vertex 14.8588 27.9517 4
      vertex 14.1051 27.198 4
    endloop
  endfacet
  facet normal 0 0 1
    outer loop
      vertex 14.6393 26.1412 4
      vertex 18.25 30 4
      vertex 14.8588 27.9517 4
    endloop
  endfacet
  facet normal 0 0 1
    outer loop
      vertex 18.25 30 4
      vertex 14.1517 28.6588 4
      vertex 14.8588 27.9517 4
    endloop
  endfacet
  facet normal 0 0 1
    outer loop
      vertex 14.1517 28.6588 4
      vertex 13.125 28.1146 4
      vertex 13.398 27.9051 4
    endloop
  endfacet
  facet normal 0 0 1
    outer loop
      vertex 14.1517 28.6588 4
      vertex 12.3412 28.4393 4
      vertex 13.125 28.1146 4
    endloop
  endfacet
  facet normal 0 0 1
    outer loop
      vertex 11.5 28.55 4
      vertex 14.1517 28.6588 4
      vertex 18.25 30 4
    endloop
  endfacet
  facet normal 0 0 1
    outer loop
      vertex 14.1517 28.6588 4
      vertex 11.5 28.55 4
      vertex 12.3412 28.4393 4
    endloop
  endfacet
  facet normal -0 0 1
    outer loop
      vertex 4.5 30 4
      vertex 11.5 28.55 4
      vertex 18.25 30 4
    endloop
  endfacet
  facet normal 0 0 1
    outer loop
      vertex 9.875 28.1146 4
      vertex 8.84835 28.6588 4
      vertex 9.602 27.9051 4
    endloop
  endfacet
  facet normal 0 0 1
    outer loop
      vertex 10.6588 28.4393 4
      vertex 8.84835 28.6588 4
      vertex 9.875 28.1146 4
    endloop
  endfacet
  facet normal 0 0 1
    outer loop
      vertex 11.5 28.55 4
      vertex 8.84835 28.6588 4
      vertex 10.6588 28.4393 4
    endloop
  endfacet
  facet normal 0 0 1
    outer loop
      vertex 8.25 25.3 4
      vertex 4.5 30 4
      vertex 8.14124 22.6483 4
    endloop
  endfacet
  facet normal 0 0 1
    outer loop
      vertex 8.84835 28.6588 4
      vertex 4.5 30 4
      vertex 8.14124 27.9517 4
    endloop
  endfacet
  facet normal 0 0 1
    outer loop
      vertex 11.5 28.55 4
      vertex 4.5 30 4
      vertex 8.84835 28.6588 4
    endloop
  endfacet
  facet normal 0 0 1
    outer loop
      vertex 20.05 12 4
      vertex 23 74 4
      vertex 20.05 74 4
    endloop
  endfacet
  facet normal 0 0 1
    outer loop
      vertex 23 74 4
      vertex 20.05 12 4
      vertex 23 0 4
    endloop
  endfacet
  facet normal -0 0 1
    outer loop
      vertex 18.25 12 4
      vertex 23 0 4
      vertex 20.05 12 4
    endloop
  endfacet
  facet normal 0 0 1
    outer loop
      vertex 18.25 30 4
      vertex 14.8588 22.6483 4
      vertex 18.25 12 4
    endloop
  endfacet
  facet normal -0 0 1
    outer loop
      vertex 14.1517 21.9412 4
      vertex 18.25 12 4
      vertex 14.8588 22.6483 4
    endloop
  endfacet
  facet normal 0 0 1
    outer loop
      vertex 11.5 22.05 4
      vertex 18.25 12 4
      vertex 14.1517 21.9412 4
    endloop
  endfacet
  facet normal -0 0 1
    outer loop
      vertex 13.125 22.4854 4
      vertex 14.1517 21.9412 4
      vertex 13.398 22.6949 4
    endloop
  endfacet
  facet normal -0 0 1
    outer loop
      vertex 12.3412 22.1607 4
      vertex 14.1517 21.9412 4
      vertex 13.125 22.4854 4
    endloop
  endfacet
  facet normal -0 0 1
    outer loop
      vertex 11.5 22.05 4
      vertex 14.1517 21.9412 4
      vertex 12.3412 22.1607 4
    endloop
  endfacet
  facet normal -0 0 1
    outer loop
      vertex 8.84835 21.9412 4
      vertex 18.25 12 4
      vertex 11.5 22.05 4
    endloop
  endfacet
  facet normal 0 0 1
    outer loop
      vertex 8.84835 21.9412 4
      vertex 11.5 22.05 4
      vertex 10.6588 22.1607 4
    endloop
  endfacet
  facet normal 0 0 1
    outer loop
      vertex 8.84835 21.9412 4
      vertex 10.6588 22.1607 4
      vertex 9.875 22.4854 4
    endloop
  endfacet
  facet normal 0 0 1
    outer loop
      vertex 8.84835 21.9412 4
      vertex 9.875 22.4854 4
      vertex 9.602 22.6949 4
    endloop
  endfacet
  facet normal 0 0 1
    outer loop
      vertex 18.25 12 4
      vertex 8.84835 21.9412 4
      vertex 0 0 4
    endloop
  endfacet
  facet normal 0 0 1
    outer loop
      vertex 0 0 4
      vertex 8.84835 21.9412 4
      vertex 8.14124 22.6483 4
    endloop
  endfacet
  facet normal 0 0 1
    outer loop
      vertex 18.25 12 4
      vertex 0 0 4
      vertex 23 0 4
    endloop
  endfacet
  facet normal 0 0 1
    outer loop
      vertex 4.5 30 4
      vertex 0 0 4
      vertex 8.14124 22.6483 4
    endloop
  endfacet
  facet normal 0 0 1
    outer loop
      vertex 0 0 4
      vertex 4.5 30 4
      vertex 0 74 4
    endloop
  endfacet
  facet normal -0 0 1
    outer loop
      vertex 14.6393 24.4588 4
      vertex 14.8588 22.6483 4
      vertex 14.75 25.3 4
    endloop
  endfacet
  facet normal -0 0 1
    outer loop
      vertex 14.3146 23.675 4
      vertex 14.8588 22.6483 4
      vertex 14.6393 24.4588 4
    endloop
  endfacet
  facet normal 0 0 1
    outer loop
      vertex 14.8588 22.6483 4
      vertex 14.3146 23.675 4
      vertex 14.1051 23.402 4
    endloop
  endfacet
  facet normal 0 0 1
    outer loop
      vertex 4.5 30 4
      vertex 8.36074 26.1412 4
      vertex 8.14124 27.9517 4
    endloop
  endfacet
  facet normal 0 0 1
    outer loop
      vertex 8.68542 26.925 4
      vertex 8.14124 27.9517 4
      vertex 8.36074 26.1412 4
    endloop
  endfacet
  facet normal 0 0 1
    outer loop
      vertex 8.14124 27.9517 4
      vertex 8.68542 26.925 4
      vertex 8.8949 27.198 4
    endloop
  endfacet
  facet normal 0 0 1
    outer loop
      vertex 8.68542 23.675 4
      vertex 8.14124 22.6483 4
      vertex 8.8949 23.402 4
    endloop
  endfacet
  facet normal 0 0 1
    outer loop
      vertex 8.36074 24.4588 4
      vertex 8.14124 22.6483 4
      vertex 8.68542 23.675 4
    endloop
  endfacet
  facet normal 0 0 1
    outer loop
      vertex 8.25 25.3 4
      vertex 8.14124 22.6483 4
      vertex 8.36074 24.4588 4
    endloop
  endfacet
  facet normal 0 0 1
    outer loop
      vertex 8.36074 26.1412 4
      vertex 4.5 30 4
      vertex 8.25 25.3 4
    endloop
  endfacet
  facet normal 0 0 1
    outer loop
      vertex 18.5 30 4
      vertex 14.75 37 4
      vertex 14.8588 34.3484 4
    endloop
  endfacet
  facet normal 0 0 1
    outer loop
      vertex 14.8588 39.6516 4
      vertex 14.6393 37.8412 4
      vertex 14.75 37 4
    endloop
  endfacet
  facet normal 0 0 1
    outer loop
      vertex 14.8588 39.6516 4
      vertex 14.3146 38.625 4
      vertex 14.6393 37.8412 4
    endloop
  endfacet
  facet normal 0 -0 1
    outer loop
      vertex 14.3146 38.625 4
      vertex 14.8588 39.6516 4
      vertex 14.1051 38.898 4
    endloop
  endfacet
  facet normal 0 0 1
    outer loop
      vertex 14.8588 39.6516 4
      vertex 18.5 44 4
      vertex 18.25 44 4
    endloop
  endfacet
  facet normal 0 0 1
    outer loop
      vertex 14.75 37 4
      vertex 18.5 44 4
      vertex 14.8588 39.6516 4
    endloop
  endfacet
  facet normal 0 0 1
    outer loop
      vertex 18.5 44 4
      vertex 14.75 37 4
      vertex 18.5 30 4
    endloop
  endfacet
  facet normal 0 0 1
    outer loop
      vertex 18.25 44 4
      vertex 14.1517 40.3588 4
      vertex 14.8588 39.6516 4
    endloop
  endfacet
  facet normal 0 0 1
    outer loop
      vertex 14.1517 40.3588 4
      vertex 13.125 39.8146 4
      vertex 13.398 39.6051 4
    endloop
  endfacet
  facet normal 0 0 1
    outer loop
      vertex 11.5 40.25 4
      vertex 14.1517 40.3588 4
      vertex 18.25 44 4
    endloop
  endfacet
  facet normal 0 0 1
    outer loop
      vertex 14.1517 40.3588 4
      vertex 12.3412 40.1393 4
      vertex 13.125 39.8146 4
    endloop
  endfacet
  facet normal 0 0 1
    outer loop
      vertex 14.1517 40.3588 4
      vertex 11.5 40.25 4
      vertex 12.3412 40.1393 4
    endloop
  endfacet
  facet normal -0 0 1
    outer loop
      vertex 4.5 44 4
      vertex 11.5 40.25 4
      vertex 18.25 44 4
    endloop
  endfacet
  facet normal -0 -0 1
    outer loop
      vertex 8.84835 40.3588 4
      vertex 11.5 40.25 4
      vertex 4.5 44 4
    endloop
  endfacet
  facet normal 0 0 1
    outer loop
      vertex 9.875 39.8146 4
      vertex 8.84835 40.3588 4
      vertex 9.602 39.6051 4
    endloop
  endfacet
  facet normal 0 0 1
    outer loop
      vertex 10.6588 40.1393 4
      vertex 8.84835 40.3588 4
      vertex 9.875 39.8146 4
    endloop
  endfacet
  facet normal 0 0 1
    outer loop
      vertex 4.5 30 4
      vertex 8.25 37 4
      vertex 4.5 44 4
    endloop
  endfacet
  facet normal 0 0 1
    outer loop
      vertex 8.84835 40.3588 4
      vertex 4.5 44 4
      vertex 8.14124 39.6516 4
    endloop
  endfacet
  facet normal 0 0 1
    outer loop
      vertex 11.5 40.25 4
      vertex 8.84835 40.3588 4
      vertex 10.6588 40.1393 4
    endloop
  endfacet
  facet normal 0 0 1
    outer loop
      vertex 18.5 30 4
      vertex 14.8588 34.3484 4
      vertex 18.25 30 4
    endloop
  endfacet
  facet normal -0 0 1
    outer loop
      vertex 14.1517 33.6412 4
      vertex 18.25 30 4
      vertex 14.8588 34.3484 4
    endloop
  endfacet
  facet normal -0 0 1
    outer loop
      vertex 13.125 34.1854 4
      vertex 14.1517 33.6412 4
      vertex 13.398 34.3949 4
    endloop
  endfacet
  facet normal -0 0 1
    outer loop
      vertex 12.3412 33.8607 4
      vertex 14.1517 33.6412 4
      vertex 13.125 34.1854 4
    endloop
  endfacet
  facet normal -0 0 1
    outer loop
      vertex 11.5 33.75 4
      vertex 14.1517 33.6412 4
      vertex 12.3412 33.8607 4
    endloop
  endfacet
  facet normal 0 0 1
    outer loop
      vertex 14.1517 33.6412 4
      vertex 11.5 33.75 4
      vertex 18.25 30 4
    endloop
  endfacet
  facet normal 0 0 1
    outer loop
      vertex 8.84835 33.6412 4
      vertex 11.5 33.75 4
      vertex 10.6588 33.8607 4
    endloop
  endfacet
  facet normal 0 0 1
    outer loop
      vertex 8.84835 33.6412 4
      vertex 10.6588 33.8607 4
      vertex 9.875 34.1854 4
    endloop
  endfacet
  facet normal 0 0 1
    outer loop
      vertex 8.84835 33.6412 4
      vertex 9.875 34.1854 4
      vertex 9.602 34.3949 4
    endloop
  endfacet
  facet normal 0 0 1
    outer loop
      vertex 11.5 33.75 4
      vertex 8.84835 33.6412 4
      vertex 4.5 30 4
    endloop
  endfacet
  facet normal 0 0 1
    outer loop
      vertex 11.5 33.75 4
      vertex 4.5 30 4
      vertex 18.25 30 4
    endloop
  endfacet
  facet normal 0 0 1
    outer loop
      vertex 8.14124 34.3484 4
      vertex 4.5 30 4
      vertex 8.84835 33.6412 4
    endloop
  endfacet
  facet normal 0 0 1
    outer loop
      vertex 8.25 37 4
      vertex 4.5 30 4
      vertex 8.14124 34.3484 4
    endloop
  endfacet
  facet normal -0 0 1
    outer loop
      vertex 14.6393 36.1588 4
      vertex 14.8588 34.3484 4
      vertex 14.75 37 4
    endloop
  endfacet
  facet normal -0 0 1
    outer loop
      vertex 14.3146 35.375 4
      vertex 14.8588 34.3484 4
      vertex 14.6393 36.1588 4
    endloop
  endfacet
  facet normal 0 0 1
    outer loop
      vertex 14.8588 34.3484 4
      vertex 14.3146 35.375 4
      vertex 14.1051 35.102 4
    endloop
  endfacet
  facet normal 0 0 1
    outer loop
      vertex 8.36074 37.8412 4
      vertex 8.14124 39.6516 4
      vertex 8.25 37 4
    endloop
  endfacet
  facet normal 0 0 1
    outer loop
      vertex 8.68542 38.625 4
      vertex 8.14124 39.6516 4
      vertex 8.36074 37.8412 4
    endloop
  endfacet
  facet normal 0 0 1
    outer loop
      vertex 8.14124 39.6516 4
      vertex 8.68542 38.625 4
      vertex 8.8949 38.898 4
    endloop
  endfacet
  facet normal 0 0 1
    outer loop
      vertex 8.68542 35.375 4
      vertex 8.14124 34.3484 4
      vertex 8.8949 35.102 4
    endloop
  endfacet
  facet normal 0 0 1
    outer loop
      vertex 8.36074 36.1588 4
      vertex 8.14124 34.3484 4
      vertex 8.68542 35.375 4
    endloop
  endfacet
  facet normal 0 0 1
    outer loop
      vertex 8.25 37 4
      vertex 8.14124 34.3484 4
      vertex 8.36074 36.1588 4
    endloop
  endfacet
  facet normal 0 0 1
    outer loop
      vertex 4.5 44 4
      vertex 8.25 37 4
      vertex 8.14124 39.6516 4
    endloop
  endfacet
  facet normal 0 -1 0
    outer loop
      vertex 0 0 0
      vertex 23 0 4
      vertex 0 0 4
    endloop
  endfacet
  facet normal 0 -1 -0
    outer loop
      vertex 23 0 4
      vertex 0 0 0
      vertex 23 0 0
    endloop
  endfacet
  facet normal -1 0 0
    outer loop
      vertex 18.25 12 4
      vertex 18.25 30 14
      vertex 18.25 30 4
    endloop
  endfacet
  facet normal -1 -0 0
    outer loop
      vertex 18.25 30 14
      vertex 18.25 12 4
      vertex 18.25 12 14
    endloop
  endfacet
  facet normal -1 0 0
    outer loop
      vertex 18.25 74 12
      vertex 18.25 83 8.85
      vertex 18.25 83 0
    endloop
  endfacet
  facet normal -1 0 0
    outer loop
      vertex 18.25 83 8.85
      vertex 18.25 74 12
      vertex 18.25 79.85 12
    endloop
  endfacet
  facet normal -1 0 0
    outer loop
      vertex 18.25 52 0
      vertex 18.25 74 12
      vertex 18.25 83 0
    endloop
  endfacet
  facet normal -1 0 0
    outer loop
      vertex 18.25 52 4
      vertex 18.25 74 12
      vertex 18.25 52 0
    endloop
  endfacet
  facet normal -1 0 0
    outer loop
      vertex 18.25 52 14
      vertex 18.25 74 12
      vertex 18.25 52 4
    endloop
  endfacet
  facet normal -1 0 0
    outer loop
      vertex 18.25 74 12
      vertex 18.25 52 14
      vertex 18.25 74 14
    endloop
  endfacet
  facet normal -1 0 0
    outer loop
      vertex 18.25 44 4
      vertex 18.25 52 14
      vertex 18.25 52 4
    endloop
  endfacet
  facet normal -1 -0 0
    outer loop
      vertex 18.25 52 14
      vertex 18.25 44 4
      vertex 18.25 44 14
    endloop
  endfacet
  facet normal 0 0 1
    outer loop
      vertex 20.05 74 14
      vertex 18.5 44 14
      vertex 20.05 12 14
    endloop
  endfacet
  facet normal 0 0 1
    outer loop
      vertex 18.25 52 14
      vertex 20.05 74 14
      vertex 18.25 74 14
    endloop
  endfacet
  facet normal 0 0 1
    outer loop
      vertex 20.05 74 14
      vertex 18.25 52 14
      vertex 18.5 44 14
    endloop
  endfacet
  facet normal 0 0 1
    outer loop
      vertex 18.5 44 14
      vertex 18.25 52 14
      vertex 18.25 44 14
    endloop
  endfacet
  facet normal -0 0 1
    outer loop
      vertex 18.5 30 14
      vertex 20.05 12 14
      vertex 18.5 44 14
    endloop
  endfacet
  facet normal 0 0 1
    outer loop
      vertex 18.25 12 14
      vertex 18.5 30 14
      vertex 18.25 30 14
    endloop
  endfacet
  facet normal 0 0 1
    outer loop
      vertex 18.5 30 14
      vertex 18.25 12 14
      vertex 20.05 12 14
    endloop
  endfacet
  facet normal 1 -0 0
    outer loop
      vertex 20.05 12 14
      vertex 20.05 74 12
      vertex 20.05 74 14
    endloop
  endfacet
  facet normal 1 0 0
    outer loop
      vertex 20.05 12 4
      vertex 20.05 74 12
      vertex 20.05 12 14
    endloop
  endfacet
  facet normal 1 0 0
    outer loop
      vertex 20.05 74 12
      vertex 20.05 12 4
      vertex 20.05 74 4
    endloop
  endfacet
  facet normal 0 -1 0
    outer loop
      vertex 18.25 12 4
      vertex 20.05 12 14
      vertex 18.25 12 14
    endloop
  endfacet
  facet normal 0 -1 -0
    outer loop
      vertex 20.05 12 14
      vertex 18.25 12 4
      vertex 20.05 12 4
    endloop
  endfacet
  facet normal -0.608762 -0.793353 0
    outer loop
      vertex 13.125 28.1146 0
      vertex 13.398 27.9051 4
      vertex 13.125 28.1146 4
    endloop
  endfacet
  facet normal -0.608762 -0.793353 -0
    outer loop
      vertex 13.398 27.9051 4
      vertex 13.125 28.1146 0
      vertex 13.398 27.9051 0
    endloop
  endfacet
  facet normal 0.793356 0.608758 0
    outer loop
      vertex 8.8949 23.402 4
      vertex 8.68542 23.675 0
      vertex 8.68542 23.675 4
    endloop
  endfacet
  facet normal 0.793356 0.608758 0
    outer loop
      vertex 8.68542 23.675 0
      vertex 8.8949 23.402 4
      vertex 8.8949 23.402 0
    endloop
  endfacet
  facet normal 0.608762 -0.793353 0
    outer loop
      vertex 9.602 27.9051 0
      vertex 9.875 28.1146 4
      vertex 9.602 27.9051 4
    endloop
  endfacet
  facet normal 0.608762 -0.793353 0
    outer loop
      vertex 9.875 28.1146 4
      vertex 9.602 27.9051 0
      vertex 9.875 28.1146 0
    endloop
  endfacet
  facet normal -0.130526 -0.991445 0
    outer loop
      vertex 11.5 28.55 0
      vertex 12.3412 28.4393 4
      vertex 11.5 28.55 4
    endloop
  endfacet
  facet normal -0.130526 -0.991445 -0
    outer loop
      vertex 12.3412 28.4393 4
      vertex 11.5 28.55 0
      vertex 12.3412 28.4393 0
    endloop
  endfacet
  facet normal -0.382684 -0.92388 0
    outer loop
      vertex 12.3412 28.4393 0
      vertex 13.125 28.1146 4
      vertex 12.3412 28.4393 4
    endloop
  endfacet
  facet normal -0.382684 -0.92388 -0
    outer loop
      vertex 13.125 28.1146 4
      vertex 12.3412 28.4393 0
      vertex 13.125 28.1146 0
    endloop
  endfacet
  facet normal 0.130526 -0.991445 0
    outer loop
      vertex 10.6588 28.4393 0
      vertex 11.5 28.55 4
      vertex 10.6588 28.4393 4
    endloop
  endfacet
  facet normal 0.130526 -0.991445 0
    outer loop
      vertex 11.5 28.55 4
      vertex 10.6588 28.4393 0
      vertex 11.5 28.55 0
    endloop
  endfacet
  facet normal 0.991445 -0.130527 0
    outer loop
      vertex 8.25 25.3 4
      vertex 8.36074 26.1412 0
      vertex 8.36074 26.1412 4
    endloop
  endfacet
  facet normal 0.991445 -0.130527 0
    outer loop
      vertex 8.36074 26.1412 0
      vertex 8.25 25.3 4
      vertex 8.25 25.3 0
    endloop
  endfacet
  facet normal 0.793356 -0.608758 0
    outer loop
      vertex 8.68542 26.925 4
      vertex 8.8949 27.198 0
      vertex 8.8949 27.198 4
    endloop
  endfacet
  facet normal 0.793356 -0.608758 0
    outer loop
      vertex 8.8949 27.198 0
      vertex 8.68542 26.925 4
      vertex 8.68542 26.925 0
    endloop
  endfacet
  facet normal -0.92388 -0.382684 0
    outer loop
      vertex 14.6393 26.1412 0
      vertex 14.3146 26.925 4
      vertex 14.3146 26.925 0
    endloop
  endfacet
  facet normal -0.92388 -0.382684 0
    outer loop
      vertex 14.3146 26.925 4
      vertex 14.6393 26.1412 0
      vertex 14.6393 26.1412 4
    endloop
  endfacet
  facet normal -0.130526 0.991445 0
    outer loop
      vertex 12.3412 22.1607 0
      vertex 11.5 22.05 4
      vertex 12.3412 22.1607 4
    endloop
  endfacet
  facet normal -0.130526 0.991445 0
    outer loop
      vertex 11.5 22.05 4
      vertex 12.3412 22.1607 0
      vertex 11.5 22.05 0
    endloop
  endfacet
  facet normal 0.608762 0.793353 -0
    outer loop
      vertex 9.875 22.4854 0
      vertex 9.602 22.6949 4
      vertex 9.875 22.4854 4
    endloop
  endfacet
  facet normal 0.608762 0.793353 0
    outer loop
      vertex 9.602 22.6949 4
      vertex 9.875 22.4854 0
      vertex 9.602 22.6949 0
    endloop
  endfacet
  facet normal 0.382684 -0.92388 0
    outer loop
      vertex 9.875 28.1146 0
      vertex 10.6588 28.4393 4
      vertex 9.875 28.1146 4
    endloop
  endfacet
  facet normal 0.382684 -0.92388 0
    outer loop
      vertex 10.6588 28.4393 4
      vertex 9.875 28.1146 0
      vertex 10.6588 28.4393 0
    endloop
  endfacet
  facet normal 0.991445 0.130527 0
    outer loop
      vertex 8.36074 24.4588 4
      vertex 8.25 25.3 0
      vertex 8.25 25.3 4
    endloop
  endfacet
  facet normal 0.991445 0.130527 0
    outer loop
      vertex 8.25 25.3 0
      vertex 8.36074 24.4588 4
      vertex 8.36074 24.4588 0
    endloop
  endfacet
  facet normal 0.92388 0.382683 0
    outer loop
      vertex 8.68542 23.675 4
      vertex 8.36074 24.4588 0
      vertex 8.36074 24.4588 4
    endloop
  endfacet
  facet normal 0.92388 0.382683 0
    outer loop
      vertex 8.36074 24.4588 0
      vertex 8.68542 23.675 4
      vertex 8.68542 23.675 0
    endloop
  endfacet
  facet normal 0.92388 -0.382683 0
    outer loop
      vertex 8.36074 26.1412 4
      vertex 8.68542 26.925 0
      vertex 8.68542 26.925 4
    endloop
  endfacet
  facet normal 0.92388 -0.382683 0
    outer loop
      vertex 8.68542 26.925 0
      vertex 8.36074 26.1412 4
      vertex 8.36074 26.1412 0
    endloop
  endfacet
  facet normal -0.793356 -0.608758 0
    outer loop
      vertex 14.3146 26.925 0
      vertex 14.1051 27.198 4
      vertex 14.1051 27.198 0
    endloop
  endfacet
  facet normal -0.793356 -0.608758 0
    outer loop
      vertex 14.1051 27.198 4
      vertex 14.3146 26.925 0
      vertex 14.3146 26.925 4
    endloop
  endfacet
  facet normal -0.793356 0.608758 0
    outer loop
      vertex 14.1051 23.402 0
      vertex 14.3146 23.675 4
      vertex 14.3146 23.675 0
    endloop
  endfacet
  facet normal -0.793356 0.608758 0
    outer loop
      vertex 14.3146 23.675 4
      vertex 14.1051 23.402 0
      vertex 14.1051 23.402 4
    endloop
  endfacet
  facet normal -0.991445 0.130526 0
    outer loop
      vertex 14.6393 24.4588 0
      vertex 14.75 25.3 4
      vertex 14.75 25.3 0
    endloop
  endfacet
  facet normal -0.991445 0.130526 0
    outer loop
      vertex 14.75 25.3 4
      vertex 14.6393 24.4588 0
      vertex 14.6393 24.4588 4
    endloop
  endfacet
  facet normal -0.382684 0.92388 0
    outer loop
      vertex 13.125 22.4854 0
      vertex 12.3412 22.1607 4
      vertex 13.125 22.4854 4
    endloop
  endfacet
  facet normal -0.382684 0.92388 0
    outer loop
      vertex 12.3412 22.1607 4
      vertex 13.125 22.4854 0
      vertex 12.3412 22.1607 0
    endloop
  endfacet
  facet normal 0.382684 0.92388 -0
    outer loop
      vertex 10.6588 22.1607 0
      vertex 9.875 22.4854 4
      vertex 10.6588 22.1607 4
    endloop
  endfacet
  facet normal 0.382684 0.92388 0
    outer loop
      vertex 9.875 22.4854 4
      vertex 10.6588 22.1607 0
      vertex 9.875 22.4854 0
    endloop
  endfacet
  facet normal -0.92388 0.382684 0
    outer loop
      vertex 14.3146 23.675 0
      vertex 14.6393 24.4588 4
      vertex 14.6393 24.4588 0
    endloop
  endfacet
  facet normal -0.92388 0.382684 0
    outer loop
      vertex 14.6393 24.4588 4
      vertex 14.3146 23.675 0
      vertex 14.3146 23.675 4
    endloop
  endfacet
  facet normal -0.991445 -0.130526 0
    outer loop
      vertex 14.75 25.3 0
      vertex 14.6393 26.1412 4
      vertex 14.6393 26.1412 0
    endloop
  endfacet
  facet normal -0.991445 -0.130526 0
    outer loop
      vertex 14.6393 26.1412 4
      vertex 14.75 25.3 0
      vertex 14.75 25.3 4
    endloop
  endfacet
  facet normal -0.608762 0.793353 0
    outer loop
      vertex 13.398 22.6949 0
      vertex 13.125 22.4854 4
      vertex 13.398 22.6949 4
    endloop
  endfacet
  facet normal -0.608762 0.793353 0
    outer loop
      vertex 13.125 22.4854 4
      vertex 13.398 22.6949 0
      vertex 13.125 22.4854 0
    endloop
  endfacet
  facet normal 0.130526 0.991445 -0
    outer loop
      vertex 11.5 22.05 0
      vertex 10.6588 22.1607 4
      vertex 11.5 22.05 4
    endloop
  endfacet
  facet normal 0.130526 0.991445 0
    outer loop
      vertex 10.6588 22.1607 4
      vertex 11.5 22.05 0
      vertex 10.6588 22.1607 0
    endloop
  endfacet
  facet normal 0.707107 0.707106 0
    outer loop
      vertex 8.84835 21.9412 4
      vertex 8.14124 22.6483 0
      vertex 8.14124 22.6483 4
    endloop
  endfacet
  facet normal 0.707107 0.707106 0
    outer loop
      vertex 8.14124 22.6483 0
      vertex 8.84835 21.9412 4
      vertex 8.84835 21.9412 0
    endloop
  endfacet
  facet normal -0.707107 -0.707106 0
    outer loop
      vertex 14.8588 27.9517 0
      vertex 14.1517 28.6588 4
      vertex 14.1517 28.6588 0
    endloop
  endfacet
  facet normal -0.707107 -0.707106 0
    outer loop
      vertex 14.1517 28.6588 4
      vertex 14.8588 27.9517 0
      vertex 14.8588 27.9517 4
    endloop
  endfacet
  facet normal -0.707107 0.707107 0
    outer loop
      vertex 14.1051 27.198 0
      vertex 14.8588 27.9517 4
      vertex 14.8588 27.9517 0
    endloop
  endfacet
  facet normal -0.707107 0.707107 0
    outer loop
      vertex 14.8588 27.9517 4
      vertex 14.1051 27.198 0
      vertex 14.1051 27.198 4
    endloop
  endfacet
  facet normal -0.707107 0.707106 0
    outer loop
      vertex 8.84835 21.9412 0
      vertex 9.602 22.6949 4
      vertex 9.602 22.6949 0
    endloop
  endfacet
  facet normal -0.707107 0.707106 0
    outer loop
      vertex 9.602 22.6949 4
      vertex 8.84835 21.9412 0
      vertex 8.84835 21.9412 4
    endloop
  endfacet
  facet normal 0.707107 -0.707106 0
    outer loop
      vertex 13.398 27.9051 4
      vertex 14.1517 28.6588 0
      vertex 14.1517 28.6588 4
    endloop
  endfacet
  facet normal 0.707107 -0.707106 0
    outer loop
      vertex 14.1517 28.6588 0
      vertex 13.398 27.9051 4
      vertex 13.398 27.9051 0
    endloop
  endfacet
  facet normal 0.707107 -0.707107 0
    outer loop
      vertex 8.14124 22.6483 4
      vertex 8.8949 23.402 0
      vertex 8.8949 23.402 4
    endloop
  endfacet
  facet normal 0.707107 -0.707107 0
    outer loop
      vertex 8.8949 23.402 0
      vertex 8.14124 22.6483 4
      vertex 8.14124 22.6483 0
    endloop
  endfacet
  facet normal 0.707107 0.707106 0
    outer loop
      vertex 14.1517 21.9412 4
      vertex 13.398 22.6949 0
      vertex 13.398 22.6949 4
    endloop
  endfacet
  facet normal 0.707107 0.707106 0
    outer loop
      vertex 13.398 22.6949 0
      vertex 14.1517 21.9412 4
      vertex 14.1517 21.9412 0
    endloop
  endfacet
  facet normal 0.707107 0.707107 0
    outer loop
      vertex 8.8949 27.198 4
      vertex 8.14124 27.9517 0
      vertex 8.14124 27.9517 4
    endloop
  endfacet
  facet normal 0.707107 0.707107 0
    outer loop
      vertex 8.14124 27.9517 0
      vertex 8.8949 27.198 4
      vertex 8.8949 27.198 0
    endloop
  endfacet
  facet normal -0.707107 -0.707107 0
    outer loop
      vertex 14.8588 22.6483 0
      vertex 14.1051 23.402 4
      vertex 14.1051 23.402 0
    endloop
  endfacet
  facet normal -0.707107 -0.707107 0
    outer loop
      vertex 14.1051 23.402 4
      vertex 14.8588 22.6483 0
      vertex 14.8588 22.6483 4
    endloop
  endfacet
  facet normal -0.707107 -0.707106 0
    outer loop
      vertex 9.602 27.9051 0
      vertex 8.84835 28.6588 4
      vertex 8.84835 28.6588 0
    endloop
  endfacet
  facet normal -0.707107 -0.707106 0
    outer loop
      vertex 8.84835 28.6588 4
      vertex 9.602 27.9051 0
      vertex 9.602 27.9051 4
    endloop
  endfacet
  facet normal -0.707107 0.707106 0
    outer loop
      vertex 14.1517 21.9412 0
      vertex 14.8588 22.6483 4
      vertex 14.8588 22.6483 0
    endloop
  endfacet
  facet normal -0.707107 0.707106 0
    outer loop
      vertex 14.8588 22.6483 4
      vertex 14.1517 21.9412 0
      vertex 14.1517 21.9412 4
    endloop
  endfacet
  facet normal 0.707107 -0.707106 0
    outer loop
      vertex 8.14124 27.9517 4
      vertex 8.84835 28.6588 0
      vertex 8.84835 28.6588 4
    endloop
  endfacet
  facet normal 0.707107 -0.707106 0
    outer loop
      vertex 8.84835 28.6588 0
      vertex 8.14124 27.9517 4
      vertex 8.14124 27.9517 0
    endloop
  endfacet
  facet normal -0.608766 -0.79335 0
    outer loop
      vertex 13.125 39.8146 0
      vertex 13.398 39.6051 4
      vertex 13.125 39.8146 4
    endloop
  endfacet
  facet normal -0.608766 -0.79335 -0
    outer loop
      vertex 13.398 39.6051 4
      vertex 13.125 39.8146 0
      vertex 13.398 39.6051 0
    endloop
  endfacet
  facet normal 0.793356 0.608758 0
    outer loop
      vertex 8.8949 35.102 4
      vertex 8.68542 35.375 0
      vertex 8.68542 35.375 4
    endloop
  endfacet
  facet normal 0.793356 0.608758 0
    outer loop
      vertex 8.68542 35.375 0
      vertex 8.8949 35.102 4
      vertex 8.8949 35.102 0
    endloop
  endfacet
  facet normal 0.608766 -0.79335 0
    outer loop
      vertex 9.602 39.6051 0
      vertex 9.875 39.8146 4
      vertex 9.602 39.6051 4
    endloop
  endfacet
  facet normal 0.608766 -0.79335 0
    outer loop
      vertex 9.875 39.8146 4
      vertex 9.602 39.6051 0
      vertex 9.875 39.8146 0
    endloop
  endfacet
  facet normal -0.130526 -0.991445 0
    outer loop
      vertex 11.5 40.25 0
      vertex 12.3412 40.1393 4
      vertex 11.5 40.25 4
    endloop
  endfacet
  facet normal -0.130526 -0.991445 -0
    outer loop
      vertex 12.3412 40.1393 4
      vertex 11.5 40.25 0
      vertex 12.3412 40.1393 0
    endloop
  endfacet
  facet normal -0.382684 -0.92388 0
    outer loop
      vertex 12.3412 40.1393 0
      vertex 13.125 39.8146 4
      vertex 12.3412 40.1393 4
    endloop
  endfacet
  facet normal -0.382684 -0.92388 -0
    outer loop
      vertex 13.125 39.8146 4
      vertex 12.3412 40.1393 0
      vertex 13.125 39.8146 0
    endloop
  endfacet
  facet normal 0.130526 -0.991445 0
    outer loop
      vertex 10.6588 40.1393 0
      vertex 11.5 40.25 4
      vertex 10.6588 40.1393 4
    endloop
  endfacet
  facet normal 0.130526 -0.991445 0
    outer loop
      vertex 11.5 40.25 4
      vertex 10.6588 40.1393 0
      vertex 11.5 40.25 0
    endloop
  endfacet
  facet normal 0.991445 -0.130527 0
    outer loop
      vertex 8.25 37 4
      vertex 8.36074 37.8412 0
      vertex 8.36074 37.8412 4
    endloop
  endfacet
  facet normal 0.991445 -0.130527 0
    outer loop
      vertex 8.36074 37.8412 0
      vertex 8.25 37 4
      vertex 8.25 37 0
    endloop
  endfacet
  facet normal 0.793356 -0.608758 0
    outer loop
      vertex 8.68542 38.625 4
      vertex 8.8949 38.898 0
      vertex 8.8949 38.898 4
    endloop
  endfacet
  facet normal 0.793356 -0.608758 0
    outer loop
      vertex 8.8949 38.898 0
      vertex 8.68542 38.625 4
      vertex 8.68542 38.625 0
    endloop
  endfacet
  facet normal -0.92388 -0.382683 0
    outer loop
      vertex 14.6393 37.8412 0
      vertex 14.3146 38.625 4
      vertex 14.3146 38.625 0
    endloop
  endfacet
  facet normal -0.92388 -0.382683 0
    outer loop
      vertex 14.3146 38.625 4
      vertex 14.6393 37.8412 0
      vertex 14.6393 37.8412 4
    endloop
  endfacet
  facet normal -0.130526 0.991445 0
    outer loop
      vertex 12.3412 33.8607 0
      vertex 11.5 33.75 4
      vertex 12.3412 33.8607 4
    endloop
  endfacet
  facet normal -0.130526 0.991445 0
    outer loop
      vertex 11.5 33.75 4
      vertex 12.3412 33.8607 0
      vertex 11.5 33.75 0
    endloop
  endfacet
  facet normal 0.608766 0.79335 -0
    outer loop
      vertex 9.875 34.1854 0
      vertex 9.602 34.3949 4
      vertex 9.875 34.1854 4
    endloop
  endfacet
  facet normal 0.608766 0.79335 0
    outer loop
      vertex 9.602 34.3949 4
      vertex 9.875 34.1854 0
      vertex 9.602 34.3949 0
    endloop
  endfacet
  facet normal 0.382684 -0.92388 0
    outer loop
      vertex 9.875 39.8146 0
      vertex 10.6588 40.1393 4
      vertex 9.875 39.8146 4
    endloop
  endfacet
  facet normal 0.382684 -0.92388 0
    outer loop
      vertex 10.6588 40.1393 4
      vertex 9.875 39.8146 0
      vertex 10.6588 40.1393 0
    endloop
  endfacet
  facet normal 0.991445 0.130527 0
    outer loop
      vertex 8.36074 36.1588 4
      vertex 8.25 37 0
      vertex 8.25 37 4
    endloop
  endfacet
  facet normal 0.991445 0.130527 0
    outer loop
      vertex 8.25 37 0
      vertex 8.36074 36.1588 4
      vertex 8.36074 36.1588 0
    endloop
  endfacet
  facet normal 0.92388 0.382683 0
    outer loop
      vertex 8.68542 35.375 4
      vertex 8.36074 36.1588 0
      vertex 8.36074 36.1588 4
    endloop
  endfacet
  facet normal 0.92388 0.382683 0
    outer loop
      vertex 8.36074 36.1588 0
      vertex 8.68542 35.375 4
      vertex 8.68542 35.375 0
    endloop
  endfacet
  facet normal 0.92388 -0.382683 0
    outer loop
      vertex 8.36074 37.8412 4
      vertex 8.68542 38.625 0
      vertex 8.68542 38.625 4
    endloop
  endfacet
  facet normal 0.92388 -0.382683 0
    outer loop
      vertex 8.68542 38.625 0
      vertex 8.36074 37.8412 4
      vertex 8.36074 37.8412 0
    endloop
  endfacet
  facet normal -0.793356 -0.608758 0
    outer loop
      vertex 14.3146 38.625 0
      vertex 14.1051 38.898 4
      vertex 14.1051 38.898 0
    endloop
  endfacet
  facet normal -0.793356 -0.608758 0
    outer loop
      vertex 14.1051 38.898 4
      vertex 14.3146 38.625 0
      vertex 14.3146 38.625 4
    endloop
  endfacet
  facet normal -0.793356 0.608758 0
    outer loop
      vertex 14.1051 35.102 0
      vertex 14.3146 35.375 4
      vertex 14.3146 35.375 0
    endloop
  endfacet
  facet normal -0.793356 0.608758 0
    outer loop
      vertex 14.3146 35.375 4
      vertex 14.1051 35.102 0
      vertex 14.1051 35.102 4
    endloop
  endfacet
  facet normal -0.991445 0.130526 0
    outer loop
      vertex 14.6393 36.1588 0
      vertex 14.75 37 4
      vertex 14.75 37 0
    endloop
  endfacet
  facet normal -0.991445 0.130526 0
    outer loop
      vertex 14.75 37 4
      vertex 14.6393 36.1588 0
      vertex 14.6393 36.1588 4
    endloop
  endfacet
  facet normal -0.382684 0.92388 0
    outer loop
      vertex 13.125 34.1854 0
      vertex 12.3412 33.8607 4
      vertex 13.125 34.1854 4
    endloop
  endfacet
  facet normal -0.382684 0.92388 0
    outer loop
      vertex 12.3412 33.8607 4
      vertex 13.125 34.1854 0
      vertex 12.3412 33.8607 0
    endloop
  endfacet
  facet normal 0.382684 0.92388 -0
    outer loop
      vertex 10.6588 33.8607 0
      vertex 9.875 34.1854 4
      vertex 10.6588 33.8607 4
    endloop
  endfacet
  facet normal 0.382684 0.92388 0
    outer loop
      vertex 9.875 34.1854 4
      vertex 10.6588 33.8607 0
      vertex 9.875 34.1854 0
    endloop
  endfacet
  facet normal -0.92388 0.382683 0
    outer loop
      vertex 14.3146 35.375 0
      vertex 14.6393 36.1588 4
      vertex 14.6393 36.1588 0
    endloop
  endfacet
  facet normal -0.92388 0.382683 0
    outer loop
      vertex 14.6393 36.1588 4
      vertex 14.3146 35.375 0
      vertex 14.3146 35.375 4
    endloop
  endfacet
  facet normal -0.991445 -0.130526 0
    outer loop
      vertex 14.75 37 0
      vertex 14.6393 37.8412 4
      vertex 14.6393 37.8412 0
    endloop
  endfacet
  facet normal -0.991445 -0.130526 0
    outer loop
      vertex 14.6393 37.8412 4
      vertex 14.75 37 0
      vertex 14.75 37 4
    endloop
  endfacet
  facet normal -0.608766 0.79335 0
    outer loop
      vertex 13.398 34.3949 0
      vertex 13.125 34.1854 4
      vertex 13.398 34.3949 4
    endloop
  endfacet
  facet normal -0.608766 0.79335 0
    outer loop
      vertex 13.125 34.1854 4
      vertex 13.398 34.3949 0
      vertex 13.125 34.1854 0
    endloop
  endfacet
  facet normal 0.130526 0.991445 -0
    outer loop
      vertex 11.5 33.75 0
      vertex 10.6588 33.8607 4
      vertex 11.5 33.75 4
    endloop
  endfacet
  facet normal 0.130526 0.991445 0
    outer loop
      vertex 10.6588 33.8607 4
      vertex 11.5 33.75 0
      vertex 10.6588 33.8607 0
    endloop
  endfacet
  facet normal 0.707107 0.707106 0
    outer loop
      vertex 8.84835 33.6412 4
      vertex 8.14124 34.3484 0
      vertex 8.14124 34.3484 4
    endloop
  endfacet
  facet normal 0.707107 0.707106 0
    outer loop
      vertex 8.14124 34.3484 0
      vertex 8.84835 33.6412 4
      vertex 8.84835 33.6412 0
    endloop
  endfacet
  facet normal -0.707107 -0.707106 0
    outer loop
      vertex 14.8588 39.6516 0
      vertex 14.1517 40.3588 4
      vertex 14.1517 40.3588 0
    endloop
  endfacet
  facet normal -0.707107 -0.707106 0
    outer loop
      vertex 14.1517 40.3588 4
      vertex 14.8588 39.6516 0
      vertex 14.8588 39.6516 4
    endloop
  endfacet
  facet normal -0.707106 0.707108 0
    outer loop
      vertex 14.8588 39.6516 0
      vertex 14.1051 38.898 4
      vertex 14.8588 39.6516 4
    endloop
  endfacet
  facet normal -0.707106 0.707108 0
    outer loop
      vertex 14.1051 38.898 4
      vertex 14.8588 39.6516 0
      vertex 14.1051 38.898 0
    endloop
  endfacet
  facet normal -0.707107 0.707106 0
    outer loop
      vertex 8.84835 33.6412 0
      vertex 9.602 34.3949 4
      vertex 9.602 34.3949 0
    endloop
  endfacet
  facet normal -0.707107 0.707106 0
    outer loop
      vertex 9.602 34.3949 4
      vertex 8.84835 33.6412 0
      vertex 8.84835 33.6412 4
    endloop
  endfacet
  facet normal 0.707107 -0.707106 0
    outer loop
      vertex 13.398 39.6051 4
      vertex 14.1517 40.3588 0
      vertex 14.1517 40.3588 4
    endloop
  endfacet
  facet normal 0.707107 -0.707106 0
    outer loop
      vertex 14.1517 40.3588 0
      vertex 13.398 39.6051 4
      vertex 13.398 39.6051 0
    endloop
  endfacet
  facet normal 0.707106 -0.707108 0
    outer loop
      vertex 8.14124 34.3484 0
      vertex 8.8949 35.102 4
      vertex 8.14124 34.3484 4
    endloop
  endfacet
  facet normal 0.707106 -0.707108 0
    outer loop
      vertex 8.8949 35.102 4
      vertex 8.14124 34.3484 0
      vertex 8.8949 35.102 0
    endloop
  endfacet
  facet normal 0.707107 0.707106 0
    outer loop
      vertex 14.1517 33.6412 4
      vertex 13.398 34.3949 0
      vertex 13.398 34.3949 4
    endloop
  endfacet
  facet normal 0.707107 0.707106 0
    outer loop
      vertex 13.398 34.3949 0
      vertex 14.1517 33.6412 4
      vertex 14.1517 33.6412 0
    endloop
  endfacet
  facet normal 0.707106 0.707108 -0
    outer loop
      vertex 8.8949 38.898 0
      vertex 8.14124 39.6516 4
      vertex 8.8949 38.898 4
    endloop
  endfacet
  facet normal 0.707106 0.707108 0
    outer loop
      vertex 8.14124 39.6516 4
      vertex 8.8949 38.898 0
      vertex 8.14124 39.6516 0
    endloop
  endfacet
  facet normal -0.707106 -0.707108 0
    outer loop
      vertex 14.1051 35.102 0
      vertex 14.8588 34.3484 4
      vertex 14.1051 35.102 4
    endloop
  endfacet
  facet normal -0.707106 -0.707108 -0
    outer loop
      vertex 14.8588 34.3484 4
      vertex 14.1051 35.102 0
      vertex 14.8588 34.3484 0
    endloop
  endfacet
  facet normal -0.707107 -0.707106 0
    outer loop
      vertex 9.602 39.6051 0
      vertex 8.84835 40.3588 4
      vertex 8.84835 40.3588 0
    endloop
  endfacet
  facet normal -0.707107 -0.707106 0
    outer loop
      vertex 8.84835 40.3588 4
      vertex 9.602 39.6051 0
      vertex 9.602 39.6051 4
    endloop
  endfacet
  facet normal -0.707107 0.707106 0
    outer loop
      vertex 14.1517 33.6412 0
      vertex 14.8588 34.3484 4
      vertex 14.8588 34.3484 0
    endloop
  endfacet
  facet normal -0.707107 0.707106 0
    outer loop
      vertex 14.8588 34.3484 4
      vertex 14.1517 33.6412 0
      vertex 14.1517 33.6412 4
    endloop
  endfacet
  facet normal 0.707107 -0.707106 0
    outer loop
      vertex 8.14124 39.6516 4
      vertex 8.84835 40.3588 0
      vertex 8.84835 40.3588 4
    endloop
  endfacet
  facet normal 0.707107 -0.707106 0
    outer loop
      vertex 8.84835 40.3588 0
      vertex 8.14124 39.6516 4
      vertex 8.14124 39.6516 0
    endloop
  endfacet
  facet normal -1 0 0
    outer loop
      vertex 18.5 30 4
      vertex 18.5 44 14
      vertex 18.5 44 4
    endloop
  endfacet
  facet normal -1 -0 0
    outer loop
      vertex 18.5 44 14
      vertex 18.5 30 4
      vertex 18.5 30 14
    endloop
  endfacet
  facet normal 0 -1 0
    outer loop
      vertex 18.25 44 4
      vertex 18.5 44 14
      vertex 18.25 44 14
    endloop
  endfacet
  facet normal 0 -1 -0
    outer loop
      vertex 18.5 44 14
      vertex 18.25 44 4
      vertex 18.5 44 4
    endloop
  endfacet
  facet normal 0 1 -0
    outer loop
      vertex 18.5 30 4
      vertex 18.25 30 14
      vertex 18.5 30 14
    endloop
  endfacet
  facet normal 0 1 0
    outer loop
      vertex 18.25 30 14
      vertex 18.5 30 4
      vertex 18.25 30 4
    endloop
  endfacet
  facet normal 1 0 0
    outer loop
      vertex 4.75 74 4
      vertex 4.75 83 8.85
      vertex 4.75 79.85 12
    endloop
  endfacet
  facet normal 1 0 0
    outer loop
      vertex 4.75 74 4
      vertex 4.75 79.85 12
      vertex 4.75 74 12
    endloop
  endfacet
  facet normal 1 0 0
    outer loop
      vertex 4.75 83 8.85
      vertex 4.75 74 4
      vertex 4.75 83 0
    endloop
  endfacet
  facet normal 1 0 0
    outer loop
      vertex 4.75 52 0
      vertex 4.75 74 4
      vertex 4.75 52 4
    endloop
  endfacet
  facet normal 1 0 0
    outer loop
      vertex 4.75 74 4
      vertex 4.75 52 0
      vertex 4.75 83 0
    endloop
  endfacet
  facet normal 0 1 -0
    outer loop
      vertex 18.25 52 0
      vertex 4.75 52 4
      vertex 18.25 52 4
    endloop
  endfacet
  facet normal 0 1 0
    outer loop
      vertex 4.75 52 4
      vertex 18.25 52 0
      vertex 4.75 52 0
    endloop
  endfacet
endsolid OpenSCAD_Model
