G04 #@! TF.GenerationSoftware,KiCad,Pcbnew,5.0.0-fee4fd1~65~ubuntu17.10.1*
G04 #@! TF.CreationDate,2018-09-05T22:10:36-07:00*
G04 #@! TF.ProjectId,ATX2PCjr,4154583250436A722E6B696361645F70,rev?*
G04 #@! TF.SameCoordinates,Original*
G04 #@! TF.FileFunction,Copper,L1,Top,Signal*
G04 #@! TF.FilePolarity,Positive*
%FSLAX46Y46*%
G04 Gerber Fmt 4.6, Leading zero omitted, Abs format (unit mm)*
G04 Created by KiCad (PCBNEW 5.0.0-fee4fd1~65~ubuntu17.10.1) date Wed Sep  5 22:10:36 2018*
%MOMM*%
%LPD*%
G01*
G04 APERTURE LIST*
G04 #@! TA.AperFunction,ComponentPad*
%ADD10C,2.700000*%
G04 #@! TD*
G04 #@! TA.AperFunction,Conductor*
%ADD11C,0.100000*%
G04 #@! TD*
G04 #@! TA.AperFunction,Conductor*
%ADD12C,2.700000*%
G04 #@! TD*
G04 #@! TA.AperFunction,ComponentPad*
%ADD13C,3.000000*%
G04 #@! TD*
G04 #@! TA.AperFunction,SMDPad,CuDef*
%ADD14R,2.500000X11.320000*%
G04 #@! TD*
G04 #@! TA.AperFunction,ComponentPad*
%ADD15O,1.700000X1.700000*%
G04 #@! TD*
G04 #@! TA.AperFunction,ComponentPad*
%ADD16R,1.700000X1.700000*%
G04 #@! TD*
G04 #@! TA.AperFunction,ViaPad*
%ADD17C,1.016000*%
G04 #@! TD*
G04 #@! TA.AperFunction,Conductor*
%ADD18C,1.270000*%
G04 #@! TD*
G04 #@! TA.AperFunction,Conductor*
%ADD19C,0.254000*%
G04 #@! TD*
G04 APERTURE END LIST*
D10*
G04 #@! TO.P,J1,1*
G04 #@! TO.N,Net-(J1-Pad1)*
X75261670Y-83990307D03*
D11*
G04 #@! TD*
G04 #@! TO.N,Net-(J1-Pad1)*
G04 #@! TO.C,J1*
G36*
X75473802Y-86111627D02*
X73140350Y-83778175D01*
X75049538Y-81868987D01*
X77382990Y-84202439D01*
X75473802Y-86111627D01*
X75473802Y-86111627D01*
G37*
D10*
G04 #@! TO.P,J1,2*
G04 #@! TO.N,Net-(J1-Pad2)*
X78231518Y-81020459D03*
D12*
G04 #@! TD*
G04 #@! TO.N,Net-(J1-Pad2)*
G04 #@! TO.C,J1*
X78019386Y-80808327D02*
X78443650Y-81232591D01*
D10*
G04 #@! TO.P,J1,3*
G04 #@! TO.N,/GND*
X81201367Y-78050610D03*
D12*
G04 #@! TD*
G04 #@! TO.N,/GND*
G04 #@! TO.C,J1*
X80989235Y-77838478D02*
X81413499Y-78262742D01*
D10*
G04 #@! TO.P,J1,4*
G04 #@! TO.N,/+5V*
X84171215Y-75080762D03*
D12*
G04 #@! TD*
G04 #@! TO.N,/+5V*
G04 #@! TO.C,J1*
X83959083Y-74868630D02*
X84383347Y-75292894D01*
D10*
G04 #@! TO.P,J1,5*
G04 #@! TO.N,/GND*
X87141064Y-72110913D03*
D12*
G04 #@! TD*
G04 #@! TO.N,/GND*
G04 #@! TO.C,J1*
X86928932Y-71898781D02*
X87353196Y-72323045D01*
D10*
G04 #@! TO.P,J1,6*
G04 #@! TO.N,/+5V*
X90110912Y-69141065D03*
D12*
G04 #@! TD*
G04 #@! TO.N,/+5V*
G04 #@! TO.C,J1*
X89898780Y-68928933D02*
X90323044Y-69353197D01*
D10*
G04 #@! TO.P,J1,7*
G04 #@! TO.N,/GND*
X93080761Y-66171216D03*
D12*
G04 #@! TD*
G04 #@! TO.N,/GND*
G04 #@! TO.C,J1*
X92868629Y-65959084D02*
X93292893Y-66383348D01*
D10*
G04 #@! TO.P,J1,8*
G04 #@! TO.N,Net-(J1-Pad8)*
X96050609Y-63201368D03*
D12*
G04 #@! TD*
G04 #@! TO.N,Net-(J1-Pad8)*
G04 #@! TO.C,J1*
X95838477Y-62989236D02*
X96262741Y-63413500D01*
D10*
G04 #@! TO.P,J1,9*
G04 #@! TO.N,Net-(J1-Pad9)*
X99020458Y-60231519D03*
D12*
G04 #@! TD*
G04 #@! TO.N,Net-(J1-Pad9)*
G04 #@! TO.C,J1*
X98808326Y-60019387D02*
X99232590Y-60443651D01*
D10*
G04 #@! TO.P,J1,10*
G04 #@! TO.N,/+12V*
X101990306Y-57261671D03*
D12*
G04 #@! TD*
G04 #@! TO.N,/+12V*
G04 #@! TO.C,J1*
X101778174Y-57049539D02*
X102202438Y-57473803D01*
D10*
G04 #@! TO.P,J1,11*
G04 #@! TO.N,Net-(J1-Pad11)*
X79150757Y-87879394D03*
D12*
G04 #@! TD*
G04 #@! TO.N,Net-(J1-Pad11)*
G04 #@! TO.C,J1*
X78938625Y-87667262D02*
X79362889Y-88091526D01*
D10*
G04 #@! TO.P,J1,12*
G04 #@! TO.N,/-12V*
X82120606Y-84909546D03*
D12*
G04 #@! TD*
G04 #@! TO.N,/-12V*
G04 #@! TO.C,J1*
X81908474Y-84697414D02*
X82332738Y-85121678D01*
D10*
G04 #@! TO.P,J1,13*
G04 #@! TO.N,/GND*
X85090454Y-81939697D03*
D12*
G04 #@! TD*
G04 #@! TO.N,/GND*
G04 #@! TO.C,J1*
X84878322Y-81727565D02*
X85302586Y-82151829D01*
D10*
G04 #@! TO.P,J1,14*
G04 #@! TO.N,/PS-ON*
X88060303Y-78969849D03*
D12*
G04 #@! TD*
G04 #@! TO.N,/PS-ON*
G04 #@! TO.C,J1*
X87848171Y-78757717D02*
X88272435Y-79181981D01*
D10*
G04 #@! TO.P,J1,15*
G04 #@! TO.N,/GND*
X91030151Y-76000000D03*
D12*
G04 #@! TD*
G04 #@! TO.N,/GND*
G04 #@! TO.C,J1*
X90818019Y-75787868D02*
X91242283Y-76212132D01*
D10*
G04 #@! TO.P,J1,16*
G04 #@! TO.N,/GND*
X94000000Y-73030152D03*
D12*
G04 #@! TD*
G04 #@! TO.N,/GND*
G04 #@! TO.C,J1*
X93787868Y-72818020D02*
X94212132Y-73242284D01*
D10*
G04 #@! TO.P,J1,17*
G04 #@! TO.N,/GND*
X96969848Y-70060303D03*
D12*
G04 #@! TD*
G04 #@! TO.N,/GND*
G04 #@! TO.C,J1*
X96757716Y-69848171D02*
X97181980Y-70272435D01*
D10*
G04 #@! TO.P,J1,18*
G04 #@! TO.N,Net-(J1-Pad18)*
X99939697Y-67090455D03*
D12*
G04 #@! TD*
G04 #@! TO.N,Net-(J1-Pad18)*
G04 #@! TO.C,J1*
X99727565Y-66878323D02*
X100151829Y-67302587D01*
D10*
G04 #@! TO.P,J1,19*
G04 #@! TO.N,/+5V*
X102909545Y-64120606D03*
D12*
G04 #@! TD*
G04 #@! TO.N,/+5V*
G04 #@! TO.C,J1*
X102697413Y-63908474D02*
X103121677Y-64332738D01*
D10*
G04 #@! TO.P,J1,20*
G04 #@! TO.N,/+5V*
X105879394Y-61150758D03*
D12*
G04 #@! TD*
G04 #@! TO.N,/+5V*
G04 #@! TO.C,J1*
X105667262Y-60938626D02*
X106091526Y-61362890D01*
D13*
G04 #@! TO.P,J5,4*
G04 #@! TO.N,/+12V*
X130000000Y-52920000D03*
G04 #@! TO.P,J5,3*
G04 #@! TO.N,/GND*
X130000000Y-58000000D03*
G04 #@! TO.P,J5,2*
X130000000Y-63080000D03*
G04 #@! TO.P,J5,1*
G04 #@! TO.N,/+5V*
X130000000Y-68160000D03*
G04 #@! TD*
D14*
G04 #@! TO.P,J2,10*
G04 #@! TO.N,/+12V*
X144130000Y-89660000D03*
G04 #@! TO.P,J2,9*
G04 #@! TO.N,/GND*
X140180000Y-89660000D03*
G04 #@! TO.P,J2,8*
X136240000Y-89660000D03*
G04 #@! TO.P,J2,7*
G04 #@! TO.N,/+5V*
X132290000Y-89660000D03*
G04 #@! TO.P,J2,6*
X128350000Y-89660000D03*
G04 #@! TO.P,J2,5*
X124380000Y-89660000D03*
G04 #@! TO.P,J2,4*
X120380000Y-89660000D03*
G04 #@! TO.P,J2,3*
G04 #@! TO.N,/GND*
X116510000Y-89660000D03*
G04 #@! TO.P,J2,2*
X112570000Y-89660000D03*
G04 #@! TO.P,J2,1*
G04 #@! TO.N,/-12V*
X108630000Y-89660000D03*
G04 #@! TD*
D15*
G04 #@! TO.P,J3,2*
G04 #@! TO.N,/GND*
X143810000Y-66410000D03*
D16*
G04 #@! TO.P,J3,1*
G04 #@! TO.N,/PS-ON*
X143810000Y-68950000D03*
G04 #@! TD*
D15*
G04 #@! TO.P,J4,3*
G04 #@! TO.N,/GND*
X143810000Y-53190000D03*
G04 #@! TO.P,J4,2*
G04 #@! TO.N,/+12V*
X143810000Y-55730000D03*
D16*
G04 #@! TO.P,J4,1*
G04 #@! TO.N,/GND*
X143810000Y-58270000D03*
G04 #@! TD*
D17*
G04 #@! TO.N,/GND*
X136000000Y-78000000D03*
X107077436Y-77237436D03*
G04 #@! TD*
D18*
G04 #@! TO.N,/GND*
X81201367Y-78050610D02*
X85090454Y-81939697D01*
X87141064Y-72110913D02*
X91030151Y-76000000D01*
X91030152Y-76000000D02*
X94000000Y-73030152D01*
X91030151Y-76000000D02*
X91030152Y-76000000D01*
X94000000Y-73030151D02*
X96969848Y-70060303D01*
X94000000Y-73030152D02*
X94000000Y-73030151D01*
X96969848Y-70060303D02*
X93080761Y-66171216D01*
X85500727Y-72110913D02*
X87141064Y-72110913D01*
X82831940Y-72110913D02*
X85500727Y-72110913D01*
X81201367Y-73741486D02*
X82831940Y-72110913D01*
X81201367Y-78050610D02*
X81201367Y-73741486D01*
X112570000Y-82730000D02*
X112570000Y-89660000D01*
X92267587Y-77237436D02*
X107077436Y-77237436D01*
X91030151Y-76000000D02*
X92267587Y-77237436D01*
X116510000Y-82730000D02*
X114780000Y-81000000D01*
X114780000Y-81000000D02*
X110840000Y-81000000D01*
X116510000Y-89660000D02*
X116510000Y-82730000D01*
X107077436Y-77237436D02*
X110840000Y-81000000D01*
X110840000Y-81000000D02*
X112570000Y-82730000D01*
X112570000Y-89660000D02*
X116510000Y-89660000D01*
X136240000Y-89660000D02*
X140180000Y-89660000D01*
X136240000Y-89660000D02*
X136240000Y-78240000D01*
X143810000Y-66410000D02*
X143810000Y-58270000D01*
X145012081Y-53190000D02*
X143810000Y-53190000D01*
X146057001Y-54234920D02*
X145012081Y-53190000D01*
X146057001Y-58142999D02*
X146057001Y-54234920D01*
X145930000Y-58270000D02*
X146057001Y-58142999D01*
X143810000Y-58270000D02*
X145930000Y-58270000D01*
X130000000Y-58000000D02*
X130000000Y-63080000D01*
X136000000Y-78000000D02*
X136240000Y-78240000D01*
X136000000Y-69080000D02*
X136000000Y-78000000D01*
X130000000Y-63080000D02*
X136000000Y-69080000D01*
G04 #@! TO.N,/+5V*
X102909546Y-64120606D02*
X105879394Y-61150758D01*
X102909545Y-64120606D02*
X102909546Y-64120606D01*
X120380000Y-82730000D02*
X120380000Y-89660000D01*
X105879394Y-61150758D02*
X105879394Y-62791095D01*
X120380000Y-89660000D02*
X124380000Y-89660000D01*
X124380000Y-89660000D02*
X128350000Y-89660000D01*
X128350000Y-89660000D02*
X132290000Y-89660000D01*
X111248299Y-68160000D02*
X110088299Y-67000000D01*
X130000000Y-68160000D02*
X111248299Y-68160000D01*
X105879394Y-62791095D02*
X110088299Y-67000000D01*
X110088299Y-67000000D02*
X120380000Y-77291701D01*
X120380000Y-80010000D02*
X123190000Y-80010000D01*
X120380000Y-80010000D02*
X120380000Y-82730000D01*
X120380000Y-77291701D02*
X120380000Y-80010000D01*
X124380000Y-81200000D02*
X124380000Y-89660000D01*
X123190000Y-80010000D02*
X124380000Y-81200000D01*
X123190000Y-80010000D02*
X128270000Y-80010000D01*
X128350000Y-80090000D02*
X128350000Y-89660000D01*
X128270000Y-80010000D02*
X128350000Y-80090000D01*
X128270000Y-80010000D02*
X132080000Y-80010000D01*
X132290000Y-80220000D02*
X132290000Y-89660000D01*
X132080000Y-80010000D02*
X132290000Y-80220000D01*
G04 #@! TO.N,/+12V*
X106331977Y-52920000D02*
X130000000Y-52920000D01*
X101990306Y-57261671D02*
X106331977Y-52920000D01*
X130000000Y-52920000D02*
X132810000Y-55730000D01*
X139000000Y-77600000D02*
X139000000Y-55730000D01*
X144130000Y-82730000D02*
X139000000Y-77600000D01*
X144130000Y-89660000D02*
X144130000Y-82730000D01*
X132810000Y-55730000D02*
X139000000Y-55730000D01*
X139000000Y-55730000D02*
X143810000Y-55730000D01*
G04 #@! TO.N,/-12V*
X82120606Y-84909546D02*
X89090454Y-84909546D01*
X89090454Y-84909546D02*
X94000000Y-80000000D01*
X108630000Y-82730000D02*
X108630000Y-89660000D01*
X105900000Y-80000000D02*
X108630000Y-82730000D01*
X94000000Y-80000000D02*
X105900000Y-80000000D01*
G04 #@! TD*
D19*
G04 #@! TO.N,/+5V*
G36*
X128646740Y-54945296D02*
X129524798Y-55309000D01*
X130233739Y-55309000D01*
X130578544Y-55653806D01*
X130475202Y-55611000D01*
X129524798Y-55611000D01*
X128646740Y-55974704D01*
X127974704Y-56646740D01*
X127611000Y-57524798D01*
X127611000Y-58475202D01*
X127974704Y-59353260D01*
X128476000Y-59854556D01*
X128476001Y-61225443D01*
X127974704Y-61726740D01*
X127611000Y-62604798D01*
X127611000Y-63555202D01*
X127974704Y-64433260D01*
X128646740Y-65105296D01*
X129524798Y-65469000D01*
X130233739Y-65469000D01*
X131038755Y-66274016D01*
X130383813Y-66017277D01*
X129534613Y-66033503D01*
X128825418Y-66327261D01*
X128665635Y-66646030D01*
X130000000Y-67980395D01*
X130014143Y-67966253D01*
X130193748Y-68145858D01*
X130179605Y-68160000D01*
X131513970Y-69494365D01*
X131832739Y-69334582D01*
X132142723Y-68543813D01*
X132126497Y-67694613D01*
X131891134Y-67126395D01*
X134476000Y-69711262D01*
X134476001Y-77849904D01*
X134446145Y-78000000D01*
X134476001Y-78150097D01*
X134501419Y-78277881D01*
X134564425Y-78594635D01*
X134716001Y-78821485D01*
X134716001Y-83148086D01*
X134643130Y-83162581D01*
X134349067Y-83359067D01*
X134152581Y-83653130D01*
X134130215Y-83765570D01*
X134078327Y-83640301D01*
X133899698Y-83461673D01*
X133666309Y-83365000D01*
X132575750Y-83365000D01*
X132417000Y-83523750D01*
X132417000Y-89533000D01*
X132437000Y-89533000D01*
X132437000Y-89787000D01*
X132417000Y-89787000D01*
X132417000Y-89807000D01*
X132163000Y-89807000D01*
X132163000Y-89787000D01*
X130563750Y-89787000D01*
X130405000Y-89945750D01*
X130405000Y-95446310D01*
X130440080Y-95531000D01*
X130199920Y-95531000D01*
X130235000Y-95446310D01*
X130235000Y-89945750D01*
X130076250Y-89787000D01*
X128477000Y-89787000D01*
X128477000Y-89807000D01*
X128223000Y-89807000D01*
X128223000Y-89787000D01*
X126623750Y-89787000D01*
X126465000Y-89945750D01*
X126465000Y-95446310D01*
X126500080Y-95531000D01*
X126229920Y-95531000D01*
X126265000Y-95446310D01*
X126265000Y-89945750D01*
X126106250Y-89787000D01*
X124507000Y-89787000D01*
X124507000Y-89807000D01*
X124253000Y-89807000D01*
X124253000Y-89787000D01*
X122653750Y-89787000D01*
X122495000Y-89945750D01*
X122495000Y-95446310D01*
X122530080Y-95531000D01*
X122229920Y-95531000D01*
X122265000Y-95446310D01*
X122265000Y-89945750D01*
X122106250Y-89787000D01*
X120507000Y-89787000D01*
X120507000Y-89807000D01*
X120253000Y-89807000D01*
X120253000Y-89787000D01*
X120233000Y-89787000D01*
X120233000Y-89533000D01*
X120253000Y-89533000D01*
X120253000Y-83523750D01*
X120507000Y-83523750D01*
X120507000Y-89533000D01*
X122106250Y-89533000D01*
X122265000Y-89374250D01*
X122265000Y-83873690D01*
X122495000Y-83873690D01*
X122495000Y-89374250D01*
X122653750Y-89533000D01*
X124253000Y-89533000D01*
X124253000Y-83523750D01*
X124507000Y-83523750D01*
X124507000Y-89533000D01*
X126106250Y-89533000D01*
X126265000Y-89374250D01*
X126265000Y-83873690D01*
X126465000Y-83873690D01*
X126465000Y-89374250D01*
X126623750Y-89533000D01*
X128223000Y-89533000D01*
X128223000Y-83523750D01*
X128477000Y-83523750D01*
X128477000Y-89533000D01*
X130076250Y-89533000D01*
X130235000Y-89374250D01*
X130235000Y-83873690D01*
X130405000Y-83873690D01*
X130405000Y-89374250D01*
X130563750Y-89533000D01*
X132163000Y-89533000D01*
X132163000Y-83523750D01*
X132004250Y-83365000D01*
X130913691Y-83365000D01*
X130680302Y-83461673D01*
X130501673Y-83640301D01*
X130405000Y-83873690D01*
X130235000Y-83873690D01*
X130138327Y-83640301D01*
X129959698Y-83461673D01*
X129726309Y-83365000D01*
X128635750Y-83365000D01*
X128477000Y-83523750D01*
X128223000Y-83523750D01*
X128064250Y-83365000D01*
X126973691Y-83365000D01*
X126740302Y-83461673D01*
X126561673Y-83640301D01*
X126465000Y-83873690D01*
X126265000Y-83873690D01*
X126168327Y-83640301D01*
X125989698Y-83461673D01*
X125756309Y-83365000D01*
X124665750Y-83365000D01*
X124507000Y-83523750D01*
X124253000Y-83523750D01*
X124094250Y-83365000D01*
X123003691Y-83365000D01*
X122770302Y-83461673D01*
X122591673Y-83640301D01*
X122495000Y-83873690D01*
X122265000Y-83873690D01*
X122168327Y-83640301D01*
X121989698Y-83461673D01*
X121756309Y-83365000D01*
X120665750Y-83365000D01*
X120507000Y-83523750D01*
X120253000Y-83523750D01*
X120094250Y-83365000D01*
X119003691Y-83365000D01*
X118770302Y-83461673D01*
X118591673Y-83640301D01*
X118590592Y-83642912D01*
X118400933Y-83359067D01*
X118106870Y-83162581D01*
X118034000Y-83148086D01*
X118034000Y-82880091D01*
X118063855Y-82729999D01*
X118034000Y-82579907D01*
X118034000Y-82579903D01*
X117945576Y-82135365D01*
X117814835Y-81939697D01*
X117693765Y-81758503D01*
X117693764Y-81758502D01*
X117608742Y-81631258D01*
X117481498Y-81546236D01*
X115963765Y-80028504D01*
X115878742Y-79901258D01*
X115374635Y-79564424D01*
X114930097Y-79476000D01*
X114930092Y-79476000D01*
X114780000Y-79446145D01*
X114629908Y-79476000D01*
X111471262Y-79476000D01*
X108261201Y-76265940D01*
X108176178Y-76138694D01*
X107672071Y-75801860D01*
X107227533Y-75713436D01*
X107227528Y-75713436D01*
X107077436Y-75683581D01*
X106927344Y-75713436D01*
X93471977Y-75713436D01*
X93751826Y-75433587D01*
X94212132Y-75525148D01*
X95085746Y-75351375D01*
X95826360Y-74856512D01*
X96321223Y-74115898D01*
X96494996Y-73242284D01*
X96403435Y-72781977D01*
X96721674Y-72463738D01*
X97181980Y-72555299D01*
X98055594Y-72381526D01*
X98796208Y-71886663D01*
X99291071Y-71146049D01*
X99464844Y-70272435D01*
X99345802Y-69673970D01*
X128665635Y-69673970D01*
X128825418Y-69992739D01*
X129616187Y-70302723D01*
X130465387Y-70286497D01*
X131174582Y-69992739D01*
X131334365Y-69673970D01*
X130000000Y-68339605D01*
X128665635Y-69673970D01*
X99345802Y-69673970D01*
X99294263Y-69414870D01*
X100151829Y-69585451D01*
X101025443Y-69411678D01*
X101766057Y-68916815D01*
X102260920Y-68176201D01*
X102340487Y-67776187D01*
X127857277Y-67776187D01*
X127873503Y-68625387D01*
X128167261Y-69334582D01*
X128486030Y-69494365D01*
X129820395Y-68160000D01*
X128486030Y-66825635D01*
X128167261Y-66985418D01*
X127857277Y-67776187D01*
X102340487Y-67776187D01*
X102434693Y-67302587D01*
X102260920Y-66428973D01*
X101890971Y-65875306D01*
X101888572Y-65872907D01*
X102479383Y-66215239D01*
X103248677Y-66317737D01*
X103998636Y-66118038D01*
X104183295Y-66009995D01*
X104320102Y-65710768D01*
X102909545Y-64300211D01*
X102895403Y-64314354D01*
X102715797Y-64134748D01*
X102729940Y-64120606D01*
X103089150Y-64120606D01*
X104499707Y-65531163D01*
X104798934Y-65394356D01*
X104906977Y-65209697D01*
X105106676Y-64459738D01*
X105004178Y-63690444D01*
X104615087Y-63018934D01*
X104402955Y-62806802D01*
X103089150Y-64120606D01*
X102729940Y-64120606D01*
X101319383Y-62710049D01*
X101020156Y-62846856D01*
X100912113Y-63031515D01*
X100712414Y-63781474D01*
X100814912Y-64550768D01*
X101157244Y-65141579D01*
X101154846Y-65139181D01*
X100601179Y-64769233D01*
X99727565Y-64595459D01*
X98853951Y-64769233D01*
X98113337Y-65264095D01*
X97618475Y-66004709D01*
X97444701Y-66878323D01*
X97615283Y-67735889D01*
X96757716Y-67565307D01*
X96651284Y-67586478D01*
X95554586Y-66489780D01*
X95575757Y-66383348D01*
X95405176Y-65525783D01*
X96262741Y-65696364D01*
X97136355Y-65522591D01*
X97876969Y-65027728D01*
X98371832Y-64287114D01*
X98545605Y-63413500D01*
X98375024Y-62555934D01*
X99232590Y-62726515D01*
X100106204Y-62552742D01*
X100139575Y-62530444D01*
X101498988Y-62530444D01*
X102909545Y-63941001D01*
X104206377Y-62644168D01*
X104565590Y-62644168D01*
X104777722Y-62856300D01*
X105449232Y-63245391D01*
X106218526Y-63347889D01*
X106968485Y-63148190D01*
X107153144Y-63040147D01*
X107289951Y-62740920D01*
X105879394Y-61330363D01*
X104565590Y-62644168D01*
X104206377Y-62644168D01*
X104223349Y-62627196D01*
X104011217Y-62415064D01*
X103339707Y-62025973D01*
X102570413Y-61923475D01*
X101820454Y-62123174D01*
X101635795Y-62231217D01*
X101498988Y-62530444D01*
X100139575Y-62530444D01*
X100846818Y-62057879D01*
X101341681Y-61317265D01*
X101442259Y-60811626D01*
X103682263Y-60811626D01*
X103784761Y-61580920D01*
X104173852Y-62252430D01*
X104385984Y-62464562D01*
X105699789Y-61150758D01*
X106058999Y-61150758D01*
X107469556Y-62561315D01*
X107768783Y-62424508D01*
X107876826Y-62239849D01*
X108076525Y-61489890D01*
X107974027Y-60720596D01*
X107584936Y-60049086D01*
X107372804Y-59836954D01*
X106058999Y-61150758D01*
X105699789Y-61150758D01*
X104289232Y-59740201D01*
X103990005Y-59877008D01*
X103881962Y-60061667D01*
X103682263Y-60811626D01*
X101442259Y-60811626D01*
X101515454Y-60443651D01*
X101344873Y-59586086D01*
X102202438Y-59756667D01*
X103076052Y-59582894D01*
X103109423Y-59560596D01*
X104468837Y-59560596D01*
X105879394Y-60971153D01*
X107193198Y-59657348D01*
X106981066Y-59445216D01*
X106309556Y-59056125D01*
X105540262Y-58953627D01*
X104790303Y-59153326D01*
X104605644Y-59261369D01*
X104468837Y-59560596D01*
X103109423Y-59560596D01*
X103816666Y-59088031D01*
X104311529Y-58347417D01*
X104485302Y-57473803D01*
X104396405Y-57026885D01*
X106488526Y-57026885D01*
X106488526Y-57977289D01*
X106852230Y-58855347D01*
X107524266Y-59527383D01*
X108402324Y-59891087D01*
X109352728Y-59891087D01*
X110230786Y-59527383D01*
X110902822Y-58855347D01*
X111266526Y-57977289D01*
X111266526Y-57026885D01*
X110902822Y-56148827D01*
X110230786Y-55476791D01*
X109352728Y-55113087D01*
X108402324Y-55113087D01*
X107524266Y-55476791D01*
X106852230Y-56148827D01*
X106488526Y-57026885D01*
X104396405Y-57026885D01*
X104393741Y-57013497D01*
X106963239Y-54444000D01*
X128145444Y-54444000D01*
X128646740Y-54945296D01*
X128646740Y-54945296D01*
G37*
X128646740Y-54945296D02*
X129524798Y-55309000D01*
X130233739Y-55309000D01*
X130578544Y-55653806D01*
X130475202Y-55611000D01*
X129524798Y-55611000D01*
X128646740Y-55974704D01*
X127974704Y-56646740D01*
X127611000Y-57524798D01*
X127611000Y-58475202D01*
X127974704Y-59353260D01*
X128476000Y-59854556D01*
X128476001Y-61225443D01*
X127974704Y-61726740D01*
X127611000Y-62604798D01*
X127611000Y-63555202D01*
X127974704Y-64433260D01*
X128646740Y-65105296D01*
X129524798Y-65469000D01*
X130233739Y-65469000D01*
X131038755Y-66274016D01*
X130383813Y-66017277D01*
X129534613Y-66033503D01*
X128825418Y-66327261D01*
X128665635Y-66646030D01*
X130000000Y-67980395D01*
X130014143Y-67966253D01*
X130193748Y-68145858D01*
X130179605Y-68160000D01*
X131513970Y-69494365D01*
X131832739Y-69334582D01*
X132142723Y-68543813D01*
X132126497Y-67694613D01*
X131891134Y-67126395D01*
X134476000Y-69711262D01*
X134476001Y-77849904D01*
X134446145Y-78000000D01*
X134476001Y-78150097D01*
X134501419Y-78277881D01*
X134564425Y-78594635D01*
X134716001Y-78821485D01*
X134716001Y-83148086D01*
X134643130Y-83162581D01*
X134349067Y-83359067D01*
X134152581Y-83653130D01*
X134130215Y-83765570D01*
X134078327Y-83640301D01*
X133899698Y-83461673D01*
X133666309Y-83365000D01*
X132575750Y-83365000D01*
X132417000Y-83523750D01*
X132417000Y-89533000D01*
X132437000Y-89533000D01*
X132437000Y-89787000D01*
X132417000Y-89787000D01*
X132417000Y-89807000D01*
X132163000Y-89807000D01*
X132163000Y-89787000D01*
X130563750Y-89787000D01*
X130405000Y-89945750D01*
X130405000Y-95446310D01*
X130440080Y-95531000D01*
X130199920Y-95531000D01*
X130235000Y-95446310D01*
X130235000Y-89945750D01*
X130076250Y-89787000D01*
X128477000Y-89787000D01*
X128477000Y-89807000D01*
X128223000Y-89807000D01*
X128223000Y-89787000D01*
X126623750Y-89787000D01*
X126465000Y-89945750D01*
X126465000Y-95446310D01*
X126500080Y-95531000D01*
X126229920Y-95531000D01*
X126265000Y-95446310D01*
X126265000Y-89945750D01*
X126106250Y-89787000D01*
X124507000Y-89787000D01*
X124507000Y-89807000D01*
X124253000Y-89807000D01*
X124253000Y-89787000D01*
X122653750Y-89787000D01*
X122495000Y-89945750D01*
X122495000Y-95446310D01*
X122530080Y-95531000D01*
X122229920Y-95531000D01*
X122265000Y-95446310D01*
X122265000Y-89945750D01*
X122106250Y-89787000D01*
X120507000Y-89787000D01*
X120507000Y-89807000D01*
X120253000Y-89807000D01*
X120253000Y-89787000D01*
X120233000Y-89787000D01*
X120233000Y-89533000D01*
X120253000Y-89533000D01*
X120253000Y-83523750D01*
X120507000Y-83523750D01*
X120507000Y-89533000D01*
X122106250Y-89533000D01*
X122265000Y-89374250D01*
X122265000Y-83873690D01*
X122495000Y-83873690D01*
X122495000Y-89374250D01*
X122653750Y-89533000D01*
X124253000Y-89533000D01*
X124253000Y-83523750D01*
X124507000Y-83523750D01*
X124507000Y-89533000D01*
X126106250Y-89533000D01*
X126265000Y-89374250D01*
X126265000Y-83873690D01*
X126465000Y-83873690D01*
X126465000Y-89374250D01*
X126623750Y-89533000D01*
X128223000Y-89533000D01*
X128223000Y-83523750D01*
X128477000Y-83523750D01*
X128477000Y-89533000D01*
X130076250Y-89533000D01*
X130235000Y-89374250D01*
X130235000Y-83873690D01*
X130405000Y-83873690D01*
X130405000Y-89374250D01*
X130563750Y-89533000D01*
X132163000Y-89533000D01*
X132163000Y-83523750D01*
X132004250Y-83365000D01*
X130913691Y-83365000D01*
X130680302Y-83461673D01*
X130501673Y-83640301D01*
X130405000Y-83873690D01*
X130235000Y-83873690D01*
X130138327Y-83640301D01*
X129959698Y-83461673D01*
X129726309Y-83365000D01*
X128635750Y-83365000D01*
X128477000Y-83523750D01*
X128223000Y-83523750D01*
X128064250Y-83365000D01*
X126973691Y-83365000D01*
X126740302Y-83461673D01*
X126561673Y-83640301D01*
X126465000Y-83873690D01*
X126265000Y-83873690D01*
X126168327Y-83640301D01*
X125989698Y-83461673D01*
X125756309Y-83365000D01*
X124665750Y-83365000D01*
X124507000Y-83523750D01*
X124253000Y-83523750D01*
X124094250Y-83365000D01*
X123003691Y-83365000D01*
X122770302Y-83461673D01*
X122591673Y-83640301D01*
X122495000Y-83873690D01*
X122265000Y-83873690D01*
X122168327Y-83640301D01*
X121989698Y-83461673D01*
X121756309Y-83365000D01*
X120665750Y-83365000D01*
X120507000Y-83523750D01*
X120253000Y-83523750D01*
X120094250Y-83365000D01*
X119003691Y-83365000D01*
X118770302Y-83461673D01*
X118591673Y-83640301D01*
X118590592Y-83642912D01*
X118400933Y-83359067D01*
X118106870Y-83162581D01*
X118034000Y-83148086D01*
X118034000Y-82880091D01*
X118063855Y-82729999D01*
X118034000Y-82579907D01*
X118034000Y-82579903D01*
X117945576Y-82135365D01*
X117814835Y-81939697D01*
X117693765Y-81758503D01*
X117693764Y-81758502D01*
X117608742Y-81631258D01*
X117481498Y-81546236D01*
X115963765Y-80028504D01*
X115878742Y-79901258D01*
X115374635Y-79564424D01*
X114930097Y-79476000D01*
X114930092Y-79476000D01*
X114780000Y-79446145D01*
X114629908Y-79476000D01*
X111471262Y-79476000D01*
X108261201Y-76265940D01*
X108176178Y-76138694D01*
X107672071Y-75801860D01*
X107227533Y-75713436D01*
X107227528Y-75713436D01*
X107077436Y-75683581D01*
X106927344Y-75713436D01*
X93471977Y-75713436D01*
X93751826Y-75433587D01*
X94212132Y-75525148D01*
X95085746Y-75351375D01*
X95826360Y-74856512D01*
X96321223Y-74115898D01*
X96494996Y-73242284D01*
X96403435Y-72781977D01*
X96721674Y-72463738D01*
X97181980Y-72555299D01*
X98055594Y-72381526D01*
X98796208Y-71886663D01*
X99291071Y-71146049D01*
X99464844Y-70272435D01*
X99345802Y-69673970D01*
X128665635Y-69673970D01*
X128825418Y-69992739D01*
X129616187Y-70302723D01*
X130465387Y-70286497D01*
X131174582Y-69992739D01*
X131334365Y-69673970D01*
X130000000Y-68339605D01*
X128665635Y-69673970D01*
X99345802Y-69673970D01*
X99294263Y-69414870D01*
X100151829Y-69585451D01*
X101025443Y-69411678D01*
X101766057Y-68916815D01*
X102260920Y-68176201D01*
X102340487Y-67776187D01*
X127857277Y-67776187D01*
X127873503Y-68625387D01*
X128167261Y-69334582D01*
X128486030Y-69494365D01*
X129820395Y-68160000D01*
X128486030Y-66825635D01*
X128167261Y-66985418D01*
X127857277Y-67776187D01*
X102340487Y-67776187D01*
X102434693Y-67302587D01*
X102260920Y-66428973D01*
X101890971Y-65875306D01*
X101888572Y-65872907D01*
X102479383Y-66215239D01*
X103248677Y-66317737D01*
X103998636Y-66118038D01*
X104183295Y-66009995D01*
X104320102Y-65710768D01*
X102909545Y-64300211D01*
X102895403Y-64314354D01*
X102715797Y-64134748D01*
X102729940Y-64120606D01*
X103089150Y-64120606D01*
X104499707Y-65531163D01*
X104798934Y-65394356D01*
X104906977Y-65209697D01*
X105106676Y-64459738D01*
X105004178Y-63690444D01*
X104615087Y-63018934D01*
X104402955Y-62806802D01*
X103089150Y-64120606D01*
X102729940Y-64120606D01*
X101319383Y-62710049D01*
X101020156Y-62846856D01*
X100912113Y-63031515D01*
X100712414Y-63781474D01*
X100814912Y-64550768D01*
X101157244Y-65141579D01*
X101154846Y-65139181D01*
X100601179Y-64769233D01*
X99727565Y-64595459D01*
X98853951Y-64769233D01*
X98113337Y-65264095D01*
X97618475Y-66004709D01*
X97444701Y-66878323D01*
X97615283Y-67735889D01*
X96757716Y-67565307D01*
X96651284Y-67586478D01*
X95554586Y-66489780D01*
X95575757Y-66383348D01*
X95405176Y-65525783D01*
X96262741Y-65696364D01*
X97136355Y-65522591D01*
X97876969Y-65027728D01*
X98371832Y-64287114D01*
X98545605Y-63413500D01*
X98375024Y-62555934D01*
X99232590Y-62726515D01*
X100106204Y-62552742D01*
X100139575Y-62530444D01*
X101498988Y-62530444D01*
X102909545Y-63941001D01*
X104206377Y-62644168D01*
X104565590Y-62644168D01*
X104777722Y-62856300D01*
X105449232Y-63245391D01*
X106218526Y-63347889D01*
X106968485Y-63148190D01*
X107153144Y-63040147D01*
X107289951Y-62740920D01*
X105879394Y-61330363D01*
X104565590Y-62644168D01*
X104206377Y-62644168D01*
X104223349Y-62627196D01*
X104011217Y-62415064D01*
X103339707Y-62025973D01*
X102570413Y-61923475D01*
X101820454Y-62123174D01*
X101635795Y-62231217D01*
X101498988Y-62530444D01*
X100139575Y-62530444D01*
X100846818Y-62057879D01*
X101341681Y-61317265D01*
X101442259Y-60811626D01*
X103682263Y-60811626D01*
X103784761Y-61580920D01*
X104173852Y-62252430D01*
X104385984Y-62464562D01*
X105699789Y-61150758D01*
X106058999Y-61150758D01*
X107469556Y-62561315D01*
X107768783Y-62424508D01*
X107876826Y-62239849D01*
X108076525Y-61489890D01*
X107974027Y-60720596D01*
X107584936Y-60049086D01*
X107372804Y-59836954D01*
X106058999Y-61150758D01*
X105699789Y-61150758D01*
X104289232Y-59740201D01*
X103990005Y-59877008D01*
X103881962Y-60061667D01*
X103682263Y-60811626D01*
X101442259Y-60811626D01*
X101515454Y-60443651D01*
X101344873Y-59586086D01*
X102202438Y-59756667D01*
X103076052Y-59582894D01*
X103109423Y-59560596D01*
X104468837Y-59560596D01*
X105879394Y-60971153D01*
X107193198Y-59657348D01*
X106981066Y-59445216D01*
X106309556Y-59056125D01*
X105540262Y-58953627D01*
X104790303Y-59153326D01*
X104605644Y-59261369D01*
X104468837Y-59560596D01*
X103109423Y-59560596D01*
X103816666Y-59088031D01*
X104311529Y-58347417D01*
X104485302Y-57473803D01*
X104396405Y-57026885D01*
X106488526Y-57026885D01*
X106488526Y-57977289D01*
X106852230Y-58855347D01*
X107524266Y-59527383D01*
X108402324Y-59891087D01*
X109352728Y-59891087D01*
X110230786Y-59527383D01*
X110902822Y-58855347D01*
X111266526Y-57977289D01*
X111266526Y-57026885D01*
X110902822Y-56148827D01*
X110230786Y-55476791D01*
X109352728Y-55113087D01*
X108402324Y-55113087D01*
X107524266Y-55476791D01*
X106852230Y-56148827D01*
X106488526Y-57026885D01*
X104396405Y-57026885D01*
X104393741Y-57013497D01*
X106963239Y-54444000D01*
X128145444Y-54444000D01*
X128646740Y-54945296D01*
G36*
X128145444Y-51396000D02*
X106482068Y-51396000D01*
X106331976Y-51366145D01*
X106181884Y-51396000D01*
X106181880Y-51396000D01*
X105737342Y-51484424D01*
X105737340Y-51484425D01*
X105737341Y-51484425D01*
X105360480Y-51736235D01*
X105360479Y-51736236D01*
X105233235Y-51821258D01*
X105148213Y-51948502D01*
X102238480Y-54858236D01*
X101778174Y-54766675D01*
X100904560Y-54940449D01*
X100163946Y-55435311D01*
X99669084Y-56175925D01*
X99495310Y-57049539D01*
X99665892Y-57907105D01*
X98808326Y-57736523D01*
X97934712Y-57910297D01*
X97194098Y-58405159D01*
X96699236Y-59145773D01*
X96525462Y-60019387D01*
X96696044Y-60876954D01*
X95838477Y-60706372D01*
X94964863Y-60880146D01*
X94224249Y-61375008D01*
X93729387Y-62115622D01*
X93555613Y-62989236D01*
X93726195Y-63846802D01*
X92868629Y-63676220D01*
X91995015Y-63849994D01*
X91254401Y-64344856D01*
X90759539Y-65085470D01*
X90585765Y-65959084D01*
X90759539Y-66832698D01*
X91129487Y-67386365D01*
X91131887Y-67388765D01*
X90541074Y-67046432D01*
X89771780Y-66943934D01*
X89021821Y-67143633D01*
X88837162Y-67251676D01*
X88700355Y-67550903D01*
X90110912Y-68961460D01*
X90125055Y-68947318D01*
X90304660Y-69126923D01*
X90290517Y-69141065D01*
X91701074Y-70551622D01*
X92000301Y-70414815D01*
X92108344Y-70230156D01*
X92308043Y-69480197D01*
X92205545Y-68710903D01*
X91863212Y-68120090D01*
X91865612Y-68122490D01*
X92419279Y-68492439D01*
X93292893Y-68666212D01*
X93399325Y-68645041D01*
X94496023Y-69741739D01*
X94474852Y-69848171D01*
X94566413Y-70308476D01*
X94248173Y-70626717D01*
X93787868Y-70535156D01*
X92914254Y-70708930D01*
X92173640Y-71203792D01*
X91678778Y-71944406D01*
X91505004Y-72818020D01*
X91596565Y-73278325D01*
X91278325Y-73596565D01*
X90818019Y-73505004D01*
X90711587Y-73526175D01*
X89614889Y-72429477D01*
X89636060Y-72323045D01*
X89462287Y-71449431D01*
X89092338Y-70895764D01*
X89089942Y-70893368D01*
X89680750Y-71235698D01*
X90450044Y-71338196D01*
X91200003Y-71138497D01*
X91384662Y-71030454D01*
X91521469Y-70731227D01*
X90110912Y-69320670D01*
X90096770Y-69334813D01*
X89917165Y-69155208D01*
X89931307Y-69141065D01*
X88520750Y-67730508D01*
X88221523Y-67867315D01*
X88113480Y-68051974D01*
X87913781Y-68801933D01*
X88016279Y-69571227D01*
X88358609Y-70162035D01*
X88356213Y-70159639D01*
X87802546Y-69789691D01*
X86928932Y-69615917D01*
X86055318Y-69789691D01*
X85314704Y-70284553D01*
X85112674Y-70586913D01*
X82982031Y-70586913D01*
X82831939Y-70557058D01*
X82681847Y-70586913D01*
X82681843Y-70586913D01*
X82237305Y-70675337D01*
X82237303Y-70675338D01*
X82237304Y-70675338D01*
X81860443Y-70927148D01*
X81860442Y-70927149D01*
X81733198Y-71012171D01*
X81648176Y-71139415D01*
X80229869Y-72557723D01*
X80102626Y-72642744D01*
X80017604Y-72769988D01*
X80017602Y-72769990D01*
X79765792Y-73146851D01*
X79647512Y-73741486D01*
X79677368Y-73891582D01*
X79677367Y-76022219D01*
X79375007Y-76224250D01*
X78880145Y-76964864D01*
X78706371Y-77838478D01*
X78876953Y-78696045D01*
X78019386Y-78525463D01*
X77145772Y-78699237D01*
X76405158Y-79194099D01*
X75910296Y-79934713D01*
X75736522Y-80808327D01*
X75852177Y-81389760D01*
X75690471Y-81228054D01*
X75396408Y-81031568D01*
X75049538Y-80962571D01*
X74702668Y-81031568D01*
X74408605Y-81228054D01*
X72499417Y-83137242D01*
X72302931Y-83431305D01*
X72233934Y-83778175D01*
X72302931Y-84125045D01*
X72499417Y-84419108D01*
X74832869Y-86752560D01*
X75126932Y-86949046D01*
X75473802Y-87018043D01*
X75820672Y-86949046D01*
X76114735Y-86752560D01*
X78023923Y-84843372D01*
X78220409Y-84549309D01*
X78289406Y-84202439D01*
X78220409Y-83855569D01*
X78023923Y-83561506D01*
X77862218Y-83399801D01*
X78443650Y-83515455D01*
X79317264Y-83341682D01*
X80057878Y-82846819D01*
X80552741Y-82106205D01*
X80726514Y-81232591D01*
X80555933Y-80375025D01*
X81413499Y-80545606D01*
X81519931Y-80524435D01*
X82616629Y-81621133D01*
X82595458Y-81727565D01*
X82766040Y-82585132D01*
X81908474Y-82414550D01*
X81034860Y-82588324D01*
X80294246Y-83083186D01*
X79799384Y-83823800D01*
X79625610Y-84697414D01*
X79796192Y-85554980D01*
X78938625Y-85384398D01*
X78065011Y-85558172D01*
X77324397Y-86053034D01*
X76829535Y-86793648D01*
X76655761Y-87667262D01*
X76829535Y-88540876D01*
X77199483Y-89094543D01*
X77935608Y-89830668D01*
X78489275Y-90200617D01*
X79362889Y-90374390D01*
X80236503Y-90200617D01*
X80977117Y-89705754D01*
X81471980Y-88965140D01*
X81645753Y-88091526D01*
X81475172Y-87233961D01*
X82332738Y-87404542D01*
X83206352Y-87230769D01*
X83946966Y-86735906D01*
X84148997Y-86433546D01*
X88082363Y-86433546D01*
X81115910Y-93400000D01*
X72654638Y-93400000D01*
X69664821Y-90402325D01*
X73113086Y-90402325D01*
X73113086Y-91352729D01*
X73476790Y-92230787D01*
X74148826Y-92902823D01*
X75026884Y-93266527D01*
X75977288Y-93266527D01*
X76855346Y-92902823D01*
X77527382Y-92230787D01*
X77891086Y-91352729D01*
X77891086Y-90402325D01*
X77527382Y-89524267D01*
X76855346Y-88852231D01*
X75977288Y-88488527D01*
X75026884Y-88488527D01*
X74148826Y-88852231D01*
X73476790Y-89524267D01*
X73113086Y-90402325D01*
X69664821Y-90402325D01*
X65753432Y-86480658D01*
X101284092Y-50950000D01*
X128591444Y-50950000D01*
X128145444Y-51396000D01*
X128145444Y-51396000D01*
G37*
X128145444Y-51396000D02*
X106482068Y-51396000D01*
X106331976Y-51366145D01*
X106181884Y-51396000D01*
X106181880Y-51396000D01*
X105737342Y-51484424D01*
X105737340Y-51484425D01*
X105737341Y-51484425D01*
X105360480Y-51736235D01*
X105360479Y-51736236D01*
X105233235Y-51821258D01*
X105148213Y-51948502D01*
X102238480Y-54858236D01*
X101778174Y-54766675D01*
X100904560Y-54940449D01*
X100163946Y-55435311D01*
X99669084Y-56175925D01*
X99495310Y-57049539D01*
X99665892Y-57907105D01*
X98808326Y-57736523D01*
X97934712Y-57910297D01*
X97194098Y-58405159D01*
X96699236Y-59145773D01*
X96525462Y-60019387D01*
X96696044Y-60876954D01*
X95838477Y-60706372D01*
X94964863Y-60880146D01*
X94224249Y-61375008D01*
X93729387Y-62115622D01*
X93555613Y-62989236D01*
X93726195Y-63846802D01*
X92868629Y-63676220D01*
X91995015Y-63849994D01*
X91254401Y-64344856D01*
X90759539Y-65085470D01*
X90585765Y-65959084D01*
X90759539Y-66832698D01*
X91129487Y-67386365D01*
X91131887Y-67388765D01*
X90541074Y-67046432D01*
X89771780Y-66943934D01*
X89021821Y-67143633D01*
X88837162Y-67251676D01*
X88700355Y-67550903D01*
X90110912Y-68961460D01*
X90125055Y-68947318D01*
X90304660Y-69126923D01*
X90290517Y-69141065D01*
X91701074Y-70551622D01*
X92000301Y-70414815D01*
X92108344Y-70230156D01*
X92308043Y-69480197D01*
X92205545Y-68710903D01*
X91863212Y-68120090D01*
X91865612Y-68122490D01*
X92419279Y-68492439D01*
X93292893Y-68666212D01*
X93399325Y-68645041D01*
X94496023Y-69741739D01*
X94474852Y-69848171D01*
X94566413Y-70308476D01*
X94248173Y-70626717D01*
X93787868Y-70535156D01*
X92914254Y-70708930D01*
X92173640Y-71203792D01*
X91678778Y-71944406D01*
X91505004Y-72818020D01*
X91596565Y-73278325D01*
X91278325Y-73596565D01*
X90818019Y-73505004D01*
X90711587Y-73526175D01*
X89614889Y-72429477D01*
X89636060Y-72323045D01*
X89462287Y-71449431D01*
X89092338Y-70895764D01*
X89089942Y-70893368D01*
X89680750Y-71235698D01*
X90450044Y-71338196D01*
X91200003Y-71138497D01*
X91384662Y-71030454D01*
X91521469Y-70731227D01*
X90110912Y-69320670D01*
X90096770Y-69334813D01*
X89917165Y-69155208D01*
X89931307Y-69141065D01*
X88520750Y-67730508D01*
X88221523Y-67867315D01*
X88113480Y-68051974D01*
X87913781Y-68801933D01*
X88016279Y-69571227D01*
X88358609Y-70162035D01*
X88356213Y-70159639D01*
X87802546Y-69789691D01*
X86928932Y-69615917D01*
X86055318Y-69789691D01*
X85314704Y-70284553D01*
X85112674Y-70586913D01*
X82982031Y-70586913D01*
X82831939Y-70557058D01*
X82681847Y-70586913D01*
X82681843Y-70586913D01*
X82237305Y-70675337D01*
X82237303Y-70675338D01*
X82237304Y-70675338D01*
X81860443Y-70927148D01*
X81860442Y-70927149D01*
X81733198Y-71012171D01*
X81648176Y-71139415D01*
X80229869Y-72557723D01*
X80102626Y-72642744D01*
X80017604Y-72769988D01*
X80017602Y-72769990D01*
X79765792Y-73146851D01*
X79647512Y-73741486D01*
X79677368Y-73891582D01*
X79677367Y-76022219D01*
X79375007Y-76224250D01*
X78880145Y-76964864D01*
X78706371Y-77838478D01*
X78876953Y-78696045D01*
X78019386Y-78525463D01*
X77145772Y-78699237D01*
X76405158Y-79194099D01*
X75910296Y-79934713D01*
X75736522Y-80808327D01*
X75852177Y-81389760D01*
X75690471Y-81228054D01*
X75396408Y-81031568D01*
X75049538Y-80962571D01*
X74702668Y-81031568D01*
X74408605Y-81228054D01*
X72499417Y-83137242D01*
X72302931Y-83431305D01*
X72233934Y-83778175D01*
X72302931Y-84125045D01*
X72499417Y-84419108D01*
X74832869Y-86752560D01*
X75126932Y-86949046D01*
X75473802Y-87018043D01*
X75820672Y-86949046D01*
X76114735Y-86752560D01*
X78023923Y-84843372D01*
X78220409Y-84549309D01*
X78289406Y-84202439D01*
X78220409Y-83855569D01*
X78023923Y-83561506D01*
X77862218Y-83399801D01*
X78443650Y-83515455D01*
X79317264Y-83341682D01*
X80057878Y-82846819D01*
X80552741Y-82106205D01*
X80726514Y-81232591D01*
X80555933Y-80375025D01*
X81413499Y-80545606D01*
X81519931Y-80524435D01*
X82616629Y-81621133D01*
X82595458Y-81727565D01*
X82766040Y-82585132D01*
X81908474Y-82414550D01*
X81034860Y-82588324D01*
X80294246Y-83083186D01*
X79799384Y-83823800D01*
X79625610Y-84697414D01*
X79796192Y-85554980D01*
X78938625Y-85384398D01*
X78065011Y-85558172D01*
X77324397Y-86053034D01*
X76829535Y-86793648D01*
X76655761Y-87667262D01*
X76829535Y-88540876D01*
X77199483Y-89094543D01*
X77935608Y-89830668D01*
X78489275Y-90200617D01*
X79362889Y-90374390D01*
X80236503Y-90200617D01*
X80977117Y-89705754D01*
X81471980Y-88965140D01*
X81645753Y-88091526D01*
X81475172Y-87233961D01*
X82332738Y-87404542D01*
X83206352Y-87230769D01*
X83946966Y-86735906D01*
X84148997Y-86433546D01*
X88082363Y-86433546D01*
X81115910Y-93400000D01*
X72654638Y-93400000D01*
X69664821Y-90402325D01*
X73113086Y-90402325D01*
X73113086Y-91352729D01*
X73476790Y-92230787D01*
X74148826Y-92902823D01*
X75026884Y-93266527D01*
X75977288Y-93266527D01*
X76855346Y-92902823D01*
X77527382Y-92230787D01*
X77891086Y-91352729D01*
X77891086Y-90402325D01*
X77527382Y-89524267D01*
X76855346Y-88852231D01*
X75977288Y-88488527D01*
X75026884Y-88488527D01*
X74148826Y-88852231D01*
X73476790Y-89524267D01*
X73113086Y-90402325D01*
X69664821Y-90402325D01*
X65753432Y-86480658D01*
X101284092Y-50950000D01*
X128591444Y-50950000D01*
X128145444Y-51396000D01*
G36*
X85925915Y-74062187D02*
X86479582Y-74432136D01*
X87353196Y-74605909D01*
X87459628Y-74584738D01*
X88556326Y-75681436D01*
X88535155Y-75787868D01*
X88705737Y-76645435D01*
X87848171Y-76474853D01*
X86974557Y-76648627D01*
X86233943Y-77143489D01*
X85739081Y-77884103D01*
X85565307Y-78757717D01*
X85735889Y-79615283D01*
X84878322Y-79444701D01*
X84771890Y-79465872D01*
X83675192Y-78369174D01*
X83696363Y-78262742D01*
X83522590Y-77389128D01*
X83152641Y-76835461D01*
X83150245Y-76833065D01*
X83741053Y-77175395D01*
X84510347Y-77277893D01*
X85260306Y-77078194D01*
X85444965Y-76970151D01*
X85581772Y-76670924D01*
X84171215Y-75260367D01*
X84157073Y-75274510D01*
X83977467Y-75094904D01*
X83991610Y-75080762D01*
X83977468Y-75066620D01*
X84157073Y-74887015D01*
X84171215Y-74901157D01*
X84185357Y-74887014D01*
X84364963Y-75066620D01*
X84350820Y-75080762D01*
X85761377Y-76491319D01*
X86060604Y-76354512D01*
X86168647Y-76169853D01*
X86368346Y-75419894D01*
X86265848Y-74650600D01*
X85923515Y-74059787D01*
X85925915Y-74062187D01*
X85925915Y-74062187D01*
G37*
X85925915Y-74062187D02*
X86479582Y-74432136D01*
X87353196Y-74605909D01*
X87459628Y-74584738D01*
X88556326Y-75681436D01*
X88535155Y-75787868D01*
X88705737Y-76645435D01*
X87848171Y-76474853D01*
X86974557Y-76648627D01*
X86233943Y-77143489D01*
X85739081Y-77884103D01*
X85565307Y-78757717D01*
X85735889Y-79615283D01*
X84878322Y-79444701D01*
X84771890Y-79465872D01*
X83675192Y-78369174D01*
X83696363Y-78262742D01*
X83522590Y-77389128D01*
X83152641Y-76835461D01*
X83150245Y-76833065D01*
X83741053Y-77175395D01*
X84510347Y-77277893D01*
X85260306Y-77078194D01*
X85444965Y-76970151D01*
X85581772Y-76670924D01*
X84171215Y-75260367D01*
X84157073Y-75274510D01*
X83977467Y-75094904D01*
X83991610Y-75080762D01*
X83977468Y-75066620D01*
X84157073Y-74887015D01*
X84171215Y-74901157D01*
X84185357Y-74887014D01*
X84364963Y-75066620D01*
X84350820Y-75080762D01*
X85761377Y-76491319D01*
X86060604Y-76354512D01*
X86168647Y-76169853D01*
X86368346Y-75419894D01*
X86265848Y-74650600D01*
X85923515Y-74059787D01*
X85925915Y-74062187D01*
G04 #@! TD*
M02*
