G04 #@! TF.GenerationSoftware,KiCad,Pcbnew,5.0.0-fee4fd1~65~ubuntu17.10.1*
G04 #@! TF.CreationDate,2018-09-05T22:10:36-07:00*
G04 #@! TF.ProjectId,ATX2PCjr,4154583250436A722E6B696361645F70,rev?*
G04 #@! TF.SameCoordinates,Original*
G04 #@! TF.FileFunction,Legend,Top*
G04 #@! TF.FilePolarity,Positive*
%FSLAX46Y46*%
G04 Gerber Fmt 4.6, Leading zero omitted, Abs format (unit mm)*
G04 Created by KiCad (PCBNEW 5.0.0-fee4fd1~65~ubuntu17.10.1) date Wed Sep  5 22:10:36 2018*
%MOMM*%
%LPD*%
G01*
G04 APERTURE LIST*
%ADD10C,0.300000*%
%ADD11C,0.200000*%
%ADD12C,0.120000*%
%ADD13C,0.150000*%
G04 APERTURE END LIST*
D10*
X140867857Y-52308571D02*
X140867857Y-53451428D01*
X140867857Y-55308571D02*
X140867857Y-56451428D01*
X140296428Y-55880000D02*
X141439285Y-55880000D01*
X140867857Y-58308571D02*
X140867857Y-59451428D01*
X138532142Y-54737142D02*
X138532142Y-54237142D01*
X137746428Y-54237142D02*
X139246428Y-54237142D01*
X139246428Y-54951428D01*
X137746428Y-56165714D02*
X138532142Y-56165714D01*
X138675000Y-56094285D01*
X138746428Y-55951428D01*
X138746428Y-55665714D01*
X138675000Y-55522857D01*
X137817857Y-56165714D02*
X137746428Y-56022857D01*
X137746428Y-55665714D01*
X137817857Y-55522857D01*
X137960714Y-55451428D01*
X138103571Y-55451428D01*
X138246428Y-55522857D01*
X138317857Y-55665714D01*
X138317857Y-56022857D01*
X138389285Y-56165714D01*
X138746428Y-56880000D02*
X137746428Y-56880000D01*
X138603571Y-56880000D02*
X138675000Y-56951428D01*
X138746428Y-57094285D01*
X138746428Y-57308571D01*
X138675000Y-57451428D01*
X138532142Y-57522857D01*
X137746428Y-57522857D01*
X143946857Y-77113142D02*
X143946857Y-78256000D01*
X143375428Y-77684571D02*
X144518285Y-77684571D01*
X143375428Y-79756000D02*
X143375428Y-78898857D01*
X143375428Y-79327428D02*
X144875428Y-79327428D01*
X144661142Y-79184571D01*
X144518285Y-79041714D01*
X144446857Y-78898857D01*
X144732571Y-80327428D02*
X144804000Y-80398857D01*
X144875428Y-80541714D01*
X144875428Y-80898857D01*
X144804000Y-81041714D01*
X144732571Y-81113142D01*
X144589714Y-81184571D01*
X144446857Y-81184571D01*
X144232571Y-81113142D01*
X143375428Y-80256000D01*
X143375428Y-81184571D01*
X144875428Y-81613142D02*
X143375428Y-82113142D01*
X144875428Y-82613142D01*
X108096857Y-77113142D02*
X108096857Y-78256000D01*
X107525428Y-79756000D02*
X107525428Y-78898857D01*
X107525428Y-79327428D02*
X109025428Y-79327428D01*
X108811142Y-79184571D01*
X108668285Y-79041714D01*
X108596857Y-78898857D01*
X108882571Y-80327428D02*
X108954000Y-80398857D01*
X109025428Y-80541714D01*
X109025428Y-80898857D01*
X108954000Y-81041714D01*
X108882571Y-81113142D01*
X108739714Y-81184571D01*
X108596857Y-81184571D01*
X108382571Y-81113142D01*
X107525428Y-80256000D01*
X107525428Y-81184571D01*
X109025428Y-81613142D02*
X107525428Y-82113142D01*
X109025428Y-82613142D01*
X138708000Y-79835142D02*
X138779428Y-79692285D01*
X138779428Y-79478000D01*
X138708000Y-79263714D01*
X138565142Y-79120857D01*
X138422285Y-79049428D01*
X138136571Y-78978000D01*
X137922285Y-78978000D01*
X137636571Y-79049428D01*
X137493714Y-79120857D01*
X137350857Y-79263714D01*
X137279428Y-79478000D01*
X137279428Y-79620857D01*
X137350857Y-79835142D01*
X137422285Y-79906571D01*
X137922285Y-79906571D01*
X137922285Y-79620857D01*
X137279428Y-80549428D02*
X138779428Y-80549428D01*
X137279428Y-81406571D01*
X138779428Y-81406571D01*
X137279428Y-82120857D02*
X138779428Y-82120857D01*
X138779428Y-82478000D01*
X138708000Y-82692285D01*
X138565142Y-82835142D01*
X138422285Y-82906571D01*
X138136571Y-82978000D01*
X137922285Y-82978000D01*
X137636571Y-82906571D01*
X137493714Y-82835142D01*
X137350857Y-82692285D01*
X137279428Y-82478000D01*
X137279428Y-82120857D01*
X115050000Y-79629142D02*
X115121428Y-79486285D01*
X115121428Y-79272000D01*
X115050000Y-79057714D01*
X114907142Y-78914857D01*
X114764285Y-78843428D01*
X114478571Y-78772000D01*
X114264285Y-78772000D01*
X113978571Y-78843428D01*
X113835714Y-78914857D01*
X113692857Y-79057714D01*
X113621428Y-79272000D01*
X113621428Y-79414857D01*
X113692857Y-79629142D01*
X113764285Y-79700571D01*
X114264285Y-79700571D01*
X114264285Y-79414857D01*
X113621428Y-80343428D02*
X115121428Y-80343428D01*
X113621428Y-81200571D01*
X115121428Y-81200571D01*
X113621428Y-81914857D02*
X115121428Y-81914857D01*
X115121428Y-82272000D01*
X115050000Y-82486285D01*
X114907142Y-82629142D01*
X114764285Y-82700571D01*
X114478571Y-82772000D01*
X114264285Y-82772000D01*
X113978571Y-82700571D01*
X113835714Y-82629142D01*
X113692857Y-82486285D01*
X113621428Y-82272000D01*
X113621428Y-81914857D01*
D11*
X110744000Y-83312000D02*
X110744000Y-78740000D01*
X118364000Y-83312000D02*
X118364000Y-78740000D01*
X142240000Y-83312000D02*
X142240000Y-78740000D01*
X134112000Y-83312000D02*
X134112000Y-78740000D01*
D10*
X127182857Y-78541428D02*
X127182857Y-79684285D01*
X126611428Y-79112857D02*
X127754285Y-79112857D01*
X128111428Y-81112857D02*
X128111428Y-80398571D01*
X127397142Y-80327142D01*
X127468571Y-80398571D01*
X127540000Y-80541428D01*
X127540000Y-80898571D01*
X127468571Y-81041428D01*
X127397142Y-81112857D01*
X127254285Y-81184285D01*
X126897142Y-81184285D01*
X126754285Y-81112857D01*
X126682857Y-81041428D01*
X126611428Y-80898571D01*
X126611428Y-80541428D01*
X126682857Y-80398571D01*
X126754285Y-80327142D01*
X128111428Y-81612857D02*
X126611428Y-82112857D01*
X128111428Y-82612857D01*
X123987714Y-53059142D02*
X123273428Y-53059142D01*
X124773428Y-52559142D02*
X123987714Y-53059142D01*
X124773428Y-53559142D01*
X123273428Y-57487714D02*
X124773428Y-57487714D01*
X123273428Y-58344857D02*
X124130571Y-57702000D01*
X124773428Y-58344857D02*
X123916285Y-57487714D01*
X123273428Y-62416285D02*
X124773428Y-62416285D01*
X123273428Y-63273428D02*
X124130571Y-62630571D01*
X124773428Y-63273428D02*
X123916285Y-62416285D01*
X123273428Y-68202000D02*
X123987714Y-67702000D01*
X123273428Y-67344857D02*
X124773428Y-67344857D01*
X124773428Y-67916285D01*
X124702000Y-68059142D01*
X124630571Y-68130571D01*
X124487714Y-68202000D01*
X124273428Y-68202000D01*
X124130571Y-68130571D01*
X124059142Y-68059142D01*
X123987714Y-67916285D01*
X123987714Y-67344857D01*
X140867857Y-65810000D02*
X140867857Y-66952857D01*
X140867857Y-68810000D02*
X140867857Y-69952857D01*
X140296428Y-69381428D02*
X141439285Y-69381428D01*
X137746428Y-64345714D02*
X139246428Y-64345714D01*
X139246428Y-64917142D01*
X139175000Y-65060000D01*
X139103571Y-65131428D01*
X138960714Y-65202857D01*
X138746428Y-65202857D01*
X138603571Y-65131428D01*
X138532142Y-65060000D01*
X138460714Y-64917142D01*
X138460714Y-64345714D01*
X137746428Y-66060000D02*
X137817857Y-65917142D01*
X137889285Y-65845714D01*
X138032142Y-65774285D01*
X138460714Y-65774285D01*
X138603571Y-65845714D01*
X138675000Y-65917142D01*
X138746428Y-66060000D01*
X138746428Y-66274285D01*
X138675000Y-66417142D01*
X138603571Y-66488571D01*
X138460714Y-66560000D01*
X138032142Y-66560000D01*
X137889285Y-66488571D01*
X137817857Y-66417142D01*
X137746428Y-66274285D01*
X137746428Y-66060000D01*
X138746428Y-67060000D02*
X137746428Y-67345714D01*
X138460714Y-67631428D01*
X137746428Y-67917142D01*
X138746428Y-68202857D01*
X137817857Y-69345714D02*
X137746428Y-69202857D01*
X137746428Y-68917142D01*
X137817857Y-68774285D01*
X137960714Y-68702857D01*
X138532142Y-68702857D01*
X138675000Y-68774285D01*
X138746428Y-68917142D01*
X138746428Y-69202857D01*
X138675000Y-69345714D01*
X138532142Y-69417142D01*
X138389285Y-69417142D01*
X138246428Y-68702857D01*
X137746428Y-70060000D02*
X138746428Y-70060000D01*
X138460714Y-70060000D02*
X138603571Y-70131428D01*
X138675000Y-70202857D01*
X138746428Y-70345714D01*
X138746428Y-70488571D01*
D12*
G04 #@! TO.C,J1*
X74257578Y-89633019D02*
G75*
G03X76746594Y-92122035I1244508J-1244508D01*
G01*
X110122034Y-58746595D02*
G75*
G03X107633018Y-56257579I-1244508J1244508D01*
G01*
X74257578Y-89633019D02*
X75594010Y-88296587D01*
X76746594Y-92122035D02*
X78083026Y-90785603D01*
X107633018Y-56257579D02*
X106296587Y-57594011D01*
X110122034Y-58746595D02*
X108785602Y-60083027D01*
X86957216Y-68957217D02*
X71605928Y-84308505D01*
X71605928Y-84308505D02*
X78549717Y-91252294D01*
X78549717Y-91252294D02*
X92621141Y-77180869D01*
X92621141Y-77180869D02*
X93611091Y-78170818D01*
X93611091Y-78170818D02*
X94890954Y-76890955D01*
X86957216Y-68957217D02*
X102308504Y-53605929D01*
X102308504Y-53605929D02*
X109252293Y-60549717D01*
X109252293Y-60549717D02*
X95180868Y-74621142D01*
X95180868Y-74621142D02*
X96170818Y-75611092D01*
X96170818Y-75611092D02*
X94890954Y-76890955D01*
X73281771Y-82293251D02*
X71266517Y-84308505D01*
X71266517Y-84308505D02*
X73281771Y-86323759D01*
D13*
G04 #@! TO.C,J5*
X132540000Y-71590000D02*
X128730000Y-71590000D01*
X132540000Y-50000000D02*
X132540000Y-71590000D01*
X128730000Y-50000000D02*
X132540000Y-50000000D01*
X126190000Y-69050000D02*
X126190000Y-52540000D01*
X126190000Y-52540000D02*
G75*
G02X128730000Y-50000000I2540000J0D01*
G01*
X128730000Y-71590000D02*
G75*
G02X126190000Y-69050000I0J2540000D01*
G01*
D12*
G04 #@! TO.C,J3*
X145140000Y-70280000D02*
X143810000Y-70280000D01*
X145140000Y-68950000D02*
X145140000Y-70280000D01*
X145140000Y-67680000D02*
X142480000Y-67680000D01*
X142480000Y-67680000D02*
X142480000Y-65080000D01*
X145140000Y-67680000D02*
X145140000Y-65080000D01*
X145140000Y-65080000D02*
X142480000Y-65080000D01*
G04 #@! TO.C,J4*
X145140000Y-59600000D02*
X143810000Y-59600000D01*
X145140000Y-58270000D02*
X145140000Y-59600000D01*
X145140000Y-57000000D02*
X142480000Y-57000000D01*
X142480000Y-57000000D02*
X142480000Y-51860000D01*
X145140000Y-57000000D02*
X145140000Y-51860000D01*
X145140000Y-51860000D02*
X142480000Y-51860000D01*
G04 #@! TO.C,J1*
D13*
X85563542Y-68034947D02*
X86068618Y-68540023D01*
X86135962Y-68674710D01*
X86135962Y-68809397D01*
X86068618Y-68944084D01*
X86001275Y-69011427D01*
X86977756Y-68034947D02*
X86573695Y-68439008D01*
X86775725Y-68236977D02*
X86068618Y-67529870D01*
X86102290Y-67698229D01*
X86102290Y-67832916D01*
X86068618Y-67933931D01*
G04 #@! TO.C,J5*
X132452380Y-61493333D02*
X133166666Y-61493333D01*
X133309523Y-61540952D01*
X133404761Y-61636190D01*
X133452380Y-61779047D01*
X133452380Y-61874285D01*
X132452380Y-60540952D02*
X132452380Y-61017142D01*
X132928571Y-61064761D01*
X132880952Y-61017142D01*
X132833333Y-60921904D01*
X132833333Y-60683809D01*
X132880952Y-60588571D01*
X132928571Y-60540952D01*
X133023809Y-60493333D01*
X133261904Y-60493333D01*
X133357142Y-60540952D01*
X133404761Y-60588571D01*
X133452380Y-60683809D01*
X133452380Y-60921904D01*
X133404761Y-61017142D01*
X133357142Y-61064761D01*
G04 #@! TO.C,J2*
X103806666Y-85304380D02*
X103806666Y-86018666D01*
X103759047Y-86161523D01*
X103663809Y-86256761D01*
X103520952Y-86304380D01*
X103425714Y-86304380D01*
X104235238Y-85399619D02*
X104282857Y-85352000D01*
X104378095Y-85304380D01*
X104616190Y-85304380D01*
X104711428Y-85352000D01*
X104759047Y-85399619D01*
X104806666Y-85494857D01*
X104806666Y-85590095D01*
X104759047Y-85732952D01*
X104187619Y-86304380D01*
X104806666Y-86304380D01*
G04 #@! TO.C,J3*
X143476666Y-70732380D02*
X143476666Y-71446666D01*
X143429047Y-71589523D01*
X143333809Y-71684761D01*
X143190952Y-71732380D01*
X143095714Y-71732380D01*
X143857619Y-70732380D02*
X144476666Y-70732380D01*
X144143333Y-71113333D01*
X144286190Y-71113333D01*
X144381428Y-71160952D01*
X144429047Y-71208571D01*
X144476666Y-71303809D01*
X144476666Y-71541904D01*
X144429047Y-71637142D01*
X144381428Y-71684761D01*
X144286190Y-71732380D01*
X144000476Y-71732380D01*
X143905238Y-71684761D01*
X143857619Y-71637142D01*
G04 #@! TO.C,J4*
X143476666Y-60052380D02*
X143476666Y-60766666D01*
X143429047Y-60909523D01*
X143333809Y-61004761D01*
X143190952Y-61052380D01*
X143095714Y-61052380D01*
X144381428Y-60385714D02*
X144381428Y-61052380D01*
X144143333Y-60004761D02*
X143905238Y-60719047D01*
X144524285Y-60719047D01*
G04 #@! TD*
M02*
