G04 #@! TF.GenerationSoftware,KiCad,Pcbnew,5.0.0-fee4fd1~65~ubuntu17.10.1*
G04 #@! TF.CreationDate,2018-09-05T22:10:36-07:00*
G04 #@! TF.ProjectId,ATX2PCjr,4154583250436A722E6B696361645F70,rev?*
G04 #@! TF.SameCoordinates,Original*
G04 #@! TF.FileFunction,Copper,L2,Bot,Signal*
G04 #@! TF.FilePolarity,Positive*
%FSLAX46Y46*%
G04 Gerber Fmt 4.6, Leading zero omitted, Abs format (unit mm)*
G04 Created by KiCad (PCBNEW 5.0.0-fee4fd1~65~ubuntu17.10.1) date Wed Sep  5 22:10:36 2018*
%MOMM*%
%LPD*%
G01*
G04 APERTURE LIST*
G04 #@! TA.AperFunction,NonConductor*
%ADD10C,0.300000*%
G04 #@! TD*
G04 #@! TA.AperFunction,ComponentPad*
%ADD11C,2.700000*%
G04 #@! TD*
G04 #@! TA.AperFunction,Conductor*
%ADD12C,0.100000*%
G04 #@! TD*
G04 #@! TA.AperFunction,Conductor*
%ADD13C,2.700000*%
G04 #@! TD*
G04 #@! TA.AperFunction,ComponentPad*
%ADD14C,3.000000*%
G04 #@! TD*
G04 #@! TA.AperFunction,ComponentPad*
%ADD15O,1.700000X1.700000*%
G04 #@! TD*
G04 #@! TA.AperFunction,ComponentPad*
%ADD16R,1.700000X1.700000*%
G04 #@! TD*
G04 #@! TA.AperFunction,ViaPad*
%ADD17C,1.016000*%
G04 #@! TD*
G04 #@! TA.AperFunction,Conductor*
%ADD18C,1.270000*%
G04 #@! TD*
G04 #@! TA.AperFunction,Conductor*
%ADD19C,0.250000*%
G04 #@! TD*
G04 #@! TA.AperFunction,Conductor*
%ADD20C,0.254000*%
G04 #@! TD*
G04 APERTURE END LIST*
D10*
X127871904Y-92531428D02*
X127514761Y-92650476D01*
X127395714Y-92769523D01*
X127276666Y-93007619D01*
X127276666Y-93364761D01*
X127395714Y-93602857D01*
X127514761Y-93721904D01*
X127752857Y-93840952D01*
X128705238Y-93840952D01*
X128705238Y-91340952D01*
X127871904Y-91340952D01*
X127633809Y-91460000D01*
X127514761Y-91579047D01*
X127395714Y-91817142D01*
X127395714Y-92055238D01*
X127514761Y-92293333D01*
X127633809Y-92412380D01*
X127871904Y-92531428D01*
X128705238Y-92531428D01*
X126443333Y-92174285D02*
X125848095Y-93840952D01*
X125252857Y-92174285D02*
X125848095Y-93840952D01*
X126086190Y-94436190D01*
X126205238Y-94555238D01*
X126443333Y-94674285D01*
X122514761Y-93126666D02*
X121324285Y-93126666D01*
X122752857Y-93840952D02*
X121919523Y-91340952D01*
X121086190Y-93840952D01*
X120252857Y-93840952D02*
X120252857Y-91340952D01*
X120014761Y-92888571D02*
X119300476Y-93840952D01*
X119300476Y-92174285D02*
X120252857Y-93126666D01*
X117395714Y-92531428D02*
X117038571Y-92650476D01*
X116919523Y-92769523D01*
X116800476Y-93007619D01*
X116800476Y-93364761D01*
X116919523Y-93602857D01*
X117038571Y-93721904D01*
X117276666Y-93840952D01*
X118229047Y-93840952D01*
X118229047Y-91340952D01*
X117395714Y-91340952D01*
X117157619Y-91460000D01*
X117038571Y-91579047D01*
X116919523Y-91817142D01*
X116919523Y-92055238D01*
X117038571Y-92293333D01*
X117157619Y-92412380D01*
X117395714Y-92531428D01*
X118229047Y-92531428D01*
X115729047Y-93840952D02*
X115729047Y-91340952D01*
X114300476Y-93840952D02*
X115371904Y-92412380D01*
X114300476Y-91340952D02*
X115729047Y-92769523D01*
X112157619Y-92174285D02*
X112157619Y-93840952D01*
X113229047Y-92174285D02*
X113229047Y-93483809D01*
X113110000Y-93721904D01*
X112871904Y-93840952D01*
X112514761Y-93840952D01*
X112276666Y-93721904D01*
X112157619Y-93602857D01*
X110967142Y-93840952D02*
X110967142Y-91340952D01*
X110729047Y-92888571D02*
X110014761Y-93840952D01*
X110014761Y-92174285D02*
X110967142Y-93126666D01*
X108943333Y-91340952D02*
X108943333Y-93364761D01*
X108824285Y-93602857D01*
X108705238Y-93721904D01*
X108467142Y-93840952D01*
X107990952Y-93840952D01*
X107752857Y-93721904D01*
X107633809Y-93602857D01*
X107514761Y-93364761D01*
X107514761Y-91340952D01*
X145333333Y-86776666D02*
X144142857Y-86776666D01*
X145571428Y-87490952D02*
X144738095Y-84990952D01*
X143904761Y-87490952D01*
X143428571Y-84990952D02*
X142000000Y-84990952D01*
X142714285Y-87490952D02*
X142714285Y-84990952D01*
X141404761Y-84990952D02*
X139738095Y-87490952D01*
X139738095Y-84990952D02*
X141404761Y-87490952D01*
X137238095Y-85824285D02*
X136285714Y-85824285D01*
X136880952Y-84990952D02*
X136880952Y-87133809D01*
X136761904Y-87371904D01*
X136523809Y-87490952D01*
X136285714Y-87490952D01*
X135095238Y-87490952D02*
X135333333Y-87371904D01*
X135452380Y-87252857D01*
X135571428Y-87014761D01*
X135571428Y-86300476D01*
X135452380Y-86062380D01*
X135333333Y-85943333D01*
X135095238Y-85824285D01*
X134738095Y-85824285D01*
X134500000Y-85943333D01*
X134380952Y-86062380D01*
X134261904Y-86300476D01*
X134261904Y-87014761D01*
X134380952Y-87252857D01*
X134500000Y-87371904D01*
X134738095Y-87490952D01*
X135095238Y-87490952D01*
X131285714Y-87490952D02*
X131285714Y-84990952D01*
X130333333Y-84990952D01*
X130095238Y-85110000D01*
X129976190Y-85229047D01*
X129857142Y-85467142D01*
X129857142Y-85824285D01*
X129976190Y-86062380D01*
X130095238Y-86181428D01*
X130333333Y-86300476D01*
X131285714Y-86300476D01*
X127357142Y-87252857D02*
X127476190Y-87371904D01*
X127833333Y-87490952D01*
X128071428Y-87490952D01*
X128428571Y-87371904D01*
X128666666Y-87133809D01*
X128785714Y-86895714D01*
X128904761Y-86419523D01*
X128904761Y-86062380D01*
X128785714Y-85586190D01*
X128666666Y-85348095D01*
X128428571Y-85110000D01*
X128071428Y-84990952D01*
X127833333Y-84990952D01*
X127476190Y-85110000D01*
X127357142Y-85229047D01*
X126285714Y-85824285D02*
X126285714Y-87967142D01*
X126404761Y-88205238D01*
X126642857Y-88324285D01*
X126761904Y-88324285D01*
X126285714Y-84990952D02*
X126404761Y-85110000D01*
X126285714Y-85229047D01*
X126166666Y-85110000D01*
X126285714Y-84990952D01*
X126285714Y-85229047D01*
X125095238Y-87490952D02*
X125095238Y-85824285D01*
X125095238Y-86300476D02*
X124976190Y-86062380D01*
X124857142Y-85943333D01*
X124619047Y-85824285D01*
X124380952Y-85824285D01*
X118071428Y-85824285D02*
X117476190Y-87490952D01*
X116880952Y-85824285D01*
X114619047Y-87490952D02*
X116047619Y-87490952D01*
X115333333Y-87490952D02*
X115333333Y-84990952D01*
X115571428Y-85348095D01*
X115809523Y-85586190D01*
X116047619Y-85705238D01*
X113547619Y-87252857D02*
X113428571Y-87371904D01*
X113547619Y-87490952D01*
X113666666Y-87371904D01*
X113547619Y-87252857D01*
X113547619Y-87490952D01*
X111047619Y-87490952D02*
X112476190Y-87490952D01*
X111761904Y-87490952D02*
X111761904Y-84990952D01*
X112000000Y-85348095D01*
X112238095Y-85586190D01*
X112476190Y-85705238D01*
X108666666Y-87490952D02*
X110095238Y-87490952D01*
X109380952Y-87490952D02*
X109380952Y-84990952D01*
X109619047Y-85348095D01*
X109857142Y-85586190D01*
X110095238Y-85705238D01*
D11*
G04 #@! TO.P,J1,1*
G04 #@! TO.N,Net-(J1-Pad1)*
X75261670Y-83990307D03*
D12*
G04 #@! TD*
G04 #@! TO.N,Net-(J1-Pad1)*
G04 #@! TO.C,J1*
G36*
X75473802Y-86111627D02*
X73140350Y-83778175D01*
X75049538Y-81868987D01*
X77382990Y-84202439D01*
X75473802Y-86111627D01*
X75473802Y-86111627D01*
G37*
D11*
G04 #@! TO.P,J1,2*
G04 #@! TO.N,Net-(J1-Pad2)*
X78231518Y-81020459D03*
D13*
G04 #@! TD*
G04 #@! TO.N,Net-(J1-Pad2)*
G04 #@! TO.C,J1*
X78019386Y-80808327D02*
X78443650Y-81232591D01*
D11*
G04 #@! TO.P,J1,3*
G04 #@! TO.N,/GND*
X81201367Y-78050610D03*
D13*
G04 #@! TD*
G04 #@! TO.N,/GND*
G04 #@! TO.C,J1*
X80989235Y-77838478D02*
X81413499Y-78262742D01*
D11*
G04 #@! TO.P,J1,4*
G04 #@! TO.N,/+5V*
X84171215Y-75080762D03*
D13*
G04 #@! TD*
G04 #@! TO.N,/+5V*
G04 #@! TO.C,J1*
X83959083Y-74868630D02*
X84383347Y-75292894D01*
D11*
G04 #@! TO.P,J1,5*
G04 #@! TO.N,/GND*
X87141064Y-72110913D03*
D13*
G04 #@! TD*
G04 #@! TO.N,/GND*
G04 #@! TO.C,J1*
X86928932Y-71898781D02*
X87353196Y-72323045D01*
D11*
G04 #@! TO.P,J1,6*
G04 #@! TO.N,/+5V*
X90110912Y-69141065D03*
D13*
G04 #@! TD*
G04 #@! TO.N,/+5V*
G04 #@! TO.C,J1*
X89898780Y-68928933D02*
X90323044Y-69353197D01*
D11*
G04 #@! TO.P,J1,7*
G04 #@! TO.N,/GND*
X93080761Y-66171216D03*
D13*
G04 #@! TD*
G04 #@! TO.N,/GND*
G04 #@! TO.C,J1*
X92868629Y-65959084D02*
X93292893Y-66383348D01*
D11*
G04 #@! TO.P,J1,8*
G04 #@! TO.N,Net-(J1-Pad8)*
X96050609Y-63201368D03*
D13*
G04 #@! TD*
G04 #@! TO.N,Net-(J1-Pad8)*
G04 #@! TO.C,J1*
X95838477Y-62989236D02*
X96262741Y-63413500D01*
D11*
G04 #@! TO.P,J1,9*
G04 #@! TO.N,Net-(J1-Pad9)*
X99020458Y-60231519D03*
D13*
G04 #@! TD*
G04 #@! TO.N,Net-(J1-Pad9)*
G04 #@! TO.C,J1*
X98808326Y-60019387D02*
X99232590Y-60443651D01*
D11*
G04 #@! TO.P,J1,10*
G04 #@! TO.N,/+12V*
X101990306Y-57261671D03*
D13*
G04 #@! TD*
G04 #@! TO.N,/+12V*
G04 #@! TO.C,J1*
X101778174Y-57049539D02*
X102202438Y-57473803D01*
D11*
G04 #@! TO.P,J1,11*
G04 #@! TO.N,Net-(J1-Pad11)*
X79150757Y-87879394D03*
D13*
G04 #@! TD*
G04 #@! TO.N,Net-(J1-Pad11)*
G04 #@! TO.C,J1*
X78938625Y-87667262D02*
X79362889Y-88091526D01*
D11*
G04 #@! TO.P,J1,12*
G04 #@! TO.N,/-12V*
X82120606Y-84909546D03*
D13*
G04 #@! TD*
G04 #@! TO.N,/-12V*
G04 #@! TO.C,J1*
X81908474Y-84697414D02*
X82332738Y-85121678D01*
D11*
G04 #@! TO.P,J1,13*
G04 #@! TO.N,/GND*
X85090454Y-81939697D03*
D13*
G04 #@! TD*
G04 #@! TO.N,/GND*
G04 #@! TO.C,J1*
X84878322Y-81727565D02*
X85302586Y-82151829D01*
D11*
G04 #@! TO.P,J1,14*
G04 #@! TO.N,/PS-ON*
X88060303Y-78969849D03*
D13*
G04 #@! TD*
G04 #@! TO.N,/PS-ON*
G04 #@! TO.C,J1*
X87848171Y-78757717D02*
X88272435Y-79181981D01*
D11*
G04 #@! TO.P,J1,15*
G04 #@! TO.N,/GND*
X91030151Y-76000000D03*
D13*
G04 #@! TD*
G04 #@! TO.N,/GND*
G04 #@! TO.C,J1*
X90818019Y-75787868D02*
X91242283Y-76212132D01*
D11*
G04 #@! TO.P,J1,16*
G04 #@! TO.N,/GND*
X94000000Y-73030152D03*
D13*
G04 #@! TD*
G04 #@! TO.N,/GND*
G04 #@! TO.C,J1*
X93787868Y-72818020D02*
X94212132Y-73242284D01*
D11*
G04 #@! TO.P,J1,17*
G04 #@! TO.N,/GND*
X96969848Y-70060303D03*
D13*
G04 #@! TD*
G04 #@! TO.N,/GND*
G04 #@! TO.C,J1*
X96757716Y-69848171D02*
X97181980Y-70272435D01*
D11*
G04 #@! TO.P,J1,18*
G04 #@! TO.N,Net-(J1-Pad18)*
X99939697Y-67090455D03*
D13*
G04 #@! TD*
G04 #@! TO.N,Net-(J1-Pad18)*
G04 #@! TO.C,J1*
X99727565Y-66878323D02*
X100151829Y-67302587D01*
D11*
G04 #@! TO.P,J1,19*
G04 #@! TO.N,/+5V*
X102909545Y-64120606D03*
D13*
G04 #@! TD*
G04 #@! TO.N,/+5V*
G04 #@! TO.C,J1*
X102697413Y-63908474D02*
X103121677Y-64332738D01*
D11*
G04 #@! TO.P,J1,20*
G04 #@! TO.N,/+5V*
X105879394Y-61150758D03*
D13*
G04 #@! TD*
G04 #@! TO.N,/+5V*
G04 #@! TO.C,J1*
X105667262Y-60938626D02*
X106091526Y-61362890D01*
D14*
G04 #@! TO.P,J5,4*
G04 #@! TO.N,/+12V*
X130000000Y-52920000D03*
G04 #@! TO.P,J5,3*
G04 #@! TO.N,/GND*
X130000000Y-58000000D03*
G04 #@! TO.P,J5,2*
X130000000Y-63080000D03*
G04 #@! TO.P,J5,1*
G04 #@! TO.N,/+5V*
X130000000Y-68160000D03*
G04 #@! TD*
D15*
G04 #@! TO.P,J3,2*
G04 #@! TO.N,/GND*
X143810000Y-66410000D03*
D16*
G04 #@! TO.P,J3,1*
G04 #@! TO.N,/PS-ON*
X143810000Y-68950000D03*
G04 #@! TD*
D15*
G04 #@! TO.P,J4,3*
G04 #@! TO.N,/GND*
X143810000Y-53190000D03*
G04 #@! TO.P,J4,2*
G04 #@! TO.N,/+12V*
X143810000Y-55730000D03*
D16*
G04 #@! TO.P,J4,1*
G04 #@! TO.N,/GND*
X143810000Y-58270000D03*
G04 #@! TD*
D17*
G04 #@! TO.N,/GND*
X136000000Y-78000000D03*
X107077436Y-77237436D03*
G04 #@! TD*
D18*
G04 #@! TO.N,/GND*
X136000000Y-78000000D02*
X135000000Y-77000000D01*
X135000000Y-77000000D02*
X107314872Y-77000000D01*
X107314872Y-77000000D02*
X107077436Y-77237436D01*
X140480000Y-63080000D02*
X130000000Y-63080000D01*
X143810000Y-66410000D02*
X140480000Y-63080000D01*
X134912999Y-54384920D02*
X134912999Y-58292999D01*
X135957919Y-53340000D02*
X134912999Y-54384920D01*
X135040000Y-58420000D02*
X137160000Y-58420000D01*
X134912999Y-58292999D02*
X135040000Y-58420000D01*
X137160000Y-53340000D02*
X135957919Y-53340000D01*
G04 #@! TO.N,/+5V*
X85801788Y-69141065D02*
X88470575Y-69141065D01*
X84171215Y-70771638D02*
X85801788Y-69141065D01*
X88470575Y-69141065D02*
X90110912Y-69141065D01*
X84171215Y-75080762D02*
X84171215Y-70771638D01*
X105879394Y-56349394D02*
X105879394Y-59510421D01*
X105879394Y-59510421D02*
X105879394Y-61150758D01*
X100635187Y-54307666D02*
X103837666Y-54307666D01*
X103837666Y-54307666D02*
X105879394Y-56349394D01*
X90110912Y-64831941D02*
X100635187Y-54307666D01*
X90110912Y-69141065D02*
X90110912Y-64831941D01*
D19*
G04 #@! TO.N,/PS-ON*
X143810000Y-70050000D02*
X143810000Y-68950000D01*
X143810000Y-72342446D02*
X143810000Y-70050000D01*
X89297739Y-80207285D02*
X135945161Y-80207285D01*
X135945161Y-80207285D02*
X143810000Y-72342446D01*
X88060303Y-78969849D02*
X89297739Y-80207285D01*
G04 #@! TD*
D20*
G04 #@! TO.N,/GND*
G36*
X127974704Y-51566740D02*
X127611000Y-52444798D01*
X127611000Y-53395202D01*
X127974704Y-54273260D01*
X128646740Y-54945296D01*
X129524798Y-55309000D01*
X130475202Y-55309000D01*
X131353260Y-54945296D01*
X132025296Y-54273260D01*
X132389000Y-53395202D01*
X132389000Y-52833110D01*
X142368524Y-52833110D01*
X142489845Y-53063000D01*
X143683000Y-53063000D01*
X143683000Y-51869181D01*
X143937000Y-51869181D01*
X143937000Y-53063000D01*
X145130155Y-53063000D01*
X145251476Y-52833110D01*
X145081645Y-52423076D01*
X144691358Y-51994817D01*
X144166892Y-51748514D01*
X143937000Y-51869181D01*
X143683000Y-51869181D01*
X143453108Y-51748514D01*
X142928642Y-51994817D01*
X142538355Y-52423076D01*
X142368524Y-52833110D01*
X132389000Y-52833110D01*
X132389000Y-52444798D01*
X132025296Y-51566740D01*
X131408556Y-50950000D01*
X145870001Y-50950000D01*
X145870000Y-83596000D01*
X107156104Y-83596000D01*
X107118354Y-83406217D01*
X106955905Y-83163095D01*
X106712783Y-83000646D01*
X106498388Y-82958000D01*
X106426000Y-82943601D01*
X106353612Y-82958000D01*
X101525942Y-82958000D01*
X101365068Y-82990000D01*
X91889920Y-82990000D01*
X91819999Y-82976092D01*
X91750078Y-82990000D01*
X91750074Y-82990000D01*
X91542972Y-83031195D01*
X91308119Y-83188119D01*
X91268508Y-83247401D01*
X81115910Y-93400000D01*
X72654638Y-93400000D01*
X69664821Y-90402325D01*
X73113086Y-90402325D01*
X73113086Y-91352729D01*
X73476790Y-92230787D01*
X74148826Y-92902823D01*
X75026884Y-93266527D01*
X75977288Y-93266527D01*
X76855346Y-92902823D01*
X77527382Y-92230787D01*
X77891086Y-91352729D01*
X77891086Y-90402325D01*
X77527382Y-89524267D01*
X76855346Y-88852231D01*
X75977288Y-88488527D01*
X75026884Y-88488527D01*
X74148826Y-88852231D01*
X73476790Y-89524267D01*
X73113086Y-90402325D01*
X69664821Y-90402325D01*
X66936927Y-87667262D01*
X76655761Y-87667262D01*
X76829535Y-88540876D01*
X77199483Y-89094543D01*
X77935608Y-89830668D01*
X78489275Y-90200617D01*
X79362889Y-90374390D01*
X80236503Y-90200617D01*
X80977117Y-89705754D01*
X81471980Y-88965140D01*
X81645753Y-88091526D01*
X81475172Y-87233961D01*
X82332738Y-87404542D01*
X83206352Y-87230769D01*
X83946966Y-86735906D01*
X84441829Y-85995292D01*
X84615602Y-85121678D01*
X84441829Y-84248064D01*
X84071880Y-83694397D01*
X84069481Y-83691998D01*
X84660292Y-84034330D01*
X85429586Y-84136828D01*
X86179545Y-83937129D01*
X86364204Y-83829086D01*
X86501011Y-83529859D01*
X85090454Y-82119302D01*
X85076312Y-82133445D01*
X84896706Y-81953839D01*
X84910849Y-81939697D01*
X83500292Y-80529140D01*
X83201065Y-80665947D01*
X83093022Y-80850606D01*
X82893323Y-81600565D01*
X82995821Y-82369859D01*
X83338153Y-82960670D01*
X83335755Y-82958272D01*
X82782088Y-82588324D01*
X81908474Y-82414550D01*
X81034860Y-82588324D01*
X80294246Y-83083186D01*
X79799384Y-83823800D01*
X79625610Y-84697414D01*
X79796192Y-85554980D01*
X78938625Y-85384398D01*
X78065011Y-85558172D01*
X77324397Y-86053034D01*
X76829535Y-86793648D01*
X76655761Y-87667262D01*
X66936927Y-87667262D01*
X65753432Y-86480658D01*
X68455915Y-83778175D01*
X72233934Y-83778175D01*
X72302931Y-84125045D01*
X72499417Y-84419108D01*
X74832869Y-86752560D01*
X75126932Y-86949046D01*
X75473802Y-87018043D01*
X75820672Y-86949046D01*
X76114735Y-86752560D01*
X78023923Y-84843372D01*
X78220409Y-84549309D01*
X78289406Y-84202439D01*
X78220409Y-83855569D01*
X78023923Y-83561506D01*
X77862218Y-83399801D01*
X78443650Y-83515455D01*
X79317264Y-83341682D01*
X80057878Y-82846819D01*
X80552741Y-82106205D01*
X80726514Y-81232591D01*
X80552741Y-80358977D01*
X80546433Y-80349535D01*
X83679897Y-80349535D01*
X85090454Y-81760092D01*
X85104596Y-81745949D01*
X85284202Y-81925555D01*
X85270059Y-81939697D01*
X86680616Y-83350254D01*
X86979843Y-83213447D01*
X87087886Y-83028788D01*
X87287585Y-82278829D01*
X87185087Y-81509535D01*
X86842755Y-80918724D01*
X86845154Y-80921123D01*
X87398821Y-81291072D01*
X88272435Y-81464845D01*
X89146049Y-81291072D01*
X89238421Y-81229351D01*
X89297739Y-81241150D01*
X89397607Y-81221285D01*
X135845294Y-81221285D01*
X135945161Y-81241150D01*
X136045028Y-81221285D01*
X136045029Y-81221285D01*
X136340804Y-81162452D01*
X136676214Y-80938338D01*
X136732788Y-80853669D01*
X144456387Y-73130071D01*
X144541053Y-73073499D01*
X144765167Y-72738089D01*
X144824000Y-72442314D01*
X144824000Y-72442313D01*
X144843865Y-72342446D01*
X144824000Y-72242579D01*
X144824000Y-70673794D01*
X145006870Y-70637419D01*
X145300933Y-70440933D01*
X145497419Y-70146870D01*
X145566416Y-69800000D01*
X145566416Y-68100000D01*
X145497419Y-67753130D01*
X145300933Y-67459067D01*
X145006870Y-67262581D01*
X145004087Y-67262027D01*
X145081645Y-67176924D01*
X145251476Y-66766890D01*
X145130155Y-66537000D01*
X143937000Y-66537000D01*
X143937000Y-66557000D01*
X143683000Y-66557000D01*
X143683000Y-66537000D01*
X142489845Y-66537000D01*
X142368524Y-66766890D01*
X142538355Y-67176924D01*
X142615913Y-67262027D01*
X142613130Y-67262581D01*
X142319067Y-67459067D01*
X142122581Y-67753130D01*
X142053584Y-68100000D01*
X142053584Y-69800000D01*
X142122581Y-70146870D01*
X142319067Y-70440933D01*
X142613130Y-70637419D01*
X142796001Y-70673794D01*
X142796000Y-71922434D01*
X135525150Y-79193285D01*
X90553050Y-79193285D01*
X90555299Y-79181981D01*
X90381526Y-78308367D01*
X90011577Y-77754700D01*
X90009178Y-77752301D01*
X90599989Y-78094633D01*
X91369283Y-78197131D01*
X92119242Y-77997432D01*
X92303901Y-77889389D01*
X92440708Y-77590162D01*
X91030151Y-76179605D01*
X91016009Y-76193748D01*
X90836403Y-76014142D01*
X90850546Y-76000000D01*
X91209756Y-76000000D01*
X92620313Y-77410557D01*
X92919540Y-77273750D01*
X93027583Y-77089091D01*
X93227282Y-76339132D01*
X93124784Y-75569838D01*
X92735693Y-74898328D01*
X92523561Y-74686196D01*
X91209756Y-76000000D01*
X90850546Y-76000000D01*
X89439989Y-74589443D01*
X89140762Y-74726250D01*
X89032719Y-74910909D01*
X88833020Y-75660868D01*
X88935518Y-76430162D01*
X89277850Y-77020973D01*
X89275452Y-77018575D01*
X88721785Y-76648627D01*
X87848171Y-76474853D01*
X86974557Y-76648627D01*
X86233943Y-77143489D01*
X85739081Y-77884103D01*
X85565307Y-78757717D01*
X85739081Y-79631331D01*
X86109029Y-80184998D01*
X86111427Y-80187396D01*
X85520616Y-79845064D01*
X84751322Y-79742566D01*
X84001363Y-79942265D01*
X83816704Y-80050308D01*
X83679897Y-80349535D01*
X80546433Y-80349535D01*
X80182792Y-79805310D01*
X80180392Y-79802910D01*
X80771205Y-80145243D01*
X81540499Y-80247741D01*
X82290458Y-80048042D01*
X82475117Y-79939999D01*
X82611924Y-79640772D01*
X81201367Y-78230215D01*
X81187225Y-78244358D01*
X81007620Y-78064753D01*
X81021762Y-78050610D01*
X79611205Y-76640053D01*
X79311978Y-76776860D01*
X79203935Y-76961519D01*
X79004236Y-77711478D01*
X79106734Y-78480772D01*
X79449067Y-79071585D01*
X79446667Y-79069185D01*
X78893000Y-78699237D01*
X78019386Y-78525463D01*
X77145772Y-78699237D01*
X76405158Y-79194099D01*
X75910296Y-79934713D01*
X75736522Y-80808327D01*
X75852177Y-81389760D01*
X75690471Y-81228054D01*
X75396408Y-81031568D01*
X75049538Y-80962571D01*
X74702668Y-81031568D01*
X74408605Y-81228054D01*
X72499417Y-83137242D01*
X72302931Y-83431305D01*
X72233934Y-83778175D01*
X68455915Y-83778175D01*
X75773642Y-76460448D01*
X79790810Y-76460448D01*
X81201367Y-77871005D01*
X81215510Y-77856863D01*
X81395115Y-78036468D01*
X81380972Y-78050610D01*
X82791529Y-79461167D01*
X83090756Y-79324360D01*
X83198799Y-79139701D01*
X83398498Y-78389742D01*
X83296000Y-77620448D01*
X82953670Y-77029640D01*
X82956066Y-77032036D01*
X83509733Y-77401985D01*
X84383347Y-77575758D01*
X85256961Y-77401985D01*
X85997575Y-76907122D01*
X86492438Y-76166508D01*
X86666211Y-75292894D01*
X86492438Y-74419280D01*
X86486130Y-74409838D01*
X89619594Y-74409838D01*
X91030151Y-75820395D01*
X92326983Y-74523562D01*
X92686196Y-74523562D01*
X92898328Y-74735694D01*
X93569838Y-75124785D01*
X94339132Y-75227283D01*
X95089091Y-75027584D01*
X95273750Y-74919541D01*
X95410557Y-74620314D01*
X94000000Y-73209757D01*
X92686196Y-74523562D01*
X92326983Y-74523562D01*
X92343955Y-74506590D01*
X92131823Y-74294458D01*
X91460313Y-73905367D01*
X90691019Y-73802869D01*
X89941060Y-74002568D01*
X89756401Y-74110611D01*
X89619594Y-74409838D01*
X86486130Y-74409838D01*
X86122489Y-73865613D01*
X86120089Y-73863213D01*
X86710902Y-74205546D01*
X87480196Y-74308044D01*
X88230155Y-74108345D01*
X88414814Y-74000302D01*
X88551621Y-73701075D01*
X87141064Y-72290518D01*
X87126922Y-72304661D01*
X86947316Y-72125055D01*
X86961459Y-72110913D01*
X86947317Y-72096771D01*
X87126922Y-71917166D01*
X87141064Y-71931308D01*
X87155206Y-71917165D01*
X87334812Y-72096771D01*
X87320669Y-72110913D01*
X88731226Y-73521470D01*
X89030453Y-73384663D01*
X89138496Y-73200004D01*
X89274028Y-72691020D01*
X91802869Y-72691020D01*
X91905367Y-73460314D01*
X92294458Y-74131824D01*
X92506590Y-74343956D01*
X93820395Y-73030152D01*
X94179605Y-73030152D01*
X95590162Y-74440709D01*
X95889389Y-74303902D01*
X95997432Y-74119243D01*
X96197131Y-73369284D01*
X96094633Y-72599990D01*
X95705542Y-71928480D01*
X95493410Y-71716348D01*
X94179605Y-73030152D01*
X93820395Y-73030152D01*
X92409838Y-71619595D01*
X92110611Y-71756402D01*
X92002568Y-71941061D01*
X91802869Y-72691020D01*
X89274028Y-72691020D01*
X89338195Y-72450045D01*
X89235697Y-71680751D01*
X88893367Y-71089943D01*
X88895763Y-71092339D01*
X89449430Y-71462288D01*
X90323044Y-71636061D01*
X91196658Y-71462288D01*
X91230029Y-71439990D01*
X92589443Y-71439990D01*
X94000000Y-72850547D01*
X95296833Y-71553713D01*
X95656044Y-71553713D01*
X95868176Y-71765845D01*
X96539686Y-72154936D01*
X97308980Y-72257434D01*
X98058939Y-72057735D01*
X98243598Y-71949692D01*
X98380405Y-71650465D01*
X96969848Y-70239908D01*
X95656044Y-71553713D01*
X95296833Y-71553713D01*
X95313804Y-71536742D01*
X95101672Y-71324610D01*
X94430162Y-70935519D01*
X93660868Y-70833021D01*
X92910909Y-71032720D01*
X92726250Y-71140763D01*
X92589443Y-71439990D01*
X91230029Y-71439990D01*
X91937272Y-70967425D01*
X92432135Y-70226811D01*
X92532713Y-69721171D01*
X94772717Y-69721171D01*
X94875215Y-70490465D01*
X95264306Y-71161975D01*
X95476438Y-71374107D01*
X96790243Y-70060303D01*
X95379686Y-68649746D01*
X95080459Y-68786553D01*
X94972416Y-68971212D01*
X94772717Y-69721171D01*
X92532713Y-69721171D01*
X92605908Y-69353197D01*
X92432135Y-68479583D01*
X92062186Y-67925916D01*
X92059786Y-67923516D01*
X92650599Y-68265849D01*
X93419893Y-68368347D01*
X94169852Y-68168648D01*
X94354511Y-68060605D01*
X94491318Y-67761378D01*
X93080761Y-66350821D01*
X93066619Y-66364964D01*
X92887013Y-66185358D01*
X92901156Y-66171216D01*
X92887014Y-66157074D01*
X93066619Y-65977469D01*
X93080761Y-65991611D01*
X93094904Y-65977469D01*
X93274509Y-66157074D01*
X93260366Y-66171216D01*
X94670923Y-67581773D01*
X94970150Y-67444966D01*
X95078193Y-67260307D01*
X95277892Y-66510348D01*
X95175394Y-65741054D01*
X94833064Y-65150246D01*
X94835460Y-65152642D01*
X95389127Y-65522591D01*
X96262741Y-65696364D01*
X97136355Y-65522591D01*
X97876969Y-65027728D01*
X98371832Y-64287114D01*
X98545605Y-63413500D01*
X98375024Y-62555934D01*
X99232590Y-62726515D01*
X100106204Y-62552742D01*
X100846818Y-62057879D01*
X101341681Y-61317265D01*
X101515454Y-60443651D01*
X101344873Y-59586086D01*
X102202438Y-59756667D01*
X103076052Y-59582894D01*
X103816666Y-59088031D01*
X104311529Y-58347417D01*
X104355395Y-58126890D01*
X104355395Y-59122367D01*
X104053034Y-59324398D01*
X103558172Y-60065012D01*
X103384398Y-60938626D01*
X103554980Y-61796192D01*
X102697413Y-61625610D01*
X101823799Y-61799384D01*
X101083185Y-62294246D01*
X100588323Y-63034860D01*
X100414549Y-63908474D01*
X100585131Y-64766041D01*
X99727565Y-64595459D01*
X98853951Y-64769233D01*
X98113337Y-65264095D01*
X97618475Y-66004709D01*
X97444701Y-66878323D01*
X97618475Y-67751937D01*
X97988423Y-68305604D01*
X97990821Y-68308002D01*
X97400010Y-67965670D01*
X96630716Y-67863172D01*
X95880757Y-68062871D01*
X95696098Y-68170914D01*
X95559291Y-68470141D01*
X96969848Y-69880698D01*
X96983990Y-69866555D01*
X97163596Y-70046161D01*
X97149453Y-70060303D01*
X98560010Y-71470860D01*
X98859237Y-71334053D01*
X98967280Y-71149394D01*
X99166979Y-70399435D01*
X99064481Y-69630141D01*
X98722149Y-69039330D01*
X98724548Y-69041729D01*
X99278215Y-69411678D01*
X100151829Y-69585451D01*
X101025443Y-69411678D01*
X101766057Y-68916815D01*
X102260920Y-68176201D01*
X102358666Y-67684798D01*
X127611000Y-67684798D01*
X127611000Y-68635202D01*
X127974704Y-69513260D01*
X128646740Y-70185296D01*
X129524798Y-70549000D01*
X130475202Y-70549000D01*
X131353260Y-70185296D01*
X132025296Y-69513260D01*
X132389000Y-68635202D01*
X132389000Y-67684798D01*
X132025296Y-66806740D01*
X131353260Y-66134704D01*
X131156275Y-66053110D01*
X142368524Y-66053110D01*
X142489845Y-66283000D01*
X143683000Y-66283000D01*
X143683000Y-65089181D01*
X143937000Y-65089181D01*
X143937000Y-66283000D01*
X145130155Y-66283000D01*
X145251476Y-66053110D01*
X145081645Y-65643076D01*
X144691358Y-65214817D01*
X144166892Y-64968514D01*
X143937000Y-65089181D01*
X143683000Y-65089181D01*
X143453108Y-64968514D01*
X142928642Y-65214817D01*
X142538355Y-65643076D01*
X142368524Y-66053110D01*
X131156275Y-66053110D01*
X130475202Y-65771000D01*
X129524798Y-65771000D01*
X128646740Y-66134704D01*
X127974704Y-66806740D01*
X127611000Y-67684798D01*
X102358666Y-67684798D01*
X102434693Y-67302587D01*
X102264112Y-66445021D01*
X103121677Y-66615602D01*
X103995291Y-66441829D01*
X104735905Y-65946966D01*
X105230768Y-65206352D01*
X105352578Y-64593970D01*
X128665635Y-64593970D01*
X128825418Y-64912739D01*
X129616187Y-65222723D01*
X130465387Y-65206497D01*
X131174582Y-64912739D01*
X131334365Y-64593970D01*
X130000000Y-63259605D01*
X128665635Y-64593970D01*
X105352578Y-64593970D01*
X105404541Y-64332738D01*
X105233960Y-63475173D01*
X106091526Y-63645754D01*
X106965140Y-63471981D01*
X107705754Y-62977118D01*
X107893466Y-62696187D01*
X127857277Y-62696187D01*
X127873503Y-63545387D01*
X128167261Y-64254582D01*
X128486030Y-64414365D01*
X129820395Y-63080000D01*
X130179605Y-63080000D01*
X131513970Y-64414365D01*
X131832739Y-64254582D01*
X132142723Y-63463813D01*
X132126497Y-62614613D01*
X131832739Y-61905418D01*
X131513970Y-61745635D01*
X130179605Y-63080000D01*
X129820395Y-63080000D01*
X128486030Y-61745635D01*
X128167261Y-61905418D01*
X127857277Y-62696187D01*
X107893466Y-62696187D01*
X108200617Y-62236504D01*
X108333982Y-61566030D01*
X128665635Y-61566030D01*
X130000000Y-62900395D01*
X131334365Y-61566030D01*
X131174582Y-61247261D01*
X130383813Y-60937277D01*
X129534613Y-60953503D01*
X128825418Y-61247261D01*
X128665635Y-61566030D01*
X108333982Y-61566030D01*
X108374390Y-61362890D01*
X108200617Y-60489276D01*
X107830668Y-59935609D01*
X107403394Y-59508335D01*
X107403394Y-59406511D01*
X107524266Y-59527383D01*
X108402324Y-59891087D01*
X109352728Y-59891087D01*
X110230786Y-59527383D01*
X110244199Y-59513970D01*
X128665635Y-59513970D01*
X128825418Y-59832739D01*
X129616187Y-60142723D01*
X130465387Y-60126497D01*
X131174582Y-59832739D01*
X131334365Y-59513970D01*
X130000000Y-58179605D01*
X128665635Y-59513970D01*
X110244199Y-59513970D01*
X110902822Y-58855347D01*
X111266526Y-57977289D01*
X111266526Y-57616187D01*
X127857277Y-57616187D01*
X127873503Y-58465387D01*
X128167261Y-59174582D01*
X128486030Y-59334365D01*
X129820395Y-58000000D01*
X130179605Y-58000000D01*
X131513970Y-59334365D01*
X131832739Y-59174582D01*
X132075323Y-58555750D01*
X142325000Y-58555750D01*
X142325000Y-59246310D01*
X142421673Y-59479699D01*
X142600302Y-59658327D01*
X142833691Y-59755000D01*
X143524250Y-59755000D01*
X143683000Y-59596250D01*
X143683000Y-58397000D01*
X143937000Y-58397000D01*
X143937000Y-59596250D01*
X144095750Y-59755000D01*
X144786309Y-59755000D01*
X145019698Y-59658327D01*
X145198327Y-59479699D01*
X145295000Y-59246310D01*
X145295000Y-58555750D01*
X145136250Y-58397000D01*
X143937000Y-58397000D01*
X143683000Y-58397000D01*
X142483750Y-58397000D01*
X142325000Y-58555750D01*
X132075323Y-58555750D01*
X132142723Y-58383813D01*
X132126497Y-57534613D01*
X131832739Y-56825418D01*
X131513970Y-56665635D01*
X130179605Y-58000000D01*
X129820395Y-58000000D01*
X128486030Y-56665635D01*
X128167261Y-56825418D01*
X127857277Y-57616187D01*
X111266526Y-57616187D01*
X111266526Y-57026885D01*
X111042497Y-56486030D01*
X128665635Y-56486030D01*
X130000000Y-57820395D01*
X131334365Y-56486030D01*
X131174582Y-56167261D01*
X130383813Y-55857277D01*
X129534613Y-55873503D01*
X128825418Y-56167261D01*
X128665635Y-56486030D01*
X111042497Y-56486030D01*
X110902822Y-56148827D01*
X110483995Y-55730000D01*
X142036931Y-55730000D01*
X142171898Y-56408524D01*
X142533009Y-56948965D01*
X142421673Y-57060301D01*
X142325000Y-57293690D01*
X142325000Y-57984250D01*
X142483750Y-58143000D01*
X143683000Y-58143000D01*
X143683000Y-58123000D01*
X143937000Y-58123000D01*
X143937000Y-58143000D01*
X145136250Y-58143000D01*
X145295000Y-57984250D01*
X145295000Y-57293690D01*
X145198327Y-57060301D01*
X145086991Y-56948965D01*
X145448102Y-56408524D01*
X145583069Y-55730000D01*
X145448102Y-55051476D01*
X145063749Y-54476251D01*
X144780714Y-54287133D01*
X145081645Y-53956924D01*
X145251476Y-53546890D01*
X145130155Y-53317000D01*
X143937000Y-53317000D01*
X143937000Y-53337000D01*
X143683000Y-53337000D01*
X143683000Y-53317000D01*
X142489845Y-53317000D01*
X142368524Y-53546890D01*
X142538355Y-53956924D01*
X142839286Y-54287133D01*
X142556251Y-54476251D01*
X142171898Y-55051476D01*
X142036931Y-55730000D01*
X110483995Y-55730000D01*
X110230786Y-55476791D01*
X109352728Y-55113087D01*
X108402324Y-55113087D01*
X107524266Y-55476791D01*
X107287464Y-55713593D01*
X107213327Y-55602639D01*
X107063159Y-55377897D01*
X107063158Y-55377896D01*
X106978136Y-55250652D01*
X106850893Y-55165631D01*
X105021431Y-53336170D01*
X104936408Y-53208924D01*
X104432301Y-52872090D01*
X103987763Y-52783666D01*
X103987758Y-52783666D01*
X103837666Y-52753811D01*
X103687574Y-52783666D01*
X100785278Y-52783666D01*
X100635186Y-52753811D01*
X100485094Y-52783666D01*
X100485090Y-52783666D01*
X100040552Y-52872090D01*
X100040550Y-52872091D01*
X100040551Y-52872091D01*
X99663690Y-53123901D01*
X99663689Y-53123902D01*
X99536445Y-53208924D01*
X99451423Y-53336168D01*
X89139414Y-63648178D01*
X89012171Y-63733199D01*
X88927149Y-63860443D01*
X88927147Y-63860445D01*
X88675337Y-64237306D01*
X88557057Y-64831941D01*
X88586913Y-64982037D01*
X88586912Y-67112674D01*
X88284552Y-67314705D01*
X88082522Y-67617065D01*
X85951879Y-67617065D01*
X85801787Y-67587210D01*
X85651695Y-67617065D01*
X85651691Y-67617065D01*
X85207153Y-67705489D01*
X85055033Y-67807132D01*
X84830291Y-67957300D01*
X84830290Y-67957301D01*
X84703046Y-68042323D01*
X84618024Y-68169567D01*
X83199717Y-69587875D01*
X83072474Y-69672896D01*
X82987452Y-69800140D01*
X82987450Y-69800142D01*
X82735640Y-70177003D01*
X82617360Y-70771638D01*
X82647216Y-70921734D01*
X82647215Y-73052371D01*
X82344855Y-73254402D01*
X81849993Y-73995016D01*
X81676219Y-74868630D01*
X81849993Y-75742244D01*
X82219941Y-76295911D01*
X82222337Y-76298307D01*
X81631529Y-75955977D01*
X80862235Y-75853479D01*
X80112276Y-76053178D01*
X79927617Y-76161221D01*
X79790810Y-76460448D01*
X75773642Y-76460448D01*
X101284092Y-50950000D01*
X128591444Y-50950000D01*
X127974704Y-51566740D01*
X127974704Y-51566740D01*
G37*
X127974704Y-51566740D02*
X127611000Y-52444798D01*
X127611000Y-53395202D01*
X127974704Y-54273260D01*
X128646740Y-54945296D01*
X129524798Y-55309000D01*
X130475202Y-55309000D01*
X131353260Y-54945296D01*
X132025296Y-54273260D01*
X132389000Y-53395202D01*
X132389000Y-52833110D01*
X142368524Y-52833110D01*
X142489845Y-53063000D01*
X143683000Y-53063000D01*
X143683000Y-51869181D01*
X143937000Y-51869181D01*
X143937000Y-53063000D01*
X145130155Y-53063000D01*
X145251476Y-52833110D01*
X145081645Y-52423076D01*
X144691358Y-51994817D01*
X144166892Y-51748514D01*
X143937000Y-51869181D01*
X143683000Y-51869181D01*
X143453108Y-51748514D01*
X142928642Y-51994817D01*
X142538355Y-52423076D01*
X142368524Y-52833110D01*
X132389000Y-52833110D01*
X132389000Y-52444798D01*
X132025296Y-51566740D01*
X131408556Y-50950000D01*
X145870001Y-50950000D01*
X145870000Y-83596000D01*
X107156104Y-83596000D01*
X107118354Y-83406217D01*
X106955905Y-83163095D01*
X106712783Y-83000646D01*
X106498388Y-82958000D01*
X106426000Y-82943601D01*
X106353612Y-82958000D01*
X101525942Y-82958000D01*
X101365068Y-82990000D01*
X91889920Y-82990000D01*
X91819999Y-82976092D01*
X91750078Y-82990000D01*
X91750074Y-82990000D01*
X91542972Y-83031195D01*
X91308119Y-83188119D01*
X91268508Y-83247401D01*
X81115910Y-93400000D01*
X72654638Y-93400000D01*
X69664821Y-90402325D01*
X73113086Y-90402325D01*
X73113086Y-91352729D01*
X73476790Y-92230787D01*
X74148826Y-92902823D01*
X75026884Y-93266527D01*
X75977288Y-93266527D01*
X76855346Y-92902823D01*
X77527382Y-92230787D01*
X77891086Y-91352729D01*
X77891086Y-90402325D01*
X77527382Y-89524267D01*
X76855346Y-88852231D01*
X75977288Y-88488527D01*
X75026884Y-88488527D01*
X74148826Y-88852231D01*
X73476790Y-89524267D01*
X73113086Y-90402325D01*
X69664821Y-90402325D01*
X66936927Y-87667262D01*
X76655761Y-87667262D01*
X76829535Y-88540876D01*
X77199483Y-89094543D01*
X77935608Y-89830668D01*
X78489275Y-90200617D01*
X79362889Y-90374390D01*
X80236503Y-90200617D01*
X80977117Y-89705754D01*
X81471980Y-88965140D01*
X81645753Y-88091526D01*
X81475172Y-87233961D01*
X82332738Y-87404542D01*
X83206352Y-87230769D01*
X83946966Y-86735906D01*
X84441829Y-85995292D01*
X84615602Y-85121678D01*
X84441829Y-84248064D01*
X84071880Y-83694397D01*
X84069481Y-83691998D01*
X84660292Y-84034330D01*
X85429586Y-84136828D01*
X86179545Y-83937129D01*
X86364204Y-83829086D01*
X86501011Y-83529859D01*
X85090454Y-82119302D01*
X85076312Y-82133445D01*
X84896706Y-81953839D01*
X84910849Y-81939697D01*
X83500292Y-80529140D01*
X83201065Y-80665947D01*
X83093022Y-80850606D01*
X82893323Y-81600565D01*
X82995821Y-82369859D01*
X83338153Y-82960670D01*
X83335755Y-82958272D01*
X82782088Y-82588324D01*
X81908474Y-82414550D01*
X81034860Y-82588324D01*
X80294246Y-83083186D01*
X79799384Y-83823800D01*
X79625610Y-84697414D01*
X79796192Y-85554980D01*
X78938625Y-85384398D01*
X78065011Y-85558172D01*
X77324397Y-86053034D01*
X76829535Y-86793648D01*
X76655761Y-87667262D01*
X66936927Y-87667262D01*
X65753432Y-86480658D01*
X68455915Y-83778175D01*
X72233934Y-83778175D01*
X72302931Y-84125045D01*
X72499417Y-84419108D01*
X74832869Y-86752560D01*
X75126932Y-86949046D01*
X75473802Y-87018043D01*
X75820672Y-86949046D01*
X76114735Y-86752560D01*
X78023923Y-84843372D01*
X78220409Y-84549309D01*
X78289406Y-84202439D01*
X78220409Y-83855569D01*
X78023923Y-83561506D01*
X77862218Y-83399801D01*
X78443650Y-83515455D01*
X79317264Y-83341682D01*
X80057878Y-82846819D01*
X80552741Y-82106205D01*
X80726514Y-81232591D01*
X80552741Y-80358977D01*
X80546433Y-80349535D01*
X83679897Y-80349535D01*
X85090454Y-81760092D01*
X85104596Y-81745949D01*
X85284202Y-81925555D01*
X85270059Y-81939697D01*
X86680616Y-83350254D01*
X86979843Y-83213447D01*
X87087886Y-83028788D01*
X87287585Y-82278829D01*
X87185087Y-81509535D01*
X86842755Y-80918724D01*
X86845154Y-80921123D01*
X87398821Y-81291072D01*
X88272435Y-81464845D01*
X89146049Y-81291072D01*
X89238421Y-81229351D01*
X89297739Y-81241150D01*
X89397607Y-81221285D01*
X135845294Y-81221285D01*
X135945161Y-81241150D01*
X136045028Y-81221285D01*
X136045029Y-81221285D01*
X136340804Y-81162452D01*
X136676214Y-80938338D01*
X136732788Y-80853669D01*
X144456387Y-73130071D01*
X144541053Y-73073499D01*
X144765167Y-72738089D01*
X144824000Y-72442314D01*
X144824000Y-72442313D01*
X144843865Y-72342446D01*
X144824000Y-72242579D01*
X144824000Y-70673794D01*
X145006870Y-70637419D01*
X145300933Y-70440933D01*
X145497419Y-70146870D01*
X145566416Y-69800000D01*
X145566416Y-68100000D01*
X145497419Y-67753130D01*
X145300933Y-67459067D01*
X145006870Y-67262581D01*
X145004087Y-67262027D01*
X145081645Y-67176924D01*
X145251476Y-66766890D01*
X145130155Y-66537000D01*
X143937000Y-66537000D01*
X143937000Y-66557000D01*
X143683000Y-66557000D01*
X143683000Y-66537000D01*
X142489845Y-66537000D01*
X142368524Y-66766890D01*
X142538355Y-67176924D01*
X142615913Y-67262027D01*
X142613130Y-67262581D01*
X142319067Y-67459067D01*
X142122581Y-67753130D01*
X142053584Y-68100000D01*
X142053584Y-69800000D01*
X142122581Y-70146870D01*
X142319067Y-70440933D01*
X142613130Y-70637419D01*
X142796001Y-70673794D01*
X142796000Y-71922434D01*
X135525150Y-79193285D01*
X90553050Y-79193285D01*
X90555299Y-79181981D01*
X90381526Y-78308367D01*
X90011577Y-77754700D01*
X90009178Y-77752301D01*
X90599989Y-78094633D01*
X91369283Y-78197131D01*
X92119242Y-77997432D01*
X92303901Y-77889389D01*
X92440708Y-77590162D01*
X91030151Y-76179605D01*
X91016009Y-76193748D01*
X90836403Y-76014142D01*
X90850546Y-76000000D01*
X91209756Y-76000000D01*
X92620313Y-77410557D01*
X92919540Y-77273750D01*
X93027583Y-77089091D01*
X93227282Y-76339132D01*
X93124784Y-75569838D01*
X92735693Y-74898328D01*
X92523561Y-74686196D01*
X91209756Y-76000000D01*
X90850546Y-76000000D01*
X89439989Y-74589443D01*
X89140762Y-74726250D01*
X89032719Y-74910909D01*
X88833020Y-75660868D01*
X88935518Y-76430162D01*
X89277850Y-77020973D01*
X89275452Y-77018575D01*
X88721785Y-76648627D01*
X87848171Y-76474853D01*
X86974557Y-76648627D01*
X86233943Y-77143489D01*
X85739081Y-77884103D01*
X85565307Y-78757717D01*
X85739081Y-79631331D01*
X86109029Y-80184998D01*
X86111427Y-80187396D01*
X85520616Y-79845064D01*
X84751322Y-79742566D01*
X84001363Y-79942265D01*
X83816704Y-80050308D01*
X83679897Y-80349535D01*
X80546433Y-80349535D01*
X80182792Y-79805310D01*
X80180392Y-79802910D01*
X80771205Y-80145243D01*
X81540499Y-80247741D01*
X82290458Y-80048042D01*
X82475117Y-79939999D01*
X82611924Y-79640772D01*
X81201367Y-78230215D01*
X81187225Y-78244358D01*
X81007620Y-78064753D01*
X81021762Y-78050610D01*
X79611205Y-76640053D01*
X79311978Y-76776860D01*
X79203935Y-76961519D01*
X79004236Y-77711478D01*
X79106734Y-78480772D01*
X79449067Y-79071585D01*
X79446667Y-79069185D01*
X78893000Y-78699237D01*
X78019386Y-78525463D01*
X77145772Y-78699237D01*
X76405158Y-79194099D01*
X75910296Y-79934713D01*
X75736522Y-80808327D01*
X75852177Y-81389760D01*
X75690471Y-81228054D01*
X75396408Y-81031568D01*
X75049538Y-80962571D01*
X74702668Y-81031568D01*
X74408605Y-81228054D01*
X72499417Y-83137242D01*
X72302931Y-83431305D01*
X72233934Y-83778175D01*
X68455915Y-83778175D01*
X75773642Y-76460448D01*
X79790810Y-76460448D01*
X81201367Y-77871005D01*
X81215510Y-77856863D01*
X81395115Y-78036468D01*
X81380972Y-78050610D01*
X82791529Y-79461167D01*
X83090756Y-79324360D01*
X83198799Y-79139701D01*
X83398498Y-78389742D01*
X83296000Y-77620448D01*
X82953670Y-77029640D01*
X82956066Y-77032036D01*
X83509733Y-77401985D01*
X84383347Y-77575758D01*
X85256961Y-77401985D01*
X85997575Y-76907122D01*
X86492438Y-76166508D01*
X86666211Y-75292894D01*
X86492438Y-74419280D01*
X86486130Y-74409838D01*
X89619594Y-74409838D01*
X91030151Y-75820395D01*
X92326983Y-74523562D01*
X92686196Y-74523562D01*
X92898328Y-74735694D01*
X93569838Y-75124785D01*
X94339132Y-75227283D01*
X95089091Y-75027584D01*
X95273750Y-74919541D01*
X95410557Y-74620314D01*
X94000000Y-73209757D01*
X92686196Y-74523562D01*
X92326983Y-74523562D01*
X92343955Y-74506590D01*
X92131823Y-74294458D01*
X91460313Y-73905367D01*
X90691019Y-73802869D01*
X89941060Y-74002568D01*
X89756401Y-74110611D01*
X89619594Y-74409838D01*
X86486130Y-74409838D01*
X86122489Y-73865613D01*
X86120089Y-73863213D01*
X86710902Y-74205546D01*
X87480196Y-74308044D01*
X88230155Y-74108345D01*
X88414814Y-74000302D01*
X88551621Y-73701075D01*
X87141064Y-72290518D01*
X87126922Y-72304661D01*
X86947316Y-72125055D01*
X86961459Y-72110913D01*
X86947317Y-72096771D01*
X87126922Y-71917166D01*
X87141064Y-71931308D01*
X87155206Y-71917165D01*
X87334812Y-72096771D01*
X87320669Y-72110913D01*
X88731226Y-73521470D01*
X89030453Y-73384663D01*
X89138496Y-73200004D01*
X89274028Y-72691020D01*
X91802869Y-72691020D01*
X91905367Y-73460314D01*
X92294458Y-74131824D01*
X92506590Y-74343956D01*
X93820395Y-73030152D01*
X94179605Y-73030152D01*
X95590162Y-74440709D01*
X95889389Y-74303902D01*
X95997432Y-74119243D01*
X96197131Y-73369284D01*
X96094633Y-72599990D01*
X95705542Y-71928480D01*
X95493410Y-71716348D01*
X94179605Y-73030152D01*
X93820395Y-73030152D01*
X92409838Y-71619595D01*
X92110611Y-71756402D01*
X92002568Y-71941061D01*
X91802869Y-72691020D01*
X89274028Y-72691020D01*
X89338195Y-72450045D01*
X89235697Y-71680751D01*
X88893367Y-71089943D01*
X88895763Y-71092339D01*
X89449430Y-71462288D01*
X90323044Y-71636061D01*
X91196658Y-71462288D01*
X91230029Y-71439990D01*
X92589443Y-71439990D01*
X94000000Y-72850547D01*
X95296833Y-71553713D01*
X95656044Y-71553713D01*
X95868176Y-71765845D01*
X96539686Y-72154936D01*
X97308980Y-72257434D01*
X98058939Y-72057735D01*
X98243598Y-71949692D01*
X98380405Y-71650465D01*
X96969848Y-70239908D01*
X95656044Y-71553713D01*
X95296833Y-71553713D01*
X95313804Y-71536742D01*
X95101672Y-71324610D01*
X94430162Y-70935519D01*
X93660868Y-70833021D01*
X92910909Y-71032720D01*
X92726250Y-71140763D01*
X92589443Y-71439990D01*
X91230029Y-71439990D01*
X91937272Y-70967425D01*
X92432135Y-70226811D01*
X92532713Y-69721171D01*
X94772717Y-69721171D01*
X94875215Y-70490465D01*
X95264306Y-71161975D01*
X95476438Y-71374107D01*
X96790243Y-70060303D01*
X95379686Y-68649746D01*
X95080459Y-68786553D01*
X94972416Y-68971212D01*
X94772717Y-69721171D01*
X92532713Y-69721171D01*
X92605908Y-69353197D01*
X92432135Y-68479583D01*
X92062186Y-67925916D01*
X92059786Y-67923516D01*
X92650599Y-68265849D01*
X93419893Y-68368347D01*
X94169852Y-68168648D01*
X94354511Y-68060605D01*
X94491318Y-67761378D01*
X93080761Y-66350821D01*
X93066619Y-66364964D01*
X92887013Y-66185358D01*
X92901156Y-66171216D01*
X92887014Y-66157074D01*
X93066619Y-65977469D01*
X93080761Y-65991611D01*
X93094904Y-65977469D01*
X93274509Y-66157074D01*
X93260366Y-66171216D01*
X94670923Y-67581773D01*
X94970150Y-67444966D01*
X95078193Y-67260307D01*
X95277892Y-66510348D01*
X95175394Y-65741054D01*
X94833064Y-65150246D01*
X94835460Y-65152642D01*
X95389127Y-65522591D01*
X96262741Y-65696364D01*
X97136355Y-65522591D01*
X97876969Y-65027728D01*
X98371832Y-64287114D01*
X98545605Y-63413500D01*
X98375024Y-62555934D01*
X99232590Y-62726515D01*
X100106204Y-62552742D01*
X100846818Y-62057879D01*
X101341681Y-61317265D01*
X101515454Y-60443651D01*
X101344873Y-59586086D01*
X102202438Y-59756667D01*
X103076052Y-59582894D01*
X103816666Y-59088031D01*
X104311529Y-58347417D01*
X104355395Y-58126890D01*
X104355395Y-59122367D01*
X104053034Y-59324398D01*
X103558172Y-60065012D01*
X103384398Y-60938626D01*
X103554980Y-61796192D01*
X102697413Y-61625610D01*
X101823799Y-61799384D01*
X101083185Y-62294246D01*
X100588323Y-63034860D01*
X100414549Y-63908474D01*
X100585131Y-64766041D01*
X99727565Y-64595459D01*
X98853951Y-64769233D01*
X98113337Y-65264095D01*
X97618475Y-66004709D01*
X97444701Y-66878323D01*
X97618475Y-67751937D01*
X97988423Y-68305604D01*
X97990821Y-68308002D01*
X97400010Y-67965670D01*
X96630716Y-67863172D01*
X95880757Y-68062871D01*
X95696098Y-68170914D01*
X95559291Y-68470141D01*
X96969848Y-69880698D01*
X96983990Y-69866555D01*
X97163596Y-70046161D01*
X97149453Y-70060303D01*
X98560010Y-71470860D01*
X98859237Y-71334053D01*
X98967280Y-71149394D01*
X99166979Y-70399435D01*
X99064481Y-69630141D01*
X98722149Y-69039330D01*
X98724548Y-69041729D01*
X99278215Y-69411678D01*
X100151829Y-69585451D01*
X101025443Y-69411678D01*
X101766057Y-68916815D01*
X102260920Y-68176201D01*
X102358666Y-67684798D01*
X127611000Y-67684798D01*
X127611000Y-68635202D01*
X127974704Y-69513260D01*
X128646740Y-70185296D01*
X129524798Y-70549000D01*
X130475202Y-70549000D01*
X131353260Y-70185296D01*
X132025296Y-69513260D01*
X132389000Y-68635202D01*
X132389000Y-67684798D01*
X132025296Y-66806740D01*
X131353260Y-66134704D01*
X131156275Y-66053110D01*
X142368524Y-66053110D01*
X142489845Y-66283000D01*
X143683000Y-66283000D01*
X143683000Y-65089181D01*
X143937000Y-65089181D01*
X143937000Y-66283000D01*
X145130155Y-66283000D01*
X145251476Y-66053110D01*
X145081645Y-65643076D01*
X144691358Y-65214817D01*
X144166892Y-64968514D01*
X143937000Y-65089181D01*
X143683000Y-65089181D01*
X143453108Y-64968514D01*
X142928642Y-65214817D01*
X142538355Y-65643076D01*
X142368524Y-66053110D01*
X131156275Y-66053110D01*
X130475202Y-65771000D01*
X129524798Y-65771000D01*
X128646740Y-66134704D01*
X127974704Y-66806740D01*
X127611000Y-67684798D01*
X102358666Y-67684798D01*
X102434693Y-67302587D01*
X102264112Y-66445021D01*
X103121677Y-66615602D01*
X103995291Y-66441829D01*
X104735905Y-65946966D01*
X105230768Y-65206352D01*
X105352578Y-64593970D01*
X128665635Y-64593970D01*
X128825418Y-64912739D01*
X129616187Y-65222723D01*
X130465387Y-65206497D01*
X131174582Y-64912739D01*
X131334365Y-64593970D01*
X130000000Y-63259605D01*
X128665635Y-64593970D01*
X105352578Y-64593970D01*
X105404541Y-64332738D01*
X105233960Y-63475173D01*
X106091526Y-63645754D01*
X106965140Y-63471981D01*
X107705754Y-62977118D01*
X107893466Y-62696187D01*
X127857277Y-62696187D01*
X127873503Y-63545387D01*
X128167261Y-64254582D01*
X128486030Y-64414365D01*
X129820395Y-63080000D01*
X130179605Y-63080000D01*
X131513970Y-64414365D01*
X131832739Y-64254582D01*
X132142723Y-63463813D01*
X132126497Y-62614613D01*
X131832739Y-61905418D01*
X131513970Y-61745635D01*
X130179605Y-63080000D01*
X129820395Y-63080000D01*
X128486030Y-61745635D01*
X128167261Y-61905418D01*
X127857277Y-62696187D01*
X107893466Y-62696187D01*
X108200617Y-62236504D01*
X108333982Y-61566030D01*
X128665635Y-61566030D01*
X130000000Y-62900395D01*
X131334365Y-61566030D01*
X131174582Y-61247261D01*
X130383813Y-60937277D01*
X129534613Y-60953503D01*
X128825418Y-61247261D01*
X128665635Y-61566030D01*
X108333982Y-61566030D01*
X108374390Y-61362890D01*
X108200617Y-60489276D01*
X107830668Y-59935609D01*
X107403394Y-59508335D01*
X107403394Y-59406511D01*
X107524266Y-59527383D01*
X108402324Y-59891087D01*
X109352728Y-59891087D01*
X110230786Y-59527383D01*
X110244199Y-59513970D01*
X128665635Y-59513970D01*
X128825418Y-59832739D01*
X129616187Y-60142723D01*
X130465387Y-60126497D01*
X131174582Y-59832739D01*
X131334365Y-59513970D01*
X130000000Y-58179605D01*
X128665635Y-59513970D01*
X110244199Y-59513970D01*
X110902822Y-58855347D01*
X111266526Y-57977289D01*
X111266526Y-57616187D01*
X127857277Y-57616187D01*
X127873503Y-58465387D01*
X128167261Y-59174582D01*
X128486030Y-59334365D01*
X129820395Y-58000000D01*
X130179605Y-58000000D01*
X131513970Y-59334365D01*
X131832739Y-59174582D01*
X132075323Y-58555750D01*
X142325000Y-58555750D01*
X142325000Y-59246310D01*
X142421673Y-59479699D01*
X142600302Y-59658327D01*
X142833691Y-59755000D01*
X143524250Y-59755000D01*
X143683000Y-59596250D01*
X143683000Y-58397000D01*
X143937000Y-58397000D01*
X143937000Y-59596250D01*
X144095750Y-59755000D01*
X144786309Y-59755000D01*
X145019698Y-59658327D01*
X145198327Y-59479699D01*
X145295000Y-59246310D01*
X145295000Y-58555750D01*
X145136250Y-58397000D01*
X143937000Y-58397000D01*
X143683000Y-58397000D01*
X142483750Y-58397000D01*
X142325000Y-58555750D01*
X132075323Y-58555750D01*
X132142723Y-58383813D01*
X132126497Y-57534613D01*
X131832739Y-56825418D01*
X131513970Y-56665635D01*
X130179605Y-58000000D01*
X129820395Y-58000000D01*
X128486030Y-56665635D01*
X128167261Y-56825418D01*
X127857277Y-57616187D01*
X111266526Y-57616187D01*
X111266526Y-57026885D01*
X111042497Y-56486030D01*
X128665635Y-56486030D01*
X130000000Y-57820395D01*
X131334365Y-56486030D01*
X131174582Y-56167261D01*
X130383813Y-55857277D01*
X129534613Y-55873503D01*
X128825418Y-56167261D01*
X128665635Y-56486030D01*
X111042497Y-56486030D01*
X110902822Y-56148827D01*
X110483995Y-55730000D01*
X142036931Y-55730000D01*
X142171898Y-56408524D01*
X142533009Y-56948965D01*
X142421673Y-57060301D01*
X142325000Y-57293690D01*
X142325000Y-57984250D01*
X142483750Y-58143000D01*
X143683000Y-58143000D01*
X143683000Y-58123000D01*
X143937000Y-58123000D01*
X143937000Y-58143000D01*
X145136250Y-58143000D01*
X145295000Y-57984250D01*
X145295000Y-57293690D01*
X145198327Y-57060301D01*
X145086991Y-56948965D01*
X145448102Y-56408524D01*
X145583069Y-55730000D01*
X145448102Y-55051476D01*
X145063749Y-54476251D01*
X144780714Y-54287133D01*
X145081645Y-53956924D01*
X145251476Y-53546890D01*
X145130155Y-53317000D01*
X143937000Y-53317000D01*
X143937000Y-53337000D01*
X143683000Y-53337000D01*
X143683000Y-53317000D01*
X142489845Y-53317000D01*
X142368524Y-53546890D01*
X142538355Y-53956924D01*
X142839286Y-54287133D01*
X142556251Y-54476251D01*
X142171898Y-55051476D01*
X142036931Y-55730000D01*
X110483995Y-55730000D01*
X110230786Y-55476791D01*
X109352728Y-55113087D01*
X108402324Y-55113087D01*
X107524266Y-55476791D01*
X107287464Y-55713593D01*
X107213327Y-55602639D01*
X107063159Y-55377897D01*
X107063158Y-55377896D01*
X106978136Y-55250652D01*
X106850893Y-55165631D01*
X105021431Y-53336170D01*
X104936408Y-53208924D01*
X104432301Y-52872090D01*
X103987763Y-52783666D01*
X103987758Y-52783666D01*
X103837666Y-52753811D01*
X103687574Y-52783666D01*
X100785278Y-52783666D01*
X100635186Y-52753811D01*
X100485094Y-52783666D01*
X100485090Y-52783666D01*
X100040552Y-52872090D01*
X100040550Y-52872091D01*
X100040551Y-52872091D01*
X99663690Y-53123901D01*
X99663689Y-53123902D01*
X99536445Y-53208924D01*
X99451423Y-53336168D01*
X89139414Y-63648178D01*
X89012171Y-63733199D01*
X88927149Y-63860443D01*
X88927147Y-63860445D01*
X88675337Y-64237306D01*
X88557057Y-64831941D01*
X88586913Y-64982037D01*
X88586912Y-67112674D01*
X88284552Y-67314705D01*
X88082522Y-67617065D01*
X85951879Y-67617065D01*
X85801787Y-67587210D01*
X85651695Y-67617065D01*
X85651691Y-67617065D01*
X85207153Y-67705489D01*
X85055033Y-67807132D01*
X84830291Y-67957300D01*
X84830290Y-67957301D01*
X84703046Y-68042323D01*
X84618024Y-68169567D01*
X83199717Y-69587875D01*
X83072474Y-69672896D01*
X82987452Y-69800140D01*
X82987450Y-69800142D01*
X82735640Y-70177003D01*
X82617360Y-70771638D01*
X82647216Y-70921734D01*
X82647215Y-73052371D01*
X82344855Y-73254402D01*
X81849993Y-73995016D01*
X81676219Y-74868630D01*
X81849993Y-75742244D01*
X82219941Y-76295911D01*
X82222337Y-76298307D01*
X81631529Y-75955977D01*
X80862235Y-75853479D01*
X80112276Y-76053178D01*
X79927617Y-76161221D01*
X79790810Y-76460448D01*
X75773642Y-76460448D01*
X101284092Y-50950000D01*
X128591444Y-50950000D01*
X127974704Y-51566740D01*
G04 #@! TD*
M02*
