M48
;DRILL file {KiCad 5.0.0-fee4fd1~65~ubuntu17.10.1} date Sat Aug 11 21:49:16 2018
;FORMAT={-:-/ absolute / inch / decimal}
FMAT,2
INCH,TZ
T1C0.0250
T2C0.0394
T3C0.0551
T4C0.0748
%
G90
G05
M72
T1
X4.2156Y-3.0408
X5.3543Y-3.0709
T2
X5.6618Y-2.6146
X5.6618Y-2.7146
X5.6618Y-2.0941
X5.6618Y-2.1941
X5.6618Y-2.2941
T3
X2.9631Y-3.3067
X3.08Y-3.1898
X3.1162Y-3.4598
X3.1969Y-3.0729
X3.2331Y-3.3429
X3.3138Y-2.9559
X3.35Y-3.226
X3.4308Y-2.839
X3.4669Y-3.109
X3.5477Y-2.7221
X3.5839Y-2.9921
X3.6646Y-2.6052
X3.7008Y-2.8752
X3.7815Y-2.4882
X3.8177Y-2.7583
X3.8984Y-2.3713
X3.9346Y-2.6414
X4.0154Y-2.2544
X4.0516Y-2.5244
X4.1685Y-2.4075
T4
X5.1181Y-2.0835
X5.1181Y-2.2835
X5.1181Y-2.4835
X5.1181Y-2.6835
T0
M30
