G04 #@! TF.GenerationSoftware,KiCad,Pcbnew,5.0.0-fee4fd1~65~ubuntu17.10.1*
G04 #@! TF.CreationDate,2018-08-11T21:49:12-07:00*
G04 #@! TF.ProjectId,ATX2PCjr,4154583250436A722E6B696361645F70,rev?*
G04 #@! TF.SameCoordinates,Original*
G04 #@! TF.FileFunction,Soldermask,Bot*
G04 #@! TF.FilePolarity,Negative*
%FSLAX46Y46*%
G04 Gerber Fmt 4.6, Leading zero omitted, Abs format (unit mm)*
G04 Created by KiCad (PCBNEW 5.0.0-fee4fd1~65~ubuntu17.10.1) date Sat Aug 11 21:49:12 2018*
%MOMM*%
%LPD*%
G01*
G04 APERTURE LIST*
%ADD10C,0.150000*%
%ADD11C,3.100000*%
%ADD12C,0.100000*%
%ADD13C,3.100000*%
%ADD14C,3.400000*%
%ADD15R,2.100000X2.100000*%
%ADD16O,2.100000X2.100000*%
G04 APERTURE END LIST*
D10*
G36*
X105410000Y-84074000D02*
X149098000Y-84074000D01*
X149606000Y-102362000D01*
X99822000Y-104394000D01*
X105410000Y-84074000D01*
G37*
X105410000Y-84074000D02*
X149098000Y-84074000D01*
X149606000Y-102362000D01*
X99822000Y-104394000D01*
X105410000Y-84074000D01*
D11*
G04 #@! TO.C,J1*
X75261670Y-83990307D03*
D12*
G36*
X75473802Y-86394470D02*
X72857507Y-83778175D01*
X75049538Y-81586144D01*
X77665833Y-84202439D01*
X75473802Y-86394470D01*
X75473802Y-86394470D01*
G37*
D11*
X78231518Y-81020459D03*
D13*
X78019386Y-80808327D02*
X78443650Y-81232591D01*
D11*
X81201367Y-78050610D03*
D13*
X80989235Y-77838478D02*
X81413499Y-78262742D01*
D11*
X84171215Y-75080762D03*
D13*
X83959083Y-74868630D02*
X84383347Y-75292894D01*
D11*
X87141064Y-72110913D03*
D13*
X86928932Y-71898781D02*
X87353196Y-72323045D01*
D11*
X90110912Y-69141065D03*
D13*
X89898780Y-68928933D02*
X90323044Y-69353197D01*
D11*
X93080761Y-66171216D03*
D13*
X92868629Y-65959084D02*
X93292893Y-66383348D01*
D11*
X96050609Y-63201368D03*
D13*
X95838477Y-62989236D02*
X96262741Y-63413500D01*
D11*
X99020458Y-60231519D03*
D13*
X98808326Y-60019387D02*
X99232590Y-60443651D01*
D11*
X101990306Y-57261671D03*
D13*
X101778174Y-57049539D02*
X102202438Y-57473803D01*
D11*
X79150757Y-87879394D03*
D13*
X78938625Y-87667262D02*
X79362889Y-88091526D01*
D11*
X82120606Y-84909546D03*
D13*
X81908474Y-84697414D02*
X82332738Y-85121678D01*
D11*
X85090454Y-81939697D03*
D13*
X84878322Y-81727565D02*
X85302586Y-82151829D01*
D11*
X88060303Y-78969849D03*
D13*
X87848171Y-78757717D02*
X88272435Y-79181981D01*
D11*
X91030151Y-76000000D03*
D13*
X90818019Y-75787868D02*
X91242283Y-76212132D01*
D11*
X94000000Y-73030152D03*
D13*
X93787868Y-72818020D02*
X94212132Y-73242284D01*
D11*
X96969848Y-70060303D03*
D13*
X96757716Y-69848171D02*
X97181980Y-70272435D01*
D11*
X99939697Y-67090455D03*
D13*
X99727565Y-66878323D02*
X100151829Y-67302587D01*
D11*
X102909545Y-64120606D03*
D13*
X102697413Y-63908474D02*
X103121677Y-64332738D01*
D11*
X105879394Y-61150758D03*
D13*
X105667262Y-60938626D02*
X106091526Y-61362890D01*
D14*
X75502086Y-90877527D03*
X108877526Y-57502087D03*
G04 #@! TD*
D15*
G04 #@! TO.C,J3*
X143810000Y-68950000D03*
D16*
X143810000Y-66410000D03*
G04 #@! TD*
D15*
G04 #@! TO.C,J4*
X143810000Y-58270000D03*
D16*
X143810000Y-55730000D03*
X143810000Y-53190000D03*
G04 #@! TD*
D14*
G04 #@! TO.C,J5*
X130000000Y-68160000D03*
X130000000Y-63080000D03*
X130000000Y-58000000D03*
X130000000Y-52920000D03*
G04 #@! TD*
M02*
