G04 #@! TF.GenerationSoftware,KiCad,Pcbnew,5.0.0-fee4fd1~65~ubuntu17.10.1*
G04 #@! TF.CreationDate,2018-07-28T17:47:53-07:00*
G04 #@! TF.ProjectId,_autosave-ATX2PCjr,5F6175746F736176652D415458325043,rev?*
G04 #@! TF.SameCoordinates,Original*
G04 #@! TF.FileFunction,Copper,L2,Bot,Signal*
G04 #@! TF.FilePolarity,Positive*
%FSLAX46Y46*%
G04 Gerber Fmt 4.6, Leading zero omitted, Abs format (unit mm)*
G04 Created by KiCad (PCBNEW 5.0.0-fee4fd1~65~ubuntu17.10.1) date Sat Jul 28 17:47:53 2018*
%MOMM*%
%LPD*%
G01*
G04 APERTURE LIST*
G04 #@! TA.AperFunction,NonConductor*
%ADD10C,0.300000*%
G04 #@! TD*
G04 #@! TA.AperFunction,ComponentPad*
%ADD11C,2.700000*%
G04 #@! TD*
G04 #@! TA.AperFunction,Conductor*
%ADD12C,0.100000*%
G04 #@! TD*
G04 #@! TA.AperFunction,Conductor*
%ADD13C,2.700000*%
G04 #@! TD*
G04 #@! TA.AperFunction,ComponentPad*
%ADD14R,1.700000X1.700000*%
G04 #@! TD*
G04 #@! TA.AperFunction,ComponentPad*
%ADD15O,1.700000X1.700000*%
G04 #@! TD*
G04 #@! TA.AperFunction,ViaPad*
%ADD16C,1.016000*%
G04 #@! TD*
G04 #@! TA.AperFunction,Conductor*
%ADD17C,1.270000*%
G04 #@! TD*
G04 #@! TA.AperFunction,Conductor*
%ADD18C,0.250000*%
G04 #@! TD*
G04 #@! TA.AperFunction,Conductor*
%ADD19C,0.254000*%
G04 #@! TD*
G04 APERTURE END LIST*
D10*
X127871904Y-92531428D02*
X127514761Y-92650476D01*
X127395714Y-92769523D01*
X127276666Y-93007619D01*
X127276666Y-93364761D01*
X127395714Y-93602857D01*
X127514761Y-93721904D01*
X127752857Y-93840952D01*
X128705238Y-93840952D01*
X128705238Y-91340952D01*
X127871904Y-91340952D01*
X127633809Y-91460000D01*
X127514761Y-91579047D01*
X127395714Y-91817142D01*
X127395714Y-92055238D01*
X127514761Y-92293333D01*
X127633809Y-92412380D01*
X127871904Y-92531428D01*
X128705238Y-92531428D01*
X126443333Y-92174285D02*
X125848095Y-93840952D01*
X125252857Y-92174285D02*
X125848095Y-93840952D01*
X126086190Y-94436190D01*
X126205238Y-94555238D01*
X126443333Y-94674285D01*
X122514761Y-93126666D02*
X121324285Y-93126666D01*
X122752857Y-93840952D02*
X121919523Y-91340952D01*
X121086190Y-93840952D01*
X120252857Y-93840952D02*
X120252857Y-91340952D01*
X120014761Y-92888571D02*
X119300476Y-93840952D01*
X119300476Y-92174285D02*
X120252857Y-93126666D01*
X117395714Y-92531428D02*
X117038571Y-92650476D01*
X116919523Y-92769523D01*
X116800476Y-93007619D01*
X116800476Y-93364761D01*
X116919523Y-93602857D01*
X117038571Y-93721904D01*
X117276666Y-93840952D01*
X118229047Y-93840952D01*
X118229047Y-91340952D01*
X117395714Y-91340952D01*
X117157619Y-91460000D01*
X117038571Y-91579047D01*
X116919523Y-91817142D01*
X116919523Y-92055238D01*
X117038571Y-92293333D01*
X117157619Y-92412380D01*
X117395714Y-92531428D01*
X118229047Y-92531428D01*
X115729047Y-93840952D02*
X115729047Y-91340952D01*
X114300476Y-93840952D02*
X115371904Y-92412380D01*
X114300476Y-91340952D02*
X115729047Y-92769523D01*
X112157619Y-92174285D02*
X112157619Y-93840952D01*
X113229047Y-92174285D02*
X113229047Y-93483809D01*
X113110000Y-93721904D01*
X112871904Y-93840952D01*
X112514761Y-93840952D01*
X112276666Y-93721904D01*
X112157619Y-93602857D01*
X110967142Y-93840952D02*
X110967142Y-91340952D01*
X110729047Y-92888571D02*
X110014761Y-93840952D01*
X110014761Y-92174285D02*
X110967142Y-93126666D01*
X108943333Y-91340952D02*
X108943333Y-93364761D01*
X108824285Y-93602857D01*
X108705238Y-93721904D01*
X108467142Y-93840952D01*
X107990952Y-93840952D01*
X107752857Y-93721904D01*
X107633809Y-93602857D01*
X107514761Y-93364761D01*
X107514761Y-91340952D01*
X145095238Y-86776666D02*
X143904761Y-86776666D01*
X145333333Y-87490952D02*
X144500000Y-84990952D01*
X143666666Y-87490952D01*
X143190476Y-84990952D02*
X141761904Y-84990952D01*
X142476190Y-87490952D02*
X142476190Y-84990952D01*
X141166666Y-84990952D02*
X139500000Y-87490952D01*
X139500000Y-84990952D02*
X141166666Y-87490952D01*
X137000000Y-85824285D02*
X136047619Y-85824285D01*
X136642857Y-84990952D02*
X136642857Y-87133809D01*
X136523809Y-87371904D01*
X136285714Y-87490952D01*
X136047619Y-87490952D01*
X134857142Y-87490952D02*
X135095238Y-87371904D01*
X135214285Y-87252857D01*
X135333333Y-87014761D01*
X135333333Y-86300476D01*
X135214285Y-86062380D01*
X135095238Y-85943333D01*
X134857142Y-85824285D01*
X134500000Y-85824285D01*
X134261904Y-85943333D01*
X134142857Y-86062380D01*
X134023809Y-86300476D01*
X134023809Y-87014761D01*
X134142857Y-87252857D01*
X134261904Y-87371904D01*
X134500000Y-87490952D01*
X134857142Y-87490952D01*
X131047619Y-87490952D02*
X131047619Y-84990952D01*
X130095238Y-84990952D01*
X129857142Y-85110000D01*
X129738095Y-85229047D01*
X129619047Y-85467142D01*
X129619047Y-85824285D01*
X129738095Y-86062380D01*
X129857142Y-86181428D01*
X130095238Y-86300476D01*
X131047619Y-86300476D01*
X127119047Y-87252857D02*
X127238095Y-87371904D01*
X127595238Y-87490952D01*
X127833333Y-87490952D01*
X128190476Y-87371904D01*
X128428571Y-87133809D01*
X128547619Y-86895714D01*
X128666666Y-86419523D01*
X128666666Y-86062380D01*
X128547619Y-85586190D01*
X128428571Y-85348095D01*
X128190476Y-85110000D01*
X127833333Y-84990952D01*
X127595238Y-84990952D01*
X127238095Y-85110000D01*
X127119047Y-85229047D01*
X126047619Y-85824285D02*
X126047619Y-87967142D01*
X126166666Y-88205238D01*
X126404761Y-88324285D01*
X126523809Y-88324285D01*
X126047619Y-84990952D02*
X126166666Y-85110000D01*
X126047619Y-85229047D01*
X125928571Y-85110000D01*
X126047619Y-84990952D01*
X126047619Y-85229047D01*
X124857142Y-87490952D02*
X124857142Y-85824285D01*
X124857142Y-86300476D02*
X124738095Y-86062380D01*
X124619047Y-85943333D01*
X124380952Y-85824285D01*
X124142857Y-85824285D01*
X115928571Y-85824285D02*
X115333333Y-87490952D01*
X114738095Y-85824285D01*
X112476190Y-87490952D02*
X113904761Y-87490952D01*
X113190476Y-87490952D02*
X113190476Y-84990952D01*
X113428571Y-85348095D01*
X113666666Y-85586190D01*
X113904761Y-85705238D01*
X111404761Y-87252857D02*
X111285714Y-87371904D01*
X111404761Y-87490952D01*
X111523809Y-87371904D01*
X111404761Y-87252857D01*
X111404761Y-87490952D01*
X109738095Y-84990952D02*
X109500000Y-84990952D01*
X109261904Y-85110000D01*
X109142857Y-85229047D01*
X109023809Y-85467142D01*
X108904761Y-85943333D01*
X108904761Y-86538571D01*
X109023809Y-87014761D01*
X109142857Y-87252857D01*
X109261904Y-87371904D01*
X109500000Y-87490952D01*
X109738095Y-87490952D01*
X109976190Y-87371904D01*
X110095238Y-87252857D01*
X110214285Y-87014761D01*
X110333333Y-86538571D01*
X110333333Y-85943333D01*
X110214285Y-85467142D01*
X110095238Y-85229047D01*
X109976190Y-85110000D01*
X109738095Y-84990952D01*
D11*
G04 #@! TO.P,J1,1*
G04 #@! TO.N,Net-(J1-Pad1)*
X101380758Y-71979242D03*
D12*
G04 #@! TD*
G04 #@! TO.N,Net-(J1-Pad1)*
G04 #@! TO.C,J1*
G36*
X101592890Y-74100562D02*
X99259438Y-71767110D01*
X101168626Y-69857922D01*
X103502078Y-72191374D01*
X101592890Y-74100562D01*
X101592890Y-74100562D01*
G37*
D11*
G04 #@! TO.P,J1,2*
G04 #@! TO.N,Net-(J1-Pad2)*
X104350606Y-69009394D03*
D13*
G04 #@! TD*
G04 #@! TO.N,Net-(J1-Pad2)*
G04 #@! TO.C,J1*
X104138474Y-68797262D02*
X104562738Y-69221526D01*
D11*
G04 #@! TO.P,J1,3*
G04 #@! TO.N,/GND*
X107320455Y-66039545D03*
D13*
G04 #@! TD*
G04 #@! TO.N,/GND*
G04 #@! TO.C,J1*
X107108323Y-65827413D02*
X107532587Y-66251677D01*
D11*
G04 #@! TO.P,J1,4*
G04 #@! TO.N,/+5V*
X110290303Y-63069697D03*
D13*
G04 #@! TD*
G04 #@! TO.N,/+5V*
G04 #@! TO.C,J1*
X110078171Y-62857565D02*
X110502435Y-63281829D01*
D11*
G04 #@! TO.P,J1,5*
G04 #@! TO.N,/GND*
X113260152Y-60099848D03*
D13*
G04 #@! TD*
G04 #@! TO.N,/GND*
G04 #@! TO.C,J1*
X113048020Y-59887716D02*
X113472284Y-60311980D01*
D11*
G04 #@! TO.P,J1,6*
G04 #@! TO.N,/+5V*
X116230000Y-57130000D03*
D13*
G04 #@! TD*
G04 #@! TO.N,/+5V*
G04 #@! TO.C,J1*
X116017868Y-56917868D02*
X116442132Y-57342132D01*
D11*
G04 #@! TO.P,J1,7*
G04 #@! TO.N,/GND*
X119199849Y-54160151D03*
D13*
G04 #@! TD*
G04 #@! TO.N,/GND*
G04 #@! TO.C,J1*
X118987717Y-53948019D02*
X119411981Y-54372283D01*
D11*
G04 #@! TO.P,J1,8*
G04 #@! TO.N,Net-(J1-Pad8)*
X122169697Y-51190303D03*
D13*
G04 #@! TD*
G04 #@! TO.N,Net-(J1-Pad8)*
G04 #@! TO.C,J1*
X121957565Y-50978171D02*
X122381829Y-51402435D01*
D11*
G04 #@! TO.P,J1,9*
G04 #@! TO.N,Net-(J1-Pad9)*
X125139546Y-48220454D03*
D13*
G04 #@! TD*
G04 #@! TO.N,Net-(J1-Pad9)*
G04 #@! TO.C,J1*
X124927414Y-48008322D02*
X125351678Y-48432586D01*
D11*
G04 #@! TO.P,J1,10*
G04 #@! TO.N,/+12V*
X128109394Y-45250606D03*
D13*
G04 #@! TD*
G04 #@! TO.N,/+12V*
G04 #@! TO.C,J1*
X127897262Y-45038474D02*
X128321526Y-45462738D01*
D11*
G04 #@! TO.P,J1,11*
G04 #@! TO.N,Net-(J1-Pad11)*
X105269845Y-75868329D03*
D13*
G04 #@! TD*
G04 #@! TO.N,Net-(J1-Pad11)*
G04 #@! TO.C,J1*
X105057713Y-75656197D02*
X105481977Y-76080461D01*
D11*
G04 #@! TO.P,J1,12*
G04 #@! TO.N,/-12V*
X108239694Y-72898481D03*
D13*
G04 #@! TD*
G04 #@! TO.N,/-12V*
G04 #@! TO.C,J1*
X108027562Y-72686349D02*
X108451826Y-73110613D01*
D11*
G04 #@! TO.P,J1,13*
G04 #@! TO.N,/GND*
X111209542Y-69928632D03*
D13*
G04 #@! TD*
G04 #@! TO.N,/GND*
G04 #@! TO.C,J1*
X110997410Y-69716500D02*
X111421674Y-70140764D01*
D11*
G04 #@! TO.P,J1,14*
G04 #@! TO.N,/PS-ON*
X114179391Y-66958784D03*
D13*
G04 #@! TD*
G04 #@! TO.N,/PS-ON*
G04 #@! TO.C,J1*
X113967259Y-66746652D02*
X114391523Y-67170916D01*
D11*
G04 #@! TO.P,J1,15*
G04 #@! TO.N,/GND*
X117149239Y-63988935D03*
D13*
G04 #@! TD*
G04 #@! TO.N,/GND*
G04 #@! TO.C,J1*
X116937107Y-63776803D02*
X117361371Y-64201067D01*
D11*
G04 #@! TO.P,J1,16*
G04 #@! TO.N,/GND*
X120119088Y-61019087D03*
D13*
G04 #@! TD*
G04 #@! TO.N,/GND*
G04 #@! TO.C,J1*
X119906956Y-60806955D02*
X120331220Y-61231219D01*
D11*
G04 #@! TO.P,J1,17*
G04 #@! TO.N,/GND*
X123088936Y-58049238D03*
D13*
G04 #@! TD*
G04 #@! TO.N,/GND*
G04 #@! TO.C,J1*
X122876804Y-57837106D02*
X123301068Y-58261370D01*
D11*
G04 #@! TO.P,J1,18*
G04 #@! TO.N,Net-(J1-Pad18)*
X126058785Y-55079390D03*
D13*
G04 #@! TD*
G04 #@! TO.N,Net-(J1-Pad18)*
G04 #@! TO.C,J1*
X125846653Y-54867258D02*
X126270917Y-55291522D01*
D11*
G04 #@! TO.P,J1,19*
G04 #@! TO.N,/+5V*
X129028633Y-52109541D03*
D13*
G04 #@! TD*
G04 #@! TO.N,/+5V*
G04 #@! TO.C,J1*
X128816501Y-51897409D02*
X129240765Y-52321673D01*
D11*
G04 #@! TO.P,J1,20*
G04 #@! TO.N,/+5V*
X131998482Y-49139693D03*
D13*
G04 #@! TD*
G04 #@! TO.N,/+5V*
G04 #@! TO.C,J1*
X131786350Y-48927561D02*
X132210614Y-49351825D01*
D14*
G04 #@! TO.P,J3,1*
G04 #@! TO.N,/PS-ON*
X143810000Y-68950000D03*
D15*
G04 #@! TO.P,J3,2*
G04 #@! TO.N,/GND*
X143810000Y-66410000D03*
G04 #@! TD*
D14*
G04 #@! TO.P,J4,1*
G04 #@! TO.N,/GND*
X143810000Y-58270000D03*
D15*
G04 #@! TO.P,J4,2*
G04 #@! TO.N,/+12V*
X143810000Y-55730000D03*
G04 #@! TO.P,J4,3*
G04 #@! TO.N,/GND*
X143810000Y-53190000D03*
G04 #@! TD*
D16*
G04 #@! TO.N,/GND*
X137900000Y-76830000D03*
X120170000Y-74860000D03*
G04 #@! TD*
D17*
G04 #@! TO.N,/GND*
X141690000Y-58270000D02*
X143810000Y-58270000D01*
X141562999Y-58142999D02*
X141690000Y-58270000D01*
X141562999Y-54234920D02*
X141562999Y-58142999D01*
X142607919Y-53190000D02*
X141562999Y-54234920D01*
X143810000Y-53190000D02*
X142607919Y-53190000D01*
X143810000Y-58270000D02*
X143810000Y-66410000D01*
X137900000Y-76830000D02*
X122140000Y-76830000D01*
X122140000Y-76830000D02*
X120170000Y-74860000D01*
X131449698Y-66410000D02*
X123088936Y-58049238D01*
X143810000Y-66410000D02*
X131449698Y-66410000D01*
G04 #@! TO.N,/+5V*
X126754275Y-42296601D02*
X130946601Y-42296601D01*
X116230000Y-57130000D02*
X116230000Y-52820876D01*
X116230000Y-52820876D02*
X126754275Y-42296601D01*
X131998482Y-43348482D02*
X131998482Y-49139693D01*
X130946601Y-42296601D02*
X131998482Y-43348482D01*
X131998481Y-49139693D02*
X129028633Y-52109541D01*
X131998482Y-49139693D02*
X131998481Y-49139693D01*
D18*
G04 #@! TO.N,/PS-ON*
X116170607Y-68950000D02*
X114179391Y-66958784D01*
X143810000Y-68950000D02*
X116170607Y-68950000D01*
G04 #@! TD*
D19*
G04 #@! TO.N,/GND*
G36*
X145823001Y-49834448D02*
X145823000Y-83596000D01*
X107389572Y-83596000D01*
X107389572Y-83693000D01*
X107175399Y-83693000D01*
X107118354Y-83406217D01*
X106955905Y-83163095D01*
X106712783Y-83000646D01*
X106498388Y-82958000D01*
X106426000Y-82943601D01*
X106353612Y-82958000D01*
X96112000Y-82958000D01*
X96112000Y-78391260D01*
X99232174Y-78391260D01*
X99232174Y-79341664D01*
X99595878Y-80219722D01*
X100267914Y-80891758D01*
X101145972Y-81255462D01*
X102096376Y-81255462D01*
X102974434Y-80891758D01*
X103646470Y-80219722D01*
X104010174Y-79341664D01*
X104010174Y-78391260D01*
X103646470Y-77513202D01*
X102974434Y-76841166D01*
X102096376Y-76477462D01*
X101145972Y-76477462D01*
X100267914Y-76841166D01*
X99595878Y-77513202D01*
X99232174Y-78391260D01*
X96112000Y-78391260D01*
X96112000Y-75656197D01*
X102774849Y-75656197D01*
X102948623Y-76529811D01*
X103318571Y-77083478D01*
X104054696Y-77819603D01*
X104608363Y-78189552D01*
X105481977Y-78363325D01*
X106355591Y-78189552D01*
X107096205Y-77694689D01*
X107591068Y-76954075D01*
X107764841Y-76080461D01*
X107594260Y-75222896D01*
X108451826Y-75393477D01*
X109325440Y-75219704D01*
X110066054Y-74724841D01*
X110560917Y-73984227D01*
X110734690Y-73110613D01*
X110560917Y-72236999D01*
X110190968Y-71683332D01*
X110188569Y-71680933D01*
X110779380Y-72023265D01*
X111548674Y-72125763D01*
X112298633Y-71926064D01*
X112483292Y-71818021D01*
X112620099Y-71518794D01*
X111209542Y-70108237D01*
X111195400Y-70122380D01*
X111015794Y-69942774D01*
X111029937Y-69928632D01*
X109619380Y-68518075D01*
X109320153Y-68654882D01*
X109212110Y-68839541D01*
X109012411Y-69589500D01*
X109114909Y-70358794D01*
X109457241Y-70949605D01*
X109454843Y-70947207D01*
X108901176Y-70577259D01*
X108027562Y-70403485D01*
X107153948Y-70577259D01*
X106413334Y-71072121D01*
X105918472Y-71812735D01*
X105744698Y-72686349D01*
X105915280Y-73543915D01*
X105057713Y-73373333D01*
X104184099Y-73547107D01*
X103443485Y-74041969D01*
X102948623Y-74782583D01*
X102774849Y-75656197D01*
X96112000Y-75656197D01*
X96112000Y-72821446D01*
X97166336Y-71767110D01*
X98353022Y-71767110D01*
X98422019Y-72113980D01*
X98618505Y-72408043D01*
X100951957Y-74741495D01*
X101246020Y-74937981D01*
X101592890Y-75006978D01*
X101939760Y-74937981D01*
X102233823Y-74741495D01*
X104143011Y-72832307D01*
X104339497Y-72538244D01*
X104408494Y-72191374D01*
X104339497Y-71844504D01*
X104143011Y-71550441D01*
X103981306Y-71388736D01*
X104562738Y-71504390D01*
X105436352Y-71330617D01*
X106176966Y-70835754D01*
X106671829Y-70095140D01*
X106845602Y-69221526D01*
X106671829Y-68347912D01*
X106665521Y-68338470D01*
X109798985Y-68338470D01*
X111209542Y-69749027D01*
X111223684Y-69734884D01*
X111403290Y-69914490D01*
X111389147Y-69928632D01*
X112799704Y-71339189D01*
X113098931Y-71202382D01*
X113206974Y-71017723D01*
X113406673Y-70267764D01*
X113304175Y-69498470D01*
X112961843Y-68907659D01*
X112964242Y-68910058D01*
X113517909Y-69280007D01*
X114391523Y-69453780D01*
X115099541Y-69312946D01*
X115382982Y-69596387D01*
X115439554Y-69681053D01*
X115617571Y-69800000D01*
X115774964Y-69905167D01*
X116170607Y-69983865D01*
X116270475Y-69964000D01*
X142086206Y-69964000D01*
X142122581Y-70146870D01*
X142319067Y-70440933D01*
X142613130Y-70637419D01*
X142960000Y-70706416D01*
X144660000Y-70706416D01*
X145006870Y-70637419D01*
X145300933Y-70440933D01*
X145497419Y-70146870D01*
X145566416Y-69800000D01*
X145566416Y-68100000D01*
X145497419Y-67753130D01*
X145300933Y-67459067D01*
X145006870Y-67262581D01*
X145004087Y-67262027D01*
X145081645Y-67176924D01*
X145251476Y-66766890D01*
X145130155Y-66537000D01*
X143937000Y-66537000D01*
X143937000Y-66557000D01*
X143683000Y-66557000D01*
X143683000Y-66537000D01*
X142489845Y-66537000D01*
X142368524Y-66766890D01*
X142538355Y-67176924D01*
X142615913Y-67262027D01*
X142613130Y-67262581D01*
X142319067Y-67459067D01*
X142122581Y-67753130D01*
X142086206Y-67936000D01*
X116590619Y-67936000D01*
X116533553Y-67878934D01*
X116674387Y-67170916D01*
X116500614Y-66297302D01*
X116130665Y-65743635D01*
X116128266Y-65741236D01*
X116719077Y-66083568D01*
X117488371Y-66186066D01*
X117987680Y-66053110D01*
X142368524Y-66053110D01*
X142489845Y-66283000D01*
X143683000Y-66283000D01*
X143683000Y-65089181D01*
X143937000Y-65089181D01*
X143937000Y-66283000D01*
X145130155Y-66283000D01*
X145251476Y-66053110D01*
X145081645Y-65643076D01*
X144691358Y-65214817D01*
X144166892Y-64968514D01*
X143937000Y-65089181D01*
X143683000Y-65089181D01*
X143453108Y-64968514D01*
X142928642Y-65214817D01*
X142538355Y-65643076D01*
X142368524Y-66053110D01*
X117987680Y-66053110D01*
X118238330Y-65986367D01*
X118422989Y-65878324D01*
X118559796Y-65579097D01*
X117149239Y-64168540D01*
X117135097Y-64182683D01*
X116955491Y-64003077D01*
X116969634Y-63988935D01*
X117328844Y-63988935D01*
X118739401Y-65399492D01*
X119038628Y-65262685D01*
X119146671Y-65078026D01*
X119346370Y-64328067D01*
X119243872Y-63558773D01*
X118854781Y-62887263D01*
X118642649Y-62675131D01*
X117328844Y-63988935D01*
X116969634Y-63988935D01*
X115559077Y-62578378D01*
X115259850Y-62715185D01*
X115151807Y-62899844D01*
X114952108Y-63649803D01*
X115054606Y-64419097D01*
X115396938Y-65009908D01*
X115394540Y-65007510D01*
X114840873Y-64637562D01*
X113967259Y-64463788D01*
X113093645Y-64637562D01*
X112353031Y-65132424D01*
X111858169Y-65873038D01*
X111684395Y-66746652D01*
X111858169Y-67620266D01*
X112228117Y-68173933D01*
X112230515Y-68176331D01*
X111639704Y-67833999D01*
X110870410Y-67731501D01*
X110120451Y-67931200D01*
X109935792Y-68039243D01*
X109798985Y-68338470D01*
X106665521Y-68338470D01*
X106301880Y-67794245D01*
X106299480Y-67791845D01*
X106890293Y-68134178D01*
X107659587Y-68236676D01*
X108409546Y-68036977D01*
X108594205Y-67928934D01*
X108731012Y-67629707D01*
X107320455Y-66219150D01*
X107306313Y-66233293D01*
X107126708Y-66053688D01*
X107140850Y-66039545D01*
X105730293Y-64628988D01*
X105431066Y-64765795D01*
X105323023Y-64950454D01*
X105123324Y-65700413D01*
X105225822Y-66469707D01*
X105568155Y-67060520D01*
X105565755Y-67058120D01*
X105012088Y-66688172D01*
X104138474Y-66514398D01*
X103264860Y-66688172D01*
X102524246Y-67183034D01*
X102029384Y-67923648D01*
X101855610Y-68797262D01*
X101971265Y-69378695D01*
X101809559Y-69216989D01*
X101515496Y-69020503D01*
X101168626Y-68951506D01*
X100821756Y-69020503D01*
X100527693Y-69216989D01*
X98618505Y-71126177D01*
X98422019Y-71420240D01*
X98353022Y-71767110D01*
X97166336Y-71767110D01*
X104484063Y-64449383D01*
X105909898Y-64449383D01*
X107320455Y-65859940D01*
X107334598Y-65845798D01*
X107514203Y-66025403D01*
X107500060Y-66039545D01*
X108910617Y-67450102D01*
X109209844Y-67313295D01*
X109317887Y-67128636D01*
X109517586Y-66378677D01*
X109415088Y-65609383D01*
X109072758Y-65018575D01*
X109075154Y-65020971D01*
X109628821Y-65390920D01*
X110502435Y-65564693D01*
X111376049Y-65390920D01*
X112116663Y-64896057D01*
X112611526Y-64155443D01*
X112785299Y-63281829D01*
X112611526Y-62408215D01*
X112605218Y-62398773D01*
X115738682Y-62398773D01*
X117149239Y-63809330D01*
X118446071Y-62512497D01*
X118805284Y-62512497D01*
X119017416Y-62724629D01*
X119688926Y-63113720D01*
X120458220Y-63216218D01*
X121208179Y-63016519D01*
X121392838Y-62908476D01*
X121529645Y-62609249D01*
X120119088Y-61198692D01*
X118805284Y-62512497D01*
X118446071Y-62512497D01*
X118463043Y-62495525D01*
X118250911Y-62283393D01*
X117579401Y-61894302D01*
X116810107Y-61791804D01*
X116060148Y-61991503D01*
X115875489Y-62099546D01*
X115738682Y-62398773D01*
X112605218Y-62398773D01*
X112241577Y-61854548D01*
X112239177Y-61852148D01*
X112829990Y-62194481D01*
X113599284Y-62296979D01*
X114349243Y-62097280D01*
X114533902Y-61989237D01*
X114670709Y-61690010D01*
X113260152Y-60279453D01*
X113246010Y-60293596D01*
X113066405Y-60113991D01*
X113080547Y-60099848D01*
X111669990Y-58689291D01*
X111370763Y-58826098D01*
X111262720Y-59010757D01*
X111063021Y-59760716D01*
X111165519Y-60530010D01*
X111507852Y-61120823D01*
X111505452Y-61118423D01*
X110951785Y-60748475D01*
X110078171Y-60574701D01*
X109204557Y-60748475D01*
X108463943Y-61243337D01*
X107969081Y-61983951D01*
X107795307Y-62857565D01*
X107969081Y-63731179D01*
X108339029Y-64284846D01*
X108341425Y-64287242D01*
X107750617Y-63944912D01*
X106981323Y-63842414D01*
X106231364Y-64042113D01*
X106046705Y-64150156D01*
X105909898Y-64449383D01*
X104484063Y-64449383D01*
X114706001Y-54227446D01*
X114706000Y-55101609D01*
X114403640Y-55303640D01*
X113908778Y-56044254D01*
X113735004Y-56917868D01*
X113908778Y-57791482D01*
X114278726Y-58345149D01*
X114281122Y-58347545D01*
X113690314Y-58005215D01*
X112921020Y-57902717D01*
X112171061Y-58102416D01*
X111986402Y-58210459D01*
X111849595Y-58509686D01*
X113260152Y-59920243D01*
X113274295Y-59906101D01*
X113453900Y-60085706D01*
X113439757Y-60099848D01*
X114850314Y-61510405D01*
X115149541Y-61373598D01*
X115257584Y-61188939D01*
X115393116Y-60679955D01*
X117921957Y-60679955D01*
X118024455Y-61449249D01*
X118413546Y-62120759D01*
X118625678Y-62332891D01*
X119939483Y-61019087D01*
X120298693Y-61019087D01*
X121709250Y-62429644D01*
X122008477Y-62292837D01*
X122116520Y-62108178D01*
X122316219Y-61358219D01*
X122213721Y-60588925D01*
X121824630Y-59917415D01*
X121612498Y-59705283D01*
X120298693Y-61019087D01*
X119939483Y-61019087D01*
X118528926Y-59608530D01*
X118229699Y-59745337D01*
X118121656Y-59929996D01*
X117921957Y-60679955D01*
X115393116Y-60679955D01*
X115457283Y-60438980D01*
X115354785Y-59669686D01*
X115012455Y-59078878D01*
X115014851Y-59081274D01*
X115568518Y-59451223D01*
X116442132Y-59624996D01*
X117315746Y-59451223D01*
X117349117Y-59428925D01*
X118708531Y-59428925D01*
X120119088Y-60839482D01*
X121415921Y-59542648D01*
X121775132Y-59542648D01*
X121987264Y-59754780D01*
X122658774Y-60143871D01*
X123428068Y-60246369D01*
X124178027Y-60046670D01*
X124362686Y-59938627D01*
X124499493Y-59639400D01*
X123088936Y-58228843D01*
X121775132Y-59542648D01*
X121415921Y-59542648D01*
X121432892Y-59525677D01*
X121220760Y-59313545D01*
X120549250Y-58924454D01*
X119779956Y-58821956D01*
X119029997Y-59021655D01*
X118845338Y-59129698D01*
X118708531Y-59428925D01*
X117349117Y-59428925D01*
X118056360Y-58956360D01*
X118551223Y-58215746D01*
X118651801Y-57710106D01*
X120891805Y-57710106D01*
X120994303Y-58479400D01*
X121383394Y-59150910D01*
X121595526Y-59363042D01*
X122909331Y-58049238D01*
X121498774Y-56638681D01*
X121199547Y-56775488D01*
X121091504Y-56960147D01*
X120891805Y-57710106D01*
X118651801Y-57710106D01*
X118724996Y-57342132D01*
X118551223Y-56468518D01*
X118181274Y-55914851D01*
X118178874Y-55912451D01*
X118769687Y-56254784D01*
X119538981Y-56357282D01*
X120288940Y-56157583D01*
X120473599Y-56049540D01*
X120610406Y-55750313D01*
X119199849Y-54339756D01*
X119185707Y-54353899D01*
X119006101Y-54174293D01*
X119020244Y-54160151D01*
X119006102Y-54146009D01*
X119185707Y-53966404D01*
X119199849Y-53980546D01*
X119213992Y-53966404D01*
X119393597Y-54146009D01*
X119379454Y-54160151D01*
X120790011Y-55570708D01*
X121089238Y-55433901D01*
X121197281Y-55249242D01*
X121396980Y-54499283D01*
X121294482Y-53729989D01*
X120952152Y-53139181D01*
X120954548Y-53141577D01*
X121508215Y-53511526D01*
X122381829Y-53685299D01*
X123255443Y-53511526D01*
X123996057Y-53016663D01*
X124490920Y-52276049D01*
X124664693Y-51402435D01*
X124494112Y-50544869D01*
X125351678Y-50715450D01*
X126225292Y-50541677D01*
X126965906Y-50046814D01*
X127460769Y-49306200D01*
X127634542Y-48432586D01*
X127463961Y-47575021D01*
X128321526Y-47745602D01*
X129195140Y-47571829D01*
X129935754Y-47076966D01*
X130430617Y-46336352D01*
X130474482Y-46115826D01*
X130474483Y-47111302D01*
X130172122Y-47313333D01*
X129677260Y-48053947D01*
X129503486Y-48927561D01*
X129595047Y-49387865D01*
X129276806Y-49706106D01*
X128816501Y-49614545D01*
X127942887Y-49788319D01*
X127202273Y-50283181D01*
X126707411Y-51023795D01*
X126533637Y-51897409D01*
X126704219Y-52754976D01*
X125846653Y-52584394D01*
X124973039Y-52758168D01*
X124232425Y-53253030D01*
X123737563Y-53993644D01*
X123563789Y-54867258D01*
X123737563Y-55740872D01*
X124107511Y-56294539D01*
X124109909Y-56296937D01*
X123519098Y-55954605D01*
X122749804Y-55852107D01*
X121999845Y-56051806D01*
X121815186Y-56159849D01*
X121678379Y-56459076D01*
X123088936Y-57869633D01*
X123103078Y-57855490D01*
X123282684Y-58035096D01*
X123268541Y-58049238D01*
X124679098Y-59459795D01*
X124978325Y-59322988D01*
X125086368Y-59138329D01*
X125241497Y-58555750D01*
X142325000Y-58555750D01*
X142325000Y-59246310D01*
X142421673Y-59479699D01*
X142600302Y-59658327D01*
X142833691Y-59755000D01*
X143524250Y-59755000D01*
X143683000Y-59596250D01*
X143683000Y-58397000D01*
X143937000Y-58397000D01*
X143937000Y-59596250D01*
X144095750Y-59755000D01*
X144786309Y-59755000D01*
X145019698Y-59658327D01*
X145198327Y-59479699D01*
X145295000Y-59246310D01*
X145295000Y-58555750D01*
X145136250Y-58397000D01*
X143937000Y-58397000D01*
X143683000Y-58397000D01*
X142483750Y-58397000D01*
X142325000Y-58555750D01*
X125241497Y-58555750D01*
X125286067Y-58388370D01*
X125183569Y-57619076D01*
X124841237Y-57028265D01*
X124843636Y-57030664D01*
X125397303Y-57400613D01*
X126270917Y-57574386D01*
X127144531Y-57400613D01*
X127885145Y-56905750D01*
X128380008Y-56165136D01*
X128466562Y-55730000D01*
X142036931Y-55730000D01*
X142171898Y-56408524D01*
X142533009Y-56948965D01*
X142421673Y-57060301D01*
X142325000Y-57293690D01*
X142325000Y-57984250D01*
X142483750Y-58143000D01*
X143683000Y-58143000D01*
X143683000Y-58123000D01*
X143937000Y-58123000D01*
X143937000Y-58143000D01*
X145136250Y-58143000D01*
X145295000Y-57984250D01*
X145295000Y-57293690D01*
X145198327Y-57060301D01*
X145086991Y-56948965D01*
X145448102Y-56408524D01*
X145583069Y-55730000D01*
X145448102Y-55051476D01*
X145063749Y-54476251D01*
X144780714Y-54287133D01*
X145081645Y-53956924D01*
X145251476Y-53546890D01*
X145130155Y-53317000D01*
X143937000Y-53317000D01*
X143937000Y-53337000D01*
X143683000Y-53337000D01*
X143683000Y-53317000D01*
X142489845Y-53317000D01*
X142368524Y-53546890D01*
X142538355Y-53956924D01*
X142839286Y-54287133D01*
X142556251Y-54476251D01*
X142171898Y-55051476D01*
X142036931Y-55730000D01*
X128466562Y-55730000D01*
X128553781Y-55291522D01*
X128383200Y-54433956D01*
X129240765Y-54604537D01*
X130114379Y-54430764D01*
X130854993Y-53935901D01*
X131349856Y-53195287D01*
X131421897Y-52833110D01*
X142368524Y-52833110D01*
X142489845Y-53063000D01*
X143683000Y-53063000D01*
X143683000Y-51869181D01*
X143937000Y-51869181D01*
X143937000Y-53063000D01*
X145130155Y-53063000D01*
X145251476Y-52833110D01*
X145081645Y-52423076D01*
X144691358Y-51994817D01*
X144166892Y-51748514D01*
X143937000Y-51869181D01*
X143683000Y-51869181D01*
X143453108Y-51748514D01*
X142928642Y-51994817D01*
X142538355Y-52423076D01*
X142368524Y-52833110D01*
X131421897Y-52833110D01*
X131523629Y-52321673D01*
X131432068Y-51861367D01*
X131750307Y-51543128D01*
X132210614Y-51634689D01*
X133084228Y-51460916D01*
X133824842Y-50966053D01*
X134319705Y-50225439D01*
X134493478Y-49351825D01*
X134319705Y-48478211D01*
X133949756Y-47924544D01*
X133522482Y-47497270D01*
X133522482Y-47395446D01*
X133643354Y-47516318D01*
X134521412Y-47880022D01*
X135471816Y-47880022D01*
X136349874Y-47516318D01*
X137021910Y-46844282D01*
X137385614Y-45966224D01*
X137385614Y-45015820D01*
X137021910Y-44137762D01*
X136349874Y-43465726D01*
X135471816Y-43102022D01*
X134521412Y-43102022D01*
X133643354Y-43465726D01*
X133522482Y-43586598D01*
X133522482Y-43498573D01*
X133552337Y-43348481D01*
X133522482Y-43198389D01*
X133522482Y-43198385D01*
X133434058Y-42753847D01*
X133097224Y-42249740D01*
X132969980Y-42164719D01*
X132130366Y-41325105D01*
X132045343Y-41197859D01*
X131541236Y-40861025D01*
X131096698Y-40772601D01*
X131096693Y-40772601D01*
X130946601Y-40742746D01*
X130796509Y-40772601D01*
X128160846Y-40772601D01*
X132461000Y-36472447D01*
X145823001Y-49834448D01*
X145823001Y-49834448D01*
G37*
X145823001Y-49834448D02*
X145823000Y-83596000D01*
X107389572Y-83596000D01*
X107389572Y-83693000D01*
X107175399Y-83693000D01*
X107118354Y-83406217D01*
X106955905Y-83163095D01*
X106712783Y-83000646D01*
X106498388Y-82958000D01*
X106426000Y-82943601D01*
X106353612Y-82958000D01*
X96112000Y-82958000D01*
X96112000Y-78391260D01*
X99232174Y-78391260D01*
X99232174Y-79341664D01*
X99595878Y-80219722D01*
X100267914Y-80891758D01*
X101145972Y-81255462D01*
X102096376Y-81255462D01*
X102974434Y-80891758D01*
X103646470Y-80219722D01*
X104010174Y-79341664D01*
X104010174Y-78391260D01*
X103646470Y-77513202D01*
X102974434Y-76841166D01*
X102096376Y-76477462D01*
X101145972Y-76477462D01*
X100267914Y-76841166D01*
X99595878Y-77513202D01*
X99232174Y-78391260D01*
X96112000Y-78391260D01*
X96112000Y-75656197D01*
X102774849Y-75656197D01*
X102948623Y-76529811D01*
X103318571Y-77083478D01*
X104054696Y-77819603D01*
X104608363Y-78189552D01*
X105481977Y-78363325D01*
X106355591Y-78189552D01*
X107096205Y-77694689D01*
X107591068Y-76954075D01*
X107764841Y-76080461D01*
X107594260Y-75222896D01*
X108451826Y-75393477D01*
X109325440Y-75219704D01*
X110066054Y-74724841D01*
X110560917Y-73984227D01*
X110734690Y-73110613D01*
X110560917Y-72236999D01*
X110190968Y-71683332D01*
X110188569Y-71680933D01*
X110779380Y-72023265D01*
X111548674Y-72125763D01*
X112298633Y-71926064D01*
X112483292Y-71818021D01*
X112620099Y-71518794D01*
X111209542Y-70108237D01*
X111195400Y-70122380D01*
X111015794Y-69942774D01*
X111029937Y-69928632D01*
X109619380Y-68518075D01*
X109320153Y-68654882D01*
X109212110Y-68839541D01*
X109012411Y-69589500D01*
X109114909Y-70358794D01*
X109457241Y-70949605D01*
X109454843Y-70947207D01*
X108901176Y-70577259D01*
X108027562Y-70403485D01*
X107153948Y-70577259D01*
X106413334Y-71072121D01*
X105918472Y-71812735D01*
X105744698Y-72686349D01*
X105915280Y-73543915D01*
X105057713Y-73373333D01*
X104184099Y-73547107D01*
X103443485Y-74041969D01*
X102948623Y-74782583D01*
X102774849Y-75656197D01*
X96112000Y-75656197D01*
X96112000Y-72821446D01*
X97166336Y-71767110D01*
X98353022Y-71767110D01*
X98422019Y-72113980D01*
X98618505Y-72408043D01*
X100951957Y-74741495D01*
X101246020Y-74937981D01*
X101592890Y-75006978D01*
X101939760Y-74937981D01*
X102233823Y-74741495D01*
X104143011Y-72832307D01*
X104339497Y-72538244D01*
X104408494Y-72191374D01*
X104339497Y-71844504D01*
X104143011Y-71550441D01*
X103981306Y-71388736D01*
X104562738Y-71504390D01*
X105436352Y-71330617D01*
X106176966Y-70835754D01*
X106671829Y-70095140D01*
X106845602Y-69221526D01*
X106671829Y-68347912D01*
X106665521Y-68338470D01*
X109798985Y-68338470D01*
X111209542Y-69749027D01*
X111223684Y-69734884D01*
X111403290Y-69914490D01*
X111389147Y-69928632D01*
X112799704Y-71339189D01*
X113098931Y-71202382D01*
X113206974Y-71017723D01*
X113406673Y-70267764D01*
X113304175Y-69498470D01*
X112961843Y-68907659D01*
X112964242Y-68910058D01*
X113517909Y-69280007D01*
X114391523Y-69453780D01*
X115099541Y-69312946D01*
X115382982Y-69596387D01*
X115439554Y-69681053D01*
X115617571Y-69800000D01*
X115774964Y-69905167D01*
X116170607Y-69983865D01*
X116270475Y-69964000D01*
X142086206Y-69964000D01*
X142122581Y-70146870D01*
X142319067Y-70440933D01*
X142613130Y-70637419D01*
X142960000Y-70706416D01*
X144660000Y-70706416D01*
X145006870Y-70637419D01*
X145300933Y-70440933D01*
X145497419Y-70146870D01*
X145566416Y-69800000D01*
X145566416Y-68100000D01*
X145497419Y-67753130D01*
X145300933Y-67459067D01*
X145006870Y-67262581D01*
X145004087Y-67262027D01*
X145081645Y-67176924D01*
X145251476Y-66766890D01*
X145130155Y-66537000D01*
X143937000Y-66537000D01*
X143937000Y-66557000D01*
X143683000Y-66557000D01*
X143683000Y-66537000D01*
X142489845Y-66537000D01*
X142368524Y-66766890D01*
X142538355Y-67176924D01*
X142615913Y-67262027D01*
X142613130Y-67262581D01*
X142319067Y-67459067D01*
X142122581Y-67753130D01*
X142086206Y-67936000D01*
X116590619Y-67936000D01*
X116533553Y-67878934D01*
X116674387Y-67170916D01*
X116500614Y-66297302D01*
X116130665Y-65743635D01*
X116128266Y-65741236D01*
X116719077Y-66083568D01*
X117488371Y-66186066D01*
X117987680Y-66053110D01*
X142368524Y-66053110D01*
X142489845Y-66283000D01*
X143683000Y-66283000D01*
X143683000Y-65089181D01*
X143937000Y-65089181D01*
X143937000Y-66283000D01*
X145130155Y-66283000D01*
X145251476Y-66053110D01*
X145081645Y-65643076D01*
X144691358Y-65214817D01*
X144166892Y-64968514D01*
X143937000Y-65089181D01*
X143683000Y-65089181D01*
X143453108Y-64968514D01*
X142928642Y-65214817D01*
X142538355Y-65643076D01*
X142368524Y-66053110D01*
X117987680Y-66053110D01*
X118238330Y-65986367D01*
X118422989Y-65878324D01*
X118559796Y-65579097D01*
X117149239Y-64168540D01*
X117135097Y-64182683D01*
X116955491Y-64003077D01*
X116969634Y-63988935D01*
X117328844Y-63988935D01*
X118739401Y-65399492D01*
X119038628Y-65262685D01*
X119146671Y-65078026D01*
X119346370Y-64328067D01*
X119243872Y-63558773D01*
X118854781Y-62887263D01*
X118642649Y-62675131D01*
X117328844Y-63988935D01*
X116969634Y-63988935D01*
X115559077Y-62578378D01*
X115259850Y-62715185D01*
X115151807Y-62899844D01*
X114952108Y-63649803D01*
X115054606Y-64419097D01*
X115396938Y-65009908D01*
X115394540Y-65007510D01*
X114840873Y-64637562D01*
X113967259Y-64463788D01*
X113093645Y-64637562D01*
X112353031Y-65132424D01*
X111858169Y-65873038D01*
X111684395Y-66746652D01*
X111858169Y-67620266D01*
X112228117Y-68173933D01*
X112230515Y-68176331D01*
X111639704Y-67833999D01*
X110870410Y-67731501D01*
X110120451Y-67931200D01*
X109935792Y-68039243D01*
X109798985Y-68338470D01*
X106665521Y-68338470D01*
X106301880Y-67794245D01*
X106299480Y-67791845D01*
X106890293Y-68134178D01*
X107659587Y-68236676D01*
X108409546Y-68036977D01*
X108594205Y-67928934D01*
X108731012Y-67629707D01*
X107320455Y-66219150D01*
X107306313Y-66233293D01*
X107126708Y-66053688D01*
X107140850Y-66039545D01*
X105730293Y-64628988D01*
X105431066Y-64765795D01*
X105323023Y-64950454D01*
X105123324Y-65700413D01*
X105225822Y-66469707D01*
X105568155Y-67060520D01*
X105565755Y-67058120D01*
X105012088Y-66688172D01*
X104138474Y-66514398D01*
X103264860Y-66688172D01*
X102524246Y-67183034D01*
X102029384Y-67923648D01*
X101855610Y-68797262D01*
X101971265Y-69378695D01*
X101809559Y-69216989D01*
X101515496Y-69020503D01*
X101168626Y-68951506D01*
X100821756Y-69020503D01*
X100527693Y-69216989D01*
X98618505Y-71126177D01*
X98422019Y-71420240D01*
X98353022Y-71767110D01*
X97166336Y-71767110D01*
X104484063Y-64449383D01*
X105909898Y-64449383D01*
X107320455Y-65859940D01*
X107334598Y-65845798D01*
X107514203Y-66025403D01*
X107500060Y-66039545D01*
X108910617Y-67450102D01*
X109209844Y-67313295D01*
X109317887Y-67128636D01*
X109517586Y-66378677D01*
X109415088Y-65609383D01*
X109072758Y-65018575D01*
X109075154Y-65020971D01*
X109628821Y-65390920D01*
X110502435Y-65564693D01*
X111376049Y-65390920D01*
X112116663Y-64896057D01*
X112611526Y-64155443D01*
X112785299Y-63281829D01*
X112611526Y-62408215D01*
X112605218Y-62398773D01*
X115738682Y-62398773D01*
X117149239Y-63809330D01*
X118446071Y-62512497D01*
X118805284Y-62512497D01*
X119017416Y-62724629D01*
X119688926Y-63113720D01*
X120458220Y-63216218D01*
X121208179Y-63016519D01*
X121392838Y-62908476D01*
X121529645Y-62609249D01*
X120119088Y-61198692D01*
X118805284Y-62512497D01*
X118446071Y-62512497D01*
X118463043Y-62495525D01*
X118250911Y-62283393D01*
X117579401Y-61894302D01*
X116810107Y-61791804D01*
X116060148Y-61991503D01*
X115875489Y-62099546D01*
X115738682Y-62398773D01*
X112605218Y-62398773D01*
X112241577Y-61854548D01*
X112239177Y-61852148D01*
X112829990Y-62194481D01*
X113599284Y-62296979D01*
X114349243Y-62097280D01*
X114533902Y-61989237D01*
X114670709Y-61690010D01*
X113260152Y-60279453D01*
X113246010Y-60293596D01*
X113066405Y-60113991D01*
X113080547Y-60099848D01*
X111669990Y-58689291D01*
X111370763Y-58826098D01*
X111262720Y-59010757D01*
X111063021Y-59760716D01*
X111165519Y-60530010D01*
X111507852Y-61120823D01*
X111505452Y-61118423D01*
X110951785Y-60748475D01*
X110078171Y-60574701D01*
X109204557Y-60748475D01*
X108463943Y-61243337D01*
X107969081Y-61983951D01*
X107795307Y-62857565D01*
X107969081Y-63731179D01*
X108339029Y-64284846D01*
X108341425Y-64287242D01*
X107750617Y-63944912D01*
X106981323Y-63842414D01*
X106231364Y-64042113D01*
X106046705Y-64150156D01*
X105909898Y-64449383D01*
X104484063Y-64449383D01*
X114706001Y-54227446D01*
X114706000Y-55101609D01*
X114403640Y-55303640D01*
X113908778Y-56044254D01*
X113735004Y-56917868D01*
X113908778Y-57791482D01*
X114278726Y-58345149D01*
X114281122Y-58347545D01*
X113690314Y-58005215D01*
X112921020Y-57902717D01*
X112171061Y-58102416D01*
X111986402Y-58210459D01*
X111849595Y-58509686D01*
X113260152Y-59920243D01*
X113274295Y-59906101D01*
X113453900Y-60085706D01*
X113439757Y-60099848D01*
X114850314Y-61510405D01*
X115149541Y-61373598D01*
X115257584Y-61188939D01*
X115393116Y-60679955D01*
X117921957Y-60679955D01*
X118024455Y-61449249D01*
X118413546Y-62120759D01*
X118625678Y-62332891D01*
X119939483Y-61019087D01*
X120298693Y-61019087D01*
X121709250Y-62429644D01*
X122008477Y-62292837D01*
X122116520Y-62108178D01*
X122316219Y-61358219D01*
X122213721Y-60588925D01*
X121824630Y-59917415D01*
X121612498Y-59705283D01*
X120298693Y-61019087D01*
X119939483Y-61019087D01*
X118528926Y-59608530D01*
X118229699Y-59745337D01*
X118121656Y-59929996D01*
X117921957Y-60679955D01*
X115393116Y-60679955D01*
X115457283Y-60438980D01*
X115354785Y-59669686D01*
X115012455Y-59078878D01*
X115014851Y-59081274D01*
X115568518Y-59451223D01*
X116442132Y-59624996D01*
X117315746Y-59451223D01*
X117349117Y-59428925D01*
X118708531Y-59428925D01*
X120119088Y-60839482D01*
X121415921Y-59542648D01*
X121775132Y-59542648D01*
X121987264Y-59754780D01*
X122658774Y-60143871D01*
X123428068Y-60246369D01*
X124178027Y-60046670D01*
X124362686Y-59938627D01*
X124499493Y-59639400D01*
X123088936Y-58228843D01*
X121775132Y-59542648D01*
X121415921Y-59542648D01*
X121432892Y-59525677D01*
X121220760Y-59313545D01*
X120549250Y-58924454D01*
X119779956Y-58821956D01*
X119029997Y-59021655D01*
X118845338Y-59129698D01*
X118708531Y-59428925D01*
X117349117Y-59428925D01*
X118056360Y-58956360D01*
X118551223Y-58215746D01*
X118651801Y-57710106D01*
X120891805Y-57710106D01*
X120994303Y-58479400D01*
X121383394Y-59150910D01*
X121595526Y-59363042D01*
X122909331Y-58049238D01*
X121498774Y-56638681D01*
X121199547Y-56775488D01*
X121091504Y-56960147D01*
X120891805Y-57710106D01*
X118651801Y-57710106D01*
X118724996Y-57342132D01*
X118551223Y-56468518D01*
X118181274Y-55914851D01*
X118178874Y-55912451D01*
X118769687Y-56254784D01*
X119538981Y-56357282D01*
X120288940Y-56157583D01*
X120473599Y-56049540D01*
X120610406Y-55750313D01*
X119199849Y-54339756D01*
X119185707Y-54353899D01*
X119006101Y-54174293D01*
X119020244Y-54160151D01*
X119006102Y-54146009D01*
X119185707Y-53966404D01*
X119199849Y-53980546D01*
X119213992Y-53966404D01*
X119393597Y-54146009D01*
X119379454Y-54160151D01*
X120790011Y-55570708D01*
X121089238Y-55433901D01*
X121197281Y-55249242D01*
X121396980Y-54499283D01*
X121294482Y-53729989D01*
X120952152Y-53139181D01*
X120954548Y-53141577D01*
X121508215Y-53511526D01*
X122381829Y-53685299D01*
X123255443Y-53511526D01*
X123996057Y-53016663D01*
X124490920Y-52276049D01*
X124664693Y-51402435D01*
X124494112Y-50544869D01*
X125351678Y-50715450D01*
X126225292Y-50541677D01*
X126965906Y-50046814D01*
X127460769Y-49306200D01*
X127634542Y-48432586D01*
X127463961Y-47575021D01*
X128321526Y-47745602D01*
X129195140Y-47571829D01*
X129935754Y-47076966D01*
X130430617Y-46336352D01*
X130474482Y-46115826D01*
X130474483Y-47111302D01*
X130172122Y-47313333D01*
X129677260Y-48053947D01*
X129503486Y-48927561D01*
X129595047Y-49387865D01*
X129276806Y-49706106D01*
X128816501Y-49614545D01*
X127942887Y-49788319D01*
X127202273Y-50283181D01*
X126707411Y-51023795D01*
X126533637Y-51897409D01*
X126704219Y-52754976D01*
X125846653Y-52584394D01*
X124973039Y-52758168D01*
X124232425Y-53253030D01*
X123737563Y-53993644D01*
X123563789Y-54867258D01*
X123737563Y-55740872D01*
X124107511Y-56294539D01*
X124109909Y-56296937D01*
X123519098Y-55954605D01*
X122749804Y-55852107D01*
X121999845Y-56051806D01*
X121815186Y-56159849D01*
X121678379Y-56459076D01*
X123088936Y-57869633D01*
X123103078Y-57855490D01*
X123282684Y-58035096D01*
X123268541Y-58049238D01*
X124679098Y-59459795D01*
X124978325Y-59322988D01*
X125086368Y-59138329D01*
X125241497Y-58555750D01*
X142325000Y-58555750D01*
X142325000Y-59246310D01*
X142421673Y-59479699D01*
X142600302Y-59658327D01*
X142833691Y-59755000D01*
X143524250Y-59755000D01*
X143683000Y-59596250D01*
X143683000Y-58397000D01*
X143937000Y-58397000D01*
X143937000Y-59596250D01*
X144095750Y-59755000D01*
X144786309Y-59755000D01*
X145019698Y-59658327D01*
X145198327Y-59479699D01*
X145295000Y-59246310D01*
X145295000Y-58555750D01*
X145136250Y-58397000D01*
X143937000Y-58397000D01*
X143683000Y-58397000D01*
X142483750Y-58397000D01*
X142325000Y-58555750D01*
X125241497Y-58555750D01*
X125286067Y-58388370D01*
X125183569Y-57619076D01*
X124841237Y-57028265D01*
X124843636Y-57030664D01*
X125397303Y-57400613D01*
X126270917Y-57574386D01*
X127144531Y-57400613D01*
X127885145Y-56905750D01*
X128380008Y-56165136D01*
X128466562Y-55730000D01*
X142036931Y-55730000D01*
X142171898Y-56408524D01*
X142533009Y-56948965D01*
X142421673Y-57060301D01*
X142325000Y-57293690D01*
X142325000Y-57984250D01*
X142483750Y-58143000D01*
X143683000Y-58143000D01*
X143683000Y-58123000D01*
X143937000Y-58123000D01*
X143937000Y-58143000D01*
X145136250Y-58143000D01*
X145295000Y-57984250D01*
X145295000Y-57293690D01*
X145198327Y-57060301D01*
X145086991Y-56948965D01*
X145448102Y-56408524D01*
X145583069Y-55730000D01*
X145448102Y-55051476D01*
X145063749Y-54476251D01*
X144780714Y-54287133D01*
X145081645Y-53956924D01*
X145251476Y-53546890D01*
X145130155Y-53317000D01*
X143937000Y-53317000D01*
X143937000Y-53337000D01*
X143683000Y-53337000D01*
X143683000Y-53317000D01*
X142489845Y-53317000D01*
X142368524Y-53546890D01*
X142538355Y-53956924D01*
X142839286Y-54287133D01*
X142556251Y-54476251D01*
X142171898Y-55051476D01*
X142036931Y-55730000D01*
X128466562Y-55730000D01*
X128553781Y-55291522D01*
X128383200Y-54433956D01*
X129240765Y-54604537D01*
X130114379Y-54430764D01*
X130854993Y-53935901D01*
X131349856Y-53195287D01*
X131421897Y-52833110D01*
X142368524Y-52833110D01*
X142489845Y-53063000D01*
X143683000Y-53063000D01*
X143683000Y-51869181D01*
X143937000Y-51869181D01*
X143937000Y-53063000D01*
X145130155Y-53063000D01*
X145251476Y-52833110D01*
X145081645Y-52423076D01*
X144691358Y-51994817D01*
X144166892Y-51748514D01*
X143937000Y-51869181D01*
X143683000Y-51869181D01*
X143453108Y-51748514D01*
X142928642Y-51994817D01*
X142538355Y-52423076D01*
X142368524Y-52833110D01*
X131421897Y-52833110D01*
X131523629Y-52321673D01*
X131432068Y-51861367D01*
X131750307Y-51543128D01*
X132210614Y-51634689D01*
X133084228Y-51460916D01*
X133824842Y-50966053D01*
X134319705Y-50225439D01*
X134493478Y-49351825D01*
X134319705Y-48478211D01*
X133949756Y-47924544D01*
X133522482Y-47497270D01*
X133522482Y-47395446D01*
X133643354Y-47516318D01*
X134521412Y-47880022D01*
X135471816Y-47880022D01*
X136349874Y-47516318D01*
X137021910Y-46844282D01*
X137385614Y-45966224D01*
X137385614Y-45015820D01*
X137021910Y-44137762D01*
X136349874Y-43465726D01*
X135471816Y-43102022D01*
X134521412Y-43102022D01*
X133643354Y-43465726D01*
X133522482Y-43586598D01*
X133522482Y-43498573D01*
X133552337Y-43348481D01*
X133522482Y-43198389D01*
X133522482Y-43198385D01*
X133434058Y-42753847D01*
X133097224Y-42249740D01*
X132969980Y-42164719D01*
X132130366Y-41325105D01*
X132045343Y-41197859D01*
X131541236Y-40861025D01*
X131096698Y-40772601D01*
X131096693Y-40772601D01*
X130946601Y-40742746D01*
X130796509Y-40772601D01*
X128160846Y-40772601D01*
X132461000Y-36472447D01*
X145823001Y-49834448D01*
G04 #@! TD*
M02*
