M48
;DRILL file {KiCad 5.0.0-fee4fd1~65~ubuntu17.10.1} date Sat Jul 28 17:47:56 2018
;FORMAT={-:-/ absolute / inch / decimal}
FMAT,2
INCH,TZ
T1C0.0250
T2C0.0394
T3C0.0551
%
G90
G05
M72
T1
X4.7311Y-2.9472
X5.4291Y-3.0248
T2
X5.6618Y-2.0941
X5.6618Y-2.1941
X5.6618Y-2.2941
X5.6618Y-2.6146
X5.6618Y-2.7146
T3
X3.9914Y-2.8338
X4.1083Y-2.7169
X4.1445Y-2.9869
X4.2252Y-2.6
X4.2614Y-2.87
X4.3421Y-2.4831
X4.3783Y-2.7531
X4.4591Y-2.3661
X4.4953Y-2.6362
X4.576Y-2.2492
X4.6122Y-2.5192
X4.6929Y-2.1323
X4.7291Y-2.4023
X4.8098Y-2.0154
X4.846Y-2.2854
X4.9268Y-1.8984
X4.9629Y-2.1685
X5.0437Y-1.7815
X5.0799Y-2.0516
X5.1968Y-1.9346
T0
M30
