G04 #@! TF.GenerationSoftware,KiCad,Pcbnew,5.0.0-fee4fd1~65~ubuntu17.10.1*
G04 #@! TF.CreationDate,2018-07-28T17:47:53-07:00*
G04 #@! TF.ProjectId,_autosave-ATX2PCjr,5F6175746F736176652D415458325043,rev?*
G04 #@! TF.SameCoordinates,Original*
G04 #@! TF.FileFunction,Soldermask,Bot*
G04 #@! TF.FilePolarity,Negative*
%FSLAX46Y46*%
G04 Gerber Fmt 4.6, Leading zero omitted, Abs format (unit mm)*
G04 Created by KiCad (PCBNEW 5.0.0-fee4fd1~65~ubuntu17.10.1) date Sat Jul 28 17:47:53 2018*
%MOMM*%
%LPD*%
G01*
G04 APERTURE LIST*
%ADD10C,3.100000*%
%ADD11C,0.100000*%
%ADD12C,3.100000*%
%ADD13C,3.400000*%
%ADD14R,2.100000X2.100000*%
%ADD15O,2.100000X2.100000*%
G04 APERTURE END LIST*
D10*
G04 #@! TO.C,J1*
X101380758Y-71979242D03*
D11*
G36*
X101592890Y-74383405D02*
X98976595Y-71767110D01*
X101168626Y-69575079D01*
X103784921Y-72191374D01*
X101592890Y-74383405D01*
X101592890Y-74383405D01*
G37*
D10*
X104350606Y-69009394D03*
D12*
X104138474Y-68797262D02*
X104562738Y-69221526D01*
D10*
X107320455Y-66039545D03*
D12*
X107108323Y-65827413D02*
X107532587Y-66251677D01*
D10*
X110290303Y-63069697D03*
D12*
X110078171Y-62857565D02*
X110502435Y-63281829D01*
D10*
X113260152Y-60099848D03*
D12*
X113048020Y-59887716D02*
X113472284Y-60311980D01*
D10*
X116230000Y-57130000D03*
D12*
X116017868Y-56917868D02*
X116442132Y-57342132D01*
D10*
X119199849Y-54160151D03*
D12*
X118987717Y-53948019D02*
X119411981Y-54372283D01*
D10*
X122169697Y-51190303D03*
D12*
X121957565Y-50978171D02*
X122381829Y-51402435D01*
D10*
X125139546Y-48220454D03*
D12*
X124927414Y-48008322D02*
X125351678Y-48432586D01*
D10*
X128109394Y-45250606D03*
D12*
X127897262Y-45038474D02*
X128321526Y-45462738D01*
D10*
X105269845Y-75868329D03*
D12*
X105057713Y-75656197D02*
X105481977Y-76080461D01*
D10*
X108239694Y-72898481D03*
D12*
X108027562Y-72686349D02*
X108451826Y-73110613D01*
D10*
X111209542Y-69928632D03*
D12*
X110997410Y-69716500D02*
X111421674Y-70140764D01*
D10*
X114179391Y-66958784D03*
D12*
X113967259Y-66746652D02*
X114391523Y-67170916D01*
D10*
X117149239Y-63988935D03*
D12*
X116937107Y-63776803D02*
X117361371Y-64201067D01*
D10*
X120119088Y-61019087D03*
D12*
X119906956Y-60806955D02*
X120331220Y-61231219D01*
D10*
X123088936Y-58049238D03*
D12*
X122876804Y-57837106D02*
X123301068Y-58261370D01*
D10*
X126058785Y-55079390D03*
D12*
X125846653Y-54867258D02*
X126270917Y-55291522D01*
D10*
X129028633Y-52109541D03*
D12*
X128816501Y-51897409D02*
X129240765Y-52321673D01*
D10*
X131998482Y-49139693D03*
D12*
X131786350Y-48927561D02*
X132210614Y-49351825D01*
D13*
X101621174Y-78866462D03*
X134996614Y-45491022D03*
G04 #@! TD*
D14*
G04 #@! TO.C,J3*
X143810000Y-68950000D03*
D15*
X143810000Y-66410000D03*
G04 #@! TD*
D14*
G04 #@! TO.C,J4*
X143810000Y-58270000D03*
D15*
X143810000Y-55730000D03*
X143810000Y-53190000D03*
G04 #@! TD*
M02*
